<svg width="609" height="440" viewBox="0 0 609 440" fill="none" xmlns="http://www.w3.org/2000/svg">
<g clip-path="url(#clip0_743_10344)">
<path d="M0 4.98438C0 2.77524 1.79086 0.984375 4 0.984375H604.333C606.542 0.984375 608.333 2.77524 608.333 4.98438V435.207C608.333 437.416 606.542 439.207 604.333 439.207H4C1.79086 439.207 0 437.416 0 435.207V4.98438Z" fill="#242643"/>
<g clip-path="url(#clip1_743_10344)">
<path d="M663.745 236.543L659.578 244.645L667.03 319.573L466.922 372.588L535.119 240.001L597.046 212.482L601.213 204.38L425.773 114.142L421.606 122.244L435.226 188.621L367.029 321.208L293.778 127.59L359.074 90.0806L363.241 81.9789L229.232 13.0511L225.065 21.1527L312.088 251.337L83.0726 367.21L4.57795 395.188L0.416214 403.279L158.854 484.772L162.905 476.624L158.477 443.431L348.351 347.131L350.623 353.106L285.298 480.11L223.341 507.709L219.179 515.801L219.318 515.872L306.899 560.919L394.472 605.963L394.62 606.039L398.781 597.947L385.191 531.489L450.516 404.486L456.698 402.859L488.785 613.325L459.208 629.028L454.937 637.063L613.382 718.559L617.544 710.468L594.646 630.339L555.723 376.651L793.589 313.574L797.756 305.472L663.745 236.543Z" fill="#4B4B64" stroke="#4B4B64" stroke-width="2"/>
</g>
</g>
<defs>
<clipPath id="clip0_743_10344">
<path d="M0 4.98438C0 2.77524 1.79086 0.984375 4 0.984375H604.333C606.542 0.984375 608.333 2.77524 608.333 4.98438V435.207C608.333 437.416 606.542 439.207 604.333 439.207H4C1.79086 439.207 0 437.416 0 435.207V4.98438Z" fill="white"/>
</clipPath>
<clipPath id="clip1_743_10344">
<rect width="689.483" height="451.927" fill="white" transform="translate(207.066 1.39062) rotate(27.2191)"/>
</clipPath>
</defs>
</svg>
