<svg width="357" height="324" viewBox="0 0 357 324" fill="none" xmlns="http://www.w3.org/2000/svg">
<rect width="357" height="323.67" fill="#EDEBDC"/>
<path d="M22.816 25.256C23.2213 25.32 23.5893 25.4853 23.92 25.752C24.2613 26.0187 24.528 26.3493 24.72 26.744C24.9227 27.1387 25.024 27.56 25.024 28.008C25.024 28.5733 24.88 29.0853 24.592 29.544C24.304 29.992 23.8827 30.3493 23.328 30.616C22.784 30.872 22.1387 31 21.392 31H17.232V19.848H21.232C21.9893 19.848 22.6347 19.976 23.168 20.232C23.7013 20.4773 24.1013 20.8133 24.368 21.24C24.6347 21.6667 24.768 22.1467 24.768 22.68C24.768 23.3413 24.5867 23.8907 24.224 24.328C23.872 24.7547 23.4027 25.064 22.816 25.256ZM18.688 24.664H21.136C21.8187 24.664 22.3467 24.504 22.72 24.184C23.0933 23.864 23.28 23.4213 23.28 22.856C23.28 22.2907 23.0933 21.848 22.72 21.528C22.3467 21.208 21.808 21.048 21.104 21.048H18.688V24.664ZM21.264 29.8C21.9893 29.8 22.5547 29.6293 22.96 29.288C23.3653 28.9467 23.568 28.472 23.568 27.864C23.568 27.2453 23.3547 26.76 22.928 26.408C22.5013 26.0453 21.9307 25.864 21.216 25.864H18.688V29.8H21.264ZM35.0445 26.28C35.0445 26.5573 35.0285 26.8507 34.9965 27.16H27.9885C28.0418 28.024 28.3352 28.7013 28.8685 29.192C29.4125 29.672 30.0685 29.912 30.8365 29.912C31.4658 29.912 31.9885 29.768 32.4045 29.48C32.8312 29.1813 33.1298 28.7867 33.3005 28.296H34.8685C34.6338 29.1387 34.1645 29.8267 33.4605 30.36C32.7565 30.8827 31.8818 31.144 30.8365 31.144C30.0045 31.144 29.2578 30.9573 28.5965 30.584C27.9458 30.2107 27.4338 29.6827 27.0605 29C26.6872 28.3067 26.5005 27.5067 26.5005 26.6C26.5005 25.6933 26.6818 24.8987 27.0445 24.216C27.4072 23.5333 27.9138 23.0107 28.5645 22.648C29.2258 22.2747 29.9832 22.088 30.8365 22.088C31.6685 22.088 32.4045 22.2693 33.0445 22.632C33.6845 22.9947 34.1752 23.496 34.5165 24.136C34.8685 24.7653 35.0445 25.48 35.0445 26.28ZM33.5405 25.976C33.5405 25.4213 33.4178 24.9467 33.1725 24.552C32.9272 24.1467 32.5912 23.8427 32.1645 23.64C31.7485 23.4267 31.2845 23.32 30.7725 23.32C30.0365 23.32 29.4072 23.5547 28.8845 24.024C28.3725 24.4933 28.0792 25.144 28.0045 25.976H33.5405ZM38.4224 19.16V31H36.9664V19.16H38.4224ZM48.4559 22.232L43.1759 35.128H41.6719L43.3999 30.904L39.8639 22.232H41.4799L44.2319 29.336L46.9519 22.232H48.4559ZM57.6571 19.848C58.8731 19.848 59.9238 20.0773 60.8091 20.536C61.7051 20.984 62.3878 21.6293 62.8571 22.472C63.3371 23.3147 63.5771 24.3067 63.5771 25.448C63.5771 26.5893 63.3371 27.5813 62.8571 28.424C62.3878 29.256 61.7051 29.896 60.8091 30.344C59.9238 30.7813 58.8731 31 57.6571 31H54.1851V19.848H57.6571ZM57.6571 29.8C59.0971 29.8 60.1958 29.4213 60.9531 28.664C61.7105 27.896 62.0891 26.824 62.0891 25.448C62.0891 24.0613 61.7051 22.9787 60.9371 22.2C60.1798 21.4213 59.0865 21.032 57.6571 21.032H55.6411V29.8H57.6571ZM66.2496 20.808C65.9723 20.808 65.7376 20.712 65.5456 20.52C65.3536 20.328 65.2576 20.0933 65.2576 19.816C65.2576 19.5387 65.3536 19.304 65.5456 19.112C65.7376 18.92 65.9723 18.824 66.2496 18.824C66.5163 18.824 66.7403 18.92 66.9216 19.112C67.1136 19.304 67.2096 19.5387 67.2096 19.816C67.2096 20.0933 67.1136 20.328 66.9216 20.52C66.7403 20.712 66.5163 20.808 66.2496 20.808ZM66.9536 22.232V31H65.4976V22.232H66.9536ZM72.5391 31.144C71.8671 31.144 71.2645 31.032 70.7311 30.808C70.1978 30.5733 69.7765 30.2533 69.4671 29.848C69.1578 29.432 68.9871 28.9573 68.9551 28.424H70.4591C70.5018 28.8613 70.7045 29.2187 71.0671 29.496C71.4405 29.7733 71.9258 29.912 72.5231 29.912C73.0778 29.912 73.5151 29.7893 73.8351 29.544C74.1551 29.2987 74.3151 28.9893 74.3151 28.616C74.3151 28.232 74.1445 27.9493 73.8031 27.768C73.4618 27.576 72.9338 27.3893 72.2191 27.208C71.5685 27.0373 71.0351 26.8667 70.6191 26.696C70.2138 26.5147 69.8618 26.2533 69.5631 25.912C69.2751 25.56 69.1311 25.1013 69.1311 24.536C69.1311 24.088 69.2645 23.6773 69.5311 23.304C69.7978 22.9307 70.1765 22.6373 70.6671 22.424C71.1578 22.2 71.7178 22.088 72.3471 22.088C73.3178 22.088 74.1018 22.3333 74.6991 22.824C75.2965 23.3147 75.6165 23.9867 75.6591 24.84H74.2031C74.1711 24.3813 73.9845 24.0133 73.6431 23.736C73.3125 23.4587 72.8645 23.32 72.2991 23.32C71.7765 23.32 71.3605 23.432 71.0511 23.656C70.7418 23.88 70.5871 24.1733 70.5871 24.536C70.5871 24.824 70.6778 25.064 70.8591 25.256C71.0511 25.4373 71.2858 25.5867 71.5631 25.704C71.8511 25.8107 72.2458 25.9333 72.7471 26.072C73.3765 26.2427 73.8885 26.4133 74.2831 26.584C74.6778 26.744 75.0138 26.9893 75.2911 27.32C75.5791 27.6507 75.7285 28.0827 75.7391 28.616C75.7391 29.096 75.6058 29.528 75.3391 29.912C75.0725 30.296 74.6938 30.6 74.2031 30.824C73.7231 31.0373 73.1685 31.144 72.5391 31.144ZM79.2505 23.848C79.5385 23.3467 79.9652 22.9307 80.5305 22.6C81.1065 22.2587 81.7732 22.088 82.5305 22.088C83.3092 22.088 84.0132 22.2747 84.6425 22.648C85.2825 23.0213 85.7838 23.5493 86.1465 24.232C86.5092 24.904 86.6905 25.688 86.6905 26.584C86.6905 27.4693 86.5092 28.2587 86.1465 28.952C85.7838 29.6453 85.2825 30.184 84.6425 30.568C84.0132 30.952 83.3092 31.144 82.5305 31.144C81.7838 31.144 81.1225 30.9787 80.5465 30.648C79.9812 30.3067 79.5492 29.8853 79.2505 29.384V35.16H77.7945V22.232H79.2505V23.848ZM85.2025 26.584C85.2025 25.9227 85.0692 25.3467 84.8025 24.856C84.5358 24.3653 84.1732 23.992 83.7145 23.736C83.2665 23.48 82.7705 23.352 82.2265 23.352C81.6932 23.352 81.1972 23.4853 80.7385 23.752C80.2905 24.008 79.9278 24.3867 79.6505 24.888C79.3838 25.3787 79.2505 25.9493 79.2505 26.6C79.2505 27.2613 79.3838 27.8427 79.6505 28.344C79.9278 28.8347 80.2905 29.2133 80.7385 29.48C81.1972 29.736 81.6932 29.864 82.2265 29.864C82.7705 29.864 83.2665 29.736 83.7145 29.48C84.1732 29.2133 84.5358 28.8347 84.8025 28.344C85.0692 27.8427 85.2025 27.256 85.2025 26.584ZM88.063 26.584C88.063 25.688 88.2443 24.904 88.607 24.232C88.9697 23.5493 89.4657 23.0213 90.095 22.648C90.735 22.2747 91.4443 22.088 92.223 22.088C92.991 22.088 93.6577 22.2533 94.223 22.584C94.7883 22.9147 95.2097 23.3307 95.487 23.832V22.232H96.959V31H95.487V29.368C95.199 29.88 94.767 30.3067 94.191 30.648C93.6257 30.9787 92.9643 31.144 92.207 31.144C91.4283 31.144 90.7243 30.952 90.095 30.568C89.4657 30.184 88.9697 29.6453 88.607 28.952C88.2443 28.2587 88.063 27.4693 88.063 26.584ZM95.487 26.6C95.487 25.9387 95.3537 25.3627 95.087 24.872C94.8203 24.3813 94.4577 24.008 93.999 23.752C93.551 23.4853 93.055 23.352 92.511 23.352C91.967 23.352 91.471 23.48 91.023 23.736C90.575 23.992 90.2177 24.3653 89.951 24.856C89.6843 25.3467 89.551 25.9227 89.551 26.584C89.551 27.256 89.6843 27.8427 89.951 28.344C90.2177 28.8347 90.575 29.2133 91.023 29.48C91.471 29.736 91.967 29.864 92.511 29.864C93.055 29.864 93.551 29.736 93.999 29.48C94.4577 29.2133 94.8203 28.8347 95.087 28.344C95.3537 27.8427 95.487 27.2613 95.487 26.6ZM100.876 19.16V31H99.4195V19.16H100.876ZM110.909 22.232L105.629 35.128H104.125L105.853 30.904L102.317 22.232H103.933L106.685 29.336L109.405 22.232H110.909Z" fill="#4B4B64"/>
<path d="M193.632 290.096H204.856V294H115.064V290.096H135.072L115.796 244.224H59.676L44.792 290.096H69.924V294H16V290.096H26.004L103.596 113.44H116.284L193.632 290.096ZM60.896 239.832H113.844L83.832 169.072L60.896 239.832ZM321.833 290.096H334.033V294H273.033V280.092C261.565 289.852 248.633 296.44 235.213 296.44C219.353 296.44 208.617 287.412 208.617 272.04C208.617 249.592 232.529 234.708 273.033 230.316C273.033 203.476 262.297 190.056 243.753 190.056C232.773 190.056 225.209 192.984 216.913 199.328L215.693 198.108C232.285 179.564 250.341 169.56 274.741 169.56C305.485 169.56 321.833 187.128 321.833 222.508V290.096ZM267.421 277.408C268.885 277.408 270.837 277.164 273.033 276.676V233.488C258.393 237.636 252.781 246.908 252.781 259.84C252.781 271.308 257.661 277.408 267.421 277.408Z" fill="#4B4B64"/>
</svg>
