<?xml version="1.0" encoding="UTF-8"?>
<svg id="Layer_1" data-name="Layer 1" xmlns="http://www.w3.org/2000/svg" viewBox="0 0 160 90">
  <path d="M48.64,25.33c.39.7,1.7,1.49,2.06,2.1s-.02,3.23.08,4.07l-2.14,2.18,2.14,2.18.02,3.84-2.1,2.22h-14.4v-16.59h14.34ZM44.77,29.42h-4.27l-.17.17v2.44h4.44v-2.61ZM44.77,35.32h-4.44v2.5h4.44v-2.5Z" style="fill: #181818;"/>
  <path d="M29.86,25.33l2.16,2.22v14.37h-6.03v-4.03l-.17-.17h-4.21l-.17.17v4.03h-6.03v-14.37l2.16-2.22h12.29ZM25.99,33.62v-4.03l-.17-.17h-4.21l-.17.17v4.03h4.55Z" style="fill: #181818;"/>
  <path d="M86.32,25.33l2.16,2.22v14.37h-6.03v-4.2h-4.27l-.17.17v4.03h-6.03v-14.37l2.16-2.22h12.18ZM82.45,29.42h-4.27l-.17.17v4.03h4.44v-4.2Z" style="fill: #181818;"/>
  <path d="M132.87,25.33l5.98,7.16c.26.04.16-.11.17-.28.13-2.25-.1-4.61,0-6.87h6.03v16.59h-4.38l-5.86-6.87-.34-.17v7.04h-6.03v-16.59h4.44Z" style="fill: #181818;"/>
  <path d="M123.99,25.33l2.16,2.33-.06,12.21-2.16,2.04h-11.84c-.18.03-.3-.02-.45-.1-.12-.07-1.81-1.76-1.88-1.87s-.13-.2-.11-.34v-11.93s2.17-2.33,2.17-2.33h12.18ZM120.12,29.42h-4.27l-.17.17v8.24h4.44v-8.41Z" style="fill: #181818;"/>
  <path d="M69.7,25.33v4.09h-10.42l-.17.17v1.82l.17.17h8.2c.44.64,1.77,1.51,2.11,2.1.42.73-.08,4.9.08,6l-2.2,2.24h-14.4v-4.09h10.59v-2.16h-8.37c-.44-.64-1.77-1.51-2.11-2.1-.42-.73.08-4.9-.08-6l2.14-2.24h14.46Z" style="fill: #181818;"/>
  <polygon points="96.79 25.33 96.96 37.6 107.37 37.6 107.37 41.91 92.98 41.91 90.76 39.58 90.76 25.33 96.79 25.33" style="fill: #181818;"/>
  <polygon points="48.07 59.06 49.07 59.09 51.6 62.47 51.6 59.06 52.74 59.06 52.74 64.63 51.74 64.61 49.21 61.22 49.21 64.63 48.07 64.63 48.07 59.06" style="fill: #181818;"/>
  <path d="M44.16,59c3.96,0,3.75,6.35-.67,5.61-3.01-.51-2.86-5.6.67-5.61ZM43.83,60.11c-1.97.4-1.56,3.63.41,3.49,2.33-.16,1.88-3.96-.41-3.49Z" style="fill: #181818;"/>
  <path d="M21.44,64.63v-5.57h2.56c.11,0,.76.27.89.36.74.48.75,1.66.08,2.2.88.59,1,1.98.12,2.62-.2.14-.89.39-1.09.39h-2.56ZM22.46,61.34c2.49.46,2.54-1.72.11-1.31l-.11,1.31ZM22.65,62.15c-.3.1-.25,1.41-.08,1.52.73.19,2.24.06,1.92-1.01-.16-.54-1.4-.66-1.84-.52Z" style="fill: #181818;"/>
  <path d="M18.23,59.08l2.18,5.55h-1.24s-.54-1.23-.54-1.23l-1.99.05-.44,1.13-1.26.05,2.18-5.55h1.11ZM18.36,62.47l-.63-1.82-.74,1.82h1.37Z" style="fill: #181818;"/>
  <path d="M36.58,64.63h-1.35s-.42-1.26-.42-1.26l-2.08.02c-.25,1.08-.4,1.41-1.61,1.24l2.16-5.51,1.09.06,2.22,5.45ZM34.53,62.47l-.8-1.82-.57,1.82h1.37Z" style="fill: #181818;"/>
  <path d="M81.56,50.23c.15-.09.47,0,.66-.02l-.55.83c1.62,2.28.18,5.21-2.78,4.71-.27-.05-.86-.4-.94-.4-.11,0-.59.69-1.08.42l.66-.85c-2.12-2.63.71-6,3.71-4.27.21-.04.25-.37.32-.42ZM78.12,54.41l2.57-3.06c.18-.34-.59-.53-.81-.56-1.43-.18-2.56,1.04-2.44,2.43.02.2.37,1.41.68,1.19ZM81.14,51.57c-.81,1.05-1.83,2.01-2.62,3.07-.1.13-.26.11-.06.28.12.1.49.23.65.26,2.11.35,3.45-2.05,2.02-3.61Z" style="fill: #181818;"/>
  <path d="M29.26,62.62c-.52-.62-2.5-.36-2.69-1.8-.27-1.95,2.54-2.32,3.64-1.12l-.64.73c-.14.02-.92-.89-1.64-.29-.94.78.87,1.1,1.26,1.26.85.35,1.5.9,1.34,1.9-.28,1.76-3.15,1.71-4.07.48l.74-.74c.5,1.13,2.94.61,2.07-.42Z" style="fill: #181818;"/>
  <polygon points="60.25 50.2 60.91 50.23 64.12 54.52 64.12 50.2 64.8 50.2 64.8 55.77 64.14 55.75 60.93 51.45 60.93 55.77 60.25 55.77 60.25 50.2" style="fill: #181818;"/>
  <polygon points="113.64 50.2 114.3 50.23 117.51 54.52 117.51 50.2 118.19 50.2 118.19 55.77 117.53 55.75 114.32 51.45 114.32 55.77 113.64 55.77 113.64 50.2" style="fill: #181818;"/>
  <path d="M58.16,50.93c1.61,1.61.75,4.64-1.61,4.85-4.41.39-4.01-6.42.4-5.52.34.07.96.42,1.2.67ZM54.71,51.38c-2,2,.9,5.24,2.97,3.25s-.89-5.33-2.97-3.25Z" style="fill: #181818;"/>
  <path d="M27.55,50.23c4.38-.7,4.54,6.16-.02,5.53-2.8-.39-2.87-5.07.02-5.53ZM27.67,50.8c-.52.11-1.14.65-1.38,1.12-1.07,2.06,1.21,4.28,3.11,2.88s.55-4.47-1.73-4Z" style="fill: #181818;"/>
  <path d="M99.38,50.23c4.38-.7,4.54,6.16-.02,5.53-2.8-.39-2.87-5.07.02-5.53ZM99.49,50.8c-.52.11-1.14.65-1.38,1.12-1.07,2.06,1.21,4.28,3.11,2.88s.55-4.47-1.73-4Z" style="fill: #181818;"/>
  <polygon points="38.62 59.06 38.62 63.5 41.13 63.5 41.13 64.63 37.49 64.63 37.49 59.06 38.62 59.06" style="fill: #181818;"/>
  <path d="M22.63,50.2c2.01.25,2.13,2.69.28,3.24l1.48,2.32c-.26,0-.52.06-.75-.1-.74-.53-1.3-2.97-2.55-2.11v2.22h-.57v-5.57c.67.06,1.45-.08,2.11,0ZM21.28,50.79l-.14.09.06,2c.69.13,2.18.13,2.37-.71.32-1.43-1.29-1.49-2.29-1.38Z" style="fill: #181818;"/>
  <polygon points="112.16 50.2 112.16 50.77 109.31 50.77 109.31 52.59 111.81 52.59 111.81 53.16 109.31 53.16 109.31 55.2 112.27 55.2 112.27 55.77 108.63 55.77 108.63 50.2 112.16 50.2" style="fill: #181818;"/>
  <polygon points="71.75 50.2 71.75 52.59 74.82 52.59 74.82 50.2 75.39 50.2 75.39 55.77 74.82 55.77 74.82 53.16 71.75 53.16 71.75 55.77 71.18 55.77 71.18 50.2 71.75 50.2" style="fill: #181818;"/>
  <polygon points="40.45 50.2 40.45 50.77 37.66 50.77 37.49 50.94 37.49 52.59 39.99 52.59 39.99 53.16 37.49 53.16 37.49 55.2 40.56 55.2 40.56 55.77 36.92 55.77 36.92 50.2 40.45 50.2" style="fill: #181818;"/>
  <polygon points="93.26 50.2 93.26 52.7 93.72 52.65 95.7 50.31 96.56 50.21 94.29 52.97 96.79 55.77 95.88 55.71 93.81 53.3 93.26 53.27 93.26 55.77 92.69 55.77 92.69 50.2 93.26 50.2" style="fill: #181818;"/>
  <path d="M16.09,53.61v2.16h-.68v-5.57h1.99s.66.14.74.17c1.18.4,1.43,2.14.49,2.88-.1.08-.59.36-.67.36h-1.88ZM16.09,53.16c.89.06,2.49.06,2.51-1.19s-1.6-1.26-2.51-1.2v2.39Z" style="fill: #181818;"/>
  <path d="M47.59,50.23c.77-.16,1.66-.02,2.19.6l-.4.38c-.68-.72-2.48-.65-2.2.62.21.93,2.32.54,2.88,1.78.96,2.11-2.48,2.94-3.58,1.4l.37-.37c.57.75,2.49.87,2.69-.19.28-1.43-2.01-1.22-2.72-1.94s-.23-2.09.76-2.29Z" style="fill: #181818;"/>
  <path d="M67.28,50.23c.78-.16,1.63,0,2.19.6l-.4.37c-.62-.57-2.22-.73-2.31.34-.1,1.19,2.65.93,3,2.07.61,1.99-1.59,2.66-3.06,1.92-.53-.27-1.02-.68-.15-.87.57.76,2.44.88,2.67-.22.29-1.37-2-1.22-2.72-1.9-.78-.74-.23-2.1.77-2.31Z" style="fill: #181818;"/>
  <path d="M41.58,54.86l.5-.22c.64.9,2.83.81,2.69-.51-.15-1.41-3.18-.6-3.08-2.63.08-1.55,2.44-1.69,3.31-.68l-.4.38c-.57-.65-2.34-.68-2.31.4.04,1.3,3.14.65,3.14,2.63,0,1.3-1.35,1.67-2.43,1.54-.29-.04-1.61-.64-1.42-.91Z" style="fill: #181818;"/>
  <path d="M88.79,50.23c.75-.15,1.67.04,2.19.6l-.4.37c-.64-.7-2.65-.6-2.29.6s3.38.43,3.02,2.77c-.21,1.34-2.11,1.45-3.1.95-.3-.15-.88-.48-.48-.78.35-.27.76.33,1.27.46.82.21,1.97-.22,1.68-1.22-.37-1.26-3.22-.48-3-2.58.06-.6.53-1.05,1.11-1.17Z" style="fill: #181818;"/>
  <polygon points="35.67 50.2 35.67 50.77 32.99 50.77 32.82 50.94 32.82 52.59 35.32 52.59 35.32 53.16 32.99 53.16 32.82 53.33 32.82 55.77 32.25 55.77 32.25 50.2 35.67 50.2" style="fill: #181818;"/>
  <polygon points="104.64 50.2 104.64 55.03 104.81 55.2 107.49 55.2 107.49 55.77 104.07 55.77 104.07 50.2 104.64 50.2" style="fill: #181818;"/>
  <path d="M86.32,50.2v4.37s-.42.74-.49.81c-.62.63-2.32.56-2.76-.3l.35-.45c.43.55,1.42.8,1.96.3.07-.07.38-.65.38-.7v-4.03h.57Z" style="fill: #181818;"/>
  <rect x="51.49" y="50.2" width=".57" height="5.57" style="fill: #181818;"/>
</svg>