<?xml version="1.0" encoding="UTF-8"?>
<svg id="Layer_1" data-name="Layer 1" xmlns="http://www.w3.org/2000/svg" viewBox="0 0 160 90">
  <polygon points="137.03 75.42 132.89 75.4 127.33 57.64 127.33 75.21 127.12 75.42 123.17 75.42 123.17 46.21 127.81 46.21 133.01 62.44 133.01 46.21 137.03 46.21 137.03 75.42" style="fill: #181818;"/>
  <path d="M67.46,75.71c-.58.06-1.78.06-2.36,0-3.9-.43-5.86-3.52-6.1-7.26-.33-5.04.26-10.45,0-15.53-.21-8.17,12.05-9.75,14.2-2.33.94,3.24.68,13.27.49,17.01-.22,4.17-1.72,7.62-6.24,8.11ZM64.59,50.63c-.46.47-.69,1.61-.74,2.28-.39,5.13.3,10.77,0,15.95.02,3.19,4.13,3.81,4.84.7v-17.35c-.06-2.07-2.74-2.96-4.1-1.57Z" style="fill: #181818;"/>
  <path d="M80.35,14.31c2.76.34,5.07,2.63,5.59,5.38.12,5.58.61,11.85.23,17.42-.63,9.45-13.77,9.41-14.56.42.29-5.38-.39-11.19,0-16.52.24-3.39,2.37-6.3,5.83-6.7.67-.08,2.25-.08,2.91,0ZM78.37,18.44c-1.17.2-1.67,1.06-1.89,2.17.34,5.45-.5,11.56-.02,16.93.3,3.37,4.47,3.25,4.84.12-.31-5.38.47-11.34.02-16.64-.14-1.7-1.19-2.87-2.95-2.57Z" style="fill: #181818;"/>
  <path d="M22.97,43.24l5.39-28.57,5.48-.09,5.48,29.22h-4.99l-.83-5.36h-5.05s-.93,5.35-.93,5.35l-4.56.02v-.56ZM32.81,34.49l-1.87-11.43-1.87,11.43h3.74Z" style="fill: #181818;"/>
  <path d="M48.47,14.31c3.21.35,5.27,2.87,5.27,6.14v2.68l-.21.21h-4.16l-.21-.21v-3.39c0-.94-1.5-1.51-2.29-1.49-2.87.07-2.51,3.85-1.17,5.58,2.88,3.75,7.85,6.09,8.29,11.45.5,6.02-2.24,9.41-8.35,8.79-2.6-.26-5.49-2.4-5.49-5.28v-5.29h4.37l.21.21v4.94c0,.38.82,1.16,1.21,1.3,1.5.56,2.95-.12,3.18-1.76.26-1.79.03-3.35-1.08-4.76-2.48-3.16-6.9-5.63-7.72-9.92s.45-8.6,5.09-9.2c.68-.09,2.35-.08,3.05,0Z" style="fill: #181818;"/>
  <polygon points="80.69 46.21 85.89 62.44 85.89 46.21 90.05 46.21 90.05 75.21 89.84 75.42 85.82 75.42 80.07 57.36 80.07 75.42 76.05 75.42 76.05 46.21 80.69 46.21" style="fill: #181818;"/>
  <path d="M92.68,46.21h8.66c2.55,0,4.8,2.24,5.43,4.63.91,3.4.66,12.78.46,16.62-.22,4.18-1.86,7.97-6.59,7.97h-7.76l-.21-.21v-29ZM97.67,71.33h2.56c1.09,0,1.93-1.3,2.02-2.32.46-5.3-.36-11.29,0-16.66.04-.74-1.05-2.05-1.73-2.05h-2.84v21.03Z" style="fill: #181818;"/>
  <polygon points="61.08 27.01 66.28 14.59 70.92 14.59 65.41 27.76 71.06 43.81 65.93 43.81 61.08 30.12 61.08 43.6 60.87 43.81 56.3 43.81 56.09 43.6 56.09 14.8 56.3 14.59 60.87 14.59 61.08 14.8 61.08 27.01" style="fill: #181818;"/>
  <polygon points="92.26 14.59 95.52 34.78 98.92 14.59 103.35 14.59 97.96 43.75 92.68 43.81 87.28 14.59 92.26 14.59" style="fill: #181818;"/>
  <polygon points="120.95 46.21 120.95 50.09 120.74 50.3 114.3 50.3 114.3 58.49 119.01 58.49 119.01 62.58 114.3 62.58 114.3 71.33 120.95 71.33 120.95 75.21 120.74 75.42 109.45 75.42 109.45 46.21 120.95 46.21" style="fill: #181818;"/>
  <polygon points="57.62 46.21 57.62 50.09 57.41 50.3 51.1 50.3 51.1 58.49 55.96 58.49 55.96 62.58 51.1 62.58 51.1 75.42 46.46 75.42 46.25 75.21 46.25 46.21 57.62 46.21" style="fill: #181818;"/>
</svg>