<svg width="117" height="48" viewBox="0 0 117 48" fill="none" xmlns="http://www.w3.org/2000/svg">
<g clip-path="url(#clip0_825_5952)">
<path d="M7.61987 19.6184L23.039 0L23.5954 0.190452L38.9884 19.1535L38.7046 19.6184C28.7395 15.7814 17.613 16.0092 7.62174 19.6184H7.61987Z" fill="#181818"/>
<path d="M4.44574 33.2485L0 22.8483L0.242733 22.417L13.1785 26.0094L15.8355 33.2485H4.44574Z" fill="#181818"/>
<path d="M92.3898 45.1991L93.4858 45.4119L93.3364 47.5461L87.804 47.4527L87.7461 45.4119L88.8477 45.1113L89.0288 41.8419L87.7144 41.5301L87.8973 39.3081C88.4594 39.2801 89.1465 39.015 89.6749 39.0299C90.3545 39.0504 91.0099 39.6349 91.5346 39.5975C92.0593 39.5602 92.8547 39.0411 93.6016 39.0411C94.2177 39.0411 95.0523 39.4089 95.6648 39.4183C97.0614 39.4369 97.8643 38.789 99.5261 39.2745C102.024 40.0064 101.449 43.0593 101.561 45.0814C101.705 45.5165 102.291 45.3746 102.657 45.3876C102.547 46.409 103.133 47.5928 101.804 47.8019C99.2908 48.1996 98.4226 46.9897 98.1985 44.7098C98.1295 44.0003 98.3218 42.6728 98.1444 42.15C97.967 41.6271 96.8672 41.5301 96.8672 41.9334V44.7341C96.8672 45.1468 97.56 45.5127 97.9801 45.3951L97.8961 47.4434C96.0774 48.3658 94.0646 47.8318 93.7416 45.6192C93.5997 44.652 93.8984 42.852 93.6613 42.1518C93.5175 41.7242 92.7819 41.6159 92.3842 41.6552V45.2028L92.3898 45.1991Z" fill="#181818"/>
<path d="M23.3043 38.8505H21.9954C22.1074 38.2885 21.7041 36.6864 22.3128 36.4586C23.491 36.018 26.9527 35.9302 28.2579 36.0422C29.9663 36.1879 31.546 36.8339 31.714 38.7459C31.8298 40.0716 31.63 40.727 30.5881 41.5579C33.5625 43.3765 32.4534 47.4637 28.9954 47.811C27.9647 47.9137 22.8393 47.8502 22.1784 47.3498C21.7807 47.0492 22.0906 45.3856 21.9935 44.8236H23.3024V38.8505H23.3043ZM26.4766 38.477L26.6521 40.6374C29.3446 41.1247 29.1429 38.0065 26.4766 38.477ZM28.6743 44.9673C28.7527 44.8572 28.8572 44.1813 28.8423 44.0095C28.7303 42.7099 27.4625 42.9545 26.4766 42.9564V45.3856C26.9658 45.4453 28.3923 45.3669 28.6724 44.9673H28.6743Z" fill="#181818"/>
<path d="M66.436 35.8633V39.2242C67.7318 39.241 68.6953 38.8657 69.9818 39.3194C72.2131 40.1074 71.5521 43.2255 71.6902 45.0797C71.834 45.5147 72.4203 45.3728 72.7863 45.3859C72.678 46.5734 73.3054 47.6358 71.7631 47.8169C69.7652 48.0503 68.4432 47.2717 68.1669 45.2458C67.9559 43.7054 68.8783 40.9999 66.4379 41.8401V44.9209L67.6553 45.5726L67.5713 47.5481L61.8521 47.4547L61.7942 45.4139L62.8959 45.1133C63.0471 45.0292 63.0508 44.8873 63.0807 44.738C63.2319 43.9668 63.1965 39.9953 63.0882 39.1252C62.95 38.0199 62.0052 38.7891 61.798 38.1748L61.7737 35.8651H66.4416L66.436 35.8633Z" fill="#181818"/>
<path d="M50.1914 47.6262L50.2157 45.4099L51.3173 45.1093L51.476 42.1423L50.2175 41.627V39.5302L50.5051 39.2557C50.9887 39.3005 51.5302 39.0354 51.9671 39.0391C52.6766 39.0447 53.5785 39.5712 54.0172 39.5806C54.6502 39.5937 55.8172 39.0036 56.7919 39.0522C58.196 39.1213 59.6113 39.9484 59.8578 41.416C60.1042 42.8836 59.137 45.7105 61.2096 45.3856L61.1237 47.447C56.6556 49.0994 56.3475 45.4566 56.4502 42.0228C56.1813 41.5654 54.8612 41.528 54.8612 41.9314V44.9188L55.9591 45.5014L55.9815 47.6262H50.1933H50.1914Z" fill="#181818"/>
<path d="M36.5239 39.0916C40.3311 38.819 41.6922 41.1847 41.2124 44.7174C40.6448 48.8924 33.4207 48.9522 32.8418 44.7174C32.4404 41.7766 33.2657 39.3269 36.5239 39.0916ZM37.6816 44.9191C37.8104 44.5009 37.6816 42.7364 37.6816 42.1183C37.6816 41.926 37.1139 41.5358 36.7461 41.7337C35.9787 42.1463 36.4828 44.2301 36.4025 44.9844C36.7274 45.1805 37.5471 45.3616 37.6834 44.9191H37.6816Z" fill="#181818"/>
<path d="M76.853 39.0878C80.6471 38.7461 82.0158 41.25 81.5434 44.7155C80.9813 48.8532 73.7796 49.1052 73.1728 44.5288C72.7919 41.6627 73.7404 39.3679 76.8511 39.086L76.853 39.0878ZM76.7335 44.9844C76.8082 45.1076 77.4991 45.242 77.7007 45.1804C78.3934 44.9713 78.5559 41.9427 77.5084 41.6739C76.39 41.3863 76.4329 44.4933 76.7335 44.9844Z" fill="#181818"/>
<path d="M49.6314 42.6778C49.4018 43.4993 46.4871 43.4321 47.0155 41.8357H46.4572V44.9184L47.74 45.4095L47.7643 47.6258H41.7893L41.8136 45.4095L42.9152 45.1088C43.115 43.9792 43.7162 41.55 41.9667 41.7535L41.8715 39.3972C43.1635 38.4785 44.6237 39.5745 45.6189 39.5745C46.7037 39.5745 48.3935 38.4076 49.6333 39.5036V42.6778H49.6314Z" fill="#181818"/>
<path d="M85.8545 35.8633V45.1058L87.1353 45.6902C87.9625 48.4854 83.8846 48.3248 82.8651 46.7881C81.9278 45.3728 82.8203 40.6358 82.4674 38.7835C82.3143 38.3167 81.588 38.4979 81.1865 38.4773V35.8633H85.8545Z" fill="#181818"/>
<path d="M23.4908 33.062V23.8194L23.1846 23.5524C21.3492 23.924 21.3641 22.673 23.2331 22.4396C25.1022 22.2062 27.733 21.9877 29.3444 23.0091C31.5682 24.4207 31.5701 29.4359 30.4759 31.5477C29.2865 33.8443 25.6381 33.6763 23.4927 33.0601L23.4908 33.062ZM24.6111 32.3151C26.0134 32.4589 27.8861 32.6773 28.999 31.5682C30.4031 30.1697 30.3564 25.3841 28.8141 24.0977C27.8992 23.3358 25.6156 23.0222 24.6111 23.6327V32.3151Z" fill="#181818"/>
<path d="M74.3042 32.2893L75.7718 32.5041C75.6653 34.1042 73.9793 33.1165 73.2399 33.0754C72.7077 33.0474 71.9721 33.3947 71.382 33.4339C69.0425 33.5889 67.1342 32.8738 67.5693 30.1794C67.9987 27.5206 73.1279 29.0106 73.1615 28.6745C73.2081 25.9335 71.425 26.0754 69.2367 26.1538C69.3487 28.6502 67.5581 27.5 68.2004 25.5843C68.3983 25.3005 70.3831 25.0876 70.8518 25.1044C75.5589 25.265 73.9942 28.921 74.3042 32.2912V32.2893ZM72.9449 32.2912C73.182 31.6358 73.4696 29.9927 72.7395 29.6529C71.9683 29.2944 69.1993 29.328 68.7736 30.2653C67.6514 32.7356 71.5426 32.6012 72.9449 32.2912Z" fill="#181818"/>
<path d="M58.7804 26.4335L57.2886 25.8715C57.5014 24.3647 59.0904 25.4962 59.6505 25.5447C60.0688 25.5802 61.0939 25.0686 61.6951 25.0518C62.5335 25.0294 64.1859 25.3841 64.761 26.0563C65.9709 27.4716 64.86 30.545 65.3473 32.0051C65.5097 32.4925 66.3724 32.5354 66.8112 32.5037C66.7962 33.9358 64.5257 33.6651 64.2363 32.3692C63.5025 29.0811 66.0923 25.0424 59.9026 26.3401V32.3151L61.3964 32.5037C61.4748 32.7203 61.3123 33.2487 61.1163 33.2487H57.2886L57.4641 32.3972L58.7823 32.3151V26.4335H58.7804Z" fill="#181818"/>
<path d="M93.4167 33.2487C92.526 32.3244 93.8555 32.2777 94.6322 32.3151C94.4679 30.5805 94.8488 28.4836 94.6397 26.7976C94.4847 25.5354 93.1291 26.7378 93.1385 25.5018C93.8685 24.5887 95.155 25.5634 95.6256 25.5522C96.0961 25.541 97.0334 25.0779 97.7112 25.0723C98.191 25.0686 99.2591 25.2702 99.7259 25.4458C102.256 26.398 100.617 30.2743 101.195 32.0051C101.36 32.4943 102.22 32.5298 102.659 32.5055L102.669 33.1441C98.0753 34.7387 101.235 28.2017 99.4906 26.6127C98.5869 25.7893 96.8598 26.187 95.7488 26.3401V32.3151L97.067 32.3972L97.2425 33.2487H93.4148H93.4167Z" fill="#181818"/>
<path d="M33.667 29.8874C32.8492 30.1301 34.0928 31.8274 34.6249 32.1037C35.9301 32.7853 37.2464 32.2345 38.6169 32.3147L38.5945 32.9458L38.3088 33.2203C34.1805 33.9224 31.8521 32.789 32.2611 28.2928C32.698 23.4755 40.1051 24.5716 39.136 28.8213C39.0557 29.1723 38.4563 29.8874 38.1501 29.8874C37.2184 29.8874 34.3037 29.7007 33.6689 29.8874H33.667ZM37.8682 28.9538C38.7738 25.1261 33.1013 25.2269 33.387 28.9538H37.8682Z" fill="#181818"/>
<path d="M91.9528 26.03C93.5118 27.5891 93.2934 32.117 91.0229 33.0973C87.2549 34.7236 85.0778 31.2002 85.8676 27.7553C86.4651 25.1468 90.0725 24.1516 91.9528 26.03ZM88.6049 26.198C86.3848 26.6536 86.3008 31.484 88.4238 32.2645C92.6791 33.8311 93.3289 25.229 88.6049 26.198Z" fill="#181818"/>
<path d="M116.476 43.5182H110.688C110.746 42.0693 110.951 40.0863 112.423 39.3712C115.197 38.0194 117.449 40.8388 116.476 43.5182Z" fill="#181818"/>
<path d="M45.699 25.4159L45.7102 27.4605L44.786 27.4493L44.476 26.1404C43.5854 26.1908 41.4307 25.8062 41.4307 27.1786C41.4307 28.8534 46.1584 28.4072 46.2816 31.1015C46.4142 33.9788 42.1309 33.6259 40.3216 33.034C39.7577 31.1127 41.4568 29.8019 41.4157 32.3152C42.6723 32.3786 44.7244 32.9295 45.1482 31.2733C45.2733 29.2922 40.1517 29.9214 40.2842 26.9956C40.3944 24.5477 44.0821 25.1079 45.7009 25.4159H45.699Z" fill="#181818"/>
<path d="M49.6294 25.2221C50.0458 25.2427 51.9634 25.0896 52.066 25.5265L52.0586 26.1538L49.9356 26.18C49.6929 26.2416 49.6686 26.4078 49.6294 26.6206C49.4987 27.3264 49.5566 31.6994 49.9151 32.1232C50.5536 32.8794 51.8345 32.0392 52.1538 32.4985C52.5627 33.0867 51.7486 33.3201 51.3584 33.3891C47.1516 34.1416 48.8396 28.5588 48.5109 26.152C46.1807 26.4657 46.3973 25.0074 48.5109 25.2203C48.5763 24.3483 48.0983 22.7892 49.4576 23.2448L49.6294 25.2203V25.2221Z" fill="#181818"/>
<path d="M78.1973 25.2219C79.0263 25.3096 80.0738 24.8988 80.6246 25.6905C80.7964 26.5158 78.3523 25.9986 78.1973 26.1536C78.3952 27.3654 77.7791 31.5236 78.5782 32.2163C79.4707 32.9893 80.8076 31.5572 80.6172 33.2414C75.5777 34.4849 77.428 29.5238 77.0527 26.4617L76.7727 26.1816L75.3965 26.1554L75.3872 25.5243L77.0714 25.2163L77.077 23.168L78.1151 23.3435L78.1954 25.2237L78.1973 25.2219Z" fill="#181818"/>
<path d="M110.333 44.4701C111.54 44.3973 112.757 44.4981 113.963 44.4589C114.559 44.4402 115.558 43.8745 115.728 44.7278C115.58 45.385 111.866 47.8254 111.185 47.7694C109.383 47.62 110.053 45.6203 110.331 44.4701H110.333Z" fill="#181818"/>
<path d="M55.2328 32.0353C55.6211 32.4853 56.1608 32.5357 56.7265 32.5039L56.7022 33.2265C52.5907 34.5896 54.5718 28.4018 54.1125 26.1537L52.9268 26.1257C52.6281 26.0174 52.559 25.7952 52.6169 25.5039C52.6635 25.2705 55.0405 24.9736 55.2328 25.502V32.0372V32.0353Z" fill="#181818"/>
<path d="M82.867 26.1539L81.5805 26.1371L81.377 25.6871C81.7859 25.0877 83.9891 25.0112 84.1422 25.7057C84.1796 25.8757 83.9798 26.3107 83.9779 26.6132C83.9779 27.4833 83.7949 32.0299 84.2972 32.3324C84.6949 32.5713 85.341 32.3417 85.664 32.7823C84.8816 34.0389 82.867 33.4415 82.867 31.8488V26.1539Z" fill="#181818"/>
<path d="M106.86 43.5183C105.703 41.4793 108.253 39.0968 110.328 40.2713L109.661 43.5183H106.86Z" fill="#181818"/>
<path d="M109.568 44.4541L109.379 46.5061C109.09 46.844 107.234 44.919 107.144 44.5455C107.168 44.0974 109.215 44.6258 109.568 44.4541Z" fill="#181818"/>
<path d="M83.0707 24.0808C82.6599 23.8044 82.7103 21.5041 83.9968 22.3163C84.5327 22.6823 83.9035 24.6409 83.0707 24.0808Z" fill="#181818"/>
<path d="M54.4169 22.2544C56.0712 21.698 55.3393 24.7676 54.2862 24.0189L54.1424 23.7911C54.1088 23.371 53.9389 22.415 54.4169 22.2544Z" fill="#181818"/>
</g>
<defs>
<clipPath id="clip0_825_5952">
<rect width="116.706" height="47.8912" fill="white"/>
</clipPath>
</defs>
</svg>
