<?xml version="1.0" encoding="UTF-8"?>
<svg id="Layer_1" data-name="Layer 1" xmlns="http://www.w3.org/2000/svg" viewBox="0 0 160 90">
  <path d="M12.91,39.28l20.39-25.94.73.25,20.36,25.08-.38.61c-13.18-5.07-27.89-4.77-41.11,0Z" style="fill: #181818;"/>
  <polygon points="8.71 57.3 2.83 43.55 3.15 42.98 20.26 47.73 23.77 57.3 8.71 57.3" style="fill: #181818;"/>
  <path d="M125.01,73.11l1.45.28-.2,2.82-7.32-.12-.08-2.7,1.46-.4.24-4.32-1.74-.41.24-2.94c.74-.04,1.65-.39,2.35-.37.9.03,1.76.8,2.46.75s1.75-.74,2.73-.74c.81,0,1.92.49,2.73.5,1.85.02,2.91-.83,5.11-.19,3.31.97,2.54,5,2.69,7.68.19.58.97.39,1.45.4-.15,1.35.63,2.92-1.13,3.19-3.32.53-4.47-1.07-4.77-4.09-.09-.94.16-2.69-.07-3.38s-1.69-.82-1.69-.29v3.7c0,.55.92,1.03,1.47.87l-.11,2.71c-2.4,1.22-5.07.51-5.49-2.41-.19-1.28.21-3.66-.11-4.59-.19-.57-1.16-.71-1.69-.66v4.69Z" style="fill: #181818;"/>
  <path d="M33.65,64.71h-1.73c.15-.74-.39-2.86.42-3.16,1.56-.58,6.14-.7,7.86-.55,2.26.19,4.35,1.05,4.57,3.58.15,1.75-.11,2.62-1.49,3.72,3.93,2.41,2.47,7.81-2.11,8.27-1.36.14-8.14.05-9.01-.61-.53-.4-.11-2.6-.24-3.34h1.73s0-7.9,0-7.9ZM37.85,64.22l.23,2.86c3.56.65,3.29-3.48-.23-2.86ZM40.75,72.8c.1-.15.24-1.04.22-1.27-.15-1.72-1.83-1.4-3.13-1.39v3.21c.65.08,2.53-.03,2.9-.55Z" style="fill: #181818;"/>
  <path d="M90.69,60.76v4.44c1.71.02,2.99-.47,4.69.13,2.95,1.04,2.08,5.17,2.26,7.62.19.58.97.39,1.45.4-.14,1.57.69,2.98-1.35,3.21-2.64.31-4.39-.72-4.76-3.4-.28-2.04.94-5.61-2.29-4.5v4.07l1.61.86-.11,2.61-7.56-.12-.08-2.7,1.46-.4c.2-.11.21-.3.24-.5.2-1.02.15-6.27,0-7.42-.18-1.46-1.43-.44-1.71-1.26l-.03-3.05h6.17Z" style="fill: #181818;"/>
  <path d="M69.21,76.32l.03-2.93,1.46-.4.21-3.92-1.67-.68v-2.77s.38-.36.38-.36c.64.06,1.36-.29,1.93-.29.94,0,2.13.7,2.71.72.84.02,2.38-.76,3.67-.7,1.86.09,3.73,1.19,4.06,3.13.32,1.88-.95,5.68,1.79,5.25l-.11,2.73c-5.91,2.19-6.32-2.63-6.18-7.17-.36-.6-2.1-.65-2.1-.12v3.95l1.45.77.03,2.81h-7.65Z" style="fill: #181818;"/>
  <path d="M51.13,65.03c5.03-.36,6.83,2.77,6.2,7.44-.75,5.52-10.3,5.6-11.07,0-.53-3.89.56-7.13,4.87-7.44ZM52.66,72.74c.17-.55,0-2.89,0-3.7,0-.25-.75-.77-1.24-.51-1.02.55-.35,3.3-.45,4.3.43.26,1.51.5,1.69-.09Z" style="fill: #181818;"/>
  <path d="M104.46,65.03c5.02-.45,6.83,2.86,6.2,7.44-.74,5.47-10.27,5.8-11.07-.25-.5-3.79.75-6.83,4.87-7.2ZM104.31,72.82c.1.16,1.01.34,1.28.26.92-.28,1.13-4.28-.25-4.64-1.48-.38-1.42,3.73-1.02,4.38Z" style="fill: #181818;"/>
  <path d="M68.47,69.77c-.3,1.09-4.16,1-3.46-1.11h-.74v4.08l1.7.65.03,2.93h-7.9l.03-2.93,1.46-.4c.27-1.49,1.06-4.71-1.25-4.44l-.13-3.12c1.71-1.22,3.64.24,4.96.23,1.43,0,3.67-1.54,5.31-.09v4.2Z" style="fill: #181818;"/>
  <path d="M116.37,60.76v12.22l1.69.77c1.09,3.7-4.3,3.49-5.65,1.45-1.24-1.87-.06-8.14-.53-10.58-.2-.62-1.16-.38-1.69-.4v-3.46h6.17Z" style="fill: #181818;"/>
  <path d="M33.9,57.06v-12.22l-.41-.35c-2.43.49-2.41-1.16.06-1.47s5.95-.6,8.08.75c2.94,1.87,2.94,8.5,1.5,11.29-1.57,3.04-6.4,2.82-9.23,2ZM35.38,56.07c1.85.19,4.33.48,5.8-.99,1.86-1.85,1.79-8.18-.24-9.88-1.21-1.01-4.23-1.42-5.56-.61v11.48Z" style="fill: #181818;"/>
  <path d="M101.09,56.03l1.94.28c-.14,2.12-2.37.81-3.35.76-.7-.04-1.68.42-2.46.47-3.09.21-5.62-.74-5.04-4.3s7.35-1.55,7.4-1.99c.06-3.62-2.3-3.44-5.19-3.33.15,3.3-2.22,1.78-1.37-.75.26-.37,2.89-.66,3.51-.64,6.23.21,4.16,5.05,4.57,9.5ZM99.3,56.04c.31-.87.69-3.04-.27-3.49-1.02-.47-4.68-.43-5.25.81-1.49,3.27,3.66,3.09,5.52,2.68Z" style="fill: #181818;"/>
  <path d="M80.57,48.29l-1.97-.74c.28-1.99,2.38-.5,3.12-.43.55.05,1.91-.63,2.7-.65,1.11-.03,3.29.44,4.05,1.33,1.6,1.87.13,5.94.78,7.87.22.64,1.36.7,1.94.66-.02,1.89-3.02,1.54-3.41-.18-.97-4.35,2.45-9.69-5.73-7.97v7.9l1.97.25c.1.29-.11.98-.37.98h-5.06l.23-1.13,1.74-.11v-7.78Z" style="fill: #181818;"/>
  <path d="M126.37,57.3c-1.18-1.22.58-1.28,1.61-1.23-.22-2.29.29-5.07.01-7.3-.21-1.67-2-.08-1.99-1.71.97-1.21,2.67.08,3.29.07s1.86-.63,2.76-.63c.63,0,2.05.26,2.66.49,3.34,1.26,1.18,6.39,1.94,8.67.22.65,1.35.69,1.94.66v.85c-6.06,2.11-1.88-6.54-4.19-8.64-1.19-1.09-3.48-.56-4.95-.36v7.9l1.74.11.23,1.13h-5.06Z" style="fill: #181818;"/>
  <path d="M47.35,52.86c-1.08.32.56,2.57,1.27,2.93,1.73.9,3.47.17,5.28.28l-.03.83-.38.36c-5.46.93-8.54-.57-8-6.52.58-6.37,10.37-4.92,9.09.7-.11.46-.9,1.41-1.3,1.41-1.23,0-5.09-.25-5.93,0ZM52.91,51.62c1.2-5.06-6.3-4.93-5.93,0h5.93Z" style="fill: #181818;"/>
  <path d="M124.44,47.76c2.06,2.06,1.77,8.05-1.23,9.35-4.98,2.15-7.86-2.51-6.82-7.07.79-3.45,5.56-4.77,8.05-2.28ZM120.01,47.98c-2.94.6-3.05,6.99-.24,8.02,5.63,2.07,6.49-9.3.24-8.02Z" style="fill: #181818;"/>
  <path d="M156.87,70.89h-7.65c.08-1.92.35-4.54,2.29-5.49,3.67-1.79,6.65,1.94,5.36,5.49Z" style="fill: #181818;"/>
  <path d="M63.27,46.95v2.7s-1.21-.01-1.21-.01l-.41-1.73c-1.18.07-4.03-.44-4.03,1.37,0,2.22,6.25,1.63,6.42,5.19.18,3.8-5.49,3.34-7.88,2.55-.74-2.54,1.5-4.28,1.45-.95,1.66.08,4.38.81,4.94-1.38.17-2.62-6.61-1.79-6.43-5.66.15-3.24,5.02-2.5,7.16-2.09Z" style="fill: #181818;"/>
  <path d="M68.46,46.69c.55.03,3.09-.18,3.22.4v.83s-2.82.04-2.82.04c-.32.08-.35.3-.41.58-.17.93-.1,6.72.38,7.28.84,1,2.54-.11,2.96.5.54.78-.54,1.09-1.05,1.18-5.56.99-3.33-6.39-3.77-9.57-3.08.41-2.8-1.51,0-1.23.09-1.15-.55-3.22,1.25-2.61l.23,2.61Z" style="fill: #181818;"/>
  <path d="M106.24,46.69c1.1.12,2.48-.43,3.21.62.23,1.09-3,.41-3.21.61.26,1.6-.55,7.1.5,8.02,1.18,1.02,2.95-.87,2.7,1.35-6.67,1.64-4.22-4.92-4.71-8.97l-.37-.37-1.82-.04v-.83s2.22-.41,2.22-.41v-2.71s1.38.23,1.38.23l.11,2.49Z" style="fill: #181818;"/>
  <path d="M148.74,72.15c1.59-.1,3.2.04,4.8-.01.79-.02,2.11-.77,2.33.36-.19.87-5.11,4.1-6.01,4.02-2.38-.2-1.5-2.84-1.13-4.36Z" style="fill: #181818;"/>
  <path d="M75.87,55.7c.51.6,1.23.66,1.98.62l-.03.95c-5.44,1.8-2.82-6.38-3.42-9.35l-1.57-.04c-.39-.14-.49-.44-.41-.82.06-.31,3.21-.7,3.46,0v8.64Z" style="fill: #181818;"/>
  <path d="M112.42,47.92l-1.7-.02-.27-.6c.54-.79,3.45-.89,3.66.02.05.22-.22.8-.22,1.2,0,1.15-.24,7.16.42,7.56.52.32,1.38.01,1.81.6-1.04,1.66-3.7.87-3.7-1.23v-7.53Z" style="fill: #181818;"/>
  <path d="M144.15,70.89c-1.53-2.7,1.84-5.85,4.59-4.29l-.88,4.29h-3.7Z" style="fill: #181818;"/>
  <path d="M147.73,72.12l-.25,2.71c-.38.45-2.84-2.1-2.96-2.59.03-.59,2.74.11,3.2-.12Z" style="fill: #181818;"/>
  <path d="M112.69,45.18c-.54-.37-.48-3.41,1.23-2.33.71.48-.12,3.07-1.23,2.33Z" style="fill: #181818;"/>
  <path d="M74.79,42.76c2.19-.74,1.22,3.32-.17,2.33l-.19-.3c-.04-.55-.27-1.82.36-2.03Z" style="fill: #181818;"/>
</svg>