<?xml version="1.0" encoding="UTF-8"?>
<svg id="Layer_1" data-name="Layer 1" xmlns="http://www.w3.org/2000/svg" viewBox="0 0 160 90">
  <path d="M18.27,39.73l18.76-23.87.68.23,18.73,23.07-.35.57c-12.12-4.67-25.66-4.39-37.82,0Z" style="fill: #181818;"/>
  <polygon points="14.41 56.32 9 43.67 9.3 43.14 25.04 47.51 28.27 56.32 14.41 56.32" style="fill: #181818;"/>
  <path d="M121.41,70.86l1.33.26-.18,2.6-6.73-.11-.07-2.48,1.34-.37.22-3.98-1.6-.38.22-2.7c.68-.03,1.52-.36,2.16-.34.83.03,1.62.74,2.26.69s1.61-.68,2.52-.68c.75,0,1.77.45,2.51.46,1.7.02,2.68-.77,4.7-.17,3.04.89,2.34,4.6,2.48,7.06.18.53.89.36,1.33.37-.13,1.24.58,2.68-1.04,2.94-3.06.48-4.11-.99-4.39-3.76-.08-.86.15-2.48-.07-3.11s-1.55-.75-1.55-.26v3.41c0,.5.84.95,1.35.8l-.1,2.49c-2.21,1.12-4.66.47-5.05-2.22-.17-1.18.19-3.37-.1-4.22-.17-.52-1.07-.65-1.55-.61v4.32Z" style="fill: #181818;"/>
  <path d="M37.36,63.14h-1.59c.14-.68-.35-2.63.39-2.91,1.43-.54,5.64-.64,7.23-.51,2.08.18,4,.96,4.21,3.29.14,1.61-.1,2.41-1.37,3.42,3.62,2.21,2.27,7.19-1.94,7.61-1.25.13-7.49.05-8.29-.56-.48-.37-.11-2.39-.22-3.07h1.59s0-7.27,0-7.27ZM41.22,62.68l.21,2.63c3.28.59,3.03-3.2-.21-2.63ZM43.89,70.58c.09-.13.22-.96.2-1.17-.14-1.58-1.68-1.28-2.88-1.28v2.96c.6.07,2.33-.02,2.67-.51Z" style="fill: #181818;"/>
  <path d="M89.83,59.5v4.09c1.58.02,2.75-.44,4.31.12,2.72.96,1.91,4.75,2.08,7.01.18.53.89.36,1.33.37-.13,1.44.63,2.74-1.25,2.96-2.43.28-4.04-.66-4.38-3.13-.26-1.87.87-5.17-2.1-4.14v3.75l1.48.79-.1,2.4-6.96-.11-.07-2.48,1.34-.37c.18-.1.19-.27.22-.46.18-.94.14-5.77,0-6.83-.17-1.34-1.32-.41-1.57-1.16l-.03-2.81h5.68Z" style="fill: #181818;"/>
  <path d="M70.07,73.81l.03-2.7,1.34-.37.19-3.61-1.53-.63v-2.55s.35-.33.35-.33c.59.05,1.25-.27,1.78-.26.86,0,1.96.65,2.5.66.77.02,2.19-.7,3.38-.64,1.71.08,3.43,1.09,3.73,2.88.29,1.73-.88,5.23,1.65,4.83l-.11,2.51c-5.44,2.01-5.81-2.42-5.69-6.6-.33-.56-1.93-.6-1.93-.11v3.63l1.33.71.03,2.58h-7.04Z" style="fill: #181818;"/>
  <path d="M53.44,63.43c4.63-.33,6.29,2.55,5.7,6.84-.69,5.08-9.48,5.15-10.18,0-.49-3.58.52-6.56,4.48-6.84ZM54.85,70.52c.16-.51,0-2.66,0-3.41,0-.23-.69-.71-1.14-.47-.93.5-.32,3.04-.42,3.95.4.24,1.39.46,1.56-.08Z" style="fill: #181818;"/>
  <path d="M102.51,63.42c4.62-.42,6.28,2.63,5.71,6.85-.68,5.03-9.45,5.34-10.18-.23-.46-3.49.69-6.28,4.48-6.62ZM102.36,70.6c.09.15.93.31,1.18.24.84-.25,1.04-3.94-.23-4.27-1.36-.35-1.31,3.43-.94,4.03Z" style="fill: #181818;"/>
  <path d="M69.39,67.79c-.28,1-3.83.92-3.18-1.02h-.68v3.75l1.56.6.03,2.7h-7.27l.03-2.7,1.34-.37c.24-1.37.97-4.33-1.15-4.08l-.12-2.87c1.57-1.12,3.35.22,4.56.21,1.32,0,3.38-1.42,4.88-.09v3.86Z" style="fill: #181818;"/>
  <path d="M113.46,59.5v11.25l1.56.71c1.01,3.4-3.96,3.21-5.2,1.33-1.14-1.72-.06-7.49-.48-9.74-.19-.57-1.07-.35-1.56-.37v-3.18h5.68Z" style="fill: #181818;"/>
  <path d="M37.58,56.09v-11.25l-.37-.32c-2.23.45-2.21-1.07.06-1.35s5.48-.55,7.43.69c2.71,1.72,2.71,7.82,1.38,10.39-1.45,2.79-5.89,2.59-8.5,1.84ZM38.95,55.18c1.71.18,3.99.44,5.34-.91,1.71-1.7,1.65-7.52-.22-9.09-1.11-.93-3.89-1.31-5.11-.57v10.56Z" style="fill: #181818;"/>
  <path d="M99.41,55.15l1.79.26c-.13,1.95-2.18.74-3.08.7-.65-.04-1.54.39-2.26.44-2.85.19-5.17-.68-4.64-3.96s6.76-1.42,6.8-1.83c.06-3.33-2.11-3.16-4.77-3.07.14,3.04-2.04,1.64-1.26-.69.24-.34,2.65-.6,3.23-.58,5.73.19,3.82,4.64,4.2,8.74ZM97.75,55.15c.29-.8.64-2.8-.25-3.21-.94-.44-4.31-.4-4.83.74-1.37,3.01,3.37,2.84,5.08,2.47Z" style="fill: #181818;"/>
  <path d="M80.52,48.03l-1.82-.68c.26-1.83,2.19-.46,2.87-.4.51.04,1.76-.58,2.49-.6,1.02-.03,3.03.4,3.73,1.22,1.47,1.72.12,5.46.71,7.24.2.59,1.25.64,1.78.61-.02,1.74-2.78,1.41-3.13-.16-.89-4,2.26-8.91-5.27-7.33v7.27l1.82.23c.1.26-.1.91-.34.91h-4.66l.21-1.04,1.6-.1v-7.16Z" style="fill: #181818;"/>
  <path d="M122.66,56.32c-1.08-1.12.53-1.18,1.48-1.13-.2-2.11.26-4.66,0-6.71-.19-1.54-1.84-.07-1.83-1.58.89-1.11,2.45.07,3.03.06s1.71-.58,2.54-.58c.58,0,1.88.24,2.45.45,3.08,1.16,1.08,5.87,1.79,7.98.2.6,1.25.64,1.78.61v.78c-5.58,1.94-1.73-6.01-3.85-7.95-1.1-1-3.2-.52-4.55-.33v7.27l1.6.1.21,1.04h-4.66Z" style="fill: #181818;"/>
  <path d="M49.96,52.23c-.99.29.52,2.36,1.16,2.7,1.59.83,3.19.16,4.86.26l-.03.77-.35.33c-5.02.85-7.86-.53-7.36-6,.53-5.86,9.54-4.53,8.37.64-.1.43-.83,1.3-1.2,1.3-1.13,0-4.68-.23-5.45,0ZM55.08,51.1c1.1-4.66-5.8-4.54-5.45,0h5.45Z" style="fill: #181818;"/>
  <path d="M120.88,47.54c1.9,1.9,1.63,7.41-1.13,8.6-4.58,1.98-7.23-2.31-6.27-6.5.73-3.17,5.12-4.38,7.4-2.1ZM116.81,47.74c-2.7.55-2.8,6.43-.22,7.38,5.18,1.91,5.97-8.56.22-7.38Z" style="fill: #181818;"/>
  <path d="M150.72,68.82h-7.04c.07-1.76.32-4.18,2.11-5.05,3.38-1.64,6.11,1.78,4.93,5.05Z" style="fill: #181818;"/>
  <path d="M64.61,46.79v2.49s-1.11-.01-1.11-.01l-.38-1.59c-1.08.06-3.7-.41-3.7,1.26,0,2.04,5.75,1.5,5.9,4.77.16,3.5-5.05,3.07-7.25,2.35-.69-2.34,1.38-3.93,1.33-.88,1.53.08,4.03.75,4.54-1.27.15-2.41-6.08-1.65-5.92-5.21.13-2.98,4.62-2.3,6.59-1.92Z" style="fill: #181818;"/>
  <path d="M69.39,46.55c.51.02,2.84-.16,2.96.37v.76s-2.59.03-2.59.03c-.29.08-.33.28-.37.54-.16.86-.09,6.18.35,6.7.78.92,2.34-.1,2.72.46.5.71-.49,1-.97,1.08-5.12.91-3.06-5.88-3.47-8.81-2.83.38-2.57-1.39,0-1.13.08-1.06-.5-2.96,1.15-2.4l.21,2.4Z" style="fill: #181818;"/>
  <path d="M104.15,46.55c1.01.11,2.28-.39,2.95.57.21,1-2.76.37-2.95.56.24,1.47-.51,6.53.46,7.38,1.09.94,2.71-.8,2.48,1.25-6.13,1.51-3.88-4.52-4.34-8.25l-.34-.34-1.67-.03v-.77s2.04-.38,2.04-.38v-2.49s1.27.21,1.27.21l.1,2.29Z" style="fill: #181818;"/>
  <path d="M143.24,69.97c1.47-.09,2.95.03,4.42-.01.72-.02,1.94-.71,2.15.33-.18.8-4.7,3.77-5.53,3.7-2.19-.18-1.38-2.62-1.04-4.01Z" style="fill: #181818;"/>
  <path d="M76.2,54.84c.47.55,1.13.61,1.82.57l-.03.88c-5,1.66-2.59-5.87-3.15-8.61l-1.44-.03c-.36-.13-.45-.4-.38-.76.06-.28,2.95-.65,3.18,0v7.95Z" style="fill: #181818;"/>
  <path d="M109.83,47.69l-1.57-.02-.25-.55c.5-.73,3.18-.82,3.36.02.05.21-.2.74-.2,1.11,0,1.06-.22,6.59.39,6.96.48.29,1.27.01,1.66.55-.95,1.53-3.4.8-3.4-1.14v-6.93Z" style="fill: #181818;"/>
  <path d="M139.02,68.82c-1.41-2.48,1.7-5.38,4.22-3.95l-.81,3.95h-3.41Z" style="fill: #181818;"/>
  <path d="M142.31,69.95l-.23,2.5c-.35.41-2.61-1.93-2.72-2.39.03-.54,2.52.1,2.95-.11Z" style="fill: #181818;"/>
  <path d="M110.07,45.17c-.5-.34-.44-3.13,1.13-2.15.65.44-.11,2.83-1.13,2.15Z" style="fill: #181818;"/>
  <path d="M75.21,42.94c2.01-.68,1.12,3.06-.16,2.15l-.18-.28c-.04-.51-.25-1.67.33-1.87Z" style="fill: #181818;"/>
</svg>