<svg width="48" height="48" viewBox="0 0 48 48" fill="none" xmlns="http://www.w3.org/2000/svg">
<g clip-path="url(#clip0_452_3016)">
<path d="M24 0C30.7158 0 36.16 5.44422 36.16 12.16C36.16 17.9185 32.1572 22.7419 26.7822 24H48C48 30.7158 42.5558 36.16 35.84 36.16C30.0814 36.16 25.258 32.157 24 26.7819V48C17.2842 48 11.84 42.5558 11.84 35.84C11.84 30.0815 15.8428 25.2581 21.2178 24H0C0 17.2842 5.44422 11.84 12.16 11.84C17.9185 11.84 22.7419 15.8428 24 21.2178V0Z" fill="url(#paint0_linear_452_3016)"/>
</g>
<defs>
<linearGradient id="paint0_linear_452_3016" x1="24" y1="0" x2="24" y2="48" gradientUnits="userSpaceOnUse">
<stop offset="0.3" stop-color="#E33C54"/>
<stop offset="1" stop-color="#B2FF18"/>
</linearGradient>
<clipPath id="clip0_452_3016">
<rect width="48" height="48" fill="white"/>
</clipPath>
</defs>
</svg>
