<?xml version="1.0" encoding="UTF-8"?>
<svg id="Layer_1" data-name="Layer 1" xmlns="http://www.w3.org/2000/svg" viewBox="0 0 160 90">
  <path d="M114.28,31.37c.18-.12,4.23-.08,4.36.1.08.12.08.43.07.58-.07.64-.55.38-1.02.63l-.13.25v12.4c-.14,5.74-7.28,7.74-10.63,3.22-1.41,2.68-4.33,4.47-7.12,5.47-16.59,5.97-33.63-8.78-49.09,3.2-1.14.88-2.13,1.91-3.24,2.83l-10.44-5.77c-.08-.39,3.16-2.56,3.68-2.88,8.49-5.31,17.76-6.95,27.62-5.22,9.49,1.66,19.11,6.94,28.89,5.76,3.6-.44,8.36-2.19,9.13-6.19l1.33-.12c-.11,3.31,4.65,4.17,5.64,1.01.16-.53.35-3.59.05-3.78-.38-.24-1.2.57-1.67.76-7.34,3.11-10.69-10.61-3.15-12.5,2.04-.51,3.38.12,5.03,1.23.53-.01.63-.94.71-.99ZM110.56,33.91c-3.53.6-3.27,7.99,1.33,7.15.68-.13,1.41-.81,1.56-1.48.15-.71.15-3.36.03-4.09-.23-1.34-1.72-1.78-2.92-1.58Z" style="fill: #181818;"/>
  <path d="M42.47,17.06l-7.22,9.68c-.1.08-.15.05-.25,0-.54-.27-1.18-.98-1.86-1.32-4.71-2.33-9.81.11-12.38,4.29-7.1,11.55,7.15,24.33,18.78,16.23.45-.31,1.37-1.47,1.9-.74.39.53-.27,1.04-.62,1.38-7.25,6.98-19.32,5.61-25.12-2.48-6.33-8.83-2.86-20.57,5.05-27.05h21.72Z" style="fill: #181818;"/>
  <path d="M73.12,23v17.13c0,.12.35.69.48.82.72.72,2.03.8,2.9.28,1.23-.74.45-3.36.67-4.62-.34-.28-2.03-1.02-2.03-1.41v-3.67l.19-.19h3.86v4.93c.72.2,1.23.94,2.03.89-.19-5.06,7.13-8.69,10.32-4.18,1.4-1,4.23-2.96,5.83-1.51.29.26.54.98,1.08.83.92-.24-.34-1.58.82-2.35,1.47-.97,2.63,1.34,3.87.96.94-.29.67-1.41.28-2.06-.29-.48-1.45-1.37-1.05-1.88.34-.44,1.22.25,1.53.52,2.71,2.31,1.21,8.01-2.26,6.94-.81-.25-1.41-1.83-2.59-.39l-.09,8c.02.48.89.28,1.08.56.14.21.12.86-.13,1.02h-5v-9.04s-.26-.64-.28-.67c-.41-.41-1.17-.17-1.62.03-1.38.6-.97.86-1.38,2.03-.86,2.42-3.56,3.41-5.96,3.35.56,2.33,3.62,3.04,5.56,1.95.3-.17,1.99-1.98,1.87-.65-.1,1.06-1.96,2.51-2.92,2.89-3.89,1.53-7.9-.69-8.95-4.64l-2.03-.82v2.97s-.3.79-.36.91c-.97,1.93-3.78,1.85-5.66,1.68-2.27-.2-3.98-1.63-4.12-3.98v-15.05c.02-.44-1.01-.42-1.12-.59l-.02-.99h5.19ZM85.4,37.8c1.72.53,5.4-2.66,3.68-4.12-1.85-1.57-4.12,2.49-3.68,4.12Z" style="fill: #181818;"/>
  <path d="M40.57,40.08c-1.28,1.08-4.07,4.25-5.86,3.89-1.04-.21-1.09-1.49-1.94-1.61-1-.15-1.62,1.11-2.72,1.45-3.78,1.14-6.9-2.23-7.09-5.81-.21-4,2.86-8.12,7.2-6.81.65.2,1.79,1.14,2.11,1.16.54.03.59-.59.7-1h4.43l-.06,1.02-.96.31-.12.25.1,6.99c.51,1.11,2.37-.37,2.93-.8.45-.35.89-.71,1.28-1.13v-4.81c0-.06-.3-.32-.44-.32-.17,0-1.35.83-1.3-.29s1.94-1.7,2.93-1.59c1.54.18,1.89,1.81,2.44,1.86.49.04,1.03-.99,1.43-1.3,2.32-1.8,5.66.7,4.37,3.61-.77,1.75-4,2.4-4,.19,0-.6.84-1.39,0-1.77-.64-.28-1.06.17-1.33.69l-.05,7.65c.1.54.83.51,1.24.72.03.33.12.76-.17.99h-4.94l-.19-.19v-3.35ZM29.27,33.91c-3.48.6-3.28,7.93,1.33,7.15.61-.1,1.42-.75,1.56-1.35s.14-3.69.02-4.34c-.22-1.24-1.85-1.64-2.92-1.45Z" style="fill: #181818;"/>
  <path d="M55.64,40.77c.21.73,1.72.82,1.9-.13.1-.54-.21-.72-.25-1.19l1.18-.39c.19,1.85,3.38,3.29,4.49,1.57,1.46-2.27-2.32-2.93-3.4-4.02-1.29-1.31-.97-3.64.52-4.68.15-.11,1.09-.58,1.19-.58h6.58c.15,0,.17.23.14.38-.05.26-1.2,2.89-1.34,2.97-.34.17-.6-.22-.93-.35-.85-.32-2.3-.65-3.04.02-.26.24-.3.83-.15,1.14.35.77,2.87,1.53,3.7,2.12,2.72,1.94,1.03,5.71-2.05,5.98-2.32.2-6.54.18-8.87,0-1.93-.15-3.4-1.3-3.72-3.24v-15.79c-.1-.54-1.01-.28-1.22-.69-.11-.29-.15-.68.13-.89h4.94l.19.19v17.58Z" style="fill: #181818;"/>
  <path d="M66.02,57.27c2.59,0,5.3-.4,7.85.19,1.75.4,2.88,1.5,3.35,3.23.65,2.37.75,8.32-.83,10.3-1.97,2.47-7.26,1.76-10.06,1.71l-.32-.19v-15.24ZM67.67,71.31c2.16-.08,5.97.69,7.4-1.4,1.12-1.64,1.01-6.8.52-8.72-.27-1.06-.89-1.97-1.97-2.33-.23-.08-1.16-.32-1.33-.32h-4.62v12.77Z" style="fill: #181818;"/>
  <path d="M117.94,72.7c-.34-.06-1.38.18-1.5-.21-.17-2.3.17-4.79-.02-7.06-.04-.5-.19-1.39-.5-1.78-.95-1.18-4.01-.82-4.94.38v8.66c-.58-.08-1.46.29-1.62-.47-.25-2.41.24-5.2-.03-7.56-.27-2.41-4.07-2.05-5.32-.63v8.66c-.41-.02-1.65.18-1.65-.44v-10.43c.33.03.73-.07,1.05.03.38.11.38.63.66.62.31,0,.7-.36,1.04-.49,1.37-.5,2.89-.64,4.24,0,.48.23.71.62,1.15.83,1.7-1.28,4.78-1.93,6.48-.36.43.4.95,1.39.95,1.96v8.28Z" style="fill: #181818;"/>
  <path d="M99.04,17.22c.32.57.04,1.26.21,1.88.12.43.83.51,1.02.11.25-.52-.28-2,.64-2.15.56-.09.99.48,1.64.51.79.04,1.35-.61,2.03.24.92,1.14-.55,1.56-.77,2.41-.16.63.18,1.85-.98,1.62-.47-.09-1.56-1.23-1.93-.48-.49.98,1.41,1.05,1.56,1.86s-.73.84-1.12,1.27c-.57.63-.34,1.81-1.47,1.93s-1.08-1.23-1.57-1.83c-.43-.53-1.51-.63-1.08-1.58.23-.49,1.88-.81,1.44-1.56-.61-1.06-1.64.88-2.57.28-.5-.33-.16-1.03-.4-1.63-.27-.69-1.57-1.39-.7-2.34.69-.75,1.34-.11,2.09-.18.68-.06,1.2-.85,1.93-.35Z" style="fill: #181818;"/>
  <path d="M88.69,72.7c-.33-.01-.7.05-1.02-.06-.36-.12-.38-.55-.69-.59-1.7.79-3.42,1.32-5.22.41-4.03-2.04-3.13-13.27,4.27-10.46.32.12.82.59,1.12.42.08-.05.16-.48.49-.58.32-.09.72,0,1.05-.03v10.88ZM87.02,63.88c-4.25-2.77-6.74.99-5.74,5.16.67,2.78,3.71,3.29,5.7,1.51l.04-6.67Z" style="fill: #181818;"/>
  <path d="M129.08,61.83v10.88c-.33-.01-.7.05-1.02-.06-.4-.13-.36-.63-.81-.58-.18.02-1.03.52-1.41.63-3.44,1-5.73-1.11-6.01-4.48-.4-4.93,2.68-8.36,7.54-5.75l.18-.06c.31-.74.83-.58,1.52-.58ZM124.11,62.99c-2.8.45-3.06,4.63-2.22,6.71.92,2.29,4.21,2.46,5.65.63l.02-6.04c-.18-1.12-2.51-1.45-3.44-1.31Z" style="fill: #181818;"/>
  <path d="M139.97,65.75h1.9c.3-.5,2.85-3.92,3.1-3.92h1.84l-3.65,4.72,4.41,6.15h-1.84l-.32-.22-3.67-5.21h-1.77v5.44c-.49-.07-1.15.18-1.52-.19v-15.24c.53.01,1.12-.13,1.52.32v8.16Z" style="fill: #181818;"/>
  <path d="M99.96,72.7c-.34-.06-1.38.18-1.5-.21-.19-2.36.2-4.98-.02-7.31-.28-3.04-3.92-2.66-5.7-1.14v8.66c-.49-.07-1.15.18-1.52-.19v-10.69c.33.03.75-.07,1.05.02s.32.6.65.61c1.82-1.18,5.61-1.47,6.68.8.06.14.36.96.36,1.04v8.41Z" style="fill: #181818;"/>
  <path d="M131.61,61.83c.33.03.75-.07,1.05.02s.32.6.65.61c1.11-.55,2.21-1.01,3.49-.89v1.52c-.94-.22-2.37-.01-3.16.58-.09.07-.51.46-.51.5v8.54l-1.52-.13v-10.75Z" style="fill: #181818;"/>
</svg>