<?xml version="1.0" encoding="UTF-8"?>
<svg id="Layer_1" data-name="Layer 1" xmlns="http://www.w3.org/2000/svg" viewBox="0 0 160 90">
  <path d="M145.87,40.14l1.19.07,5.74,7.18v-7.25h1.26v9.3l-.78.47-6.15-7.57v7.09c0,.33-.89.6-1.26.47v-9.77Z" style="fill: #181818;"/>
  <path d="M95.35,39.89c7.47-1.18,8.1,11.33-.37,9.99-5.07-.8-4.97-9.15.37-9.99ZM93.33,47.59c3.46,3.93,9.53-1.86,5.41-5.57-3.65-3.28-8.54,2.01-5.41,5.57Z" style="fill: #181818;"/>
  <path d="M137.6,39.89c7.36-1.16,8.06,11.32-.37,9.99-5.07-.8-4.98-9.15.37-9.99ZM141.35,47.59c2.89-3.24-1.41-8.69-5.26-5.73-4.33,3.33,1.53,9.92,5.26,5.73Z" style="fill: #181818;"/>
  <path d="M30.01,40.14c3.05.54,3.34,4.86.15,5.52-.06.88,3.06,3.79,2.53,4.25-1.12.96-3.08-3.03-3.8-3.61-.83-.66-1.84-.5-2.82-.49-.31.3.79,5.46-1.26,3.63v-9.3c1.58.19,3.71-.27,5.2,0ZM26.07,44.87c6.9,1.02,6.87-4.75,0-3.79v3.79Z" style="fill: #181818;"/>
  <path d="M108.83,40.14c3.05.54,3.34,4.86.15,5.52l2.53,4.25c-2.51-.1-2.83-4.11-5.2-4.13-3.09-.02.16,4.18-2.68,4.13v-9.77c1.58.19,3.71-.27,5.2,0ZM104.89,44.87c7.03.94,6.99-4.67,0-3.79v3.79Z" style="fill: #181818;"/>
  <path d="M123.17,49.91v-9.77h4.89c.76,0,2.79,2.03,3.15,2.83,2.31,5.12-3.8,7.74-8.04,6.94ZM124.43,48.65c8.15,1.26,7.97-8.57,0-7.57v7.57Z" style="fill: #181818;"/>
  <polygon points="74.3 40.14 74.3 41.08 68.63 41.08 68.63 44.24 73.52 44.24 73.99 44.71 73.52 45.5 68.63 45.5 68.63 48.65 74.15 48.65 74.62 49.43 74.15 49.91 67.37 49.91 67.37 40.14 74.3 40.14" style="fill: #181818;"/>
  <path d="M22.28,40.14c.09,1.46-.31.95-.79.95h-4.89v3.15h5.04v1.26h-5.04v3.15h5.52l.47.78-.47.48h-6.78v-9.77h6.94Z" style="fill: #181818;"/>
  <path d="M41.83,47.39v-7.25h1.26v9.3l-.78.47c-.45-.1-4.9-6.21-5.75-7.16-.19-.21.02-.6-.72-.4v7.57h-.95v-9.77c.6-.1.85.09,1.28.45,1.91,1.59,3.43,5.33,5.65,6.8Z" style="fill: #181818;"/>
  <path d="M11.09,40.14c.96.21,2.28,1.9,2.26,2.94-.04,3.01-3.91,3.5-6.2,3.36v3.28s-.79.19-.79.19c-.87-.28-.15-8.58-.16-9.78,1.43.21,3.57-.28,4.89,0ZM7.15,45.18c6.67,1.03,6.58-4.94,0-4.1v4.1Z" style="fill: #181818;"/>
  <path d="M85.59,39.91c1.36-.2,3.25.62,4.16,1.65l-.48.79c-7.3-5.43-9.38,7.08-2.87,6.61,1.72-.12,2.68-2.32,3.66-.78-7.37,7.15-13.14-7.01-4.47-8.26Z" style="fill: #181818;"/>
  <path d="M120.09,40.21c.26-.15,1.28-.21,1.51.09-2.23,2.99-4.92,5.31-4.1,9.46-2.1.72-.94-2.7-1.33-4.03-.35-1.2-3.38-4.17-4.03-5.58,2.41-.42,3.11,2.99,4.58,4.41.92.23,2.74-3.99,3.37-4.34Z" style="fill: #181818;"/>
  <polygon points="59.8 40.14 59.8 48.65 64.69 48.65 65.16 49.13 64.69 49.91 58.54 49.91 58.54 40.14 59.8 40.14" style="fill: #181818;"/>
  <path d="M49.71,49.91v-9.77l1.24.52c-.61,2.23-.14,4.14.04,6.28.06.72-.58,1.28.14,1.71h4.73l.47.48-.47.78h-6.15Z" style="fill: #181818;"/>
  <polygon points="46.88 40.14 46.88 49.44 46.4 49.91 45.61 49.44 45.61 40.14 46.88 40.14" style="fill: #181818;"/>
</svg>