<?xml version="1.0" encoding="UTF-8"?>
<svg id="Layer_1" data-name="Layer 1" xmlns="http://www.w3.org/2000/svg" viewBox="0 0 160 90">
  <polygon points="62.15 61.08 64.23 71.19 66.13 61.08 70.44 61.1 72.35 71.19 74.43 61.08 78.4 61.08 74.34 75.7 70.38 75.89 68.47 65.95 66.3 75.87 62.24 75.7 58.36 61.08 62.15 61.08" style="fill: #181818;"/>
  <polygon points="48.98 61.08 54.03 69.74 54.03 61.08 57.82 61.08 57.82 75.88 53.67 75.88 48.8 67.21 48.8 75.88 45.01 75.88 45.01 61.08 48.98 61.08" style="fill: #181818;"/>
  <polygon points="106.1 14.51 111.43 23.54 111.43 14.51 115.04 14.51 115.04 29.31 111.25 29.31 106.01 20.65 106.01 29.31 102.04 29.31 102.04 14.51 106.1 14.51" style="fill: #181818;"/>
  <polygon points="111.43 38.88 111.43 30.03 115.04 30.03 115.04 44.65 110.89 44.65 105.83 35.99 105.83 44.65 102.04 44.65 102.04 30.03 106.1 30.03 111.43 38.88" style="fill: #181818;"/>
  <path d="M87.96,34.91h-4.15c-.11,0,.04-1.14-1.31-1.66-6.15-2.41-7.34,9.18-.78,8.33,1.09-.14,2.64-.88,2.63-2.15h-2.71v-2.89h6.68v8.12h-2.89l-.18-1.44c-.97.95-1.94,1.51-3.33,1.63-11.53,1.01-11.49-16.22.17-15.16,2.85.26,5.6,2.23,5.87,5.23Z" style="fill: #181818;"/>
  <path d="M105.97,45.06c6.14-.89,10.36,3.7,9.17,9.71-1.67,8.46-14.54,7.88-15.08-1.37-.21-3.66,2.02-7.78,5.91-8.34ZM107.42,48.3c-4.5.34-4.34,8.3-.55,8.94,6.08,1.04,5.74-9.34.55-8.94Z" style="fill: #181818;"/>
  <path d="M66.26,14.2c3.77-.48,7.42,1.03,8.62,4.83,1.52,4.81-.98,10.05-6.32,10.47-10.72.85-11.2-14.16-2.3-15.29ZM67.35,17.44c-4.77.5-4.27,8.94.47,8.79s4.63-9.32-.47-8.79Z" style="fill: #181818;"/>
  <polygon points="85.26 45.38 85.26 50.79 90.49 50.79 90.49 45.38 94.46 45.38 94.46 60.36 90.49 60.36 90.49 54.22 85.26 54.22 85.26 60.36 81.29 60.36 81.29 45.38 85.26 45.38" style="fill: #181818;"/>
  <polygon points="101.32 14.51 101.32 17.58 93.2 17.58 93.2 20.11 100.6 20.11 100.6 23.18 93.2 23.18 93.2 25.88 101.32 25.88 101.32 29.31 89.23 29.31 89.23 14.51 101.32 14.51" style="fill: #181818;"/>
  <polygon points="48.98 30.03 48.98 35.27 54.21 35.27 54.21 30.03 58.18 30.03 58.18 44.65 54.21 44.65 54.21 38.7 48.98 38.7 48.98 44.65 45.01 44.65 45.01 30.03 48.98 30.03" style="fill: #181818;"/>
  <path d="M101.32,30.03v3.07h-8.48c.11.8-.28,1.9.27,2.53h7.31v2.89h-7.31c-.44.65-.44,2.26,0,2.89h8.21v3.25h-12.09v-14.62h12.09Z" style="fill: #181818;"/>
  <path d="M80.2,49.89h-3.97c.05-3.25-6.71-1.12-3.01.58,2.15.99,6.88,1.05,7.33,4.22.38,2.67-.63,4.59-3.23,5.4-3.87,1.2-9.6.23-9.57-4.78h3.97c-.46,3.2,6.69,2.59,4.69.09-1.36-1.71-7.56-.98-8.11-4.89-.62-4.41,3.52-5.63,7.11-5.31,2.7.24,4.73,1.86,4.79,4.69Z" style="fill: #181818;"/>
  <path d="M59.27,19.75h-3.97c-.26-2.14-2.48-2.71-4.28-2.02-3.79,1.45-3.09,9.37,2.16,8.48,1.52-.26,1.86-1.43,2.39-2.66h3.88c-.44,5.06-5.33,7.07-9.84,5.6-6.01-1.96-6.65-10.77-1.29-13.93,4-2.36,10.81-.74,10.95,4.54Z" style="fill: #181818;"/>
  <polygon points="89.77 61.08 89.77 64.15 82.37 64.15 82.37 66.67 89.05 66.67 89.05 69.74 82.37 69.74 82.37 72.63 89.77 72.63 89.77 75.88 78.76 75.88 78.76 61.08 89.77 61.08" style="fill: #181818;"/>
  <polygon points="101.5 61.08 101.5 64.15 94.1 64.15 94.1 66.67 100.78 66.67 100.78 69.74 94.1 69.74 94.1 72.63 101.5 72.63 101.5 75.88 90.49 75.88 90.49 61.08 101.5 61.08" style="fill: #181818;"/>
  <path d="M53.31,60.36l5.68-14.99,3.86.04,5.62,14.95h-4.06l-.97-2.6-5.23-.08-.93,2.68h-3.97ZM62.34,54.76l-1.27-4.33c-.25-.19-1.75,4.03-1.98,4.33h3.25Z" style="fill: #181818;"/>
  <path d="M79.84,24.44v4.87h-3.97v-14.8h8.93c.24,0,1.25.47,1.54.63,3.5,1.86,3.06,7.91-.94,8.99-.27.07-1.48.3-1.68.3h-3.88ZM79.84,21.37h3.52c.6,0,1.34-1.09,1.37-1.72.03-.67-.73-2.07-1.37-2.07h-3.52v3.79Z" style="fill: #181818;"/>
  <path d="M58.91,44.65l5.61-14.6,4.05-.03,5.86,14.63h-4.06l-1.11-2.5-5.32.08-.97,2.42h-4.06ZM68.29,39.24l-1.45-5.05c-.26.02-.28.27-.37.44-.61,1.33-.99,3.18-1.44,4.61h3.25Z" style="fill: #181818;"/>
  <path d="M105.83,61.08v5.41l1.08-1,3.52-4.42h4.6l-5.06,5.86,5.06,8.94h-3.88l-3.79-6.13c-.23.22-1.53,1.6-1.53,1.71v4.42h-3.61v-14.8h3.61Z" style="fill: #181818;"/>
  <polygon points="56.02 45.38 56.02 48.44 48.98 48.44 48.98 51.51 54.57 51.51 54.57 54.58 48.98 54.58 48.98 60.36 45.01 60.36 45.01 45.38 56.02 45.38" style="fill: #181818;"/>
  <rect x="95.18" y="45.38" width="3.97" height="14.98" style="fill: #181818;"/>
</svg>