<svg width="48" height="48" viewBox="0 0 48 48" fill="none" xmlns="http://www.w3.org/2000/svg">
<g clip-path="url(#clip0_452_3012)">
<path d="M24 0C26.1208 0 27.84 1.71923 27.84 3.84V14.4213L35.3859 6.87531C36.8856 5.37574 39.317 5.37571 40.8166 6.87531C42.3161 8.37492 42.3161 10.8063 40.8166 12.3059L32.6425 20.48H44.16C46.2808 20.48 48 22.1992 48 24.32C48 26.4408 46.2808 28.16 44.16 28.16H33.5906L40.8166 35.3859C42.316 36.8856 42.3161 39.317 40.8166 40.8166C39.317 42.3161 36.8856 42.316 35.3859 40.8166L27.84 33.2706V44.16C27.84 46.2808 26.1208 48 24 48C21.8792 48 20.16 46.2808 20.16 44.16V32.9625L12.3059 40.8166C10.8063 42.3161 8.37492 42.3161 6.87531 40.8166C5.37571 39.317 5.37574 36.8856 6.87531 35.3859L14.1012 28.16H3.84C1.71923 28.16 0 26.4408 0 24.32C0 22.1992 1.71923 20.48 3.84 20.48H15.0494L6.87531 12.3059C5.3757 10.8063 5.3757 8.37493 6.87531 6.87531C8.37493 5.3757 10.8063 5.3757 12.3059 6.87531L20.16 14.7294V3.84C20.16 1.71923 21.8792 0 24 0Z" fill="url(#paint0_linear_452_3012)"/>
</g>
<defs>
<linearGradient id="paint0_linear_452_3012" x1="24" y1="0" x2="24" y2="48" gradientUnits="userSpaceOnUse">
<stop offset="0.3" stop-color="#B2FF18"/>
<stop offset="1" stop-color="#FFFEEC"/>
</linearGradient>
<clipPath id="clip0_452_3012">
<rect width="48" height="48" fill="white"/>
</clipPath>
</defs>
</svg>
