<?xml version="1.0" encoding="UTF-8"?>
<svg id="Layer_1" data-name="Layer 1" xmlns="http://www.w3.org/2000/svg" viewBox="0 0 160 90">
  <path d="M93.58,52.09c-1.37,0-2.48,1.11-2.48,2.48s1.11,2.48,2.48,2.48,2.48-1.11,2.48-2.48-1.11-2.48-2.48-2.48Z" style="fill: #181818;"/>
  <path d="M93.58,47.37c1.11,0,2.01-.9,2.01-2.01s-.9-2.01-2.01-2.01-2.01.9-2.01,2.01.9,2.01,2.01,2.01Z" style="fill: #181818;"/>
  <circle cx="93.58" cy="36.15" r="1.53" style="fill: #181818;"/>
  <circle cx="93.58" cy="26.93" r="1.06" style="fill: #181818;"/>
  <path d="M86.38,53.03c0-1.11-.9-2.01-2.01-2.01s-2.01.9-2.01,2.01.9,2.01,2.01,2.01,2.01-.9,2.01-2.01Z" style="fill: #181818;"/>
  <path d="M84.37,45.35c.85,0,1.53-.69,1.53-1.53s-.69-1.53-1.53-1.53-1.53.69-1.53,1.53.69,1.53,1.53,1.53Z" style="fill: #181818;"/>
  <circle cx="84.37" cy="34.61" r="1.06" style="fill: #181818;"/>
  <circle cx="65.95" cy="48.43" r="2.01" style="fill: #181818;"/>
  <circle cx="65.95" cy="39.21" r="1.53" style="fill: #181818;"/>
  <circle cx="65.95" cy="30.01" r="1.06" style="fill: #181818;"/>
  <path d="M114.01,51.49c0-1.11-.9-2.01-2.01-2.01s-2.01.9-2.01,2.01.9,2.01,2.01,2.01,2.01-.9,2.01-2.01Z" style="fill: #181818;"/>
  <path d="M112.01,43.82c.85,0,1.53-.69,1.53-1.53s-.69-1.53-1.53-1.53-1.53.69-1.53,1.53.69,1.53,1.53,1.53Z" style="fill: #181818;"/>
  <circle cx="112.01" cy="33.07" r="1.06" style="fill: #181818;"/>
  <path d="M102.79,52.32c-.85,0-1.53.69-1.53,1.53s.69,1.53,1.53,1.53,1.53-.69,1.53-1.53-.69-1.53-1.53-1.53Z" style="fill: #181818;"/>
  <circle cx="102.79" cy="44.65" r="1.06" style="fill: #181818;"/>
  <path d="M47.53,56.1c.85,0,1.53-.69,1.53-1.53s-.69-1.53-1.53-1.53-1.53.69-1.53,1.53.69,1.53,1.53,1.53Z" style="fill: #181818;"/>
  <circle cx="47.53" cy="45.35" r="1.06" style="fill: #181818;"/>
  <path d="M56.74,53.97c1.37,0,2.48-1.11,2.48-2.48s-1.11-2.48-2.48-2.48-2.48,1.11-2.48,2.48,1.11,2.48,2.48,2.48Z" style="fill: #181818;"/>
  <path d="M56.74,44.29c1.11,0,2.01-.9,2.01-2.01s-.9-2.01-2.01-2.01-2.01.9-2.01,2.01.9,2.01,2.01,2.01Z" style="fill: #181818;"/>
  <circle cx="56.74" cy="33.07" r="1.53" style="fill: #181818;"/>
  <circle cx="56.74" cy="23.87" r="1.06" style="fill: #181818;"/>
  <path d="M78.11,48.43c0-1.63-1.32-2.95-2.95-2.95s-2.95,1.32-2.95,2.95,1.32,2.95,2.95,2.95,2.95-1.32,2.95-2.95Z" style="fill: #181818;"/>
  <path d="M75.16,41.69c1.37,0,2.48-1.11,2.48-2.48s-1.11-2.48-2.48-2.48-2.48,1.11-2.48,2.48,1.11,2.48,2.48,2.48Z" style="fill: #181818;"/>
  <path d="M75.16,32.01c1.11,0,2.01-.9,2.01-2.01s-.9-2.01-2.01-2.01-2.01.9-2.01,2.01.9,2.01,2.01,2.01Z" style="fill: #181818;"/>
  <path d="M75.16,22.33c.85,0,1.53-.69,1.53-1.53s-.69-1.53-1.53-1.53-1.53.69-1.53,1.53.69,1.53,1.53,1.53Z" style="fill: #181818;"/>
  <circle cx="75.16" cy="11.59" r="1.06" style="fill: #181818;"/>
  <path d="M28.55,71.68c.15,0,.31,0,.5.03l.42-1.5c-.26-.1-.54-.16-.85-.16-.35,0-.63.08-.86.26-.22.17-.37.37-.45.61l.04.04c-.18-.12-.37-.24-.58-.32-.51-.21-1.11-.32-1.79-.32s-1.27.11-1.79.32c-.51.21-.91.52-1.19.92-.28.4-.42.87-.42,1.41,0,.46.11.87.32,1.22s.52.63.92.85c-.4.18-.72.41-.96.72-.24.3-.36.64-.36,1.02,0,.59.19,1.01.57,1.24.38.24.95.35,1.71.35h2.21c.36,0,.65.04.86.12.2.08.34.2.42.36.07.16.1.37.08.63h1.63c.1-.4.14-.74.14-1.03,0-1.19-.8-1.79-2.4-1.79h-2.59c-.27,0-.46-.04-.58-.12-.11-.08-.17-.2-.17-.36s.05-.29.14-.41c.09-.1.22-.19.4-.26.31.06.65.1,1.04.1.68,0,1.27-.11,1.79-.32.51-.21.91-.52,1.19-.92.28-.4.42-.87.42-1.41,0-.47-.12-.89-.33-1.25l.03.03c.16-.04.32-.06.47-.06h0ZM25.98,73.95c-.26.26-.59.39-1,.39s-.73-.13-.99-.39c-.26-.26-.39-.59-.39-.99s.13-.74.39-1c.26-.26.59-.38.99-.38s.74.13,1,.38.38.59.38,1-.13.73-.38.99Z" style="fill: #181818;"/>
  <path d="M34.03,70.55c-.28.16-.49.34-.65.56-.16.21-.27.41-.33.58h-.14l-.35-1.35-1.84.46.04.16c.06.27.1.53.13.77.02.24.04.53.04.85v5.6h2.08v-4.72c.04-.18.14-.37.29-.58s.36-.4.62-.56.56-.24.92-.24c.18,0,.33.01.48.04s.26.05.35.08l.35-1.7c-.31-.12-.64-.18-.99-.18-.38,0-.7.08-.97.24h0Z" style="fill: #181818;"/>
  <path d="M42.2,76.67c-.36.14-.76.21-1.2.21s-.86-.1-1.2-.29-.59-.48-.77-.86c-.13-.28-.21-.6-.25-.97h5.09c.08-.89,0-1.67-.22-2.34-.22-.67-.6-1.19-1.15-1.56-.54-.37-1.23-.56-2.08-.56-.74,0-1.41.17-1.99.52s-1.05.82-1.38,1.43c-.33.61-.5,1.3-.5,2.08,0,.83.16,1.55.49,2.15.33.6.8,1.07,1.41,1.39s1.34.48,2.18.48c.64,0,1.25-.1,1.83-.29.57-.2,1.05-.43,1.45-.71l-.74-1.2c-.29.2-.61.37-.97.51h0ZM39.19,72.37c.29-.43.69-.64,1.22-.64.44,0,.79.15,1.03.46s.36.76.36,1.37h-3c.06-.5.18-.9.38-1.19h0Z" style="fill: #181818;"/>
  <path d="M50.99,76.67c-.36.14-.76.21-1.2.21s-.86-.1-1.2-.29-.59-.48-.77-.86c-.13-.28-.21-.6-.25-.97h5.09c.08-.89,0-1.67-.22-2.34s-.6-1.19-1.15-1.56c-.54-.37-1.23-.56-2.08-.56-.74,0-1.41.17-1.99.52s-1.05.82-1.38,1.43c-.33.61-.5,1.3-.5,2.08,0,.83.16,1.55.49,2.15.33.6.8,1.07,1.41,1.39.61.32,1.34.48,2.18.48.64,0,1.25-.1,1.82-.29.57-.2,1.05-.43,1.45-.71l-.74-1.2c-.29.2-.61.37-.97.51h0ZM47.98,72.37c.29-.43.69-.64,1.22-.64.44,0,.79.15,1.03.46s.37.76.37,1.37h-3c.06-.5.18-.9.38-1.19h0Z" style="fill: #181818;"/>
  <path d="M59.17,70.31c-.49,0-.95.09-1.37.28-.42.19-.81.46-1.16.83h-.14l-.36-1.09-1.84.46.04.18c.06.29.1.56.13.83.03.26.04.58.04.94v5.43h2.09v-5.31c.24-.3.49-.52.78-.67.28-.15.58-.23.91-.23.39,0,.68.1.88.31s.29.54.29.99v4.9h2.09v-5.2c0-.85-.2-1.5-.6-1.96-.4-.46-.99-.69-1.77-.69h0Z" style="fill: #181818;"/>
  <polygon points="63.75 78.17 65.84 78.17 65.84 67.36 63.75 67.65 63.75 78.17" style="fill: #181818;"/>
  <path d="M74.39,73.14c0-.97-.26-1.68-.79-2.14-.53-.46-1.27-.68-2.24-.68-.63,0-1.23.1-1.81.3s-1.07.46-1.49.77l.83,1.13h.01c.3-.22.61-.4.92-.54.31-.14.68-.21,1.12-.21.46,0,.81.1,1.03.31s.34.52.34.94v.4h-.34c-.76,0-1.47.09-2.12.28-.65.18-1.19.48-1.59.88-.41.4-.61.92-.61,1.55,0,.44.1.83.31,1.17.2.34.49.6.86.79.36.19.79.28,1.25.28.5,0,.95-.1,1.32-.3s.68-.43.9-.68h.14l.26.79h1.92c-.15-.62-.22-1.37-.22-2.23v-2.8h0ZM72.31,76.24c-.19.21-.41.38-.66.51-.25.13-.53.2-.86.2s-.58-.09-.79-.26c-.2-.18-.3-.41-.3-.72,0-.44.2-.79.6-1.03s.95-.36,1.67-.36h.34v1.67h0Z" style="fill: #181818;"/>
  <path d="M81.22,70.31c-.49,0-.95.09-1.37.28-.42.19-.81.46-1.16.83h-.14l-.36-1.09-1.84.46.04.18c.06.29.1.56.13.83.02.26.04.58.04.94v5.43h2.09v-5.31c.24-.3.49-.52.78-.67.28-.15.58-.23.91-.23.39,0,.68.1.88.31s.29.54.29.99v4.9h2.09v-5.2c0-.85-.2-1.5-.6-1.96-.4-.46-.99-.69-1.77-.69h0Z" style="fill: #181818;"/>
  <path d="M92.87,67.36l-2.09.29v3.27c-.29-.22-.59-.37-.9-.46-.31-.09-.66-.14-1.05-.14-.69,0-1.3.17-1.84.52s-.96.83-1.26,1.44-.45,1.31-.45,2.1c0,1.25.29,2.23.87,2.94.58.7,1.38,1.06,2.41,1.06.45,0,.87-.08,1.24-.24.37-.16.7-.41.99-.74h.14l.26.79h1.92c-.15-.64-.22-1.35-.22-2.16v-8.66h0ZM90.78,75.98v.03c-.15.18-.35.35-.62.53-.26.18-.58.27-.95.27-.56,0-.98-.21-1.27-.62s-.44-1.02-.44-1.81c0-.53.07-.99.21-1.36.14-.38.34-.66.61-.86s.6-.29.98-.29c.33,0,.61.05.84.15.23.1.44.23.63.38v3.58h0Z" style="fill: #181818;"/>
  <path d="M102.31,76.88c-.3,0-.54-.08-.69-.23s-.24-.38-.24-.68v-4.12h2.05l.28-1.33h-2.33v-2l-2.09.29v1.71h-1.49v1.33h1.49v4.2c0,.71.18,1.28.56,1.7.37.42,1.01.63,1.9.63.36,0,.74-.04,1.13-.14.38-.09.74-.22,1.09-.38l-.51-1.27c-.43.2-.81.3-1.14.3h0Z" style="fill: #181818;"/>
  <path d="M108.49,70.55c-.28.16-.49.34-.65.56-.16.21-.27.41-.33.58h-.14l-.35-1.35-1.84.46.04.16c.06.27.1.53.13.77.03.24.04.53.04.85v5.6h2.08v-4.72c.04-.18.14-.37.29-.58s.36-.4.62-.56.56-.24.92-.24c.18,0,.33.01.48.04.14.03.26.05.34.08l.35-1.7c-.31-.12-.64-.18-.99-.18-.38,0-.7.08-.97.24h0Z" style="fill: #181818;"/>
  <path d="M117.83,73.14c0-.97-.26-1.68-.79-2.14s-1.27-.68-2.24-.68c-.63,0-1.23.1-1.81.3-.58.2-1.07.46-1.48.77l.83,1.13h.01c.3-.22.61-.4.92-.54.31-.14.68-.21,1.12-.21.46,0,.81.1,1.03.31s.34.52.34.94v.4h-.34c-.76,0-1.47.09-2.12.28s-1.19.48-1.59.88c-.41.4-.61.92-.61,1.55,0,.44.1.83.31,1.17.2.34.49.6.86.79.36.19.79.28,1.25.28.5,0,.95-.1,1.32-.3s.68-.43.9-.68h.14l.26.79h1.92c-.15-.62-.22-1.37-.22-2.23v-2.8h0ZM115.75,76.24c-.19.21-.41.38-.66.51-.25.13-.53.2-.86.2s-.58-.09-.79-.26c-.2-.18-.3-.41-.3-.72,0-.44.2-.79.6-1.03.4-.24.95-.36,1.67-.36h.34v1.67Z" style="fill: #181818;"/>
  <polygon points="122.92 75.64 122.79 75.64 120.96 70.51 118.8 70.51 121.71 78.17 123.74 78.17 126.65 70.51 124.75 70.51 122.92 75.64" style="fill: #181818;"/>
  <path d="M132.85,76.67c-.36.14-.76.21-1.2.21s-.86-.1-1.2-.29-.59-.48-.77-.86c-.13-.28-.21-.6-.25-.97h5.09c.08-.89,0-1.67-.22-2.34s-.6-1.19-1.15-1.56c-.54-.37-1.23-.56-2.08-.56-.74,0-1.41.17-1.99.52s-1.05.82-1.38,1.43c-.33.61-.5,1.3-.5,2.08,0,.83.16,1.55.49,2.15.33.6.8,1.07,1.41,1.39s1.34.48,2.18.48c.64,0,1.25-.1,1.82-.29.57-.2,1.05-.43,1.45-.71l-.74-1.2c-.29.2-.61.37-.97.51h0ZM129.84,72.37c.29-.43.69-.64,1.22-.64.44,0,.79.15,1.03.46s.36.76.36,1.37h-3c.06-.5.18-.9.38-1.19h0Z" style="fill: #181818;"/>
  <polygon points="136.42 67.65 136.42 78.17 138.51 78.17 138.51 67.36 136.42 67.65" style="fill: #181818;"/>
</svg>