<?xml version="1.0" encoding="UTF-8"?>
<svg id="Layer_1" data-name="Layer 1" xmlns="http://www.w3.org/2000/svg" viewBox="0 0 160 90">
  <path d="M95.85,53.27c-1.6,0-2.89,1.29-2.89,2.89s1.29,2.89,2.89,2.89,2.89-1.29,2.89-2.89-1.29-2.89-2.89-2.89Z" style="fill: #181818;"/>
  <path d="M95.85,47.76c1.29,0,2.34-1.05,2.34-2.34s-1.05-2.34-2.34-2.34-2.34,1.05-2.34,2.34,1.05,2.34,2.34,2.34Z" style="fill: #181818;"/>
  <circle cx="95.85" cy="34.67" r="1.79" style="fill: #181818;"/>
  <circle cx="95.85" cy="23.92" r="1.24" style="fill: #181818;"/>
  <path d="M87.44,54.37c0-1.29-1.05-2.34-2.34-2.34s-2.34,1.05-2.34,2.34,1.05,2.34,2.34,2.34,2.34-1.05,2.34-2.34Z" style="fill: #181818;"/>
  <path d="M85.1,45.41c.99,0,1.79-.8,1.79-1.79s-.8-1.79-1.79-1.79-1.79.8-1.79,1.79.8,1.79,1.79,1.79Z" style="fill: #181818;"/>
  <circle cx="85.1" cy="32.88" r="1.24" style="fill: #181818;"/>
  <circle cx="63.61" cy="49" r="2.34" style="fill: #181818;"/>
  <circle cx="63.61" cy="38.25" r="1.79" style="fill: #181818;"/>
  <circle cx="63.61" cy="27.51" r="1.24" style="fill: #181818;"/>
  <path d="M119.68,52.58c0-1.29-1.05-2.34-2.34-2.34s-2.34,1.05-2.34,2.34,1.05,2.34,2.34,2.34,2.34-1.05,2.34-2.34Z" style="fill: #181818;"/>
  <path d="M117.34,43.62c.99,0,1.79-.8,1.79-1.79s-.8-1.79-1.79-1.79-1.79.8-1.79,1.79.8,1.79,1.79,1.79Z" style="fill: #181818;"/>
  <circle cx="117.34" cy="31.09" r="1.24" style="fill: #181818;"/>
  <path d="M106.59,53.54c-.99,0-1.79.8-1.79,1.79s.8,1.79,1.79,1.79,1.79-.8,1.79-1.79-.8-1.79-1.79-1.79Z" style="fill: #181818;"/>
  <circle cx="106.59" cy="44.59" r="1.24" style="fill: #181818;"/>
  <path d="M42.12,57.95c.99,0,1.79-.8,1.79-1.79s-.8-1.79-1.79-1.79-1.79.8-1.79,1.79.8,1.79,1.79,1.79Z" style="fill: #181818;"/>
  <circle cx="42.12" cy="45.41" r="1.24" style="fill: #181818;"/>
  <path d="M52.86,55.47c1.6,0,2.89-1.29,2.89-2.89s-1.29-2.89-2.89-2.89-2.89,1.29-2.89,2.89,1.29,2.89,2.89,2.89Z" style="fill: #181818;"/>
  <path d="M52.86,44.18c1.29,0,2.34-1.05,2.34-2.34s-1.05-2.34-2.34-2.34-2.34,1.05-2.34,2.34,1.05,2.34,2.34,2.34Z" style="fill: #181818;"/>
  <circle cx="52.86" cy="31.09" r="1.79" style="fill: #181818;"/>
  <circle cx="52.86" cy="20.34" r="1.24" style="fill: #181818;"/>
  <path d="M77.8,49c0-1.9-1.54-3.44-3.44-3.44s-3.44,1.54-3.44,3.44,1.54,3.44,3.44,3.44,3.44-1.54,3.44-3.44Z" style="fill: #181818;"/>
  <path d="M74.36,41.14c1.6,0,2.89-1.29,2.89-2.89s-1.29-2.89-2.89-2.89-2.89,1.29-2.89,2.89,1.29,2.89,2.89,2.89Z" style="fill: #181818;"/>
  <path d="M74.36,29.85c1.29,0,2.34-1.05,2.34-2.34s-1.05-2.34-2.34-2.34-2.34,1.05-2.34,2.34,1.05,2.34,2.34,2.34Z" style="fill: #181818;"/>
  <path d="M74.36,18.55c.99,0,1.79-.8,1.79-1.79s-.8-1.79-1.79-1.79-1.79.8-1.79,1.79.8,1.79,1.79,1.79Z" style="fill: #181818;"/>
  <circle cx="74.36" cy="6.02" r="1.24" style="fill: #181818;"/>
  <path d="M19.97,76.13c.17,0,.36,0,.58.04l.49-1.75c-.3-.12-.64-.18-.99-.18-.41,0-.74.1-1,.3-.26.2-.43.43-.53.71l.05.05c-.21-.14-.43-.28-.68-.38-.59-.25-1.29-.37-2.08-.37s-1.49.13-2.08.37c-.59.25-1.06.61-1.39,1.07-.33.46-.5,1.01-.5,1.64,0,.54.13,1.01.37,1.43s.61.74,1.07.99c-.47.21-.84.48-1.12.84-.28.36-.42.75-.42,1.19,0,.69.22,1.17.66,1.45.44.28,1.11.41,1.99.41h2.58c.43,0,.76.05,1,.14.24.09.4.23.49.42.08.19.12.43.1.74h1.91c.11-.47.17-.87.17-1.21,0-1.39-.93-2.09-2.79-2.09h-3.02c-.31,0-.54-.05-.67-.14-.13-.1-.2-.24-.2-.42s.06-.34.17-.48c.1-.12.26-.22.47-.3.36.07.76.12,1.21.12.79,0,1.49-.13,2.08-.37.59-.25,1.06-.6,1.39-1.07.33-.46.5-1.01.5-1.64,0-.55-.14-1.03-.38-1.45l.03.04c.19-.04.38-.07.55-.07h0ZM16.97,78.77c-.3.3-.69.46-1.17.46s-.86-.15-1.16-.46c-.3-.3-.46-.69-.46-1.16s.15-.87.46-1.17c.3-.3.69-.45,1.16-.45s.87.15,1.17.45.45.69.45,1.17-.15.86-.45,1.16Z" style="fill: #181818;"/>
  <path d="M26.37,74.81c-.32.18-.57.4-.76.65-.19.25-.32.48-.39.68h-.17l-.41-1.57-2.15.53.05.18c.07.32.12.62.15.9.03.29.05.62.05.99v6.53h2.43v-5.51c.05-.21.16-.43.34-.68s.42-.47.72-.65.66-.28,1.07-.28c.21,0,.39.01.56.05s.3.06.41.09l.41-1.98c-.36-.14-.75-.21-1.16-.21-.44,0-.82.09-1.14.28h0Z" style="fill: #181818;"/>
  <path d="M35.9,81.95c-.42.16-.88.24-1.4.24s-1-.11-1.4-.34-.69-.56-.9-1c-.15-.33-.25-.71-.29-1.14h5.94c.09-1.04,0-1.94-.25-2.72-.26-.78-.71-1.38-1.34-1.82-.63-.43-1.44-.65-2.43-.65-.86,0-1.64.2-2.33.6s-1.22.96-1.61,1.67c-.39.71-.58,1.52-.58,2.43,0,.97.19,1.8.57,2.51.38.71.93,1.25,1.64,1.63s1.56.57,2.55.57c.75,0,1.46-.11,2.13-.34.66-.23,1.23-.5,1.69-.83l-.87-1.4c-.34.23-.71.43-1.13.59h0ZM32.39,76.93c.34-.5.81-.75,1.42-.75.52,0,.92.18,1.21.53s.43.89.43,1.6h-3.5c.07-.58.21-1.05.44-1.39h0Z" style="fill: #181818;"/>
  <path d="M46.15,81.95c-.42.16-.88.24-1.4.24s-1-.11-1.4-.34-.69-.56-.9-1c-.15-.33-.25-.71-.29-1.14h5.94c.09-1.04,0-1.94-.25-2.72s-.71-1.38-1.34-1.82c-.63-.43-1.44-.65-2.43-.65-.86,0-1.64.2-2.33.6s-1.22.96-1.61,1.67c-.39.71-.58,1.52-.58,2.43,0,.97.19,1.8.57,2.51.38.71.93,1.25,1.64,1.63.71.37,1.56.57,2.55.57.75,0,1.46-.11,2.13-.34.67-.23,1.23-.5,1.69-.83l-.87-1.4c-.34.23-.71.43-1.13.59h0ZM42.64,76.93c.34-.5.81-.75,1.42-.75.52,0,.92.18,1.21.53s.43.89.43,1.6h-3.5c.07-.58.21-1.05.44-1.39h0Z" style="fill: #181818;"/>
  <path d="M55.7,74.54c-.57,0-1.1.11-1.59.33-.5.22-.94.54-1.35.97h-.17l-.43-1.27-2.15.53.05.21c.07.34.12.65.15.96.03.3.05.67.05,1.1v6.33h2.44v-6.2c.28-.35.57-.61.91-.79.33-.18.68-.27,1.06-.27.46,0,.8.12,1.02.36s.34.63.34,1.16v5.72h2.44v-6.07c0-.99-.23-1.75-.7-2.29-.47-.54-1.15-.81-2.06-.81h0Z" style="fill: #181818;"/>
  <polygon points="61.04 83.7 63.48 83.7 63.48 71.09 61.04 71.42 61.04 83.7" style="fill: #181818;"/>
  <path d="M73.46,77.83c0-1.13-.31-1.96-.92-2.5-.62-.53-1.49-.8-2.62-.8-.73,0-1.43.12-2.11.35s-1.25.53-1.73.9l.96,1.31h.01c.36-.26.71-.46,1.07-.63.36-.16.79-.24,1.3-.24.54,0,.94.12,1.21.36s.4.61.4,1.1v.47h-.4c-.88,0-1.71.11-2.47.32-.76.21-1.38.56-1.86,1.03-.48.47-.71,1.07-.71,1.81,0,.51.12.96.36,1.36.24.4.57.71,1,.93.43.22.92.33,1.46.33.59,0,1.1-.12,1.54-.35s.79-.5,1.05-.79h.17l.3.92h2.24c-.17-.72-.26-1.59-.26-2.61v-3.27h0ZM71.03,81.45c-.22.24-.48.44-.77.59-.29.15-.62.23-1,.23s-.68-.1-.92-.3c-.23-.21-.35-.48-.35-.84,0-.52.23-.92.7-1.21s1.11-.43,1.94-.43h.4v1.95h0Z" style="fill: #181818;"/>
  <path d="M81.43,74.54c-.57,0-1.1.11-1.59.33-.5.22-.94.54-1.35.97h-.17l-.43-1.27-2.15.53.05.21c.07.34.12.65.15.96.03.3.05.67.05,1.1v6.33h2.44v-6.2c.28-.35.57-.61.91-.79.33-.18.68-.27,1.06-.27.46,0,.8.12,1.02.36s.34.63.34,1.16v5.72h2.44v-6.07c0-.99-.23-1.75-.7-2.29-.47-.54-1.15-.81-2.06-.81h0Z" style="fill: #181818;"/>
  <path d="M95.02,71.09l-2.44.34v3.81c-.34-.25-.69-.43-1.05-.54-.36-.11-.77-.16-1.22-.16-.8,0-1.52.2-2.15.6s-1.12.96-1.47,1.68-.53,1.53-.53,2.45c0,1.46.34,2.61,1.01,3.43.67.82,1.61,1.23,2.81,1.23.53,0,1.01-.09,1.44-.28.43-.19.82-.48,1.15-.86h.17l.3.92h2.24c-.17-.74-.26-1.58-.26-2.52v-10.1h0ZM92.58,81.14v.03c-.18.21-.41.41-.72.62-.31.21-.68.31-1.11.31-.65,0-1.14-.24-1.49-.72s-.51-1.19-.51-2.11c0-.62.08-1.15.24-1.59.16-.44.4-.77.71-1s.7-.34,1.14-.34c.39,0,.71.06.98.18.27.12.51.27.74.45v4.18h0Z" style="fill: #181818;"/>
  <path d="M106.03,82.19c-.36,0-.63-.09-.81-.27s-.28-.44-.28-.8v-4.8h2.4l.32-1.56h-2.71v-2.34l-2.44.34v2h-1.74v1.56h1.74v4.9c0,.83.21,1.5.65,1.98.43.49,1.17.73,2.22.73.43,0,.86-.05,1.31-.16.45-.11.87-.26,1.27-.45l-.59-1.48c-.5.23-.94.35-1.33.35h0Z" style="fill: #181818;"/>
  <path d="M113.24,74.81c-.32.18-.57.4-.76.65-.19.25-.32.48-.39.68h-.17l-.41-1.57-2.15.53.05.18c.07.32.12.62.15.9.03.29.05.62.05.99v6.53h2.43v-5.51c.05-.21.16-.43.34-.68s.42-.47.72-.65.66-.28,1.07-.28c.21,0,.39.01.56.05.17.03.3.06.4.09l.41-1.98c-.36-.14-.75-.21-1.16-.21-.44,0-.82.09-1.14.28h0Z" style="fill: #181818;"/>
  <path d="M124.14,77.83c0-1.13-.31-1.96-.93-2.5s-1.49-.8-2.62-.8c-.73,0-1.43.12-2.11.35-.68.23-1.25.53-1.73.9l.96,1.31h.01c.36-.26.71-.46,1.07-.63.36-.16.79-.24,1.3-.24.54,0,.94.12,1.21.36s.4.61.4,1.1v.47h-.4c-.88,0-1.71.11-2.47.32s-1.38.56-1.86,1.03c-.48.47-.71,1.07-.71,1.81,0,.51.12.96.36,1.36.24.4.57.71,1,.93.43.22.92.33,1.46.33.59,0,1.1-.12,1.54-.35s.79-.5,1.05-.79h.17l.3.92h2.24c-.17-.72-.26-1.59-.26-2.61v-3.27h0ZM121.72,81.45c-.22.24-.48.44-.77.59-.29.15-.62.23-1,.23s-.68-.1-.92-.3c-.23-.21-.35-.48-.35-.84,0-.52.23-.92.7-1.21.46-.29,1.11-.43,1.94-.43h.4v1.95Z" style="fill: #181818;"/>
  <polygon points="130.08 80.75 129.93 80.75 127.79 74.76 125.27 74.76 128.66 83.7 131.04 83.7 134.43 74.76 132.22 74.76 130.08 80.75" style="fill: #181818;"/>
  <path d="M141.66,81.95c-.42.16-.88.24-1.4.24s-1-.11-1.4-.34-.69-.56-.9-1c-.15-.33-.25-.71-.29-1.14h5.94c.09-1.04,0-1.94-.25-2.72s-.71-1.38-1.34-1.82c-.63-.43-1.44-.65-2.43-.65-.86,0-1.64.2-2.33.6s-1.22.96-1.61,1.67c-.39.71-.58,1.52-.58,2.43,0,.97.19,1.8.57,2.51.38.71.93,1.25,1.64,1.63s1.56.57,2.55.57c.75,0,1.46-.11,2.13-.34.66-.23,1.23-.5,1.69-.83l-.87-1.4c-.34.23-.71.43-1.13.59h0ZM138.15,76.93c.34-.5.81-.75,1.42-.75.52,0,.92.18,1.21.53s.43.89.43,1.6h-3.5c.07-.58.21-1.05.44-1.39h0Z" style="fill: #181818;"/>
  <polygon points="145.82 71.42 145.82 83.7 148.26 83.7 148.26 71.09 145.82 71.42" style="fill: #181818;"/>
</svg>