<?xml version="1.0" encoding="UTF-8"?>
<svg id="Layer_1" data-name="Layer 1" xmlns="http://www.w3.org/2000/svg" viewBox="0 0 160 90">
  <path d="M69.74,34.83c.06-.09.13-.09.22-.1.81-.09,1.92,0,2.73.13l4.33,7.21c.3.44.46,1.38.76,1.77.07.09.09.13.22.11.07-.01.4-1.16.47-1.34.21-.49.46-.95.71-1.42,1.16-2.17,2.49-4.28,3.71-6.41.09,0,.21-.03.29-.03h2.46l.1.1v15.98c-.92.03-1.9.13-2.82.07-.08,0-.34-.02-.36-.11v-8.42s.33-3.04.33-3.04l-.16-.04-1.12,2.77-3.48,5.83h-.9s-3.72-5.98-3.72-5.98c-.33-.72-.57-1.56-.91-2.27-.04-.08-.13-.38-.24-.34-.12.04-.05.16-.05.23.1,1.04.35,2.07.47,3.1v8.09s-.06.08-.06.08c-.8.07-1.63,0-2.44.03-.11,0-.55.15-.55-.03v-15.94Z" style="fill: #181818;"/>
  <path d="M22.1,49.61c-.87.68-1.91,1.07-2.98,1.3-2.43.51-5.52.22-7.43-1.48-.54-.48-1.66-1.94-1.81-2.63-.02-.1.03-.17.04-.26l-.13.07c-.13-.46-.27-.93-.37-1.41-.34-1.73-.27-3.48.11-5.2l.13.07c-.12-.29.03-.57.15-.86,1.64-4.14,5.52-5.16,9.67-4.58.29.04,1.84.34,1.96.51l-.62,2.53-1.73-.43c-3.36-.36-5.9.63-6.37,4.23s.7,7.23,4.88,6.96c.66-.04,1.28-.2,1.82-.58l-.03-3.15-3.57-.35v-1.88l6.29.06v7.1Z" style="fill: #181818;"/>
  <path d="M103.76,34.8v5.41l.13.07c1.82-1.8,5.3-1.58,6.57.75,1.15,2.1,1.06,6.28-.51,8.16s-3.83,2.1-6.09,1.88c-1.01-.1-2.16-.34-3.08-.74v-15.59l2.98.06ZM105.5,41.62c-.91.11-1.5.86-1.74,1.7v4.92c.15.41,2.03.4,2.4.34,1.88-.33,2.06-2.88,1.93-4.4-.14-1.65-.77-2.77-2.6-2.55Z" style="fill: #181818;"/>
  <path d="M89.27,40.53c1.67-1.72,5.07-1.91,7.09-.75,2.78,1.61,3.09,6.52,1.59,9.07-1.59,2.7-6.04,3.04-8.34,1.12s-2.48-7.24-.34-9.44ZM94.92,42.14c-.75-.81-2.36-.79-3.15-.06-1.26,1.16-1.2,4.9.03,6.06.81.76,2.48.71,3.21-.16.99-1.18.96-4.71-.09-5.84Z" style="fill: #181818;"/>
  <path d="M59.17,39.4c.12.23.25,1.43.43,1.49.19.06.51-.5.66-.65,1.2-1.15,2.96-1.43,4.54-.99s2.06,1.97,2.22,3.49v8.07s-2.98,0-2.98,0v-7.29c0-.16-.14-.72-.21-.89-.59-1.52-2.68-1.17-3.55-.08-.07.09-.46.67-.46.71v7.45l-.1.1h-2.88v-11.41h2.33Z" style="fill: #181818;"/>
  <path d="M35.55,45.82s-.05-.08-.1-.06c-.08.71.06,1.44.46,2.03.16.24.52.44.62.58.04.05,0,.16.02.17,0,0,.1-.06.19-.03.31.08.53.22.89.28,1.28.23,2.58-.09,3.68-.77l1.01,1.88c-.46.21-.88.51-1.35.69-3.32,1.28-7.31.65-8.29-3.2-1.02-4.04.35-8.14,5-8.31,3.71-.14,5.32,2.04,4.96,5.61-.04.4-.17.75-.19,1.13h-6.9ZM35.52,44.07h4.31c.15-.19.12-.62.1-.87-.05-.72-.38-1.42-1.1-1.68-1.82-.66-3.39.71-3.3,2.56Z" style="fill: #181818;"/>
  <path d="M47.31,45.82c.03,1.1.29,2.19,1.34,2.71,1.36.67,3.29.31,4.53-.51l1,1.88c-.5.27-.99.57-1.54.76-4.88,1.71-8.68-.67-8.38-5.98.09-1.66.81-4.25,2.55-4.91.15-.05.27.03.3.02,0,0-.05-.1-.03-.13.07-.12,1.05-.4,1.25-.43,2.22-.42,5.01,0,5.91,2.34.52,1.36.3,2.85.13,4.25h-7.06ZM47.38,44.07h4.37c.2-.33.1-.92,0-1.29-.34-1.27-1.48-1.63-2.68-1.32s-1.66,1.47-1.7,2.61Z" style="fill: #181818;"/>
  <path d="M139.34,39.4v2.46h-2.92v5.09c0,.12.12.66.16.81.35,1.24,1.8.75,2.69.45l.42,2.2c-1.35.79-4.6,1.22-5.63-.21-.24-.33-.63-1.31-.63-1.7v-6.64h-1.46s-.18-.03-.2-.06c-.04-.05.04-.08.04-.1v-2.3h1.52c.09-.06.09-.13.1-.22.04-.32-.07-1.86,0-1.97l2.97-.85v2.95l.1.1h2.82Z" style="fill: #181818;"/>
  <path d="M122.69,34.73v12.74s.08.44.09.49c.27.88,1.38.6,2.04.39l.25,2.33c-1.75.58-4.9,1.13-5.36-1.34-.18-4.76-.02-9.54-.08-14.31l.04-.16s.18-.13.19-.13h2.82Z" style="fill: #181818;"/>
  <path d="M26.83,39.4c0,.2.3,1.56.42,1.55.78-1.62,2.44-2.21,4.12-1.55l-.45,2.63c-.7-.1-1.36-.31-2.08-.07-.47.16-1.36.91-1.36,1.42v7.42h-2.98v-11.41h2.33Z" style="fill: #181818;"/>
  <rect x="126.96" y="39.34" width="2.98" height="11.47" style="fill: #181818;"/>
  <rect x="113.68" y="39.4" width="2.98" height="11.41" style="fill: #181818;"/>
  <path d="M127.83,34.57c1.3-.22,2.79.35,2.47,1.91-.12.58-.77.98-1.32,1.08-.65.12-1.47.08-1.99-.37-1-.85-.4-2.41.84-2.62Z" style="fill: #181818;"/>
  <path d="M116.7,37.04c-.84.86-3.17.81-3.45-.56-.51-2.47,3.62-2.59,3.79-.55.04.43-.04.8-.35,1.11Z" style="fill: #181818;"/>
  <path d="M148.79,40.11s0,.03,0,.04c-.42,1.84-1.15,3.73-1.55,5.56-.13.62-.16,1.26-.28,1.88h-.19c-.62-2.76-1.72-5.37-2.56-8.06l-.1-.16h-3.53s4.89,11.45,4.89,11.45c-.13,1.26-1.12,2.56-2.51,1.97l-.5,2.39c.77.33,1.96.49,2.76.21,1.19-.43,2-2.08,2.46-3.18l3.14-8.98-2.02-3.12Z" style="fill: #181818;"/>
</svg>