<svg width="117" height="78" viewBox="0 0 117 78" fill="none" xmlns="http://www.w3.org/2000/svg">
<g clip-path="url(#clip0_825_6927)">
<path d="M98.7982 47.5242C105.602 48.484 105.276 57.8417 100.282 60.772L105.75 68.1295C101.132 69.9562 99.4874 62.29 96.8954 61.2033C95.4154 60.5817 93.0517 61.1906 91.428 60.9834V68.1338H88.4807V47.5284C91.6986 47.8498 95.6945 47.0886 98.8024 47.5284L98.7982 47.5242ZM91.428 50.4672V57.8247C92.7895 59.0637 98.6883 58.4379 99.8934 57.4442C101.424 56.1799 101.086 50.4672 98.8024 50.4672H91.428Z" fill="#181818"/>
<path d="M69.6642 66.7211C69.3766 66.4504 68.4971 65.22 68.3576 64.8732C67.385 62.463 67.385 52.2301 68.903 50.0651C71.6769 46.1073 81.9437 46.3525 83.9353 51.4267C85.1615 54.5557 85.2038 63.2537 83.1868 66.0022C80.6963 69.385 72.5691 69.4231 69.6684 66.7211H69.6642ZM74.4593 50.1454C72.992 50.4161 71.2076 51.7946 70.8693 53.2872C70.4676 55.0632 70.5733 62.4165 71.4444 63.8922C73.2161 66.8775 80.0747 66.5308 81.1233 63.1057C81.5293 61.7822 81.525 54.7587 81.2883 53.2238C80.8273 50.2808 76.9287 49.693 74.4593 50.1454Z" fill="#181818"/>
<path d="M35.7011 47.6212C39.5321 46.9235 45.6253 47.3675 46.9065 51.8032C47.4436 53.6637 47.4562 61.6217 47.0926 63.6175C45.9002 70.1674 32.9187 70.3323 30.961 64.3533C29.4345 59.6935 29.2992 48.784 35.7011 47.6212ZM43.2743 51.4268C41.4941 49.3676 35.181 49.5409 34.0224 52.2556C33.5107 53.4523 33.4854 60.8817 33.7306 62.4293C34.3776 66.5098 41.6717 67.0891 43.5745 63.8924C44.6443 62.0953 44.6654 53.0379 43.2743 51.4268Z" fill="#181818"/>
<path d="M13.0617 47.5238V56.3571H23.172V48.1581C23.9247 47.2151 25.726 47.1771 26.5421 48.1581V68.1334H23.5949V59.3001H13.0617C12.9476 59.6088 13.4846 59.8033 13.4846 59.9301V68.1292H10.1145V47.5238H13.0617Z" fill="#181818"/>
<path d="M65.3045 50.4665H54.9828L54.3528 51.0965V57.194H64.463V60.137H54.3528V68.1288H51.4055V48.1535L52.0356 47.5234H64.6745C65.6259 48.2042 65.2749 49.4432 65.3045 50.4665Z" fill="#181818"/>
<path d="M61.0931 9.25195H58.5645V42.0565H61.0931V9.25195Z" fill="#181818"/>
<path d="M66.5689 42.0563H64.0403V9.25183C64.9452 9.23492 65.9896 9.03195 66.5689 9.88187V42.0521V42.0563Z" fill="#181818"/>
<path d="M72.0447 42.0563H69.5161V9.25183C70.421 9.23492 71.4654 9.03195 72.0447 9.88187V42.0521V42.0563Z" fill="#181818"/>
<path d="M82.5779 17.662V42.0518H80.0493V18.292C80.6286 17.4421 81.673 17.6451 82.5779 17.662Z" fill="#181818"/>
<path d="M88.0579 17.662V42.0518H85.5293V18.292C86.1086 17.4421 87.153 17.6451 88.0579 17.662Z" fill="#181818"/>
<path d="M28.6522 20.6055H26.1235V42.0523H28.6522V20.6055Z" fill="#181818"/>
<path d="M34.128 20.6055H31.5994V42.0523H34.128V20.6055Z" fill="#181818"/>
<path d="M39.6038 20.6055H37.0752V42.0523H39.6038V20.6055Z" fill="#181818"/>
<path d="M77.1019 17.6621H74.9961V42.0519H77.1019V17.6621Z" fill="#181818"/>
<path d="M44.6612 25.2314H42.5554V42.0523H44.6612V25.2314Z" fill="#181818"/>
<path d="M50.137 25.2314H48.0312V42.0523H50.137V25.2314Z" fill="#181818"/>
<path d="M55.6129 25.2314H53.5071V42.0523H55.6129V25.2314Z" fill="#181818"/>
<path d="M93.5338 29.4385H91.0051V42.0562H93.5338V29.4385Z" fill="#181818"/>
<path d="M12.639 42.0561H10.1104V29.4384C11.0152 29.4214 12.0597 29.2185 12.639 30.0684V42.0561Z" fill="#181818"/>
<path d="M96.481 29.4385H98.591C98.3161 33.6754 99.2802 37.8151 99.0138 42.0562H96.4852V29.4385H96.481Z" fill="#181818"/>
<path d="M17.6961 29.4385H15.5903V42.0562H17.6961V29.4385Z" fill="#181818"/>
<path d="M23.1719 29.4385H21.0662V42.0562H23.1719V29.4385Z" fill="#181818"/>
<path d="M104.067 29.4385H101.961V42.0562H104.067V29.4385Z" fill="#181818"/>
</g>
<defs>
<clipPath id="clip0_825_6927">
<rect width="116.706" height="77.3811" fill="white"/>
</clipPath>
</defs>
</svg>
