<?xml version="1.0" encoding="UTF-8"?>
<svg id="Layer_1" data-name="Layer 1" xmlns="http://www.w3.org/2000/svg" viewBox="0 0 160 90">
  <path d="M136.72,53.13c9.44.91,8.99,9.79,2.06,12.57l7.59,6.98c-6.41,1.73-8.69-5.54-12.29-6.57-2.05-.59-5.34-.01-7.59-.21v6.78h-4.09v-19.56c4.46.31,10.01-.42,14.33,0ZM126.49,55.93v6.98c1.89,1.17,10.08.58,11.75-.36,2.12-1.2,1.66-6.62-1.52-6.62h-10.23Z" style="fill: #181818;"/>
  <path d="M96.29,71.35c-.4-.26-1.62-1.43-1.82-1.75-1.35-2.29-1.35-12,.76-14.05,3.85-3.76,18.1-3.52,20.86,1.29,1.7,2.97,1.76,11.22-1.04,13.83-3.45,3.21-14.74,3.25-18.76.68ZM102.94,55.62c-2.04.25-4.52,1.57-4.98,2.98-.56,1.68-.41,8.67.8,10.06,2.46,2.83,11.98,2.51,13.43-.75.56-1.26.56-7.92.23-9.38-.64-2.79-6.05-3.35-9.48-2.92Z" style="fill: #181818;"/>
  <path d="M49.15,53.22c5.32-.66,13.77-.24,15.55,3.97.75,1.77.76,9.32.26,11.21-1.65,6.21-19.67,6.37-22.39.7-2.12-4.42-2.3-14.77,6.58-15.88ZM59.66,56.84c-2.47-1.95-11.23-1.79-12.84.79-.71,1.14-.75,8.18-.41,9.65.9,3.87,11.02,4.42,13.66,1.39,1.49-1.71,1.51-10.3-.42-11.83Z" style="fill: #181818;"/>
  <path d="M17.73,53.13v8.38h14.03v-7.78c1.05-.89,3.55-.93,4.68,0v18.96h-4.09v-8.38h-14.62c-.16.29.58.48.58.6v7.78h-4.68v-19.56h4.09Z" style="fill: #181818;"/>
  <path d="M90.23,55.93h-14.33l-.88.6v5.79h14.03v2.79h-14.03v7.58h-4.09v-18.96l.88-.6h17.54c1.32.65.84,1.82.88,2.79Z" style="fill: #181818;"/>
  <rect x="80.88" y="16.81" width="3.51" height="31.13" style="fill: #181818;"/>
  <path d="M91.99,47.94h-3.51v-31.13c1.26-.02,2.7-.21,3.51.6v30.53Z" style="fill: #181818;"/>
  <path d="M99.59,47.94h-3.51v-31.13c1.26-.02,2.7-.21,3.51.6v30.53Z" style="fill: #181818;"/>
  <path d="M114.21,24.79v23.15h-3.51v-22.55c.81-.81,2.25-.61,3.51-.6Z" style="fill: #181818;"/>
  <path d="M121.81,24.79v23.15h-3.51v-22.55c.81-.81,2.25-.61,3.51-.6Z" style="fill: #181818;"/>
  <rect x="35.85" y="27.59" width="3.51" height="20.35" style="fill: #181818;"/>
  <rect x="43.45" y="27.59" width="3.51" height="20.35" style="fill: #181818;"/>
  <rect x="51.06" y="27.59" width="3.51" height="20.35" style="fill: #181818;"/>
  <rect x="103.68" y="24.79" width="2.92" height="23.15" style="fill: #181818;"/>
  <rect x="58.66" y="31.98" width="2.92" height="15.96" style="fill: #181818;"/>
  <rect x="66.26" y="31.98" width="2.92" height="15.96" style="fill: #181818;"/>
  <rect x="73.86" y="31.98" width="2.92" height="15.96" style="fill: #181818;"/>
  <rect x="125.9" y="35.97" width="3.51" height="11.97" style="fill: #181818;"/>
  <path d="M17.14,47.94h-3.51v-11.97c1.26-.02,2.7-.21,3.51.6v11.37Z" style="fill: #181818;"/>
  <path d="M133.51,35.97h2.93c-.38,4.02.96,7.95.58,11.98h-3.51v-11.98Z" style="fill: #181818;"/>
  <rect x="21.23" y="35.97" width="2.92" height="11.97" style="fill: #181818;"/>
  <rect x="28.84" y="35.97" width="2.92" height="11.97" style="fill: #181818;"/>
  <rect x="141.11" y="35.97" width="2.92" height="11.97" style="fill: #181818;"/>
</svg>