<?xml version="1.0" encoding="UTF-8"?>
<svg id="Layer_1" data-name="Layer 1" xmlns="http://www.w3.org/2000/svg" viewBox="0 0 160 90">
  <path d="M147.62,10.24v69.52H12.38V10.24h135.25ZM72.89,16.51H17.24v16.69h55.65v-16.69ZM39.92,36.23c-3.72.04-6.82,2.31-7.78,5.92-1.31,4.92.98,10.41,6.36,11.25.48.07.96.06,1.42.16v-3.94c-3.19-.12-4.24-3.4-3.7-6.13.37-1.85,1.75-3.31,3.7-3.38v-3.87ZM40.48,40.1c5.14.19,5.19,9.17.12,9.52l-.12.09v3.73c.05.07.06.08.14.08,1.6,0,3.53-.66,4.81-1.6,3.07-2.26,3.85-6.74,2.73-10.24s-4.19-5.44-7.68-5.46v3.87ZM83.45,42.22c-.44-7-10.46-7.9-13.92-2.69-3.39,5.11-1.07,13.29,5.65,13.96.15.01.81.1.81-.03v-3.73c-.37-.18-.79-.19-1.2-.35-3.07-1.2-3.25-6.94-.63-8.66,1.71-1.12,4.68-.79,5.14,1.51h4.16ZM21.39,53.21v-16.59l-.11-.11h-3.94l-.11.11v16.59h4.16ZM31.75,36.51h-4.47l-5.32,6.45v5.46l1.62-1.83,3.8,6.62h4.79l-5.98-9.81,5.55-6.88ZM54.78,36.51h-4.09v16.69h4.09v-16.69ZM61.44,53.21h4.54v-16.69h-4.09v10.14l-6.21-10.13c-.46-.08-.27.15-.27.44.03,2.1,0,4.22-.04,6.32l6.05,9.92ZM97.12,40.25v-3.63l-.11-.11h-11.59v16.69h4.09v-12.96h7.61ZM103.53,36.51h-4.09v16.69h4.09v-16.69ZM104.16,36.69c0,1.15,0,2.3,0,3.45,0,.02-.09.05-.07.11h2.78c.22,0,.81.15,1.04.23,1.61.58,1.72,2.9.16,3.58-.21.09-.92.28-1.13.28h-2.85c-.02.05.07.08.07.11v3.45s-.06.04-.06.07l.09.11h2.08l2.82,5.14h4.86l-3.66-5.95c1.63-.74,2.88-2.41,3.03-4.23.35-4.24-2.59-6.32-6.51-6.52-.63-.03-1.97-.09-2.54,0-.06,0-.11.02-.15.07-.04.05.04.09.04.11ZM118.6,40.25v-3.63l-.11-.11h-4.19v3.73h4.3ZM128.18,40.25v-3.63l-.11-.11h-8.91v16.69h4.09v-12.86l.11-.11h4.83ZM96.13,42.92h-6.06v3.59h6.06v-3.59ZM83.52,47.5h-4.12c-.18.29-.24.61-.43.91-.49.8-1.39,1.21-2.31,1.21l-.12.09v3.84c1.29-.1,2.57-.34,3.71-.97,1.91-1.06,3.01-2.94,3.26-5.08ZM97.12,49.47h-6.94l-.11.11v3.63h7.04v-3.73ZM57.04,56.24c-3.67,0-6.89,2.64-5.9,6.57.92,3.63,4.73,3.22,7.44,4.11.93.31,1.41.87,1.26,1.89-.11.81-1.11,1.25-1.85,1.25l-.1.09s.06.05.06.07v3.17s-.08.06-.04.11c.06.08.13.07.22.08,1.03.03,2.65-.45,3.53-.98,2.96-1.76,3.27-6.6.23-8.42-1.81-1.08-3.75-.88-5.6-1.52-.48-.17-1.05-.49-1.14-1.04-.22-1.29.77-1.8,1.88-1.92v-3.45ZM63.87,61.8c-.02-3.41-2.67-5.39-5.88-5.57-.14,0-.3-.03-.38.11v3.35c1.04.09,1.7.52,2.04,1.52.07.2.03.45.18.59h4.05ZM21.39,56.59h-4.16v16.62h4.16v-16.62ZM32.38,56.59h-4.16v6.16s.09.05.07.11h-6.34v3.87h6.34c.02.05-.07.08-.07.11v6.37h4.16v-16.62ZM38.86,56.59h-4.16v10.39c.1,1.22.34,2.42.96,3.48,1.2,2.06,3.54,3.08,5.88,3.03v-3.87c-.98-.04-1.82-.48-2.29-1.34-.11-.21-.39-.89-.39-1.09v-10.6ZM48.94,56.59h-4.16v10.46c0,.19-.19.73-.27.93-.42,1.04-1.3,1.59-2.41,1.64v3.87c3.35.06,6.14-1.97,6.67-5.34.09-.54.08-1.06.17-1.59v-9.97ZM77.53,56.59h-11.69v16.62h4.09v-12.86l.11-.11h7.33s.04.06.07.06l.11-.09v-3.63ZM83.38,56.59h-4.3v3.63c.1.16.15.04.18.04h4.12v-3.66ZM92.96,56.59h-9.02v16.62h4.16v-12.96h4.86v-3.66ZM76.55,62.93h-5.95l-.11.11v3.49h6.06v-3.59ZM57.32,70.04c-.98,0-1.9-.47-2.34-1.36-.15-.31-.18-.68-.38-.96h-4.05c-.01,3.77,3.28,5.85,6.76,5.85v-3.52ZM77.61,73.21v-3.49l-.11-.11h-6.9l-.11.11v3.49h7.11Z" style="fill: none;"/>
  <path d="M72.89,16.51v16.69H17.24v-16.69h55.65ZM27.38,20.7v8.1l.24.11c4.17-.19,8.54.24,12.69,0,2.45-.14,4.25-1.12,4.4-3.77.19-3.28-1.68-4.39-4.68-4.55-4.07-.21-8.32.17-12.4,0l-.24.11ZM60.31,20.59h-13.59l-.11.11v8.1l.11.11h4.93l.11-.11v-2.08h2.99l2.68,2.18h6.3l-.22-.31-3.59-2.54c-.03-.16.07-.1.17-.1,2.02-.13,3.31-1.01,2.96-3.24-.21-1.36-1.49-2-2.75-2.11Z" style="fill: #181818;"/>
  <path d="M61.44,53.21l-6.05-9.92c.04-2.1.06-4.21.04-6.32,0-.29-.19-.52.27-.44l6.21,10.13v-10.14h4.09v16.69h-4.54Z" style="fill: #181818;"/>
  <path d="M83.45,42.22h-4.16c-.46-2.3-3.42-2.63-5.14-1.51-2.62,1.72-2.44,7.45.63,8.66.41.16.83.18,1.2.35v3.73c0,.14-.66.05-.81.03-6.72-.67-9.04-8.84-5.65-13.96,3.46-5.21,13.49-4.31,13.92,2.69Z" style="fill: #181818;"/>
  <path d="M104.16,36.69s-.08-.06-.04-.11c.04-.05.09-.06.15-.07.57-.09,1.91-.03,2.54,0,3.93.2,6.86,2.28,6.51,6.52-.15,1.82-1.4,3.49-3.03,4.23l3.66,5.95h-4.86l-2.82-5.14h-2.08l-.09-.11s.06-.05.06-.07v-3.45s-.09-.05-.07-.11h2.85c.21,0,.92-.19,1.13-.28,1.56-.68,1.45-2.99-.16-3.58-.23-.08-.83-.23-1.04-.23h-2.78c-.02-.05.07-.08.07-.11,0-1.15,0-2.3,0-3.45Z" style="fill: #181818;"/>
  <polygon points="97.12 40.25 89.51 40.25 89.51 53.21 85.42 53.21 85.42 36.51 97.01 36.51 97.12 36.62 97.12 40.25" style="fill: #181818;"/>
  <path d="M77.53,56.59v3.63l-.11.09s-.05-.06-.07-.06h-7.33l-.11.11v12.86h-4.09v-16.62h11.69Z" style="fill: #181818;"/>
  <path d="M57.04,56.24v3.45c-1.11.12-2.1.63-1.88,1.92.09.55.66.87,1.14,1.04,1.85.63,3.79.43,5.6,1.52,3.04,1.82,2.73,6.66-.23,8.42-.88.53-2.51,1.01-3.53.98-.09,0-.16,0-.22-.08-.04-.05.04-.09.04-.11v-3.17s-.06-.04-.06-.07l.1-.09c.74,0,1.74-.44,1.85-1.25.14-1.02-.33-1.59-1.26-1.89-2.71-.89-6.53-.48-7.44-4.11-.99-3.93,2.22-6.56,5.9-6.57Z" style="fill: #181818;"/>
  <path d="M32.38,56.59v16.62h-4.16v-6.37s.09-.05.07-.11h-6.34v-3.87h6.34c.02-.05-.07-.08-.07-.11v-6.16h4.16Z" style="fill: #181818;"/>
  <polygon points="92.96 56.59 92.96 60.25 88.1 60.25 88.1 73.21 83.94 73.21 83.94 56.59 92.96 56.59" style="fill: #181818;"/>
  <polygon points="128.18 40.25 123.36 40.25 123.25 40.35 123.25 53.21 119.16 53.21 119.16 36.51 128.08 36.51 128.18 36.62 128.18 40.25" style="fill: #181818;"/>
  <path d="M40.48,40.1v-3.87c3.49.01,6.6,2.1,7.68,5.46s.35,7.98-2.73,10.24c-1.28.94-3.21,1.61-4.81,1.6-.08,0-.09,0-.14-.08v-3.73l.12-.09c5.07-.35,5.03-9.33-.12-9.52Z" style="fill: #181818;"/>
  <path d="M39.92,36.23v3.87c-1.95.07-3.33,1.53-3.7,3.38-.54,2.73.51,6.01,3.7,6.13v3.94c-.47-.1-.95-.09-1.42-.16-5.37-.84-7.67-6.33-6.36-11.25.96-3.61,4.07-5.88,7.78-5.92Z" style="fill: #181818;"/>
  <polygon points="31.75 36.51 26.2 43.39 32.17 53.21 27.38 53.21 23.58 46.59 21.96 48.42 21.96 42.96 27.28 36.51 31.75 36.51" style="fill: #181818;"/>
  <path d="M38.86,56.59v10.6c0,.2.27.88.39,1.09.47.86,1.31,1.3,2.29,1.34v3.87c-2.34.04-4.68-.98-5.88-3.03-.62-1.06-.86-2.26-.96-3.48v-10.39h4.16Z" style="fill: #181818;"/>
  <path d="M48.94,56.59v9.97c-.08.54-.08,1.05-.16,1.59-.53,3.37-3.32,5.4-6.67,5.34v-3.87c1.11-.06,1.99-.6,2.41-1.64.08-.2.27-.74.27-.93v-10.46h4.16Z" style="fill: #181818;"/>
  <polygon points="21.39 53.21 17.24 53.21 17.24 36.62 17.34 36.51 21.29 36.51 21.39 36.62 21.39 53.21" style="fill: #181818;"/>
  <rect x="17.24" y="56.59" width="4.16" height="16.62" style="fill: #181818;"/>
  <rect x="99.44" y="36.51" width="4.09" height="16.69" style="fill: #181818;"/>
  <rect x="50.7" y="36.51" width="4.09" height="16.69" style="fill: #181818;"/>
  <path d="M83.52,47.5c-.25,2.15-1.36,4.03-3.26,5.08-1.14.63-2.42.87-3.71.97v-3.84l.12-.09c.92,0,1.81-.42,2.31-1.21.19-.3.25-.62.43-.91h4.12Z" style="fill: #181818;"/>
  <path d="M57.32,70.04v3.52c-3.49,0-6.77-2.07-6.76-5.85h4.05c.19.29.22.65.38.96.44.89,1.36,1.36,2.34,1.36Z" style="fill: #181818;"/>
  <polygon points="97.12 49.47 97.12 53.21 90.07 53.21 90.07 49.58 90.18 49.47 97.12 49.47" style="fill: #181818;"/>
  <polygon points="77.61 73.21 70.49 73.21 70.49 69.72 70.6 69.62 77.5 69.62 77.61 69.72 77.61 73.21" style="fill: #181818;"/>
  <path d="M63.87,61.8h-4.05c-.15-.14-.11-.39-.18-.59-.34-1-1-1.43-2.04-1.52v-3.35c.09-.13.24-.11.38-.11,3.21.17,5.87,2.15,5.88,5.57Z" style="fill: #181818;"/>
  <rect x="90.07" y="42.92" width="6.06" height="3.59" style="fill: #181818;"/>
  <polygon points="76.55 62.93 76.55 66.52 70.49 66.52 70.49 63.03 70.6 62.93 76.55 62.93" style="fill: #181818;"/>
  <polygon points="118.6 40.25 114.3 40.25 114.3 36.51 118.5 36.51 118.6 36.62 118.6 40.25" style="fill: #181818;"/>
  <path d="M83.38,56.59v3.66h-4.12s-.08.12-.18-.04v-3.63h4.3Z" style="fill: #181818;"/>
  <path d="M27.38,20.7l.24-.11c4.09.17,8.34-.21,12.4,0,3,.16,4.87,1.27,4.68,4.55-.15,2.65-1.95,3.63-4.4,3.77-4.15.24-8.52-.19-12.69,0l-.24-.11v-8.1ZM37.35,22.14h-4.83v5.18c.06.1.14.1.24.11.96.11,2.87.06,3.88,0,1.59-.1,2.69-.46,2.84-2.23.14-1.61-.39-2.87-2.14-3.06Z" style="fill: #fff;"/>
  <path d="M60.31,20.59c1.26.11,2.54.75,2.75,2.11.35,2.23-.94,3.11-2.96,3.24-.11,0-.2-.05-.17.1l3.59,2.54.22.31h-6.3l-2.68-2.18h-2.99v2.08l-.11.11h-4.93l-.11-.11v-8.1l.11-.11h13.59ZM51.75,25.24h4.97c.18,0,.77-.28.92-.42.58-.58.53-2.02-.22-2.46-.08-.04-.57-.22-.62-.22h-5.04v3.1Z" style="fill: #fff;"/>
  <path d="M37.35,22.14c1.75.18,2.28,1.44,2.14,3.06-.16,1.77-1.25,2.13-2.84,2.23-1,.06-2.92.12-3.88,0-.1-.01-.18,0-.24-.11v-5.18h4.83Z" style="fill: #181818;"/>
  <path d="M51.75,25.24v-3.1h5.04s.55.18.62.22c.75.43.8,1.88.22,2.46-.14.14-.74.42-.92.42h-4.97Z" style="fill: #181818;"/>
</svg>