<svg width="117" height="52" viewBox="0 0 117 52" fill="none" xmlns="http://www.w3.org/2000/svg">
<g clip-path="url(#clip0_825_5052)">
<path d="M52.2136 4.69043V17.1766H4.19434V4.69043H52.2136ZM12.9471 7.82494V13.8839L13.1567 13.9654C16.7557 13.826 20.5245 14.1416 24.104 13.9654C26.2221 13.861 27.7727 13.1284 27.9029 11.1465C28.0644 8.69637 26.4532 7.86235 23.8603 7.74347C20.3512 7.58294 16.6825 7.8702 13.1567 7.74347L12.9471 7.82494ZM41.3638 7.74588H29.6324L29.5412 7.82494V13.8839L29.6324 13.963H33.8873L33.9785 13.8839V12.33H36.5616L38.8711 13.963H44.311L44.1237 13.7307L41.0295 11.8291C41.0038 11.7108 41.0894 11.7554 41.1799 11.7506C42.9234 11.651 44.0402 10.9938 43.7373 9.3246C43.5521 8.30411 42.4527 7.82977 41.3638 7.74648V7.74588Z" fill="#181818"/>
<path d="M42.3365 32.1389L37.1117 24.7167C37.1416 23.1452 37.1646 21.5658 37.143 19.9926C37.1402 19.7777 36.9794 19.6039 37.3728 19.6631L42.7319 27.2398V19.6534H46.2571V32.1395H42.3365V32.1389Z" fill="#181818"/>
<path d="M61.3313 23.9208H57.7448C57.3501 22.2008 54.7892 21.9558 53.3131 22.7929C51.0482 24.0759 51.2034 28.3679 53.8562 29.2677C54.2092 29.3878 54.5727 29.3986 54.8888 29.532V32.3243C54.8888 32.4257 54.3157 32.3611 54.1904 32.3503C48.3954 31.85 46.3902 25.7361 49.3186 21.9124C52.3049 18.0145 60.956 18.6886 61.3313 23.9214V23.9208Z" fill="#181818"/>
<path d="M79.2024 19.7849C79.2024 19.7717 79.1307 19.7433 79.1669 19.7053C79.1982 19.6654 79.2414 19.6594 79.2929 19.6528C79.7886 19.5876 80.9424 19.6274 81.4841 19.651C84.8714 19.7982 87.4016 21.3546 87.1029 24.5259C86.9748 25.8838 85.8956 27.1336 84.4891 27.6888L87.6509 32.1395H83.4566L81.0252 28.2935H79.2323L79.1543 28.2144C79.1523 28.1933 79.2017 28.1746 79.2017 28.1619V25.5802C79.2017 25.5639 79.1251 25.5398 79.1411 25.5011H81.6031C81.7807 25.5011 82.3941 25.3605 82.5772 25.2917C83.9224 24.7866 83.8291 23.0522 82.44 22.6153C82.2451 22.5537 81.7277 22.4451 81.5418 22.4451H79.1411C79.1251 22.4065 79.2017 22.3823 79.2017 22.366C79.2017 21.5055 79.2059 20.6449 79.2017 19.7843L79.2024 19.7849Z" fill="#181818"/>
<path d="M73.124 22.4457H66.5589V32.1395H63.0337V19.6533H73.0328L73.124 19.7324V22.4457Z" fill="#181818"/>
<path d="M56.2256 34.6689V37.3822L56.1344 37.4498C56.11 37.4516 56.0884 37.4088 56.0738 37.4088H49.7524L49.6612 37.4878V47.1026H46.136V34.6689H56.2263H56.2256Z" fill="#181818"/>
<path d="M38.5375 34.4043V36.986C37.5773 37.0723 36.7209 37.461 36.911 38.4223C36.9925 38.8333 37.4785 39.0765 37.8969 39.2008C39.49 39.6745 41.1652 39.5249 42.7269 40.336C45.3518 41.6986 45.081 45.3208 42.5292 46.6364C41.7654 47.0304 40.3652 47.3919 39.4795 47.3696C39.4057 47.3678 39.3417 47.3696 39.2922 47.3129C39.256 47.2754 39.327 47.2465 39.327 47.2332V44.8621C39.327 44.8488 39.2769 44.8307 39.2797 44.8096L39.3674 44.739C40.0017 44.7372 40.8672 44.4071 40.9633 43.8042C41.0851 43.039 40.6778 42.6183 39.8722 42.3884C37.5307 41.721 34.2415 42.0318 33.4492 39.3155C32.5914 36.3759 35.3674 34.4115 38.5375 34.4049V34.4043Z" fill="#181818"/>
<path d="M17.2626 34.6686V47.1022H13.6761V42.3341C13.6761 42.3178 13.7534 42.2936 13.7367 42.255H8.26611V39.3571H13.7367C13.7527 39.3184 13.6761 39.2943 13.6761 39.278V34.668H17.2626V34.6686Z" fill="#181818"/>
<path d="M69.5374 34.6689V37.4082H65.3431V47.1026H61.7566V34.6689H69.5374Z" fill="#181818"/>
<path d="M99.9295 22.4457H95.7658L95.6746 22.5247V32.1395H92.1494V19.6533H99.8383L99.9295 19.7324V22.4457Z" fill="#181818"/>
<path d="M24.2532 22.3393V19.4414C27.268 19.4505 29.9486 21.0129 30.8809 23.5228C31.8132 26.0327 31.1796 29.4882 28.5282 31.1816C27.4247 31.8865 25.7557 32.382 24.3771 32.3808C24.3061 32.3808 24.2984 32.3771 24.2532 32.3234V29.5311L24.3541 29.4605C28.7302 29.1986 28.6912 22.4818 24.2532 22.3393Z" fill="#181818"/>
<path d="M23.7671 19.4434V22.3413C22.0857 22.3908 20.8916 23.4831 20.5741 24.8681C20.1048 26.9133 21.0169 29.3659 23.7671 29.4534V32.4038C23.3633 32.329 22.949 32.3387 22.5389 32.2831C17.9011 31.6543 15.9195 27.5494 17.051 23.8693C17.8809 21.1687 20.5601 19.4735 23.7671 19.4434Z" fill="#181818"/>
<path d="M16.716 19.6533L11.9243 24.7986L17.0802 32.1395H12.9471L9.66425 27.1872L8.26685 28.5572V24.474L12.8559 19.6533H16.716Z" fill="#181818"/>
<path d="M22.8549 34.6689V42.5982C22.8549 42.7502 23.0902 43.2596 23.1884 43.4159C23.5923 44.0604 24.3226 44.3893 25.1651 44.4159V47.3138C23.1466 47.3464 21.1303 46.5836 20.0942 45.0441C19.5602 44.2505 19.3548 43.3519 19.2664 42.4425L19.2691 34.6695H22.8556L22.8549 34.6689Z" fill="#181818"/>
<path d="M31.5471 34.6689L31.5499 42.1262C31.4782 42.5288 31.4803 42.9138 31.4065 43.3193C30.9462 45.8407 28.5406 47.3615 25.6511 47.3138V44.4159C26.6071 44.373 27.3688 43.9644 27.7288 43.1872C27.7984 43.0369 27.9606 42.6313 27.9606 42.4925V34.6689H31.5471Z" fill="#181818"/>
<path d="M7.7801 32.1395H4.19434V19.7324L4.28555 19.6533H7.68959L7.7801 19.7324V32.1395Z" fill="#181818"/>
<path d="M7.7808 34.6689H4.19434V47.1026H7.7808V34.6689Z" fill="#181818"/>
<path d="M78.6548 19.6533H75.1296V32.1395H78.6548V19.6533Z" fill="#181818"/>
<path d="M36.5923 19.6533H33.0671V32.1395H36.5923V19.6533Z" fill="#181818"/>
<path d="M61.3924 27.8721C61.173 29.4767 60.2212 30.8847 58.5767 31.6746C57.5908 32.1478 56.4893 32.3264 55.3752 32.403V29.5317L55.4755 29.461C56.2713 29.4544 57.04 29.1484 57.4668 28.5528C57.6291 28.3265 57.6827 28.0929 57.8365 27.8721H61.3924Z" fill="#181818"/>
<path d="M38.7805 44.7318V47.366C35.7719 47.3696 32.9347 45.8157 32.9451 42.9932H36.4403C36.6054 43.208 36.6304 43.4784 36.7641 43.7137C37.1429 44.3818 37.938 44.7294 38.7805 44.7318Z" fill="#181818"/>
<path d="M73.1238 29.3467V32.139H67.0454V29.4257L67.1366 29.3467H73.1238Z" fill="#181818"/>
<path d="M56.2862 47.1024H50.1472V44.4941L50.2384 44.415H56.195L56.2862 44.4941V47.1024Z" fill="#181818"/>
<path d="M44.4334 38.5667H40.9382C40.8059 38.4587 40.8414 38.2735 40.7829 38.122C40.4926 37.3767 39.9174 37.0556 39.0234 36.9862V34.4836C39.1007 34.384 39.2323 34.3979 39.3556 34.4033C42.1281 34.5343 44.4181 36.014 44.4334 38.5661V38.5667Z" fill="#181818"/>
<path d="M72.273 24.4473H67.0454V27.134H72.273V24.4473Z" fill="#181818"/>
<path d="M55.3748 39.4102V42.0969H50.1472V39.4892L50.2384 39.4102H55.3748Z" fill="#181818"/>
<path d="M91.6627 22.4457H87.9551V19.6533H91.5715L91.6627 19.7324V22.4457Z" fill="#181818"/>
<path d="M61.2708 34.6689V37.4088H57.715C57.6934 37.4088 57.6475 37.5023 57.5632 37.3822V34.6689H61.2708Z" fill="#181818"/>
<path d="M21.5479 8.90588C23.0568 9.04407 23.517 9.98491 23.3937 11.1907C23.2587 12.5159 22.3145 12.7845 20.9394 12.8563C20.0726 12.9016 18.4224 12.9438 17.5939 12.8593C17.5054 12.8503 17.4379 12.8527 17.3843 12.7778V8.90527H21.5479V8.90588Z" fill="#181818"/>
<path d="M33.9783 11.2242V8.90625H38.3244C38.3668 8.90625 38.7978 9.03962 38.8626 9.07221C39.5129 9.39688 39.5526 10.4771 39.0561 10.9104C38.9322 11.0185 38.4163 11.2248 38.2638 11.2248H33.9783V11.2242Z" fill="#181818"/>
</g>
<defs>
<clipPath id="clip0_825_5052">
<rect width="116.706" height="52" fill="white"/>
</clipPath>
</defs>
</svg>
