<?xml version="1.0" encoding="UTF-8"?>
<svg id="Layer_1" data-name="Layer 1" xmlns="http://www.w3.org/2000/svg" viewBox="0 0 160 90">
  <path d="M28.07,17.6c11.57-.61,19.26,12,13.49,22.07-5.3,9.25-18.5,9.92-24.74,1.26-6.84-9.5-.36-22.72,11.25-23.32ZM28.88,18.98c.44.03.17-.49-.09-.49s-.15.15-.17.18c-.08.12-.41.23.08.32-.01.35-.34.34-.61.24.24-.38,0-.35-.16-.67l-.27.06.06.22-.12.06v.11s.25.16.25.16c.02.24-.41.27-.52.12.1-.19.07-.25-.09-.4-.18.11-.15.04-.25.01-.36-.09.06.36.13.53.11.25.15.52.23.77.91-.34,1.94-.29,2.86-.03.17-.39.18-.88.55-1.16l-.09-.15c-.17.1-.16.12-.33.03-.29.2-.06.33-.06.37,0,.16-.7.18-.52-.14l.21-.11v-.11s-.11-.06-.11-.06l.06-.22c-.41-.19-.27.13-.55.27v.12s.18.12.18.12c-.22.25-.6.2-.67-.15ZM24.32,20c-.19-.28.14-.54.43-.46.13.04.2.29.35.2.09-.05-.05-.36-.09-.4-.17-.18-.98.1-1.06.41-.23.99,1.02.59,1.21.92.16.29-.25.58-.53.46-.17-.07-.17-.33-.35-.26s.06.45.1.47c.32.19,1.09-.16,1.14-.57.09-.72-.76-.59-1.2-.77ZM33.68,19.6c-.41-.22-1.19-.51-1.32.16-.1.53.72.75.59,1.19-.09.3-.56.17-.68-.09-.07-.15,0-.42-.23-.41-.43.81,1.08,1.24,1.31.49.19-.58-.71-.84-.58-1.24.12-.36.79,0,.66.39h.18s.05-.48.05-.48ZM35.39,20.39s-.73-.33-.84-.37c-.04.14.11.23.12.34.01.1-.46,1.07-.55,1.16-.12.13-.22.1-.37.03l-.06.18.82.43c.21-.16-.01-.2-.06-.3-.04-.08.53-1.23.59-1.26.08-.05.25,0,.35-.01,0-.06.02-.14,0-.17ZM22.97,20.08c-.06-.06-.69.27-.78.35-.34.29.15.15.19.15.11.02.74,1.19.68,1.33-.01.03-.31.28-.06.25.12-.02.82-.38.82-.46-.1-.17-.23.01-.36-.06-.08-.04-.57-.98-.6-1.11-.07-.32.12-.19.11-.44ZM30.22,20.87c-.02-.82-1.86-.67-2.39-.53-.58.15-.28.48-.29.87,0,.16-.11.32-.1.48,0,.2.22.59.2.74-.01.09-.36.3-.22.58.44-.22,1.04-.04,1.37-.42.08.07.16.18.27.21.09.03,1.06.22,1.1.18.07-.05.06-.11.06-.18-.02-.37-.7-.55-1.01-.53-.19.01-.31.12-.42.12-.13,0-.38-.11-.52-.14.22-.27.51-.05.79-.16l-.11-1.14c.44-.18.82-.29,1.27-.07ZM21.18,21.06c-.43.06-.95.65-.62,1.09.31.4,1.09-.07,1.32.21.2.32-.13.58-.45.51-.08-.02-.37-.29-.41-.08-.01.06.22.31.27.34.37.21,1.26-.54.85-1.1-.35-.48-1.56.24-1.36-.45.1-.34.4-.2.6-.14.35.12.06-.42-.2-.39ZM29.18,21.48l.18.46c.17-.01.6.28.7.15.18-.39.33-1.17-.33-1.03.13.15.27.2.3.43-.3-.11-.55-.04-.85,0ZM37.41,22.52c.02-.21.31-.34.22-.55-.02-.04-.4-.41-.46-.45-.49-.34-1.13-.4-1.51.13-.61.85.19,1.57.94,1.91.18-.24.24-.57.61-.42.05,0,.04-.12.03-.15-.01-.04-.66-.53-.7-.52-.25.05.13.27.05.47-.22.49-.72-.04-.75-.38-.07-.81.99-1.4,1.42-.68.19.32-.16.61.17.65ZM18.64,23.98h2.04l.09-.15-1.11-1.21.05-.35c-.15.03-.66.46-.64.58.11.17.17,0,.29-.02.2-.02.71.61.87.78l-1.85-.06-.41.52c.14.21.2-.05.37,0,.18.05,1.34.87,1.04,1.2.08,0,.12.02.18-.04.03-.02.42-.5.42-.54,0-.19-.3.03-.33.03l-1.01-.73ZM37.1,23.98l.06.22c.13.06.49.59.58.58.15-.03.05-.23-.02-.29l.02-.08c.04-.09.91-.88.99-.91.13-.03.21.02.29.11l.09-.15c-.14-.08-.56-.79-.73-.64.02.13.09.24.05.38-.02.08-.88.85-.96.87-.16.05-.22-.11-.37-.1ZM30.02,23.2c-.82-.19-1.66-.16-2.48,0-.18,1.04-.7,2.75,1.02,2.42.07-.06.09-.99.13-1.18.02-.11.02-.15.15-.09.26.53-.2,1.38.67,1.34.14,0,.55-.12.64-.22.31-.32.01-1.83-.13-2.27ZM22.81,23.46c-.14-.13-.19-.26-.43-.1.07.2-.08.18-.09.22-.08.38.23.29.25.36-.01.16.05.34-.1.45-.08,0-.49-.89-.67-.49-.15.34.2.3.33.46.16.19.18.64.32.84.08.11.25.14.29.26.06.2.04.81.08,1.08.09.66.18,1.33.31,1.98.42.04.5.04.48-.39-.05-.83-.51-2.06-.49-2.8,0-.11.14-.08.17-.25.05-.29-.04-.75.08-1.01.03-.07.13-.08.17-.15.15-.23-.07-.52-.3-.3-.12.12-.1.36-.16.52-.03.08,0,.15-.12.12-.43-.35.26-.45-.13-.82ZM27.05,23.43c-.18-.17-2.99.98-3.14,1.28-.21.44.41,1.61.7,1.98s.65.55.86,1.02c.31.69.32,1.78.65,2.4.15.29.47.49.8.44-.03-1.74-.27-3.53-.19-5.27.03-.63.12-1.25.31-1.85ZM30.71,30.55c1.24.04,1.03-1.77,1.41-2.64.31-.71,1.22-1.1,1.56-1.97.13-.34.38-1.02.1-1.28-.17-.16-.9-.5-1.16-.61-.44-.19-1.43-.6-1.88-.62-.13,0-.1.04-.09.15.06.37.21.72.24,1.16.08,1.24-.02,2.54-.06,3.78-.03.68,0,1.38-.12,2.04ZM35.4,24.71c0-.32.42-.79-.09-.86-.47-.06-.13.55-.21.86-.04.05-1.04-.51-.84.14.1.33.51.05.7.05.32,0-.17.6.01.86.03.04.08.05.12.04v.09c-.45.24-.13.89-.33,1.31-.54.16-1.06.52-1.13,1.13-.04.35-.08.67.34.68.15-.32.31-.13.47-.18.2-.05.3-.39.65.01.01-.22.24-.24.4-.13.11.07.12.22.15.25.06.06.08-.12.12-.15.17-.15.4-.16.61-.15-.05-.68-.35-1.23-1.03-1.41.04-.32.11-.74.06-1.06-.02-.14-.14-.25-.13-.36,0-.03.15-.03.18-.2.03-.2-.11-.46-.05-.69l.69.17c.16-.07.2-.22.16-.38-.08-.24-.66.02-.85-.04ZM39.54,26.23c-.45.06-.72-.06-.83-.52.01-.13,1.07-.84,1.21-.81.1.02.16.21.29.02l-.58-.76c-.17.12.03.22-.09.4-.07.1-.99.74-1.08.75-.1,0-.19-.15-.32-.11-.1.1.71,1.13.79,1.31.09.08.74-.16.61-.28ZM17.91,25.2c.1-.17-.35-.44-.43-.4l-.85,1.41c.13.19.21-.01.34-.03.11-.02,1.16.52,1.22.61.09.14-.14.34.12.37l.76-1.36c-.03-.1-.41-.42-.48-.35,0,.29.19.36.09.67s-.21.35-.48.23c-.61-.26.09-.44-.19-.78l-.28.49-.54-.35c.11-.39.29-.67.73-.51ZM21.57,26.47l-.64-1.4c-.11.17-.54.56-.51.74,0,.04.16.32.23.23-.05-.25.12-.46.3-.61.12.27.25.66.42.89.05.08.07.17.19.14ZM37.35,26.05l-.43-.55c.12.23-.38.64-.55.7-.13.05-.43-.09-.36.06.02.04.42.52.49.46.02-.09-.1-.22-.05-.29.02-.03.55-.42.59-.43.12-.03.21.05.32.05ZM20.35,26.54s.04-.22-.18-.28c-.3-.08-.42.36-.37.58l.27-.36c.28.1.03.55.18.61l.18-.31c.21-.18.46.16.41.39l-.21.09-.04.19c.42.11.49-.45.32-.77-.21-.39-.54-.11-.56-.14ZM41.19,27.2l.17-.09-.39-.82c-.22.01-.07.18-.1.26-.04.14-1.2.63-1.41.59-.04,0-.06-.2-.22-.12l.58,1.47.63-.16c-.15-.16-.31-.03-.49-.18-.12-.1-.27-.42-.21-.58.03-.05,1.06-.51,1.18-.54.17-.03.24,0,.26.17ZM38.2,27.08c.02-.12-.05-.16-.15-.18-.34-.07-.77-.08-1.12-.12l.24.61c-.05.05-.37-.17-.3.03.02.07.27.55.36.46l-.03-.24c.13-.16.2.09.34.06l-.06-.24.3-.15c-.14-.19-.22-.17-.4-.04l-.21-.3,1.04.12ZM17.86,27.71c-.05.04,0,.18-.22.17-.12,0-1.13-.43-1.2-.52-.08-.11-.03-.29-.18-.34l-.31.97c.16.02.18-.17.34-.18.1,0,1.15.36,1.22.42.17.15-.07.33.18.37.05-.01.32-.72.33-.82.02-.13-.1-.12-.17-.07ZM19.43,27.81c-.06-.18.25-.57.03-.67-.11-.05-.11.1-.13.17-.04.1-.15.35-.11.44l.37.37c.16-.2.27-.47.58-.33.18.19.12.41.06.64.35-.04.25-.7.02-.85-.12-.08-.33-.1-.47-.05-.2.06-.15.31-.35.29ZM38.44,28.36h-.88s-.11-.09-.23-.06l-.1.18,1.52.06-.34-.85-.29.06c-.14.12.09.13.17.24.04.05.19.33.15.36ZM41.98,29.09c.06-.05-.22-1.1-.36-.91,0,.09.01.18-.01.26-.05.15-1.26.86-1.49,1-.05.03-.1-.02-.08.1.03.08.09.24.17.27.31.14,1.66.16,1.81.37.03.03.02.09.03.14l.18.04c0-.15-.03-.73-.15-.79-.13-.06-.07.16-.15.22-.11.08-.94-.05-1.13-.1-.08-.02-.16,0-.21-.09l1.13-.7c.1.12.08.22.27.18ZM19.07,28.24l-.13.04-.18.57c.16.06.1-.11.16-.12.11-.02.84.21.87.25.06.08-.08.29.13.24l.18-.61c-.16-.06-.1.11-.16.12-.17.04-.95-.21-.88-.49ZM24.26,28.96c-.06-.14.04-.38-.23-.41-.25-.03-.38.32-.91.24-.19-.03-.28-.22-.46-.03-.24.25-.05.37-.01.56.05.28.07.55.15.82.02.08.15.43.18.46.19.2,1.17.07,1.33-.26,0-.13.17-.6.17-.66,0-.07-.09-.14-.1-.21-.02-.12.07-.22.03-.39-.03-.11-.13-.11-.14-.13ZM15.84,28.67c-.15-.18-.34.75-.3.79.02.02.14.03.18-.05.04-.08-.03-.19.21-.19s.69.19.95.26c-.31.31-1.25.66-1.49.95-.15.19-.08.45-.09.67h.18c0-.12.01-.24.16-.25.39.18,1.42-.1,1.37.49h.18s.06-.85.06-.85c-.19-.05-.15.23-.22.25l-1.24-.09c.47-.39,1.17-.66,1.64-1.04.07-.06.15-.1.13-.21-.26-.08-1.58-.33-1.68-.49-.04-.07-.03-.16-.03-.24ZM36.11,28.86c-.24.07-.25.55.05.6.55.09.54-.77-.05-.6ZM33.88,29.34c-.11.19-.07.45.08.61.03.03.59.29.63.29.15.02.24-.12.35-.11s.16.15.35.11c.1-.02.16-.12.23-.14.13-.04.45.09.54-.2.09-.31-.13-.28-.23-.41-.13-.17-.2-.37-.34-.51-.2-.07-.3.09-.36.09s-.15-.15-.3-.15-.16.16-.2.17c-.11.02-.3-.04-.39.03l-.06.21-.29.02ZM37.65,29.4c.12.87,1.8.9,1.42-.05-.25-.61-1.16,0-.56.41-.14-.39.44-.63.47-.26.02.33-.53.36-.77.3-.29-.08-.29-.34-.55-.4ZM18.46,30.43c0-.31.11-.39.36-.52l-.36-.08-.2.99c.38.21.83.39,1.07.77.15-.12.08-.32.09-.49-.16-.07-.11.13-.15.12-.34-.02-.41-.57-.07-.54.27.03.06.26.29.23l.15-.98-.34-.12c-.02.16.17.18.18.33.02.31-.22.39-.48.28l.06-.3c-.2-.06-.14.25-.19.3h-.42ZM23.23,31.45c.47.48,1.36-.1,1.01-.77-.37.37-.76.48-1.22.18.01.19.07.45.2.59ZM39.36,30.98c-.2-.05-.07.14-.16.19-.12.06-.76.09-.9.06-.06-.01,0-.19-.16-.12l.06.67c.13-.14.19-.37.45-.3.2.06-.02.42.22.36v-.37c.62-.07.52.33.12.61h.43s-.06-1.1-.06-1.1ZM41.92,33.05h-1.19l-.1-.24h-.18s-.06.91-.06.91c.19.04.14-.19.22-.25.2-.14,1.15-.02,1.45-.05l.1.3c.31-.02.15-.55.17-.78l-1.27-.59c.39-.24.82-.49,1.27-.58-.03-.22.15-.76-.18-.79l-.1.3c-.3-.02-1.21.09-1.43-.08-.07-.06-.03-.19-.09-.21l-.15.04.06.76h.18s0-.24,0-.24l.28-.06.93.12-1.36.55-.04.15,1.46.76ZM29.12,31.89c.55-.67-1.21-.69-.67,0-.77-.25-.46,1.02.12.55.03.89-1.22.97-1.64.33l.37-.12c.15-.1.03-.54-.13-.62l-.37.09c.56-.77-.98-.7-.69-.07.04.09.16.04.14.13-.17-.01-.34.02-.36.21.08.33.26.55.61.4.03.78-1.09.72-1.46.21.11-.07.36.03.37-.18-.08-.28-.32-.69-.66-.51v.3c-.11-.03-.11-.16-.22-.24-.15-.11-.32-.14-.49-.07-.06.02-.11-.03-.09.1.02.16.43.46.55.61.39.48.59,1.09.89,1.62,2.23-.34,4.53-.36,6.76,0l1.49-2.28c-.15-.14-.43-.1-.58.03-.08.06-.05.19-.15.19-.12-.7-.77-.01-.67.43l.3.09c-.44.46-1.52.5-1.46-.33.32.31.68-.11.6-.48l-.36-.07.23-.28c.03-.35-.67-.43-.87-.2l.03.37c-.41-.17-.58.27-.42.6l.42.04c-.4.7-1.68.66-1.71-.27.41.31.71-.11.55-.51l-.08-.06-.35.02ZM18.58,31.47h-.36s-.06,1.06-.06,1.06l.27.16.09-.09c-.17-.08-.34-.32-.15-.45l.84.05.15.19v-.61c-.19-.04-.08.15-.27.18-.25.04-.52-.05-.76-.06-.06-.26.12-.26.24-.43ZM15.23,31.77v1.61s.13.12.18.09c0-.1.03-.23.12-.28.14-.07,1.22-.13,1.36-.08l.1.23h.18s-.06-1.03-.06-1.03c-.22-.03-.14.24-.24.34-.07.06-.51.13-.55.09v-.55h-.24s0,.55,0,.55h-.67s.07-.63.07-.63c.03-.15.55-.17.48-.31-.1-.21-.56-.02-.73-.03ZM39.42,32.5c-.2-.04-.06.15-.22.23-.15.07-1.04.18-1.06.29l.03.21c.09.14,1.07.35,1.01.73.14.16.2-.51.18-.55-.16-.03-.09.04-.16.13l-.76-.37.76-.18.12.18c.16-.06.07-.52.09-.67ZM19.37,32.62c-.2-.05-.07.11-.16.19-.13.11-1.02.44-1.06.48.13.37.76.31,1.08.47.15.07.08.23.26.2l-.03-.43-.4.06-.04-.43.16-.1.25.1-.06-.55ZM17.36,34.63l-.21-.91c-.12.1-.07.24-.18.37-.17.19-1.56.85-1.56.94.03.08.1.23.17.27.34.16,1.29.13,1.72.27.17.06.13.27.36.22l-.18-.73c-.19-.05-.15.23-.22.25-.46.13-.43-.36-.48-.68l.31-.18c.1.12.08.22.27.18ZM19.55,34.03c-.2-.05-.07.13-.16.19-.19.12-.83.35-1,.12l.07.48.9.13-.66.59.15.45.05-.18c.08-.11.94-.28,1.07-.06l-.12-.49c-.2-.05-.07.13-.16.19-.11.07-.48.09-.63.11.06-.11.76-.56.67-.67l-.91-.21.64-.22.16.13-.06-.55ZM38.15,34.38s0-.21-.14-.23l-.1.42.07.13c.16-.2.5-.11.73-.06.09.02.11-.04.09.12-.33.12-.66.29-.98.46-.07.04-.15,0-.12.12.07.14.78.26.91.37.1.08-.01.26.18.21l.12-.49c-.16-.06-.1.11-.16.13-.1.02-.7-.16-.63-.25.17-.08.88-.35.96-.44.07-.08.07-.35.08-.47l-.16.18c-.16-.09-.78-.12-.86-.2ZM32.16,35.07c-2.2-.35-4.49-.36-6.69,0,0,.45-.02.91,0,1.37.03,1.28.03,3.95.5,5.04.9,2.09,4.88,2.15,5.7.05.42-1.07.4-3.22.44-4.43.03-.68,0-1.36.05-2.04ZM41.86,36.1c.04-.26.17-.55.2-.81,0-.05.07-.15-.05-.17s-.16.18-.25.24c-.25.16-1.47.04-1.85.13.02.12-.04.32.01.41.03.05.84.61.99.75.08.07.3.26.34.33.07.12-.03.31.09.34.17.03.31-.65.33-.79-.16-.03-.19.01-.24.15l-.09.03-1.01-.85,1.31-.07c.07.01-.01.36.22.31ZM19.92,36.7c.03-.34.43-.62.09-.91l-.27.64c-.46-.22-.7.05-.52.51.03.07.25.53.27.55.13.13.12-.21.18-.28.11-.12.73-.43.92-.27l-.27-.55c-.12.07-.05.24-.13.31-.12.1-.58.21-.72.35-.36-.4.08-.61.46-.36ZM37.53,36.03l-.12.04c-.11.42-.57.95-.12,1.33.63.52,1.17-.39,1.22-.94-.02-.03-.11.1-.17.11-.08.02-.92-.29-.81-.54ZM18.09,37.07l-.34-.91c-.18-.01-.03.2-.15.34-.05.06-1.14.49-1.25.49-.16,0-.13-.22-.33-.16l.31.91c.24.02.12-.19.17-.29.07-.17.38-.26.56-.26l.37.91c-.16,0-.27.17-.4.19-.22.03-.31-.23-.45-.03l.46.76c.23-.02.04-.2.15-.34.06-.09,1.04-.61,1.15-.63.25-.04.14.35.38.08l-.46-.82c-.14.12-.04.29-.18.43-.09.1-.32.14-.43.23-.05,0-.44-.81-.37-.91.04-.06.46-.19.55-.19.16,0,.09.22.27.19ZM39.17,38.78c.07-.06,1.45-.23,1.69-.35.11-.05.33-.51.32-.59-.03-.2-.24.07-.29.08-.09.02-1.21-.49-1.27-.6s0-.27-.12-.36l-.39.7c.13.19.2-.01.34-.03.23-.03.94.32,1.12.49-.53.17-1.5.22-1.97.44-.08.04-.12.07-.11.17.25.15,1.34.74,1.39.96.03.12-.12.22.04.32l.52-.7c-.16-.23-.22.05-.35.08-.14.04-.72-.35-.85-.46-.05-.04-.11,0-.08-.14ZM20.51,37.33c-1.04.1-.59,1.78.4,1.31.69-.33.26-1.37-.4-1.31ZM36.68,37.56c-.18-.04-.18.25-.3.34.5-.04.24.6-.09.51l-.12-.24-.33.49c.48-.19.92.25,1.4.24.14-.14-.65-1.07-.55-1.34ZM22.24,39.14c.06-.06-.36-.48-.4-.49-.14-.01.07.44-.19.48-.12.02-.18-.22-.33-.18l.18.36-.28.18c-.33-.11-.27-.33-.2-.6-.72.23.17.74.4,1.03.15-.09,0-.18.06-.3.05-.12.58-.65.76-.49ZM36.19,39.38c.1.25.05.33-.15.49-.08-.21-.48-.46-.55-.61-.06-.12.09-.21-.06-.3l-.4.4c-.02.19.13,0,.24.06.14.06.44.5.61.61-.14.21-.28.15-.49.09.21.72.7-.23,1.01-.43.08-.09-.14-.38-.22-.3ZM23.27,39.87l-.75-.54-.22.3c.24-.13.65.02.52.3-.17.37-.44-.07-.52,0-.07.16.24.23.24.27-.18.49-.67.22-.49-.21-.06-.06-.36.22-.3.3l.85.61c.02-.11-.07-.19-.03-.3.05-.12.48-.69.66-.61l.04-.12ZM38.05,39.39l-.64.76c.14.2.22-.05.39-.03.06,0,.87.67.95.76.12.14.17.24,0,.37l.15.09.58-.7c-.14-.21-.23.06-.38.02-.08-.02-.95-.76-.99-.85-.04-.1.09-.43-.06-.42ZM18.93,40.95c-.21.2-.54-.03-.54-.32,0-.18.19-.29.03-.4-.77.27.16,1.29.66,1.03.65-.34-.03-1.15.22-1.42.33-.36.86.33.44.67l.14.15c.71-.36-.07-1.29-.59-1.21-.91.15-.15,1.29-.37,1.5ZM34.73,39.69l-.36.21c-.05.13.14.08.17.19.09.27-.12.37-.36.39-.12-.09.08-.5-.09-.43l-.76.53c0,.12,0,.37.18.32-.04-.47.35-.63.61-.21.01.03-.31.12-.24.27.12.03.17-.12.27-.12.21,0,.41.36.03.46-.18.05-.24-.18-.37,0l.22.2.86-.51c-.12-.41-.3-.89-.17-1.31ZM23.82,40.91c-.11-.34.05-.8-.43-.85l.13.7s-.56.03-.34.52c.05.11.79.52.82.49.04-.1-.09-.14-.1-.21,0-.05.32-.73.35-.75.08-.05.27.07.23-.1l-.45-.28-.09.12c.13,0,.14.02.11.14-.02.08-.35.71-.39.72l-.21-.09c-.17-.3.09-.45.37-.4ZM21.5,41.33l-.76-.55c-.18.11.05.16.03.33-.01.11-.68.9-.8.98-.15.1-.2.13-.33-.03-.22.12.11.37.25.48.06.05.31.25.36.25.17-.03-.09-.24,0-.42.04-.09.8-.95.87-.97.15-.04.34.3.38-.07ZM37.65,42.49c.05.06.79-.59.79-.64,0-.18-.32.03-.43,0-.26-.06-1.55-.94-1.64-.88,0,.08-.1.16-.12.23-.06.3.47,1.29.48,1.69,0,.2-.1.23-.13.39.1.09.63-.37.73-.46-.1-.16-.22-.01-.36-.03l-.43-1.28,1.15.61-.06.36ZM23.09,42.61c.14-.15-.71-.62-.76-.61-.2.03.09.24.06.37-.01.08-.65,1.15-.7,1.19-.1.02-.3-.14-.34-.22-.07-.15.07-.4-.06-.42s-.31.33-.33.45l1.49.94c.13-.07.6-.57.22-.44-.04.01-.08.08-.16.09-.18.03-.48-.04-.45-.26,0-.06.6-1,.66-1.05.15-.13.19-.07.37-.03ZM36.13,43.52c-.1.05-.19.09-.3.03-.08-.04-.64-1-.66-1.11-.04-.22.22-.29.02-.44l-1.3.83.11.47.19.04c-.07-.33.09-.62.43-.71.31-.08.35.31.49.52-.68.19-.57.56.09.19.11.11.35.39.25.54-.18.12-.37.3-.6.23-.14-.04-.19-.3-.35-.08l.27.44,1.37-.75v-.21ZM24.43,43.28c.17-.22-.76-.52-.79-.49-.12.12.16.21.18.33.1.55-.1,1.3-.06,1.86l.37-.03c.45-.41.83-1.24,1.46-1.31v-.18c-.24.04-.7-.38-.73,0l.18.09-.21.28-.61-.19-.03-.43.24.06ZM33.26,43.1l-.91.34c-.02.16.18.06.3.12.09.04.53,1.16.54,1.29.02.34-.98.22-.73-.38.07-.16.32-.19.22-.33-.03-.04-.8-.52-.87-.54-.2-.04-.37.05-.57.05v.18c.44-.08.68.27,1.04.43-.01.19-.23.25-.24.46-.06.98,1.39.42,1.83.12.02-.19-.22-.01-.33-.15-.05-.06-.46-1.19-.46-1.25,0-.16.26-.1.18-.33ZM27.05,43.95c.19-.17-.87-.31-.97-.3-.08.29.22.1.25.34.04.33-.27.99-.25,1.37-.34-.04-.56-.04-.49-.45l-.15-.04-.15.55c.6.11,1.2.33,1.82.3l.19-.48c-.26-.03-.18.21-.46.24-.11.01-.35.04-.38-.09-.02-.06.23-1.23.27-1.3.08-.13.19-.13.33-.12ZM30.95,44.38c.16-.92-1.35-.71-1.35.03,0,.67,1,.61,1.04.8.14.56-.6.52-.76.08-.47.74.86.62,1.06.27.48-.85-.71-.81-.91-1.08-.29-.4.36-.65.64-.34.11.12.02.3.28.24ZM27.9,45.84h.97v-.18s-.24-.1-.24-.1l.05-1.4.25-.03v-.18s-.92-.03-.92-.03l-.06.15c.58.05.22,1.11.22,1.53l-.28.06v.18Z" style="fill: #181818;"/>
  <path d="M9.98,46.89c7.04-.68,10.63,7.93,5.28,12.34-4.65,3.84-11.71.25-11.43-5.76.16-3.29,2.82-6.27,6.14-6.59Z" style="fill: #181818;"/>
  <path d="M25.16,68.61c.31-4.6,6.96-4.6,7.25,0,3.89.01,7.78-.02,11.67,0,37.08.15,74.18.09,111.26.07.37,0,.72,0,1.09,0,.44,0,.88-.01,1.31,0v.3H32.41c0,1.33-.97,2.65-2.18,3.15-2.34.97-4.95-.62-5.07-3.15H2.25v-.37h22.91Z" style="fill: #181818;"/>
  <path d="M70.24,36.09l.51-.77c.99.06-.12.9-.07,1.11,1.89,1.36,1.94,4.43.21,5.94-1.32,1.15-3.32,1.24-4.88.55-.2,0-.51.69-.7.82-.94-.09.22-.97.18-1.15-2.88-2.27-1.43-6.65,2.23-6.92.9-.07,1.68.13,2.52.42ZM66.05,41.76l3.56-4.81c.14-.32-.79-.71-1.05-.77-.37-.09-.75-.08-1.13,0-2.36.53-2.36,3.87-1.39,5.59ZM70.04,37.31l-3.54,4.81c-.06.18.34.42.48.5.84.45,1.98.37,2.72-.23,1.29-1.05,1.26-3.8.34-5.08Z" style="fill: #181818;"/>
  <path d="M110.82,36.21c-.39.14-.88.06-1.03.52-.1.29-.1,1.73-.06,2.08.01.09.01.16.09.22.24.19,3.37-.03,3.91.06l.12-.06c.11-.46.11-.96.09-1.43-.01-.21-.05-.7-.1-.87-.2-.66-1.19-.16-1.09-.81h3.54s.02.3.02.3c-.49.16-1.03.02-1.14.66.09,1.66-.17,3.53-.02,5.16.07.76.61.66,1.22.76v.36s-3.63-.06-3.63-.06c-.11-.63.97-.16,1.12-.84.04-.18.07-.68.08-.9.01-.27.03-1.52-.08-1.66-.12-.08-.25-.07-.38-.08-1.2-.07-2.43.03-3.63.03-.1.06-.11.14-.12.24-.06.46-.04,1.59,0,2.08.07.88.58.7,1.28.82v.36s-3.52,0-3.52,0c-.22-.69.79-.23.95-.95.21-.97.14-3.66.08-4.74-.01-.24-.05-.74-.18-.91-.25-.31-.75-.24-1.09-.34l.02-.3,3.42-.06c.19.01.17.21.14.36Z" style="fill: #181818;"/>
  <path d="M76.57,42.53c.13-.13.19-.77.2-.99.07-1.18.07-2.85,0-4.02-.06-.92-.08-1.15-1.09-1.19l-.02-.32c.12-.16.96-.09,1.2-.1,1.35-.07,4.85-.49,4.85,1.61,0,.86-.55,1.09-1.2,1.43-.44.23.34.3.54.38.64.25,1.13.78,1.2,1.48.25,2.52-2.94,2.47-4.66,2.28l-1.94.05-.1-.14c-.03-.36.78-.23,1.02-.47ZM77.99,38.96c1.01.19,2.38.07,2.38-1.25,0-.97-.79-1.44-1.68-1.44-.15,0-.7.11-.7.28v2.41ZM77.99,39.66v2.25c0,.25.26.62.5.71.81.31,2.05.04,2.33-.86.37-1.18-.4-2.14-1.59-2.25-.22-.02-1.19-.07-1.25.15Z" style="fill: #181818;"/>
  <path d="M111.25,56.08v.23c-2.3.57-3.25-1.46-4.29-3.04-.24-.24-.86-.35-1.11-.09.05.51-.19,2.27.24,2.55.4.25,1.13-.05.97.58l-3.54-.03-.05-.33c.3-.12.8-.08,1-.38.1-.15.14-.61.16-.82.07-1.01.14-3.93-.07-4.81-.18-.78-1.01-.11-.88-.83.08-.11.74-.05.92-.06,1.38-.09,4.59-.44,5.06,1.34.24.9-.11,1.63-.88,2.11-.22.14-.6.15-.55.46.03.16.43.74.55.92.58.85,1.42,2,2.48,2.18ZM105.84,49.71v2.74c.4.38,1.57.2,1.98-.09.84-.6.68-2.17-.24-2.68-.34-.19-1.63-.47-1.74.03Z" style="fill: #181818;"/>
  <path d="M56.78,36.21c-.08.13-.95-.07-1.07.54-.07.37-.15,2.15.01,2.39.09.13.34.02.45-.04.32-.16,2.14-2.05,2.31-2.38.34-.67-.83-.2-.48-.85l2.98-.02.07.21c0,.22-.85.33-1.09.42-.7.28-1.73,1.3-2.29,1.85-.17.17-.37.34-.45.58,0,.1.34.49.43.61.61.78,1.59,2.06,2.28,2.71.16.15.42.34.63.41.31.11,1.08.04.81.47l-3.41.02c-.21-.47.29-.37.6-.48l-.03-.24c-.71-.75-1.35-1.85-2.07-2.56-.16-.16-.5-.47-.71-.22-.17.2-.14,1.56-.12,1.89.01.23.07.88.23,1.01.31.25,1.11.06.97.55l-3.45.06v-.36c.49-.16.95-.09,1.03-.71-.1-1.63.15-3.44,0-5.05-.07-.76-.49-.66-1.09-.83l.02-.3,3.29-.06c.19.01.17.22.14.36Z" style="fill: #181818;"/>
  <path d="M140.51,41.42c.01.21.07.59.12.79.18.64.67.5,1.22.58l-.06.34c-.63.07-1.23-.05-1.86-.04-.29,0-.59.1-.91.07-.22-.03-.31-.22-.15-.34.39-.29.82.23,1.02-.81s.17-3.67.08-4.74c-.07-.84-.57-.89-1.27-1.07v-.36c.72.05,1.45.11,2.17.01,1.24,1.97,3.13,3.49,4.7,5.2l.12-.06v-3.78c0-.16-.16-.64-.28-.76-.33-.32-1.31-.02-.94-.58l2.89-.03c.3.51-.3.37-.59.44-.34.08-.39.65-.46.94l-.02,6.04c-.27.18-.45-.1-.63-.29-1.24-1.31-2.43-2.69-3.68-3.99-.43-.44-.88-.86-1.31-1.31l-.15.09c.06,1.19-.09,2.47,0,3.65Z" style="fill: #181818;"/>
  <path d="M97.18,41.36c.01.17.05.48.08.66.12.75.62.73,1.26.78l-.06.34c-.63.07-1.23-.05-1.86-.04-.29,0-.59.1-.91.07-.22-.03-.31-.22-.15-.34.13-.1.47-.06.63-.1.38-.12.45-1.07.47-1.41.06-1.04.12-3.22-.02-4.19-.1-.71-.68-.74-1.26-.91-.11-.57.41-.3.75-.29.47.01.95,0,1.42-.05,1.26,1.98,3.13,3.48,4.7,5.2l.12-.06v-3.84c0-.1-.16-.58-.24-.67-.26-.29-.69-.17-1.03-.28l.05-.33,2.89-.03c.34.58-.56.32-.8.57-.14.15-.25.76-.26.99-.13,1.8.22,3.99,0,5.73-.01.12,0,.2-.16.21l-5.45-5.64-.18.06c.06,1.18-.08,2.43,0,3.59Z" style="fill: #181818;"/>
  <path d="M71.59,50.5c-.02-.21-.14-.73-.28-.88-.32-.35-1.28-.01-.99-.6h2.98s0,.36,0,.36c-.8.02-.99.17-1.09.95-.18,1.45-.1,3.38-.07,4.87,0,.23.26,1.42-.2,1.3l-5.44-5.72c-.09.06-.08.12-.09.21-.09.8-.09,3.52.08,4.25.18.79.67.53,1.24.77l.02.21c-.07.22-.8.04-1,.03-.65-.02-1.3.04-1.94.06l-.09-.09v-.26c.71-.08.96-.07,1.07-.84.17-1.13.18-3.46.08-4.61-.05-.61-.21-.79-.76-1.01-.27-.11-.76-.02-.48-.49l2.14.02c1.23,1.94,3.1,3.44,4.64,5.13l.18-.06c-.08-1.16.11-2.45,0-3.59Z" style="fill: #181818;"/>
  <path d="M141.54,55.13c.09.63.59.66,1.13.7.92.06,1.88.03,2.39-.83.14-.24.23-.83.56-.6.21.14-.3,1.9-.41,1.92l-6.21-.06-.02-.3c.55-.16,1.19.04,1.27-.71.18-1.62-.13-3.58,0-5.23-.07-.52-.53-.56-.96-.65l.05-.33,5.49-.03.18,1.66c-.46.4-.46-.42-.7-.75-.39-.53-1.76-.49-2.38-.43-.16.01-.28.02-.39.16v2.5l.09.09h1.58c.07,0,.33-.15.39-.22.23-.29.07-.96.62-.75v2.5h-.36c-.06-.27-.24-.97-.59-.97h-1.65l-.09.09c.07.7-.1,1.58,0,2.25Z" style="fill: #181818;"/>
  <path d="M88.23,42.03c.07.52.48.61.94.64.85.07,1.91.1,2.46-.65.16-.21.39-1,.69-.79.2.22-.31,1.9-.41,1.93h-6.24s0-.37,0-.37c.59-.12,1.2.06,1.28-.7.17-1.64-.12-3.56,0-5.23-.08-.56-.53-.51-.96-.65l.05-.33,5.49-.03.18,1.67c-.04.13-.26.13-.36.07-.25-.88-.49-1.17-1.43-1.25-.48-.04-1.27-.07-1.67.15v2.59h1.74s.28-.16.33-.22c.14-.19.15-.53.26-.74l.33.05.03,2.4c-.6.42-.37-.93-1.01-.93h-1.58l-.09.09c.07.72-.1,1.62,0,2.31Z" style="fill: #181818;"/>
  <path d="M96.21,52.78c-.14.09-.08,2.47.13,2.76.32.45,2.29.3,2.78.05.61-.32.72-1.1.87-1.2.12-.08.35-.05.37.13.03.22-.35,1.72-.53,1.78h-6.17c-.06-.12-.08-.26.03-.36.74-.15,1.16.04,1.24-.88.13-1.57-.1-3.34,0-4.93-.04-.18-.06-.39-.2-.53-.28-.26-1.02-.07-.75-.6h5.54c-.05.48.21,1.14.12,1.6-.03.18-.22.22-.34.09-.24-.24-.08-.85-.73-1.1-.39-.15-1.65-.18-2.08-.12-.23.03-.31.17-.33.4-.06.48-.04,1.52,0,2.01,0,.12.04.22.06.33h1.68c.36,0,.58-.66.59-.96.56-.17.36.19.35.5-.02.64,0,1.29.04,1.92-.51.26-.4-.33-.56-.61-.04-.07-.3-.31-.36-.31h-1.74Z" style="fill: #181818;"/>
  <path d="M56.72,49.01v.36c-.51.12-1.04.02-1.14.66-.12.74-.07,2.83-.01,3.64.09,1.14.6,2.18,1.86,2.29,2.78.23,2.57-2.68,2.47-4.6-.03-.55.14-1.44-.4-1.79-.31-.2-.93-.05-.79-.5.12-.16.99,0,1.22,0,.49,0,1.08-.12,1.53-.07.22.03.31.22.15.34-.34.26-.79-.21-1.01.64-.58,2.25,1.06,6.2-2.74,6.52-4.87.4-3.06-3.62-3.58-6.53-.1-.53-.61-.47-1.01-.6v-.36s3.47,0,3.47,0Z" style="fill: #181818;"/>
  <path d="M126.85,42.8v.26s-.15.1-.15.1l-2.9-.03-.05-.34.68-.12c.07-.04.1-.14.1-.21,0-.13-.58-1.67-.66-1.77-.03-.04-.08-.1-.12-.12-.13-.06-1.86-.06-2.1-.03-.17.02-.26.05-.35.2s-.53,1.44-.54,1.6c-.03.5.43.33.79.46l-.05.33-2.62.03v-.36c.69-.14.97-.18,1.3-.81.63-1.17,1.27-2.92,1.77-4.2.14-.37.33-1.16.47-1.42.07-.12.32-.23.45-.34.15-.14.26-.52.46-.28.15.18.44,1.31.56,1.63.59,1.62,1.22,3.24,1.85,4.85.21.42.69.49,1.11.56ZM122.62,37.5c-.13.03-1.05,2.32-.98,2.44.11.18,1.56.16,1.78.07.06-.03.12-.04.14-.1.03-.1-.58-1.75-.68-1.99-.04-.1-.13-.44-.26-.41Z" style="fill: #181818;"/>
  <path d="M116.18,48.84c.5-.06,1.57-.01,2.02.2.28.13.35.91.36,1.22.02.26.06.64-.33.51-.1-.04-.25-.56-.33-.71-.93-1.66-3.48-.5-2.5.98.74,1.12,2.88,1,3.27,2.83.5,2.37-2.2,3.05-3.99,2.41-.5-.18-.64-.27-.79-.8-.07-.24-.37-1.67.23-1.26.39,1.13,1.35,2.16,2.65,1.74.57-.19.87-.72.81-1.31-.18-1.7-3.13-1.56-3.39-3.49-.18-1.31.74-2.16,1.98-2.31Z" style="fill: #181818;"/>
  <path d="M155.24,35.93c.18.15.27,1.41.19,1.68h-.35c-.21-1.03-1.06-1.76-2.14-1.42-.64.2-.98.88-.72,1.52.45,1.12,2.75,1.15,3.29,2.74.88,2.6-2.34,3.5-4.21,2.56-.62-.31-.6-1.26-.6-1.88.02-.11.28-.14.35-.09.04.03.28.7.42.89.32.44.89.93,1.45.98,1.11.11,1.92-.75,1.47-1.84-.54-1.29-3.11-1.29-3.28-3.12-.21-2.31,2.47-2.61,4.13-2.03Z" style="fill: #181818;"/>
  <path d="M130.99,35.86c.23.79-.9.01-.71.98l2,4.55.25-.45c.36-1.24,1.54-2.94,1.74-4.17.09-.55-.39-.42-.77-.57l.02-.3c.1-.15.56,0,.73,0,.44.01.9,0,1.35,0,.18,0,.7-.2.7.15,0,.25-.52.24-.72.32-.36.14-.52.44-.69.77-.62,1.14-1.23,2.58-1.77,3.78-.35.8-.65,1.62-1,2.42l-.33-.04c-.85-2.26-1.9-4.44-2.93-6.62-.22-.35-.67-.35-1.03-.43l-.06-.4h3.22Z" style="fill: #181818;"/>
  <path d="M85.96,49.36c-.49.12-.82,0-.69.63.16.77,1.17,2.74,1.55,3.57.06.12.42.93.47.93.41-.79.79-1.63,1.14-2.45.17-.41.89-2.01.84-2.32-.06-.41-.95-.11-.77-.65l2.67-.06.1.22c0,.23-.5.23-.68.29-.36.12-.48.36-.67.67-.64,1.1-1.3,2.7-1.83,3.9-.35.8-.65,1.62-1,2.42-.07,0-.15,0-.22-.02-.17-.06-.42-.95-.52-1.19-.75-1.78-1.62-3.51-2.4-5.28-.23-.55-.76-.47-1.21-.69v-.33c.67,0,1.32.07,1.99.06.33,0,1.57-.32,1.23.29Z" style="fill: #181818;"/>
  <path d="M150.04,49.49c-.5.06-.8.29-1.05.71-.08.14-.16.44-.22.51-.08.09-.3.1-.37,0-.08-.11.43-1.71.4-2.01h.26c.08.32.32.33.62.36,1.34.12,3.76.1,5.12,0,.16-.01.37-.03.52-.09.22-.1.2-.34.49-.27l-.19,1.62c-.02.33.26.49-.36.45,0-.79-.33-1.2-1.13-1.28-.21-.02-1.11-.03-1.25.03-.03.01-.12.11-.12.12v5.66c0,.12.19.41.32.47.42.19,1.11-.1.96.53h-3.74s-.09-.1-.09-.1v-.26c.34-.06,1.27-.08,1.27-.58v-5.79l-.09-.09c-.43.04-.92-.05-1.34,0Z" style="fill: #181818;"/>
  <path d="M133.07,55.25c0,.05.1.31.13.36.29.49,1.4,0,1.14.7-.88,0-1.76-.08-2.64-.06-.22,0-1.46.27-1.16-.24.3-.21.72-.07,1.05-.28.19-.12.25-.62.26-.84.1-1.32.12-3.69,0-5,0-.11-.01-.25-.09-.33-.09-.09-1.02-.08-1.22-.06-.83.07-1.24.48-1.44,1.27-.11.02-.38.04-.41-.09l.42-1.97h.27c.08.32.32.34.62.36,1.37.12,3.73.1,5.12,0,.14,0,.41-.03.53-.08.19-.08.17-.37.47-.29-.12.67-.12,1.34-.15,2.01-.47.34-.37-.45-.61-.79-.35-.49-1.46-.51-2.01-.43-.08.01-.27.08-.27.16v5.6Z" style="fill: #181818;"/>
  <path d="M80.11,55.96c.03.14.04.34-.14.36l-3.42-.06-.02-.3c.64-.17,1.08-.02,1.15-.83.15-1.64-.1-3.5-.02-5.16-.1-.56-.7-.49-1.14-.6l.05-.33c.73-.07,1.44.05,2.17.04.36,0,.76-.11,1.16-.07.22.03.31.2.15.34-.35.29-1.02-.17-1.1.85-.13,1.66.09,3.49.02,5.16.1.56.71.45,1.14.6Z" style="fill: #181818;"/>
  <path d="M125.69,49.01l.04.3c-.14.21-.98-.01-1.12.59-.22.93-.14,3.75-.08,4.8.02.39.02.94.43,1.09.29.11.96,0,.74.48h-3.48s-.05-.32-.05-.32c.55-.16,1.03-.03,1.13-.72-.07-1.61.15-3.4.02-4.98-.07-.85-.44-.75-1.15-.89v-.36s3.52,0,3.52,0Z" style="fill: #181818;"/>
  <path d="M27.78,37.56l.12.18.12-.18c-.02.38.35.64.4,1.04h.57c-.07-.14-.28-.12-.39-.25-.06-.07-.2-.45-.15-.48.68-.03,0,.57.64.61.54.04.62-.51.99-.6.89-.21,1.26.77.35,1.02-.14.62.53.11.79.19l.35.54-.15-.05-.12.23-.12-.12-.06.12h-.12s-.21-.15-.21-.15l.37-.27c-.38-.02-1.28.46-1.44-.06-.08-.26.07-.58-.36-.56-.32.01-.54.39-.82.46-.21.05-.41,0-.57.03-.07.02-.07.19-.21.23-.33.1-1.12-.2-1.12.25h-.18s0-.18,0-.18l-.31.16-.12-.15.18-.06-.24-.09.24-.03-.24-.18c.14-.28.35.04.58.06.12.02.76.03.76-.09-.26-.25.13-.39-.12-.67l.13-.07.36.04v-.26c-.15-.21-.51.11-.49-.25l.3-.09v-.3s.15.11.15.11l.15-.11ZM29.61,38.59c.23-.14.64.14.79.1.43-.11.24-.7-.14-.64-.18.03-.49.42-.65.54Z" style="fill: #181818;"/>
  <path d="M27.78,35.24l.03.12.21-.12c-.01.38.35.62.4,1.04h.57c-.29-.22-.53-.32-.55-.73.68-.03,0,.57.64.61.52.04.61-.51,1.05-.6.97-.2,1.25.9.26.96l.05.27.85-.02.25.6-.24-.06-.09.24-.12-.18-.21.12.06-.18-.18-.03.37-.21c-.38-.01-.94.23-1.3.11-.25-.09,0-.7-.43-.73-.41-.02-.57.38-.88.46-.21.05-.41,0-.57.03-.07.02-.07.19-.21.23-.28.09-.83-.04-1.14,0l-.13.25c-.18-.13-.26-.08-.46-.09l.06-.15-.24-.06.24-.12-.18-.12.09-.12c.17-.03.21.15.36.18.13.02.89,0,.94-.06-.25-.29.12-.42-.12-.7l.13-.07.36.04c.17-.61-.6-.13-.49-.52.03-.1.22-.09.3-.09v-.3c.15.21.28-.02.31,0ZM29.67,36.22l.87.11c.33-.24.11-.67-.28-.59l-.59.48Z" style="fill: #181818;"/>
  <path d="M27.72,40.05l.12-.18.18.18.12-.18c-.16.39.38.64.31,1.1l.55-.06c0-.1-.13-.06-.22-.12-.19-.14-.29-.37-.27-.61.56.04.1.56.52.61.54.06.63-.43,1.06-.53.57-.13.94.43.46.83-.19.16-.39.1-.33.49l.73-.24c0,.29.3.31.37.55h-.24s0,.24,0,.24l-.15-.12-.03.12h-.09c-.05-.11-.07-.14-.21-.12-.06-.21.27-.06.24-.3-.32.08-.75.41-1.08.26-.27-.12.1-1.24-.7-.74-.34.21-.5.54-1.02.38l-.1.22-.9.05-.13.25-.03-.18-.33.12c-.21-.16.08-.12.09-.24l-.24-.12.24-.06-.18-.18c.22-.07.31.16.46.18.18.03.39-.1.58-.06-.25-.25,0-.42,0-.58,0-.02-.2-.05-.12-.21.02-.02.46.2.47-.14s-.54.04-.53-.32c0-.1.28-.1.36-.09l-.06-.37.12.18ZM29.61,40.91c.24-.1.52.16.69.11.23-.06.36-.48.05-.58-.27-.08-.54.31-.73.46Z" style="fill: #181818;"/>
  <path d="M28.95,37.45s-.04.14-.1.17l-.12-.12-.24.12-.03-.18h-.24s.24-.12.24-.12l-.18-.18.73.12c-.05-.38.05-.72.49-.64.25.4-.31.35-.15.77-.08.11-.3.02-.39.07Z" style="fill: #181818;"/>
  <path d="M29.54,39.32l-.21.06-.02.34c-.23.06-.36-.05-.46.21l-.24-.12c-.05.13-.07.14-.21.12l.06-.18h-.24s.24-.12.24-.12l-.18-.18.73.12c-.19-.58.59-.95.54-.25Z" style="fill: #181818;"/>
  <path d="M29.47,41.63s-.17.05-.2.13.09.26,0,.37c-.04.05-.16.03-.2.07-.08.08,0,.35-.23.12l-.24.17c-.05-.11-.08-.14-.21-.12l.12-.18-.18-.03c.09-.18.62-.04.67-.09-.04-.24-.1-.38.04-.6.24-.4.6-.1.44.17Z" style="fill: #181818;"/>
  <path d="M27.05,36.7c-.2-.12-.28-.55-.45-.67-.13-.09-.3-.01-.4-.15l.18-.09-.24-.15v-.15s.24.12.24.12l-.06-.24.21.12.18-.12c.06.13-.05.22,0,.37.09.35.65.55.34.97Z" style="fill: #181818;"/>
  <path d="M27.05,39.02c-.32-.35-.33-.8-.91-.79l.24-.12-.24-.15v-.15s.24.12.24.12l-.06-.24.21.12.09-.18c.21.08.04.25.08.43.09.39.64.54.34.97Z" style="fill: #181818;"/>
  <path d="M26.87,39.99c-.18.62.6.83.37,1.4-.21-.14-.23-.5-.42-.64-.15-.12-.31-.05-.43-.18l.12-.03v-.12s-.18-.18-.18-.18l.24.06-.12-.24.3.12.12-.18Z" style="fill: #181818;"/>
  <path d="M25.92,38.47c.12-.03.21.13.29.11.1-.02.27-.28.35.04-.22.32-.55.34-.73,0l.09-.15Z" style="fill: #181818;"/>
  <path d="M29.03,37.74c.12-.03.19.1.25.11.08.01.17-.14.29-.11.37.09-.34.73-.61.18-.08-.06.02-.17.06-.18Z" style="fill: #181818;"/>
  <path d="M29.67,40.12c.03.48-.8.45-.7,0h.7Z" style="fill: #181818;"/>
  <path d="M31.16,36.16c.12-.03.19.1.25.11.09.01.37-.31.38.09-.02.06-.19.15-.26.17-.29.09-.62-.32-.38-.38Z" style="fill: #181818;"/>
  <path d="M31.49,38.58s.17-.32.31.04c-.12.24-.64.33-.72.06-.11-.37.38-.08.41-.1Z" style="fill: #181818;"/>
  <path d="M26.74,40.91c.03.47-.8.47-.7,0h.7Z" style="fill: #181818;"/>
  <path d="M25.92,36.16c.12-.03.21.13.29.11.1-.02.27-.28.35.04-.21.28-.48.33-.72.06-.04-.07.03-.19.09-.21Z" style="fill: #181818;"/>
  <path d="M29.67,35.43c0,.43-.5.45-.73.15-.05-.23.6-.08.73-.15Z" style="fill: #181818;"/>
  <path d="M31.62,40.91v.23c-.18.2-.75.08-.73-.14.01-.15.59,0,.73-.09Z" style="fill: #181818;"/>
  <path d="M31.75,27.14l-.31-.72.43.3.12-.43c.1.27.05.56-.06.83l-.18.02Z" style="fill: #181818;"/>
  <path d="M32.66,25.32c.22-.08.11.39.27.3.13-.07.05-.32.21-.36,0,.27.01.6-.21.79-.16-.21-.3-.46-.27-.73Z" style="fill: #181818;"/>
  <path d="M31.5,24.28c.11-.13.17.26.3.18l.12-.3c-.01.12.05.73-.09.73-.12-.06-.41-.51-.33-.61Z" style="fill: #181818;"/>
  <path d="M25.89,26.41l.36-.3c.09.15-.24.77-.34.79-.19.05-.34-.78-.09-.85l.06.36Z" style="fill: #181818;"/>
  <path d="M24.8,25.5c.09.08.35-.43.36-.15,0,.12-.21.56-.33.64-.09,0-.35-.73-.09-.79l.06.3Z" style="fill: #181818;"/>
  <path d="M25.83,24.16v.3s.27-.18.27-.18c.16.13-.28.65-.33.61-.06-.2-.09-.43-.06-.64.01-.08.04-.19.12-.09Z" style="fill: #181818;"/>
  <path d="M29.3,23.37c0,.45-.89.45-1.03.09l.82-.03.21-.06Z" style="fill: #181818;"/>
  <path d="M23.56,29.78s.05.16.2.1c.07.07-.11.43-.39.24-.24-.17.05-.41.19-.34Z" style="fill: #181818;"/>
</svg>