<?xml version="1.0" encoding="UTF-8"?>
<svg id="Layer_1" data-name="Layer 1" xmlns="http://www.w3.org/2000/svg" viewBox="0 0 160 90">
  <path d="M32.26,19.81c10.64-.56,17.71,11.03,12.4,20.29-4.88,8.51-17.01,9.12-22.74,1.16-6.29-8.73-.34-20.89,10.34-21.45ZM33,21.08c.41.02.16-.45-.08-.45s-.14.13-.16.16c-.08.11-.38.21.07.29-.01.32-.31.31-.56.22.22-.35,0-.32-.15-.61l-.25.05.05.2-.11.05v.1s.23.15.23.15c.02.22-.37.25-.48.11.09-.17.06-.23-.08-.37-.17.1-.14.03-.23,0-.33-.08.06.33.12.49.1.23.13.48.21.71.84-.31,1.78-.27,2.63-.03.16-.36.16-.81.5-1.07l-.09-.14c-.16.09-.14.11-.31.02-.26.19-.06.3-.06.34,0,.15-.64.17-.48-.13l.19-.1v-.1s-.1-.05-.1-.05l.05-.2c-.37-.17-.25.12-.5.25v.11s.17.11.17.11c-.21.23-.56.19-.62-.14ZM28.81,22.02c-.17-.26.13-.5.39-.43.12.04.18.27.32.19.08-.05-.05-.33-.08-.37-.16-.16-.9.09-.97.38-.21.91.94.55,1.11.84.15.26-.23.53-.49.42-.16-.07-.16-.3-.32-.24s.05.41.09.44c.3.17,1-.14,1.05-.53.09-.66-.7-.55-1.11-.71ZM37.42,21.65c-.38-.2-1.1-.47-1.22.15-.09.49.66.69.54,1.09-.08.27-.52.15-.62-.09-.06-.14,0-.39-.21-.38-.4.75.99,1.14,1.21.45.17-.54-.65-.77-.53-1.14.11-.33.73,0,.61.35h.17s.05-.44.05-.44ZM38.98,22.37s-.67-.3-.78-.34c-.04.13.1.21.11.31,0,.09-.42.98-.5,1.06-.11.12-.2.09-.34.03l-.06.17.76.39c.2-.15-.01-.18-.06-.28-.04-.07.49-1.13.55-1.16.08-.04.23,0,.33-.01,0-.05.02-.12,0-.16ZM27.56,22.09c-.06-.06-.63.25-.72.32-.31.27.14.13.18.14.1.02.68,1.1.62,1.22-.01.03-.29.26-.06.23.11-.02.75-.35.75-.42-.1-.16-.21.01-.33-.05-.07-.04-.52-.91-.55-1.03-.07-.29.11-.17.1-.41ZM34.23,22.82c-.02-.75-1.71-.61-2.2-.49-.54.14-.26.45-.26.8,0,.15-.1.3-.1.44,0,.18.2.55.18.68-.01.08-.33.27-.2.53.41-.2.96-.04,1.26-.39.08.07.15.16.25.2.09.03.97.2,1.01.17.06-.04.06-.1.06-.17-.02-.34-.64-.5-.93-.49-.17,0-.28.11-.39.11-.12,0-.35-.1-.48-.13.2-.25.47-.05.72-.15l-.1-1.05c.4-.16.76-.27,1.17-.06ZM25.92,22.99c-.4.06-.88.6-.57,1,.28.37,1-.07,1.21.19.18.3-.12.54-.41.47-.07-.02-.34-.27-.38-.07-.01.06.2.28.25.31.34.2,1.16-.49.78-1.01-.32-.44-1.43.22-1.25-.41.09-.31.37-.19.55-.13.32.11.06-.39-.19-.35ZM33.28,23.38l.17.42c.16-.01.55.26.64.14.17-.36.31-1.07-.31-.95.12.13.24.19.28.39-.28-.1-.51-.04-.78,0ZM40.84,24.33c.02-.19.29-.31.2-.5-.02-.04-.37-.38-.43-.42-.45-.32-1.04-.37-1.39.12-.56.79.18,1.44.86,1.75.17-.22.22-.52.56-.39.05,0,.04-.11.03-.14-.01-.04-.61-.48-.64-.48-.23.05.12.25.04.43-.2.45-.66-.04-.69-.35-.07-.74.91-1.28,1.3-.63.18.3-.14.56.15.6ZM23.58,25.67h1.88l.08-.14-1.02-1.11.04-.32c-.13.03-.61.43-.59.53.1.16.16,0,.26-.02.19-.02.65.56.8.72l-1.7-.06-.37.48c.13.19.19-.05.34,0,.17.05,1.23.8.95,1.1.08,0,.11.02.17-.04.02-.02.39-.46.39-.49,0-.18-.28.03-.31.03l-.93-.67ZM40.56,25.67l.05.2c.12.05.45.55.53.53.14-.03.05-.21-.02-.26l.02-.07c.04-.08.84-.81.91-.83.12-.03.19.02.27.1l.08-.14c-.13-.07-.52-.73-.67-.59.01.12.08.22.05.35-.02.07-.81.78-.89.8-.15.04-.2-.1-.34-.09ZM34.05,24.95c-.75-.17-1.52-.15-2.28,0-.17.96-.64,2.53.94,2.23.06-.05.09-.91.12-1.09.02-.1.02-.13.14-.08.24.49-.19,1.27.61,1.23.13,0,.5-.11.59-.2.28-.29.01-1.68-.12-2.09ZM27.42,25.2c-.13-.12-.17-.24-.39-.09.07.19-.07.17-.08.21-.08.35.21.27.23.33,0,.14.04.31-.09.41-.08,0-.45-.82-.62-.45-.14.31.18.28.3.42.15.18.17.59.29.77.07.1.23.13.26.24.06.18.04.74.07.99.08.61.16,1.22.28,1.82.39.04.46.04.44-.35-.05-.76-.47-1.9-.45-2.58,0-.1.13-.07.16-.23.05-.27-.04-.69.07-.92.03-.07.12-.07.16-.13.14-.21-.07-.48-.27-.27-.11.11-.1.33-.14.47-.02.07,0,.14-.11.11-.4-.32.24-.42-.12-.75ZM31.31,25.17c-.16-.15-2.75.9-2.89,1.18-.2.41.37,1.48.65,1.82s.6.51.79.94c.28.63.3,1.64.59,2.21.14.27.44.45.74.41-.03-1.6-.25-3.25-.17-4.85.03-.58.11-1.15.28-1.71ZM34.68,31.72c1.14.04.95-1.63,1.29-2.43.29-.66,1.12-1.01,1.43-1.81.12-.31.35-.93.09-1.18-.16-.15-.83-.46-1.06-.56-.4-.18-1.32-.55-1.73-.57-.12,0-.09.04-.08.14.05.34.2.66.22,1.07.07,1.14-.01,2.34-.06,3.47-.02.62,0,1.27-.11,1.87ZM38.99,26.34c0-.3.38-.73-.09-.79-.43-.05-.12.51-.2.79-.04.04-.96-.47-.77.13.09.3.47.05.65.05.3,0-.16.55.01.79.02.03.07.04.11.04v.08c-.41.22-.12.82-.31,1.21-.49.15-.98.48-1.04,1.03-.04.32-.07.62.31.63.13-.29.29-.12.43-.16.19-.05.27-.35.6,0,.01-.21.22-.22.37-.12.1.06.11.21.14.23.05.05.07-.11.11-.14.15-.14.36-.15.56-.14-.04-.62-.32-1.13-.95-1.29.04-.3.1-.68.06-.98-.02-.13-.13-.23-.12-.33,0-.03.14-.03.16-.18.02-.18-.1-.43-.05-.63l.63.16c.15-.06.18-.2.15-.35-.07-.22-.61.01-.78-.04ZM42.8,27.74c-.42.05-.66-.05-.77-.48.01-.12.98-.77,1.12-.74.09.02.15.2.27.02l-.53-.7c-.16.11.03.21-.08.37-.06.09-.91.68-1,.69-.09,0-.18-.14-.3-.1-.09.09.65,1.04.73,1.21.08.08.68-.15.56-.25ZM22.91,26.79c.09-.15-.32-.4-.39-.37l-.78,1.29c.12.18.19-.01.31-.03.1-.01,1.07.48,1.12.56.08.13-.13.31.11.34l.7-1.25c-.03-.09-.38-.39-.44-.32,0,.27.17.33.09.62s-.2.32-.45.22c-.56-.24.08-.4-.17-.72l-.25.45-.5-.32c.1-.36.27-.61.67-.47ZM26.27,27.97l-.59-1.29c-.11.16-.5.51-.47.68,0,.04.15.3.21.21-.05-.23.11-.42.28-.56.11.25.23.6.38.82.05.07.06.15.18.13ZM40.78,27.57l-.39-.5c.11.22-.35.59-.51.64-.12.04-.39-.09-.33.06.02.04.39.48.45.42.01-.08-.09-.2-.05-.27.02-.03.51-.38.54-.39.11-.03.19.05.29.05ZM25.15,28.02s.04-.2-.17-.26c-.28-.08-.39.33-.34.54l.25-.33c.26.09.03.51.17.56l.16-.28c.19-.16.43.14.37.36l-.19.09-.03.17c.39.1.45-.41.29-.71-.2-.36-.5-.11-.51-.13ZM44.31,28.64l.16-.08-.36-.76c-.2.01-.07.17-.09.24-.04.13-1.1.58-1.3.54-.04,0-.05-.18-.21-.11l.54,1.35.58-.14c-.13-.14-.28-.03-.45-.16-.11-.09-.25-.39-.19-.54.03-.05.98-.47,1.08-.49.16-.03.22,0,.24.16ZM41.57,28.53c.02-.11-.04-.15-.14-.17-.32-.06-.71-.08-1.03-.11l.22.56s-.34-.15-.28.03c.02.06.25.51.34.42l-.03-.22c.12-.15.18.08.31.06l-.06-.22.28-.14c-.12-.17-.2-.16-.36-.03l-.2-.27.95.11ZM22.87,29.1s0,.17-.2.15c-.11,0-1.04-.39-1.1-.47-.07-.1-.03-.27-.16-.31l-.28.9c.14.02.17-.15.31-.17.09,0,1.05.33,1.12.39.16.14-.06.31.16.34.05-.01.3-.66.31-.76.01-.12-.09-.11-.16-.07ZM24.31,29.2c-.06-.16.23-.52.03-.62-.1-.05-.1.1-.12.15-.04.1-.14.32-.1.4l.34.34c.15-.19.24-.43.53-.31.17.18.11.38.06.59.33-.04.23-.64.02-.78-.11-.07-.31-.09-.43-.05-.18.05-.14.29-.32.27ZM41.79,29.7h-.81s-.1-.09-.22-.05l-.09.16,1.4.06-.31-.78-.27.06c-.13.11.08.12.16.22.04.05.17.31.14.34ZM45.04,30.37c.05-.05-.2-1.01-.34-.84,0,.08.01.17-.01.24-.04.14-1.16.79-1.37.92-.04.03-.09-.02-.07.1.03.08.08.22.16.25.28.13,1.52.15,1.66.34.02.03.02.08.03.12l.17.04c0-.14-.03-.67-.14-.73-.12-.06-.07.15-.13.2-.1.07-.87-.05-1.04-.09-.08-.02-.14,0-.2-.08l1.04-.64c.09.11.07.21.25.17ZM23.98,29.59l-.12.03-.16.53c.15.05.09-.1.15-.11.1-.02.77.19.8.23.05.08-.08.26.12.22l.17-.56c-.15-.05-.09.1-.15.11-.16.03-.87-.19-.81-.45ZM28.75,30.25c-.06-.13.03-.35-.22-.38-.23-.03-.35.29-.83.22-.17-.03-.26-.2-.43-.03-.22.23-.04.34,0,.52.05.25.06.51.14.76.02.07.14.4.17.42.18.18,1.08.07,1.22-.24,0-.12.16-.55.15-.61,0-.06-.08-.13-.09-.19-.01-.11.07-.2.02-.36-.03-.1-.12-.1-.13-.12ZM21.01,29.98c-.14-.16-.32.69-.28.73.02.02.13.02.17-.04.04-.07-.03-.18.2-.17s.64.17.87.24c-.28.28-1.15.6-1.37.87-.14.17-.08.41-.09.61h.16c0-.11.01-.22.14-.23.36.16,1.3-.09,1.26.45h.17s.06-.78.06-.78c-.17-.05-.14.21-.2.23l-1.14-.09c.44-.36,1.08-.61,1.51-.96.07-.05.14-.09.12-.19-.24-.07-1.46-.3-1.54-.45-.04-.06-.03-.15-.03-.22ZM39.65,30.16c-.22.07-.23.5.05.55.51.08.49-.71-.05-.55ZM37.6,30.61c-.1.17-.06.41.07.56.02.03.55.26.58.27.14.02.22-.11.32-.1s.15.14.32.1c.09-.02.15-.11.21-.13.12-.03.42.08.5-.18.09-.29-.12-.26-.21-.38-.12-.15-.18-.34-.32-.47-.18-.06-.28.09-.33.09s-.14-.14-.27-.14-.14.15-.19.15c-.1.02-.28-.03-.36.03l-.06.19h-.27ZM41.06,30.65c.11.8,1.65.83,1.3-.04-.23-.56-1.06,0-.52.38-.13-.36.41-.58.43-.24.02.3-.48.33-.71.27-.27-.07-.27-.31-.5-.36ZM23.42,31.61c0-.29.1-.36.33-.48l-.33-.08-.18.91c.35.19.76.36.98.7.14-.11.07-.29.08-.45-.15-.06-.1.12-.14.11-.31-.01-.37-.52-.07-.5.25.02.06.24.26.21l.14-.9-.31-.11c-.02.14.15.16.16.3.02.28-.2.36-.44.26l.06-.28c-.19-.06-.13.23-.17.27h-.39ZM27.81,32.54c.43.44,1.25-.1.93-.71-.34.34-.7.44-1.12.17.01.17.07.42.19.54ZM42.63,32.11c-.18-.05-.06.13-.15.17-.11.06-.7.08-.82.05-.06-.01,0-.17-.15-.11l.06.62c.12-.12.18-.34.41-.28.18.05-.02.39.2.33v-.34c.57-.06.48.31.11.56h.39s-.06-1.01-.06-1.01ZM44.99,34.01h-1.09l-.09-.22h-.16s-.06.84-.06.84c.17.04.13-.18.2-.23.18-.13,1.06-.01,1.33-.04l.09.27c.29-.02.14-.5.16-.72l-1.17-.54c.36-.22.75-.45,1.17-.54-.03-.21.13-.69-.16-.72l-.09.27c-.28-.02-1.11.08-1.31-.08-.07-.05-.03-.18-.08-.2l-.14.03.06.7h.17s0-.22,0-.22l.25-.06.86.11-1.25.5-.04.14,1.34.7ZM33.22,32.95c.51-.61-1.11-.63-.62,0-.71-.23-.42.93.11.5.02.82-1.13.89-1.51.31l.34-.11c.13-.1.03-.49-.12-.57l-.34.09c.52-.7-.9-.65-.64-.07.04.09.14.03.13.12-.15-.01-.31.02-.33.2.08.3.24.5.56.37.03.72-1,.67-1.34.2.1-.06.33.03.34-.16-.07-.26-.29-.64-.61-.47v.27c-.1-.03-.1-.15-.2-.23-.14-.1-.29-.12-.45-.06-.06.02-.1-.03-.08.09.02.14.39.42.5.56.36.44.54,1,.82,1.49,2.05-.32,4.16-.33,6.21,0l1.37-2.1c-.14-.13-.4-.09-.53.02-.07.06-.05.18-.14.17-.11-.64-.71-.01-.62.39l.28.08c-.4.42-1.4.46-1.34-.31.3.28.63-.1.55-.44l-.33-.06.21-.26c.03-.32-.61-.39-.8-.19l.03.34c-.37-.15-.53.25-.38.55l.38.04c-.36.64-1.55.61-1.57-.25.37.29.65-.1.51-.47l-.08-.06-.32.02ZM23.53,32.56h-.33s-.06.97-.06.97l.25.14.08-.08c-.16-.07-.31-.29-.13-.42l.78.05.14.17v-.56c-.18-.04-.08.14-.25.17-.23.04-.48-.05-.7-.06-.06-.24.11-.24.22-.39ZM20.45,32.84v1.48s.12.11.17.08c0-.09.03-.21.11-.25.13-.07,1.12-.12,1.25-.08l.09.21h.16s-.06-.95-.06-.95c-.21-.03-.13.22-.22.31-.06.06-.47.12-.5.08v-.5h-.22s0,.5,0,.5h-.62s.06-.58.06-.58c.03-.14.51-.15.44-.28-.09-.19-.51-.02-.67-.03ZM42.69,33.51c-.19-.04-.06.14-.21.21-.14.07-.95.17-.97.27l.03.19c.08.13.99.32.93.67.13.15.18-.47.17-.5-.15-.03-.08.04-.14.12l-.7-.34.7-.16.11.16c.14-.05.07-.48.08-.62ZM24.26,33.62c-.18-.04-.07.11-.15.17-.12.1-.94.4-.97.44.12.34.7.28,1,.43.14.07.08.21.24.18l-.03-.39-.36.06-.03-.39.14-.09.23.09-.06-.5ZM22.41,35.47l-.2-.84c-.11.1-.06.22-.17.34-.16.18-1.44.78-1.43.87.03.07.09.21.16.25.31.15,1.19.12,1.58.25.16.05.12.25.33.2l-.17-.67c-.17-.05-.14.21-.2.23-.43.12-.39-.33-.44-.62l.28-.16c.09.11.07.21.25.17ZM24.42,34.91c-.18-.05-.07.12-.14.17-.17.11-.76.32-.92.11l.07.44.83.12-.61.54.13.41.05-.17c.08-.1.87-.26.99-.05l-.11-.45c-.18-.05-.07.12-.14.17-.1.07-.44.08-.58.11.05-.1.7-.52.62-.61l-.84-.2.59-.2.14.12-.06-.5ZM41.53,35.23s0-.2-.12-.21l-.09.39.06.12c.15-.18.46-.1.67-.05.08.02.1-.04.08.11-.31.11-.61.27-.9.42-.06.03-.14,0-.11.11.06.13.72.24.84.34.09.07-.01.24.17.2l.11-.45c-.15-.06-.09.11-.15.12-.1.02-.64-.15-.58-.23.15-.07.81-.32.88-.41.06-.08.07-.33.07-.43l-.14.17c-.14-.09-.72-.11-.79-.18ZM36.02,35.87c-2.02-.32-4.13-.33-6.15,0,0,.42-.02.84,0,1.26.03,1.17.02,3.63.46,4.64.83,1.92,4.48,1.98,5.24.05.39-.99.37-2.96.41-4.07.02-.62,0-1.25.05-1.87ZM44.93,36.81c.04-.24.16-.5.19-.74,0-.05.06-.13-.05-.16s-.14.16-.23.22c-.23.15-1.35.04-1.7.12.02.11-.04.3.01.38.03.05.77.56.91.69.07.07.28.24.32.3.07.11-.03.29.08.31.15.03.29-.6.31-.73-.15-.03-.17.01-.22.14l-.08.03-.93-.78,1.2-.06c.06.01,0,.33.2.28ZM24.76,37.37c.03-.31.4-.57.08-.84l-.25.59c-.42-.21-.64.04-.48.47.02.06.23.48.25.5.12.12.11-.19.17-.25.1-.11.67-.39.84-.25l-.25-.5c-.11.06-.05.22-.12.29-.11.1-.53.2-.67.32-.33-.37.08-.56.42-.33ZM40.95,36.76l-.11.03c-.1.38-.53.88-.11,1.22.58.48,1.07-.36,1.12-.87-.02-.02-.1.09-.15.1-.08.02-.85-.27-.74-.5ZM23.08,37.71l-.31-.84c-.16-.01-.02.18-.14.31-.05.06-1.05.45-1.15.45-.15,0-.12-.21-.31-.14l.28.84c.22.02.11-.17.15-.26.06-.15.35-.23.51-.24l.34.83c-.14,0-.25.15-.37.17-.2.03-.28-.21-.41-.03l.42.7c.21-.02.04-.18.13-.31.06-.08.96-.56,1.05-.58.23-.03.13.32.35.07l-.42-.75c-.13.11-.04.27-.16.39-.09.09-.29.13-.4.21-.05,0-.41-.74-.34-.84.04-.06.42-.18.51-.17.14,0,.09.21.25.17ZM42.46,39.28c.07-.06,1.33-.21,1.55-.32.1-.05.3-.47.29-.54-.02-.19-.22.06-.26.08-.09.02-1.11-.45-1.16-.55s0-.25-.11-.33l-.36.64c.12.18.19-.01.31-.03.21-.03.86.3,1.03.45-.49.16-1.38.2-1.81.41-.08.04-.11.06-.1.15.23.13,1.23.68,1.28.88.03.11-.11.21.04.3l.47-.64c-.15-.21-.2.05-.32.08-.13.03-.66-.32-.79-.42-.05-.04-.1,0-.07-.13ZM25.31,37.94c-.96.09-.54,1.64.37,1.21.63-.3.24-1.26-.37-1.21ZM40.17,38.16c-.17-.03-.17.23-.28.31.46-.04.22.55-.08.47l-.11-.22-.31.45c.44-.17.84.23,1.29.22.13-.13-.6-.98-.5-1.23ZM26.89,39.61c.05-.06-.33-.44-.36-.45-.13-.01.07.4-.17.44-.11.02-.17-.2-.3-.16l.17.33-.26.16c-.3-.1-.25-.31-.19-.56-.66.21.16.68.36.95.14-.08,0-.16.05-.28.05-.11.54-.6.7-.45ZM39.72,39.84c.09.23.04.3-.14.45-.07-.2-.45-.43-.51-.56-.05-.11.09-.2-.05-.28l-.36.36c-.02.17.12,0,.22.05.13.06.41.46.56.56-.13.19-.25.14-.45.08.2.66.64-.21.93-.39.07-.08-.13-.35-.2-.28ZM27.84,40.29l-.69-.5-.2.28c.22-.12.59.02.48.28-.15.34-.41-.07-.48,0-.06.14.22.21.22.25-.16.45-.62.2-.45-.2-.06-.06-.33.2-.28.28l.78.56c.02-.1-.07-.18-.03-.28.04-.11.44-.63.61-.56l.04-.11ZM41.43,39.84l-.59.7c.13.19.2-.04.36-.03.06,0,.8.62.87.7.11.13.15.22,0,.34l.14.08.53-.64c-.13-.2-.21.06-.35.02-.07-.02-.88-.7-.91-.78-.04-.09.09-.39-.05-.39ZM23.85,41.28c-.19.19-.49-.03-.49-.29,0-.17.18-.26.03-.36-.71.24.15,1.19.61.94.59-.31-.03-1.06.2-1.31.3-.33.79.31.41.62l.12.14c.66-.33-.06-1.19-.55-1.11-.84.14-.14,1.18-.34,1.38ZM38.37,40.12l-.34.2c-.04.12.13.08.16.17.09.24-.11.34-.33.36-.11-.08.08-.46-.08-.39l-.7.48c0,.11,0,.34.16.3-.04-.43.32-.58.56-.2,0,.02-.28.11-.22.25.11.03.15-.11.25-.11.2,0,.38.33.03.43-.17.05-.22-.17-.34,0l.2.19.79-.46c-.11-.38-.28-.82-.16-1.21ZM28.35,41.24c-.1-.31.04-.74-.39-.78l.12.64s-.52.03-.31.48c.05.1.72.48.75.45.04-.1-.08-.13-.09-.19,0-.05.29-.67.32-.69.08-.05.24.07.21-.09l-.42-.25-.08.11c.12,0,.13.02.1.13-.02.08-.32.65-.36.66l-.2-.08c-.16-.27.08-.41.34-.37ZM26.22,41.63l-.7-.5c-.16.1.04.15.03.3,0,.11-.63.83-.73.9-.14.09-.19.12-.3-.02-.2.11.1.34.23.45.06.05.29.23.33.23.16-.02-.08-.22,0-.39.04-.08.74-.88.8-.89.14-.03.31.27.35-.06ZM41.06,42.69c.05.05.73-.54.73-.59,0-.17-.29.03-.39,0-.24-.06-1.43-.87-1.51-.81,0,.08-.09.15-.11.21-.06.28.43,1.19.44,1.56,0,.18-.09.21-.12.36.09.08.58-.34.67-.42-.09-.15-.2-.01-.33-.03l-.39-1.17,1.06.56-.05.33ZM27.67,42.8c.13-.14-.65-.57-.7-.56-.18.03.08.22.06.34-.01.07-.59,1.05-.64,1.09-.09.02-.28-.13-.31-.2-.06-.13.07-.37-.06-.39s-.28.3-.3.41l1.37.86c.12-.07.55-.52.2-.41-.04.01-.07.07-.15.08-.17.03-.44-.03-.41-.24,0-.06.55-.92.61-.97.14-.12.18-.06.34-.02ZM39.66,43.64c-.09.05-.18.08-.28.03-.08-.04-.59-.92-.61-1.03-.04-.21.2-.27.02-.4l-1.2.77.1.43.17.03c-.06-.31.09-.57.39-.65.29-.07.32.29.45.48-.63.18-.52.51.08.17.1.1.32.36.23.5-.16.11-.34.28-.55.22-.12-.04-.17-.28-.32-.07l.25.41,1.26-.69v-.19ZM28.91,43.42c.16-.2-.7-.48-.73-.45-.11.11.15.19.17.31.09.5-.09,1.19-.06,1.71l.34-.03c.41-.38.76-1.14,1.34-1.2v-.17c-.22.03-.64-.35-.67,0l.17.08-.19.26-.56-.17-.03-.39.22.06ZM37.03,43.25l-.84.31c-.02.15.17.06.28.11.08.04.49,1.07.5,1.19.02.32-.9.2-.67-.35.06-.15.29-.18.21-.31-.03-.04-.73-.48-.8-.49-.19-.04-.34.05-.52.05v.17c.4-.07.63.25.95.39-.01.18-.21.23-.22.42-.06.9,1.28.39,1.68.11.02-.17-.2-.01-.31-.14-.04-.05-.42-1.09-.42-1.15,0-.14.24-.1.17-.3ZM31.32,44.04c.17-.15-.8-.29-.9-.28-.07.27.2.1.23.31.04.3-.25.91-.23,1.26-.31-.03-.52-.04-.45-.41l-.14-.03-.14.5c.55.11,1.11.3,1.67.27l.18-.44c-.24-.03-.17.19-.42.22-.1.01-.32.04-.35-.08-.01-.06.21-1.13.25-1.2.07-.12.18-.12.31-.11ZM34.9,44.43c.15-.84-1.24-.65-1.24.03,0,.61.92.56.96.74.13.51-.55.48-.7.08-.43.68.79.57.97.24.44-.78-.66-.75-.84-1-.27-.37.33-.59.59-.31.1.11.02.28.25.22ZM32.1,45.77h.9v-.16s-.22-.09-.22-.09l.05-1.28.23-.02v-.17s-.84-.03-.84-.03l-.06.14c.53.04.2,1.02.2,1.4l-.26.05v.17Z" style="fill: #181818;"/>
  <path d="M15.62,46.74c6.48-.62,9.77,7.29,4.86,11.35-4.28,3.53-10.77.23-10.51-5.29.14-3.02,2.6-5.76,5.65-6.06Z" style="fill: #181818;"/>
  <path d="M29.58,66.71c.28-4.23,6.4-4.23,6.67,0,3.58.01,7.15-.02,10.73,0,34.09.14,68.2.08,102.3.06.34,0,.66,0,1,0,.4,0,.81,0,1.21,0v.28H36.25c0,1.22-.89,2.44-2,2.9-2.15.89-4.55-.57-4.66-2.9H8.51v-.34h21.06Z" style="fill: #181818;"/>
  <path d="M71.03,36.8l.47-.71c.91.06-.11.83-.06,1.02,1.73,1.25,1.79,4.08.19,5.47-1.21,1.06-3.05,1.14-4.49.5-.18,0-.47.64-.64.75-.86-.09.2-.89.16-1.06-2.65-2.08-1.31-6.11,2.05-6.36.83-.06,1.54.12,2.32.38ZM67.17,42.02l3.28-4.43c.13-.3-.73-.66-.97-.71-.34-.08-.69-.08-1.03,0-2.17.49-2.17,3.56-1.28,5.14ZM70.84,37.93l-3.25,4.43c-.06.16.32.39.44.46.77.41,1.82.34,2.5-.21,1.18-.96,1.15-3.49.31-4.67Z" style="fill: #181818;"/>
  <path d="M108.34,36.92c-.36.13-.81.05-.95.48-.09.27-.1,1.59-.06,1.91,0,.08.01.15.08.2.22.18,3.09-.03,3.59.05l.11-.05c.1-.42.1-.89.08-1.32-.01-.19-.04-.65-.09-.8-.19-.61-1.09-.15-1-.74h3.26s.02.28.02.28c-.45.15-.94.02-1.04.61.08,1.52-.16,3.25-.02,4.75.06.69.57.61,1.12.7v.33s-3.33-.05-3.33-.05c-.11-.58.89-.15,1.03-.77.04-.16.06-.63.07-.83.01-.24.03-1.4-.07-1.53-.11-.07-.23-.06-.35-.07-1.1-.06-2.23.03-3.34.03-.09.05-.1.13-.11.22-.05.42-.04,1.46,0,1.91.07.81.53.65,1.18.76v.33s-3.24,0-3.24,0c-.2-.63.73-.21.88-.87.19-.89.13-3.37.07-4.36-.01-.22-.05-.68-.17-.84-.23-.29-.69-.22-1-.31l.02-.28,3.14-.05c.17.01.16.2.13.33Z" style="fill: #181818;"/>
  <path d="M76.85,42.73c.12-.12.17-.71.19-.91.07-1.08.07-2.62,0-3.7-.05-.84-.08-1.06-1-1.1v-.29c.1-.15.87-.08,1.08-.09,1.24-.07,4.46-.45,4.46,1.48,0,.8-.51,1-1.1,1.31-.41.22.31.28.49.35.59.23,1.04.72,1.1,1.36.23,2.32-2.7,2.27-4.28,2.1l-1.79.05-.1-.13c-.03-.33.71-.21.94-.43ZM78.15,39.44c.93.17,2.19.07,2.19-1.15,0-.89-.73-1.32-1.55-1.32-.14,0-.64.1-.64.26v2.21ZM78.15,40.09v2.07c0,.23.23.57.46.66.74.29,1.88.03,2.14-.8.34-1.08-.37-1.97-1.46-2.07-.2-.02-1.09-.06-1.15.14Z" style="fill: #181818;"/>
  <path d="M108.73,55.18v.21c-2.11.52-2.99-1.34-3.95-2.79-.22-.22-.79-.32-1.03-.08.05.47-.18,2.09.22,2.34.37.23,1.04-.05.89.53l-3.25-.02-.05-.3c.27-.11.74-.07.91-.35.09-.14.13-.56.14-.75.06-.93.12-3.61-.06-4.42-.17-.72-.93-.1-.81-.77.07-.1.68-.04.84-.05,1.27-.08,4.22-.41,4.65,1.23.22.83-.1,1.5-.81,1.94-.21.13-.55.13-.5.43.03.15.39.68.5.84.53.78,1.3,1.84,2.28,2ZM103.75,49.33v2.52c.37.35,1.44.19,1.82-.08.78-.56.63-2-.22-2.47-.31-.17-1.5-.43-1.6.03Z" style="fill: #181818;"/>
  <path d="M58.65,36.92c-.08.12-.88-.06-.99.5-.07.34-.14,1.98.01,2.2.08.12.31.02.42-.04.29-.15,1.97-1.88,2.13-2.19.31-.62-.77-.19-.44-.78l2.74-.02.06.19c0,.2-.79.3-1.01.39-.65.26-1.59,1.19-2.1,1.71-.16.16-.34.32-.42.53,0,.09.31.45.39.56.56.72,1.46,1.9,2.1,2.5.14.14.39.31.58.38.29.1.99.03.75.44l-3.13.02c-.19-.43.27-.34.55-.44l-.03-.22c-.65-.69-1.24-1.7-1.9-2.36-.15-.15-.46-.43-.65-.2-.15.18-.13,1.44-.11,1.74.01.21.06.8.21.92.29.23,1.02.05.89.51l-3.17.05v-.33c.45-.15.87-.08.95-.66-.09-1.5.14-3.17,0-4.64-.06-.7-.45-.6-1-.76l.02-.28,3.03-.05c.17.01.16.2.13.33Z" style="fill: #181818;"/>
  <path d="M135.63,41.71c.01.19.06.54.11.73.17.59.62.46,1.12.54l-.05.31c-.58.06-1.14-.05-1.71-.03-.27,0-.54.1-.84.06-.2-.02-.29-.2-.14-.31.36-.27.76.21.94-.74s.16-3.38.07-4.35c-.07-.77-.53-.81-1.17-.99v-.33c.66.05,1.33.11,2,0,1.14,1.81,2.88,3.21,4.32,4.78l.11-.06v-3.47c0-.14-.14-.59-.26-.7-.31-.3-1.2-.02-.87-.54l2.65-.03c.28.47-.28.34-.54.41-.32.08-.36.59-.43.86l-.02,5.56c-.25.17-.42-.1-.58-.27-1.14-1.21-2.23-2.47-3.39-3.67-.39-.41-.81-.8-1.21-1.2l-.14.08c.06,1.1-.08,2.27,0,3.36Z" style="fill: #181818;"/>
  <path d="M95.8,41.66c.01.15.04.44.07.6.11.69.57.67,1.16.71l-.05.31c-.58.06-1.14-.05-1.71-.03-.27,0-.54.1-.84.06-.2-.02-.29-.2-.14-.31.12-.09.44-.05.58-.1.35-.11.42-.98.44-1.3.06-.95.11-2.96-.02-3.85-.1-.65-.62-.68-1.15-.83-.1-.52.38-.28.69-.27.44.01.88,0,1.31-.05,1.16,1.82,2.87,3.2,4.32,4.78l.11-.06v-3.53c0-.09-.15-.54-.22-.62-.24-.27-.64-.15-.95-.26l.05-.31,2.66-.03c.32.53-.51.3-.73.52-.13.14-.23.7-.24.91-.12,1.66.2,3.67,0,5.27-.01.11,0,.19-.14.2l-5.01-5.18-.17.06c.05,1.08-.07,2.23,0,3.3Z" style="fill: #181818;"/>
  <path d="M72.27,50.05c-.02-.19-.13-.67-.26-.81-.29-.32-1.17-.01-.91-.55h2.74s0,.33,0,.33c-.73.02-.91.16-1,.88-.16,1.34-.1,3.1-.07,4.47,0,.21.24,1.31-.18,1.2l-5-5.26c-.08.05-.08.11-.09.19-.08.73-.08,3.23.07,3.91.16.73.62.49,1.14.71l.02.19c-.07.2-.73.04-.92.03-.6-.02-1.19.03-1.79.05l-.08-.08v-.24c.65-.08.88-.06.99-.78.16-1.04.16-3.18.07-4.24-.05-.56-.19-.73-.7-.92-.25-.1-.7-.02-.44-.45h1.97c1.13,1.8,2.85,3.18,4.27,4.73l.17-.06c-.07-1.06.1-2.26,0-3.3Z" style="fill: #181818;"/>
  <path d="M136.58,54.31c.08.58.54.61,1.04.64.84.06,1.73.03,2.2-.77.13-.22.21-.76.52-.55.19.13-.27,1.74-.38,1.77l-5.71-.05-.02-.28c.5-.15,1.09.04,1.17-.65.17-1.49-.12-3.29,0-4.81-.07-.48-.49-.51-.89-.6l.05-.31,5.05-.02.16,1.53c-.42.37-.42-.39-.64-.69-.36-.49-1.62-.45-2.18-.4-.15.01-.26.02-.36.14v2.3l.08.08h1.46c.06,0,.3-.13.36-.2.21-.26.07-.89.57-.69v2.3h-.33c-.05-.25-.22-.9-.54-.9h-1.51l-.08.08c.06.64-.09,1.45,0,2.07Z" style="fill: #181818;"/>
  <path d="M87.56,42.27c.07.48.44.56.87.59.79.06,1.75.09,2.26-.6.14-.19.35-.92.63-.72.19.2-.28,1.75-.38,1.77h-5.73s0-.34,0-.34c.54-.11,1.1.06,1.17-.65.15-1.51-.11-3.27,0-4.81-.07-.51-.49-.47-.88-.6l.05-.3,5.05-.02.16,1.53c-.04.12-.24.12-.33.07-.23-.81-.45-1.08-1.31-1.15-.44-.04-1.16-.07-1.54.14v2.38h1.6s.26-.15.3-.2c.13-.17.14-.49.24-.68l.3.04.03,2.21c-.55.38-.34-.86-.93-.86h-1.46l-.08.08c.07.66-.09,1.49,0,2.13Z" style="fill: #181818;"/>
  <path d="M94.9,52.15c-.13.08-.08,2.27.12,2.54.29.41,2.11.28,2.55.04.56-.29.66-1.01.8-1.1.11-.08.32-.05.34.12.03.2-.32,1.58-.49,1.64h-5.67c-.06-.11-.08-.24.03-.33.68-.14,1.07.04,1.14-.81.12-1.44-.09-3.07,0-4.53-.04-.17-.06-.36-.19-.48-.26-.24-.94-.06-.69-.55h5.09c-.05.44.19,1.05.11,1.48-.03.17-.2.2-.31.09-.22-.22-.07-.78-.67-1.01-.36-.14-1.52-.16-1.91-.11-.22.03-.28.16-.31.37-.05.44-.04,1.39,0,1.85,0,.11.03.2.06.31h1.54c.33,0,.54-.61.54-.88.52-.16.33.18.32.46-.02.59,0,1.18.04,1.77-.47.24-.36-.3-.51-.56-.04-.07-.28-.28-.33-.28h-1.6Z" style="fill: #181818;"/>
  <path d="M58.6,48.68v.33c-.47.11-.95.02-1.05.61-.11.68-.07,2.6-.01,3.35.08,1.05.56,2.01,1.71,2.1,2.56.22,2.36-2.47,2.27-4.23-.03-.51.12-1.32-.37-1.64-.29-.19-.85-.04-.72-.46.11-.15.91,0,1.12,0,.45,0,1-.11,1.41-.06.2.02.29.2.14.31-.31.24-.73-.19-.93.58-.54,2.07.98,5.7-2.52,5.99-4.48.37-2.81-3.32-3.29-6-.09-.49-.56-.43-.93-.55v-.33s3.19,0,3.19,0Z" style="fill: #181818;"/>
  <path d="M123.08,42.98v.24s-.13.09-.13.09l-2.66-.02-.05-.31.63-.11c.06-.03.09-.13.09-.2,0-.12-.53-1.54-.61-1.63-.03-.04-.07-.09-.11-.11-.12-.06-1.71-.06-1.93-.03-.16.02-.24.04-.32.18s-.48,1.32-.49,1.47c-.03.46.4.3.72.42l-.05.31-2.41.02v-.33c.63-.12.89-.17,1.2-.74.58-1.08,1.17-2.69,1.63-3.86.13-.34.3-1.07.43-1.3.06-.11.3-.21.41-.32.14-.13.24-.47.42-.26.14.17.41,1.2.52,1.5.55,1.49,1.12,2.98,1.7,4.46.19.39.64.45,1.02.52ZM119.19,38.1c-.12.03-.96,2.14-.9,2.24.1.17,1.44.15,1.63.06.05-.02.11-.03.13-.1.03-.09-.54-1.61-.63-1.83-.04-.09-.12-.41-.24-.38Z" style="fill: #181818;"/>
  <path d="M113.27,48.53c.46-.06,1.44,0,1.86.18.26.12.32.84.33,1.12.01.24.05.59-.3.47-.1-.03-.23-.51-.3-.65-.86-1.53-3.2-.46-2.3.9.68,1.03,2.65.92,3,2.6.46,2.18-2.02,2.8-3.67,2.21-.46-.16-.59-.25-.72-.73-.06-.22-.34-1.53.21-1.16.36,1.04,1.24,1.99,2.44,1.6.53-.17.8-.66.75-1.2-.16-1.56-2.88-1.44-3.12-3.21-.16-1.2.68-1.99,1.82-2.13Z" style="fill: #181818;"/>
  <path d="M149.18,36.66c.16.14.25,1.3.18,1.55h-.32c-.19-.95-.98-1.62-1.97-1.31-.59.18-.9.81-.67,1.4.42,1.03,2.53,1.06,3.02,2.52.81,2.39-2.16,3.22-3.87,2.36-.57-.29-.55-1.16-.55-1.73.02-.1.26-.13.32-.08.04.02.26.64.39.82.29.41.82.85,1.34.9,1.02.1,1.77-.69,1.35-1.69-.49-1.18-2.86-1.18-3.01-2.87-.19-2.12,2.27-2.4,3.8-1.86Z" style="fill: #181818;"/>
  <path d="M126.88,36.6c.21.72-.83.01-.65.9l1.84,4.18.23-.41c.33-1.14,1.41-2.71,1.6-3.83.08-.51-.36-.39-.71-.53l.02-.28c.1-.14.52,0,.67,0,.41.01.83,0,1.24,0,.16,0,.64-.18.64.14,0,.23-.48.22-.66.29-.34.12-.48.4-.64.71-.57,1.05-1.13,2.37-1.62,3.47-.33.73-.6,1.49-.92,2.22l-.31-.04c-.78-2.08-1.75-4.08-2.69-6.09-.2-.32-.62-.32-.95-.4l-.05-.37h2.96Z" style="fill: #181818;"/>
  <path d="M85.48,49.01c-.45.11-.76,0-.63.58.15.71,1.07,2.52,1.42,3.28.05.11.38.86.43.86.38-.73.73-1.5,1.05-2.26.16-.37.82-1.85.78-2.13-.06-.38-.87-.1-.71-.59l2.46-.05.09.2c0,.21-.46.21-.63.26-.33.11-.44.33-.61.62-.59,1.01-1.2,2.48-1.68,3.58-.32.73-.6,1.49-.92,2.22-.07,0-.14,0-.2-.01-.16-.05-.39-.87-.48-1.09-.69-1.63-1.49-3.23-2.21-4.85-.21-.51-.7-.43-1.11-.64v-.3c.61,0,1.21.07,1.83.06.3,0,1.44-.29,1.13.27Z" style="fill: #181818;"/>
  <path d="M144.4,49.13c-.46.05-.74.27-.97.65-.07.13-.15.41-.21.47-.08.08-.28.09-.34,0-.07-.1.4-1.58.37-1.85h.24c.07.29.29.31.57.33,1.24.11,3.46.09,4.71,0,.15-.01.34-.02.47-.09.2-.09.19-.31.45-.25l-.17,1.49c-.02.3.24.45-.33.42,0-.72-.31-1.11-1.04-1.18-.19-.02-1.02-.03-1.15.03-.03.01-.11.1-.11.11v5.21c0,.11.18.38.29.43.38.18,1.02-.09.88.49h-3.44s-.08-.09-.08-.09v-.24c.31-.06,1.17-.07,1.17-.54v-5.32l-.08-.08c-.39.03-.85-.05-1.23,0Z" style="fill: #181818;"/>
  <path d="M128.8,54.42s.09.28.12.33c.26.45,1.28,0,1.05.64-.81,0-1.62-.07-2.43-.05-.2,0-1.34.25-1.06-.22.28-.19.66-.07.97-.26.18-.11.23-.57.24-.77.09-1.21.11-3.4,0-4.6,0-.1-.01-.23-.09-.31-.09-.08-.94-.07-1.12-.06-.77.06-1.14.44-1.32,1.17-.1.02-.35.04-.38-.08l.39-1.81h.24c.07.29.29.31.57.33,1.26.11,3.43.09,4.71,0,.13,0,.38-.03.49-.07.18-.07.16-.34.43-.27-.11.61-.11,1.23-.14,1.85-.44.31-.34-.41-.56-.72-.32-.45-1.34-.47-1.85-.4-.07,0-.25.07-.25.14v5.15Z" style="fill: #181818;"/>
  <path d="M80.1,55.07c.03.13.04.32-.13.33l-3.14-.05-.02-.28c.58-.16.99-.02,1.06-.76.13-1.51-.09-3.22-.02-4.75-.09-.52-.64-.45-1.05-.55l.05-.31c.67-.07,1.32.04,1.99.03.34,0,.7-.1,1.06-.06.2.02.29.18.14.31-.32.27-.94-.16-1.01.78-.12,1.52.08,3.21.02,4.75.09.52.65.42,1.04.55Z" style="fill: #181818;"/>
  <path d="M122.01,48.69l.04.27c-.13.19-.9-.01-1.03.54-.2.85-.13,3.44-.07,4.41.02.36.02.86.39,1.01.26.1.88,0,.68.44h-3.2s-.05-.3-.05-.3c.51-.15.95-.02,1.04-.67-.07-1.48.14-3.12.02-4.58-.07-.78-.4-.69-1.06-.82v-.33s3.23,0,3.23,0Z" style="fill: #181818;"/>
  <path d="M31.99,38.16l.11.17.11-.17c-.02.35.32.58.37.96h.53c-.06-.13-.26-.11-.36-.23-.05-.06-.18-.41-.14-.45.62-.03,0,.52.59.56.49.04.57-.47.91-.55.82-.19,1.16.7.32.94-.13.57.49.1.72.18l.32.5-.14-.04-.11.21-.11-.11-.06.11h-.11s-.2-.14-.2-.14l.34-.25c-.35-.02-1.17.43-1.32-.05-.07-.24.07-.53-.33-.51-.29.01-.5.36-.76.43-.19.05-.38,0-.52.03-.07.02-.06.18-.19.22-.31.09-1.03-.19-1.03.23h-.17s0-.17,0-.17l-.28.14-.11-.14.17-.06-.22-.08.22-.03-.22-.17c.13-.26.32.03.53.06.11.01.7.03.7-.09-.24-.23.12-.36-.11-.61l.12-.06.33.03v-.24c-.14-.19-.47.1-.45-.23l.28-.09v-.28s.14.1.14.1l.14-.1ZM33.67,39.11c.21-.13.59.13.73.09.39-.1.23-.64-.13-.59-.16.03-.45.39-.6.49Z" style="fill: #181818;"/>
  <path d="M31.99,36.03l.03.11.2-.11c-.01.35.33.57.37.96h.53c-.27-.2-.49-.29-.5-.67.62-.03,0,.52.59.56.48.03.56-.47.96-.55.89-.19,1.15.83.24.88l.05.25.78-.02.23.55-.22-.06-.08.22-.11-.17-.2.11.06-.17-.17-.03.34-.2c-.35-.01-.87.21-1.2.1-.23-.08,0-.65-.4-.67-.37-.02-.53.35-.81.43-.19.05-.38,0-.52.03-.07.02-.06.18-.19.22-.25.08-.76-.03-1.05,0l-.12.23c-.16-.12-.24-.07-.42-.08l.06-.14-.22-.06.22-.11-.17-.11.09-.11c.16-.02.19.14.33.17.12.02.82,0,.87-.06-.23-.27.11-.38-.11-.64l.12-.06.33.03c.16-.56-.55-.12-.45-.48.03-.09.2-.09.28-.09v-.28c.14.19.26-.02.28,0ZM33.72,36.92l.8.1c.3-.22.1-.62-.26-.54l-.54.44Z" style="fill: #181818;"/>
  <path d="M31.93,40.45l.11-.17.17.17.11-.17c-.15.36.35.59.28,1.01l.5-.06c0-.09-.12-.05-.2-.11-.18-.13-.26-.34-.25-.56.52.04.09.52.47.56.5.06.57-.39.98-.48.52-.12.87.4.42.76-.17.14-.36.1-.31.45l.67-.22c0,.27.28.29.34.5h-.22s0,.22,0,.22l-.14-.11-.03.11h-.08c-.05-.1-.07-.13-.2-.11-.05-.19.25-.06.22-.28-.29.07-.69.38-1,.24-.25-.11.09-1.14-.65-.68-.32.2-.46.49-.94.35l-.09.2-.83.05-.12.23-.03-.17-.31.11c-.19-.15.07-.11.08-.22l-.22-.11.22-.06-.17-.17c.2-.07.28.15.42.17.17.03.35-.09.53-.06-.23-.23,0-.39,0-.53,0-.01-.19-.05-.11-.2.02-.02.43.18.44-.13s-.5.04-.49-.29c0-.09.26-.1.33-.08l-.06-.34.11.17ZM33.67,41.24c.22-.09.48.14.63.1.21-.06.33-.44.04-.53-.24-.07-.49.28-.67.42Z" style="fill: #181818;"/>
  <path d="M33.06,38.06s-.04.13-.1.16l-.11-.11-.22.11-.03-.17h-.22s.22-.11.22-.11l-.17-.17.67.11c-.04-.35.04-.66.45-.59.23.37-.28.32-.14.71-.07.1-.27.02-.36.07Z" style="fill: #181818;"/>
  <path d="M33.6,39.77l-.19.06-.02.31c-.21.05-.33-.05-.42.19l-.22-.11c-.04.12-.06.13-.2.11l.06-.17h-.22s.22-.11.22-.11l-.17-.17.67.11c-.18-.54.55-.87.5-.23Z" style="fill: #181818;"/>
  <path d="M33.54,41.9s-.15.05-.18.12.08.24,0,.34c-.04.05-.15.03-.18.07-.07.07,0,.32-.21.11l-.22.15c-.04-.11-.07-.13-.2-.11l.11-.17-.17-.03c.08-.17.57-.04.62-.08-.04-.22-.09-.35.03-.55.22-.36.55-.09.4.15Z" style="fill: #181818;"/>
  <path d="M31.31,37.37c-.19-.11-.25-.51-.42-.62-.12-.08-.27-.01-.37-.14l.17-.08-.22-.14v-.14s.22.11.22.11l-.06-.22.2.11.17-.11c.05.12-.04.2,0,.34.08.32.6.51.31.89Z" style="fill: #181818;"/>
  <path d="M31.31,39.5c-.29-.32-.31-.73-.84-.73l.22-.11-.22-.14v-.14s.22.11.22.11l-.06-.22.2.11.09-.17c.19.07.04.23.08.39.08.36.59.5.31.9Z" style="fill: #181818;"/>
  <path d="M31.15,40.4c-.16.57.55.76.34,1.29-.19-.13-.21-.46-.39-.59-.14-.11-.28-.04-.4-.16l.11-.03v-.11s-.17-.17-.17-.17l.22.06-.11-.22.28.11.11-.17Z" style="fill: #181818;"/>
  <path d="M30.28,39c.11-.03.19.12.27.1.09-.02.25-.25.32.04-.2.29-.5.32-.67,0l.09-.14Z" style="fill: #181818;"/>
  <path d="M33.14,38.32c.11-.03.18.09.23.1.08.01.15-.13.27-.1.34.08-.31.67-.56.17-.07-.05.02-.16.06-.17Z" style="fill: #181818;"/>
  <path d="M33.72,40.51c.03.44-.74.41-.64,0h.64Z" style="fill: #181818;"/>
  <path d="M35.1,36.87c.11-.03.18.09.23.1.08.01.34-.29.35.09-.02.06-.18.14-.24.16-.27.08-.57-.3-.35-.35Z" style="fill: #181818;"/>
  <path d="M35.4,39.1s.15-.3.29.04c-.11.22-.59.31-.67.05-.1-.34.35-.07.38-.09Z" style="fill: #181818;"/>
  <path d="M31.03,41.24c.02.43-.74.43-.64,0h.64Z" style="fill: #181818;"/>
  <path d="M30.28,36.87c.11-.03.19.12.27.1.09-.02.25-.25.32.04-.19.26-.44.31-.67.05-.03-.07.02-.18.08-.19Z" style="fill: #181818;"/>
  <path d="M33.72,36.2c0,.39-.46.41-.67.14-.04-.22.55-.08.67-.14Z" style="fill: #181818;"/>
  <path d="M35.52,41.24v.21c-.16.19-.69.08-.67-.13.01-.14.55,0,.67-.08Z" style="fill: #181818;"/>
  <path d="M35.64,28.58l-.29-.66.39.28.11-.39c.1.25.05.52-.05.76l-.16.02Z" style="fill: #181818;"/>
  <path d="M36.47,26.9c.2-.07.1.36.25.28.12-.06.05-.29.2-.34,0,.25.01.56-.2.73-.15-.19-.28-.42-.25-.67Z" style="fill: #181818;"/>
  <path d="M35.41,25.95c.1-.12.15.24.28.17l.11-.28c0,.11.05.67-.08.67-.11-.06-.38-.47-.31-.56Z" style="fill: #181818;"/>
  <path d="M30.25,27.91l.34-.28c.08.14-.22.71-.31.73-.17.04-.31-.71-.08-.78l.06.34Z" style="fill: #181818;"/>
  <path d="M29.24,27.07c.08.08.32-.39.33-.14,0,.11-.19.51-.31.59-.08,0-.32-.67-.08-.73l.06.28Z" style="fill: #181818;"/>
  <path d="M30.19,25.84v.28s.25-.17.25-.17c.15.12-.26.59-.31.56-.05-.19-.08-.4-.06-.59.01-.08.04-.18.11-.08Z" style="fill: #181818;"/>
  <path d="M33.39,25.11c0,.41-.82.41-.95.08l.76-.03.19-.06Z" style="fill: #181818;"/>
  <path d="M28.11,31.01s.04.15.18.09c.06.06-.11.4-.36.22-.22-.15.05-.38.18-.31Z" style="fill: #181818;"/>
</svg>