<svg width="40" height="40" viewBox="0 0 40 40" fill="none" xmlns="http://www.w3.org/2000/svg">
<path fill-rule="evenodd" clip-rule="evenodd" d="M29.4494 26.4266H29.435H26.8836V30.5246H26.8776V30.5413C26.2053 30.6517 25.5423 30.708 24.8872 30.708C24.2345 30.708 23.5701 30.6517 22.9001 30.5413V30.5246H22.8922V26.4266H11.7373L11.7308 23.4674L16.6101 19.1343C18.9715 17.1798 19.8929 16.1499 19.8929 14.5753C19.8929 12.9733 18.8342 12.1059 17.3434 12.1059C15.9336 12.1059 14.9475 12.8667 13.6183 14.4678L13.365 14.8063C12.7989 14.4864 12.2727 14.1316 11.7862 13.7396C11.3011 13.349 10.8406 12.91 10.409 12.4267L10.6232 12.1599L10.6288 12.1636C12.4673 9.69842 14.2822 8.36082 17.613 8.36082C21.5485 8.36082 24.1539 10.6678 24.1539 14.2229V14.2764C24.1539 17.4009 22.8489 18.522 20.3534 20.7791H20.352L17.8471 23.033H22.8922V21.1442L26.8836 17.5634V23.033H29.435V23.0344H29.4494C29.5435 23.6071 29.5919 24.1723 29.5919 24.7314C29.5919 25.2882 29.5435 25.8544 29.4494 26.4266ZM20 0C8.95407 0 0 8.95443 0 20.0002C0 31.046 8.95407 40 20 40C31.0459 40 40 31.046 40 20.0002C40 8.95443 31.0459 0 20 0Z" fill="#181818"/>
</svg>
