<svg width="195" height="40" viewBox="0 0 195 40" fill="none" xmlns="http://www.w3.org/2000/svg">
<g clip-path="url(#clip0_397_1475)">
<path d="M8.99229 22.9251V26.6294H6.76977C5.1859 26.6294 3.95116 26.2462 3.06555 25.4798C2.17995 24.6964 1.73715 23.4276 1.73715 21.6734V16.0021H0V12.3745H1.73715V8.90024H6.10556V12.3745H8.96675V16.0021H6.10556V21.7245C6.10556 22.1502 6.20775 22.4568 6.41212 22.6441C6.61649 22.8315 6.9571 22.9251 7.43397 22.9251H8.99229Z" fill="#181818"/>
<path d="M31.8881 12.3745L28.0307 26.6294H23.2024L20.9543 17.3816L18.6296 26.6294H13.8269L9.94389 12.3745H14.3123L16.3305 22.5675L18.7318 12.3745H23.3557L25.7826 22.5164L27.7752 12.3745H31.8881Z" fill="#181818"/>
<path d="M46.9914 19.272C46.9914 19.6808 46.9658 20.1065 46.9147 20.5493H37.0283C37.0965 21.435 37.3775 22.1162 37.8714 22.593C38.3823 23.0529 39.0039 23.2828 39.7362 23.2828C40.8262 23.2828 41.5841 22.823 42.0099 21.9033H46.6593C46.4209 22.84 45.9866 23.683 45.3564 24.4324C44.7433 25.1817 43.9684 25.7693 43.0317 26.1951C42.095 26.6208 41.0476 26.8337 39.8895 26.8337C38.493 26.8337 37.2497 26.5357 36.1598 25.9396C35.0698 25.3435 34.2182 24.492 33.6051 23.385C32.992 22.278 32.6855 20.9836 32.6855 19.5019C32.6855 18.0203 32.9835 16.7259 33.5796 15.6189C34.1927 14.5119 35.0442 13.6604 36.1342 13.0643C37.2242 12.4682 38.476 12.1702 39.8895 12.1702C41.269 12.1702 42.4952 12.4597 43.5682 13.0387C44.6411 13.6178 45.4756 14.4438 46.0717 15.5167C46.6848 16.5897 46.9914 17.8414 46.9914 19.272ZM42.5208 18.1224C42.5208 17.3731 42.2653 16.777 41.7544 16.3342C41.2435 15.8914 40.6048 15.67 39.8384 15.67C39.1061 15.67 38.4845 15.8829 37.9735 16.3087C37.4797 16.7344 37.1731 17.339 37.0539 18.1224H42.5208Z" fill="#181818"/>
<path d="M57.9817 12.2213C59.6507 12.2213 60.9791 12.7662 61.9669 13.8562C62.9717 14.9292 63.4741 16.4108 63.4741 18.3013V26.6294H59.1313V18.8888C59.1313 17.9351 58.8843 17.1943 58.3904 16.6663C57.8965 16.1384 57.2323 15.8744 56.3978 15.8744C55.5633 15.8744 54.8991 16.1384 54.4052 16.6663C53.9113 17.1943 53.6644 17.9351 53.6644 18.8888V26.6294H49.2959V12.3745H53.6644V14.265C54.1072 13.6348 54.7032 13.1409 55.4526 12.7833C56.202 12.4086 57.045 12.2213 57.9817 12.2213Z" fill="#181818"/>
<path d="M74.4546 22.9251V26.6294H72.2321C70.6482 26.6294 69.4135 26.2462 68.5279 25.4798C67.6423 24.6964 67.1995 23.4276 67.1995 21.6734V16.0021H65.4623V12.3745H67.1995V8.90024H71.5679V12.3745H74.4291V16.0021H71.5679V21.7245C71.5679 22.1502 71.6701 22.4568 71.8745 22.6441C72.0788 22.8315 72.4194 22.9251 72.8963 22.9251H74.4546Z" fill="#181818"/>
<path d="M91.4493 12.3745L82.5081 33.3991H77.8076L81.0775 26.144L75.2785 12.3745H80.1579L83.4533 21.2902L86.7233 12.3745H91.4493Z" fill="#181818"/>
<path d="M100.182 16.0021H97.8317V26.6294H93.4633V16.0021H91.8794V12.3745H93.4633V11.9658C93.4633 10.2116 93.9657 8.88321 94.9705 7.98057C95.9753 7.06091 97.4485 6.60107 99.39 6.60107C99.7136 6.60107 99.952 6.60959 100.105 6.62662V10.3308C99.2708 10.2797 98.6832 10.399 98.3426 10.6885C98.002 10.978 97.8317 11.4974 97.8317 12.2468V12.3745H100.182V16.0021Z" fill="#181818"/>
<path d="M108.723 26.8337C107.327 26.8337 106.067 26.5357 104.943 25.9396C103.836 25.3435 102.958 24.492 102.311 23.385C101.681 22.278 101.366 20.9836 101.366 19.5019C101.366 18.0373 101.69 16.7515 102.337 15.6445C102.984 14.5204 103.87 13.6604 104.994 13.0643C106.118 12.4682 107.378 12.1702 108.774 12.1702C110.171 12.1702 111.431 12.4682 112.555 13.0643C113.679 13.6604 114.565 14.5204 115.212 15.6445C115.859 16.7515 116.183 18.0373 116.183 19.5019C116.183 20.9666 115.851 22.2609 115.187 23.385C114.539 24.492 113.645 25.3435 112.504 25.9396C111.38 26.5357 110.12 26.8337 108.723 26.8337ZM108.723 23.0529C109.558 23.0529 110.265 22.7463 110.844 22.1332C111.44 21.5201 111.738 20.643 111.738 19.5019C111.738 18.3609 111.448 17.4838 110.869 16.8707C110.307 16.2576 109.609 15.951 108.774 15.951C107.923 15.951 107.216 16.2576 106.654 16.8707C106.092 17.4668 105.811 18.3439 105.811 19.5019C105.811 20.643 106.084 21.5201 106.629 22.1332C107.191 22.7463 107.889 23.0529 108.723 23.0529Z" fill="#181818"/>
<path d="M132.576 12.3745V26.6294H128.208V24.6878C127.765 25.318 127.161 25.8289 126.394 26.2206C125.645 26.5953 124.81 26.7826 123.891 26.7826C122.801 26.7826 121.838 26.5442 121.004 26.0673C120.169 25.5734 119.522 24.8667 119.062 23.947C118.603 23.0273 118.373 21.9459 118.373 20.7026V12.3745H122.716V20.1151C122.716 21.0688 122.963 21.8096 123.456 22.3376C123.95 22.8655 124.615 23.1295 125.449 23.1295C126.301 23.1295 126.973 22.8655 127.467 22.3376C127.961 21.8096 128.208 21.0688 128.208 20.1151V12.3745H132.576Z" fill="#181818"/>
<path d="M140.083 14.7503C140.594 13.9669 141.232 13.3538 141.999 12.911C142.765 12.4512 143.617 12.2213 144.553 12.2213V16.8451H143.353C142.263 16.8451 141.445 17.0836 140.9 17.5604C140.355 18.0203 140.083 18.8377 140.083 20.0129V26.6294H135.714V12.3745H140.083V14.7503Z" fill="#181818"/>
<path fill-rule="evenodd" clip-rule="evenodd" d="M184.009 26.4267H183.995H181.443V30.5247H181.437V30.5414C180.764 30.6518 180.101 30.7081 179.446 30.7081C178.793 30.7081 178.129 30.6518 177.458 30.5414V30.5247H177.451V26.4267H166.293L166.287 23.4674L171.167 19.1343C173.529 17.1798 174.451 16.15 174.451 14.5754C174.451 12.9733 173.392 12.106 171.901 12.106C170.49 12.106 169.504 12.8667 168.175 14.4678L167.921 14.8063C167.355 14.4864 166.829 14.1317 166.342 13.7397C165.857 13.349 165.396 12.91 164.965 12.4267L165.179 12.16L165.184 12.1637C167.023 9.69845 168.839 8.36084 172.17 8.36084C176.107 8.36084 178.713 10.6678 178.713 14.2229V14.2765C178.713 17.401 177.407 18.5221 174.911 20.7792H174.91L172.404 23.0331H177.451V21.1442L181.443 17.5635V23.0331H183.995V23.0345H184.009C184.103 23.6071 184.152 24.1723 184.152 24.7315C184.152 25.2883 184.103 25.8545 184.009 26.4267ZM174.558 0C163.509 0 154.553 8.95446 154.553 20.0003C154.553 31.0461 163.509 40.0001 174.558 40.0001C185.606 40.0001 194.562 31.0461 194.562 20.0003C194.562 8.95446 185.606 0 174.558 0Z" fill="#181818"/>
</g>
<defs>
<clipPath id="clip0_397_1475">
<rect width="194.562" height="40.0001" fill="white"/>
</clipPath>
</defs>
</svg>
