<?xml version="1.0" encoding="UTF-8"?>
<svg id="Layer_1" data-name="Layer 1" xmlns="http://www.w3.org/2000/svg" viewBox="0 0 160 90">
  <path d="M22.61,30.17l6.93,18.13c1.26.99,7.53-16.43,8.71-17.47,1.26-1.11,2.7-.77,4.18-.75l4.56,29.61-5.4-.44c-1.16-4.95-1.38-10.1-2.23-15.1-.13-.78.58-2.54-1.1-1.93-.89.32-6.17,16.67-7.3,17.39-.44.28-1.51,0-2.18.07-2.03-5.73-3.97-12.77-7.6-17.46l-2.29,17.46h-6.06s5.32-29.6,5.32-29.6l4.46.08Z" style="fill: #181818;"/>
  <path d="M121.96,30.25c13.22-2.72,23.93,6.93,19.42,20.18-5.1,14.95-29.56,12.29-29.89-4.78-.13-6.51,3.68-14,10.48-15.4ZM125.02,34.8c-9.63,1.57-10.88,17.62-.63,20.01,15.75,3.67,16.42-22.58.63-20.01Z" style="fill: #181818;"/>
  <path d="M65.22,30.08l4.22.72,17.04,19.02v-19.74h5.32v29.61c-1.56.09-2.83.2-4.23-.71-1.73-1.12-7.77-9.25-9.81-11.45l-7.22-6.82v18.98h-5.32v-29.61Z" style="fill: #181818;"/>
  <polygon points="112.29 30.08 112.3 35.4 106.22 35.4 106.22 59.69 101.39 59.59 100.25 58.45 100.9 35.4 94.07 35.4 94.07 30.08 112.29 30.08" style="fill: #181818;"/>
  <rect x="48.51" y="30.08" width="5.32" height="29.61" style="fill: #181818;"/>
  <rect x="56.86" y="30.08" width="5.32" height="29.61" style="fill: #181818;"/>
  <path d="M142.44,53.76c3.42-1.02,5.98,2.31,4.08,4.84-3.61,4.83-9.29-3.28-4.08-4.84Z" style="fill: #181818;"/>
</svg>