<?xml version="1.0" encoding="UTF-8"?>
<svg id="Layer_1" data-name="Layer 1" xmlns="http://www.w3.org/2000/svg" viewBox="0 0 160 90">
  <path d="M5.44,37.1c.03-.33.28-1.07.49-1.37.68-.98,2.04-1.28,3.16-1.11.69.1.97.8.25.92-.6.1-1-.1-1.51-.36-.98.21-1.21,3.08-.36,3.28.37.09.81-.43,1.21.16.5.73.37,4,1.66,3.99.42,0,.8-.6,1.31-.34.55.28.53,2.88,2.21,3.33.46.12,1.38.15,1.5-.44s-2.44-3.96-2.9-4.79c-1.55-2.83-2.6-6.72,1.44-7.87.89-.25,5.19-.58,5.02.88l-.17.27c-1.15.7-2.13-.74-2.75-.84-1.07-.18-3.29,1.39-2.97,2.54,2.47.3.9,1.77.83,3.2-.09,1.91,1.69.58,1.88,1.44.17.78-.69,2.06-.21,2.83s1.04-.15,1.51.15c.22.14.7,1.54,1.31,2.01,1.04.8,2.35.58,1.66-.97-.31-.7-1.55-1.55-1.59-2.01-.05-.6.71-.5.91-.89.41-.82-1.4-1.32-1.46-2.29-.05-.76,1.16-.66,1.25-1.23.11-.84-.95-1.09-.84-1.92s1.23-.28,1.63-.67c.43-.41.24-1.72,1.21-1.77,1.09-.07.84,1.31,1.32,1.74s1.55-.09,1.66.7-1.43,1.51-.69,2.19c.51.47,1.27.25.93,1.36-.17.57-2.01,1.31-1.32,2,.21.2,1.06.35.92.91s-2.54,1.93-1.65,3.22c1.18.35,1.95-.46,2.53-1.36.25-.39.23-1.12.86-1.07.43.03.83.64,1.22-.31.32-.77-.97-2.83.2-2.97.29-.04.51.17.87.06,1.32-.41-.27-2.77.02-3.72.18-.58,1.32-.27,1.36-.86.09-1.04-2.11-2.55-3.09-2.25-.26.08-.84.67-1.27.81-1.49.5-2.33-.49-.8-1.08,2.03-.78,5.62-.36,6.73,1.77.86,1.64.09,3.84-.68,5.39-.65,1.31-2.92,3.98-3.16,5-.21.85.29,1.02,1.09.94,1.98-.18,1.87-3.06,2.56-3.4.53-.26.89.34,1.31.34,1.37,0,1.07-4,1.96-4.25.53-.15.81.42,1.18-.2.51-.87.26-2.46-.63-2.98-.34.25-1.71.7-1.88.18l.05-.47c.98-.6,2.69-.3,3.47.55,2.14,2.36-1.53,6.36-3.05,8.16-1.16,1.38-2.1,1.79-1.73,4.01H10.97c.4-2.31-.87-2.92-2.07-4.36s-3.24-3.88-3.46-5.73c-.01-.13-.01-.29,0-.41Z" style="fill: #181818;"/>
  <path d="M21.34,24.11c.83.48.33,3.64-.54,2.41-.46-.65-.25-1.83.27-2.41h.28Z" style="fill: #181818;"/>
  <path d="M10.92,49.29l20.51.05c.62.69.41,1.73.21,2.56l-.28.13H11.04c-.75-.14-.55-2.6-.12-2.75Z" style="fill: #181818;"/>
  <path d="M50.5,34.34l1.18,3.87c.3.06.18-.12.24-.3.39-1.17.74-2.38,1.07-3.57h2.28l.21.21v6.57h-1.8v-4.42c-.23.04-.25.27-.32.44-.48,1.26-.75,2.73-1.29,3.99h-1.15s-1.39-4.43-1.39-4.43v4.42h-1.52v-6.77h2.49Z" style="fill: #181818;"/>
  <path d="M104.4,47.12c.11-.35,1.84-.39,1.73.35.95-.51,2.42-1.09,3.04.14.62-.62,1.94-1.01,2.69-.48.1.07.42.47.42.55v4.35h-1.66v-3.39l-.18-.31c-.24-.19-1.01-.1-1.21.17v3.52h-1.8v-3.52c0-.37-1.02-.23-1.24-.21v3.73h-1.8v-4.91Z" style="fill: #181818;"/>
  <path d="M87.26,36v5.32c0,.11-.42.7-.56.82-1,.89-3.06.7-4.26.34v-1.23c.17-.18,3.26,1.09,3.03-.69-1.19.58-2.94.39-3.25-1.1-.41-1.96.35-3.84,2.63-3.46.34.06.64.41.81.39.28-.04.96-.7,1.61-.39ZM85.47,37.38c-2.21-.87-2.28,3.22,0,2.21v-2.21Z" style="fill: #181818;"/>
  <path d="M61.14,52.24c-.31,1.74-3.58,1.64-4.82,1.16v-1.23c1.07.05,2.99.99,3.16-.69-2.43.96-3.91-.36-3.39-2.91.34-1.7,2.3-2.19,3.53-1.1.12-.71.97-.55,1.52-.55-.2,1.58.27,3.82,0,5.32ZM58.48,48.19c-.95.2-.81,2.26-.29,2.44.43.15,1.18.09,1.29-.46.16-.86.2-2.22-1-1.98Z" style="fill: #181818;"/>
  <path d="M98.6,46.92v5.46c0,.17-.59.76-.78.88-1.12.71-2.83.47-4.04.15v-1.23c.18-.19,3.32,1.12,3.16-.69-2.1.8-3.57.07-3.46-2.29.07-1.56,1.07-2.54,2.69-2.27.34.06.65.41.81.39.28-.04.96-.7,1.61-.39ZM96.94,50.51v-2c-1.54-1.17-2.09.86-1.43,2.01.48.22.95.13,1.43-.01Z" style="fill: #181818;"/>
  <path d="M70.13,35.86c.14.42-.42.6-.42.9,0,.23.45.64.52,1,.4,1.92-.62,3.54-2.66,3.5-.37,0-1.12-.33-1.37-.29-.06.01-.42.73-1.06.42-.12-.39.44-.71.39-1.01-.03-.14-.35-.51-.45-.79-.52-1.48.19-3.27,1.83-3.56.83-.14,1.73.24,2.04.2.14-.02.66-.64,1.17-.37ZM68.19,37.24c-1.32-.5-1.64.71-1.52,1.8l1.52-1.8ZM67.09,40.01c1.27.52,1.64-.75,1.52-1.8l-1.52,1.8Z" style="fill: #181818;"/>
  <path d="M87.68,47.12c.12-.39,1.76-.32,1.86.34.6-.47,2.09-.85,2.69-.33.08.06.42.65.42.69v4.22h-1.8v-3.52c-.3-.33-1.08-.33-1.38,0v3.52h-1.8v-4.91Z" style="fill: #181818;"/>
  <path d="M121.12,52.03h-1.66v-3.25c0-.61-1.2-.71-1.52-.28v3.52h-1.66v-5.11c.38.05.95-.09,1.29.02.23.08.29.49.44.53.14.03,1.59-1.11,2.69-.34.1.07.42.47.42.55v4.35Z" style="fill: #181818;"/>
  <path d="M80.86,36.74c1.12,1.22.78,3.58-.84,4.24-2.35.96-4.7-.98-3.74-3.46.67-1.73,3.39-2.07,4.58-.78ZM78.18,39.83c1,.93,2.01-.78,1.42-2.04-.96-2.04-2.54.98-1.42,2.04Z" style="fill: #181818;"/>
  <path d="M138.12,49.96h-3.18c.4,1.66,1.86.75,3.04.69v1.02c-2,1.03-4.89.58-4.82-2.18.09-3.7,5.86-3.4,4.96.47ZM135.45,48.04c-.16.05-.6.71-.37.88.2.11.94.11,1.18.07.67-.11.07-1.24-.81-.95Z" style="fill: #181818;"/>
  <path d="M66.95,49.96h-3.18c.25,1.71,1.93.68,3.04.69.43,1.44-1.53,1.61-2.54,1.51-3.22-.32-3.1-5.41.54-5.24,1.88.09,2.29,1.37,2.14,3.05ZM65.29,48.99c.18-1.34-1.4-1.32-1.52-.07l1.52.07Z" style="fill: #181818;"/>
  <path d="M150.7,49.96h-3.18c.35,1.65,1.91.75,3.04.69v1.02c-1.31.77-3.98.77-4.59-.91-1.61-4.45,5.5-5.53,4.73-.79ZM148.03,48.04c-.16.05-.6.71-.37.88.2.11.94.11,1.18.07.67-.11.07-1.24-.81-.95Z" style="fill: #181818;"/>
  <polygon points="49.81 45.26 49.81 50.58 50.02 50.79 52.57 50.79 52.57 52.03 48.01 52.03 48.01 45.26 49.81 45.26" style="fill: #181818;"/>
  <path d="M71.49,47.21l.02,1.09c-.2.2-2.24-.61-2.35-.07-.14.7,1.12.57,1.53.68,1.46.42,1.44,2.48.09,3.01-.65.25-2.47.35-3-.1-.27-.23-.09-.85-.14-1.18.83-.13,1.72.7,2.49.07.2-.63-1.16-.57-1.52-.69-.86-.27-1.03-.83-.97-1.67.13-1.82,2.59-1.62,3.86-1.15Z" style="fill: #181818;"/>
  <path d="M103.28,47.21l.02,1.09c-.84.15-1.64-.71-2.35.07.62.78,2.33.23,2.59,1.41.35,1.54-.51,2.33-1.98,2.39-1.11.05-2.38-.14-2-1.52.87-.09,1.53.57,2.41.15.72-.53-1.46-.75-1.66-.83-.5-.2-.88-.78-.89-1.32-.01-1.93,2.52-2.04,3.85-1.43Z" style="fill: #181818;"/>
  <path d="M128.59,48.3c-.45.14-1.94-.55-2.21-.14-.5.76,2.01.56,2.41,1.39.77,1.57-.57,2.61-2.07,2.63-1.09.01-2.22-.2-1.87-1.53.83-.13,1.72.7,2.49.07.2-.63-1.16-.57-1.52-.69-.93-.29-1.1-1.04-.96-1.93.26-1.6,3.53-1.33,3.71-.82l.02,1.02Z" style="fill: #181818;"/>
  <polygon points="47.87 57.56 48.61 57.58 51.33 63.5 53.66 57.65 54.51 57.56 54.51 64.33 53.96 64.33 53.96 58.39 51.48 64.25 51.12 64.34 48.43 58.39 48.43 64.33 47.87 64.33 47.87 57.56" style="fill: #181818;"/>
  <path d="M151.81,48.16h-.55s0-1.24,0-1.24h.56s.08-1.25.08-1.25h1.72s0,1.25,0,1.25h.83s0,1.16,0,1.16l-.83.08v2.56l.96.35-.08.97c-.73.34-2.68.09-2.68-.91v-2.97Z" style="fill: #181818;"/>
  <path d="M72.75,48.16h-.55s0-1.24,0-1.24h.56s.08-1.25.08-1.25h1.72s0,1.25,0,1.25h.83s0,1.16,0,1.16l-.83.08v2.56l.96.35-.08.97c-.63.18-1.74.24-2.26-.22-.08-.07-.42-.65-.42-.69v-2.97Z" style="fill: #181818;"/>
  <path d="M129.97,48.16h-.55s0-1.24,0-1.24h.56s.08-1.25.08-1.25h1.72s0,1.25,0,1.25h.83s0,1.16,0,1.16l-.83.08v2.56c0,.16.63.36.81.36l.02.86c-.5.58-2.63.07-2.63-.67v-3.11Z" style="fill: #181818;"/>
  <path d="M80.91,52.03h-1.8v-6.57c.25-.4,1.8-.25,1.8.14v6.43Z" style="fill: #181818;"/>
  <path d="M61.28,41.11h-1.8v-6.77l1.43.02c.15.06.36.51.36.6v6.15Z" style="fill: #181818;"/>
  <path d="M82.01,45.26c.41,0,1.8-.14,1.8.48v6.29h-1.8v-6.77Z" style="fill: #181818;"/>
  <path d="M62.39,36l1.38.07c.29.16.26.4.28.68.08.79.11,4.6-.07,5.2-.26.85-1.45.91-2.2.8-.31-.03-.27-1.03-.22-1.08.04-.04.71.02.82-.35v-5.32Z" style="fill: #181818;"/>
  <path d="M22.62,30.02c.29.28.72-.06.49,1.04-.3,1.43-2.24,1.77-3.29.86-.42-.36-.84-1.27-.49-1.74.1-.14.41-.09.47-.15.05-.05.03-.77.32-1.13.61-.78,1.9-.58,2.29.29.1.22.1.73.21.83Z" style="fill: #181818;"/>
  <path d="M139.09,46.92c.68.01,1.39-.19,1.73.55.47-.36.98-.62,1.59-.55l-.02,1.37-1.64.29v3.46h-1.66v-5.11Z" style="fill: #181818;"/>
  <path d="M66.35,63.73c-.64.64-1.65.68-2.5.59-.31-.03-.68-.31-.95-.25s-.45.58-.72.53c-.51-.1.34-.62.34-.89s-.45-.87-.52-1.28c-.31-1.8.77-3.3,2.65-3.22.4.02,1.25.42,1.37.4.24-.04.44-.58.71-.53.53.1-.4.68-.32.87.75.95.8,2.91-.07,3.78ZM65.7,59.91c-2.4-1.07-3.9,1.13-2.9,3.32.23.05.28-.07.41-.21.69-.71,1.68-1.89,2.28-2.69.1-.14.27-.17.21-.41ZM65.93,63.46c.78-.78.64-2.21.18-3.13l-2.9,3.25c.7.67,2.06.54,2.71-.12Z" style="fill: #181818;"/>
  <path d="M56.58,36.21c.11-.37,1.8-.32,1.8.28v4.63h-1.8v-4.91Z" style="fill: #181818;"/>
  <path d="M113.39,46.92l1.58.12s.22.87.22.91v4.08h-1.8v-5.11Z" style="fill: #181818;"/>
  <polygon points="55.06 47.06 55.06 52.03 53.4 52.03 53.4 46.92 55.06 47.06" style="fill: #181818;"/>
  <path d="M123.89,52.03h-1.66v-5.11c.31-.01,1.66-.09,1.66.35v4.77Z" style="fill: #181818;"/>
  <path d="M86.57,52.03h-1.66v-5.11c.31-.01,1.66-.09,1.66.35v4.77Z" style="fill: #181818;"/>
  <path d="M144.9,52.03h-1.66v-5.11c.31-.01,1.66-.09,1.66.35v4.77Z" style="fill: #181818;"/>
  <path d="M78,52.03h-1.66v-5.11c.58.01,1.23-.14,1.66.35v4.77Z" style="fill: #181818;"/>
  <path d="M88.51,61.85h-4.15c.06,1.72,1.08,2.28,2.7,2.08.29-.04,1.79-.83,1.29-.02-.04.06-.99.4-1.17.42-1.88.26-3.41-.46-3.38-2.54.06-3.36,5.03-3.47,4.7.06ZM87.95,61.43c-.05-2.54-3.27-2.31-3.59,0h3.59Z" style="fill: #181818;"/>
  <path d="M100.26,61.85h-4.15c.13,2.37,2.16,2.46,3.94,1.66.32.5-.58.76-.98.82-2.4.33-3.76-.72-3.37-3.23.44-2.78,5.22-2.29,4.55.75ZM99.7,61.43c.13-2.51-3.41-2.33-3.46,0h3.46Z" style="fill: #181818;"/>
  <path d="M101.36,59.36l.42.06.2.63c.64-.66,2.66-1.17,3.35-.52.02.02.31.55.31.59v4.22h-.55v-4.08c0-1.1-2.76-.4-3.18.28v3.8h-.55v-4.98Z" style="fill: #181818;"/>
  <path d="M77.59,63.36l1.81-3.78.53-.23-2.96,6.5-.35-.21.76-1.74-2.15-4.55c.19,0,.38-.04.55.07.19.11,1.58,3.44,1.8,3.94Z" style="fill: #181818;"/>
  <path d="M71.09,60.05c-.09.1-1.75-.98-2.63-.07-1.25,1.28,1.31,1.49,1.91,1.69,1.63.53,1.3,2.5-.45,2.67-.6.06-2.48.06-2.22-.84.8.54,3.07.96,3.12-.49.06-1.68-3.15-.44-3.06-2.48.05-1.07,1.08-1.37,2.01-1.31.44.03,1.46.2,1.32.83Z" style="fill: #181818;"/>
  <path d="M94.73,60.05c-.41.03-.66-.31-1.07-.38-.9-.17-2.38.12-1.77,1.35.42.85,3.16-.08,2.98,2.15-.1,1.29-1.69,1.28-2.69,1.16-.52-.07-1.1-.22-.91-.82.82.42,2.18.87,2.9.07,1.34-1.46-1.55-1.59-2.15-1.86-1.17-.51-1.03-2,.29-2.35.67-.18,2.41-.3,2.41.68Z" style="fill: #181818;"/>
  <path d="M73.17,57.97l.13,1.32,1.39.13c.12.42-1.12.1-1.29.23l-.21.21c.09.79-.35,3.64.39,3.99.43.2,1.24-.19,1.24.48-.54-.01-1.84.17-2.05-.51-.28-.94.17-2.9-.05-3.96-.15-.47-.93.05-.81-.5l.77-.13.06-1.25h.41Z" style="fill: #181818;"/>
  <path d="M60.87,59.36v5.87c0,.59-1.07.73-1.52.62-.1-.45.45-.23.73-.4.07-.04.23-.3.23-.36v-5.74h.55Z" style="fill: #181818;"/>
  <path d="M58.79,64.33h-.55v-6.77c.16-.06.55.06.55.21v6.57Z" style="fill: #181818;"/>
  <path d="M81.04,59.36h.41s.07.69.07.69c.28,0,1.45-1.24,2-.62l-1.15.5c-.13.16-.92.63-.92.74v3.66h-.41v-4.98Z" style="fill: #181818;"/>
  <rect x="71.09" y="37.66" width="2.35" height="1.24" style="fill: #181818;"/>
  <rect x="89.61" y="57.56" width=".41" height="6.77" style="fill: #181818;"/>
  <rect x="56.17" y="59.36" width=".55" height="4.98" style="fill: #181818;"/>
  <path d="M24.36,27.69c-.28.46-2.72.41-2.6-.31.16-.92,3.22-.7,2.6.31Z" style="fill: #181818;"/>
  <path d="M18.04,27.69c-.62-1.02,2.44-1.2,2.6-.31.13.72-2.32.77-2.6.31Z" style="fill: #181818;"/>
  <path d="M57.38,34.09c1.13-.14,1.33,1.35.49,1.6-1.43.42-1.79-1.44-.49-1.6Z" style="fill: #181818;"/>
  <path d="M115.01,45.29c1.04,1.09-1.75,2.23-1.63.45.05-.79,1.18-.93,1.63-.45Z" style="fill: #181818;"/>
  <path d="M53.57,46.47c-.95-.95.98-2.19,1.56-.93.42.92-1.01,1.48-1.56.93Z" style="fill: #181818;"/>
  <path d="M77,45.01c1-.15,1.41,1.2.7,1.53-1.55.72-1.95-1.34-.7-1.53Z" style="fill: #181818;"/>
  <path d="M144.03,45.01c1.19-.11,1.45,1.99-.28,1.6-.87-.19-.71-1.51.28-1.6Z" style="fill: #181818;"/>
  <path d="M122.4,46.47c-.79-.79.6-2.16,1.41-1.07.74,1-.83,1.65-1.41,1.07Z" style="fill: #181818;"/>
  <path d="M85.09,46.47c-.79-.79.6-2.16,1.41-1.07.74,1-.83,1.65-1.41,1.07Z" style="fill: #181818;"/>
  <path d="M63.04,34.09c1.21-.22,1.58,1.83-.02,1.63-1-.12-.82-1.48.02-1.63Z" style="fill: #181818;"/>
</svg>