<?xml version="1.0" encoding="UTF-8"?>
<svg id="Layer_1" data-name="Layer 1" xmlns="http://www.w3.org/2000/svg" viewBox="0 0 160 90">
  <path d="M1.26,36.66c.03-.35.3-1.13.52-1.45.72-1.03,2.15-1.35,3.34-1.17.73.11,1.03.85.27.98-.63.11-1.05-.1-1.6-.38-1.03.22-1.28,3.25-.38,3.46.39.09.86-.45,1.28.17.52.77.39,4.22,1.76,4.21.44,0,.84-.64,1.39-.36.58.29.56,3.04,2.33,3.51.49.13,1.46.16,1.58-.46s-2.58-4.18-3.06-5.06c-1.63-2.99-2.75-7.1,1.52-8.31.94-.27,5.48-.61,5.3.93l-.17.29c-1.22.74-2.25-.78-2.9-.89-1.13-.19-3.48,1.47-3.14,2.69,2.61.32.95,1.87.88,3.38-.09,2.02,1.79.61,1.99,1.52.18.82-.73,2.18-.22,2.99s1.1-.15,1.59.16c.23.15.74,1.62,1.39,2.12,1.09.85,2.48.61,1.75-1.02-.33-.74-1.64-1.64-1.68-2.13-.05-.64.75-.53.96-.94.44-.87-1.48-1.4-1.54-2.42-.05-.81,1.23-.7,1.32-1.3.11-.88-1.01-1.15-.89-2.03s1.29-.3,1.72-.7c.46-.44.26-1.81,1.28-1.87,1.16-.07.88,1.39,1.39,1.84s1.64-.1,1.75.74-1.51,1.6-.73,2.32c.54.5,1.34.26.98,1.44-.18.6-2.13,1.38-1.39,2.11.22.22,1.12.37.97.96s-2.69,2.04-1.75,3.4c1.25.37,2.06-.48,2.67-1.44.26-.42.25-1.18.91-1.13.46.04.87.68,1.29-.33.34-.82-1.02-2.99.21-3.14.3-.04.53.18.92.06,1.4-.44-.28-2.92.02-3.93.19-.61,1.39-.29,1.44-.91.09-1.09-2.23-2.69-3.26-2.38-.28.08-.89.7-1.34.86-1.57.53-2.46-.52-.85-1.14,2.14-.82,5.94-.38,7.11,1.87.9,1.73.09,4.06-.72,5.69-.68,1.38-3.08,4.21-3.34,5.28-.22.9.31,1.08,1.15,1,2.09-.2,1.97-3.23,2.7-3.59.56-.28.94.36,1.39.36,1.45,0,1.13-4.23,2.08-4.49.56-.16.85.45,1.24-.21.54-.92.27-2.59-.66-3.15-.36.26-1.8.74-1.99.19l.06-.5c1.04-.63,2.84-.32,3.66.58,2.26,2.49-1.62,6.72-3.22,8.62-1.22,1.45-2.22,1.89-1.83,4.23H7.1c.43-2.44-.92-3.09-2.19-4.6s-3.42-4.1-3.65-6.05c-.02-.13-.01-.3,0-.44Z" style="fill: #181818;"/>
  <path d="M18.05,22.94c.87.51.34,3.85-.57,2.54-.49-.69-.27-1.93.28-2.54h.29Z" style="fill: #181818;"/>
  <path d="M7.05,49.53l21.66.05c.65.73.44,1.83.22,2.71l-.3.14H7.17c-.79-.15-.58-2.75-.13-2.9Z" style="fill: #181818;"/>
  <path d="M48.85,33.74l1.24,4.09c.31.06.19-.13.26-.32.41-1.24.79-2.51,1.13-3.77h2.41l.22.22v6.93h-1.9v-4.67c-.25.04-.26.28-.33.47-.51,1.33-.79,2.89-1.36,4.21l-1.22-.02-1.47-4.66v4.67h-1.61v-7.15h2.63Z" style="fill: #181818;"/>
  <path d="M105.77,47.24c.11-.37,1.95-.41,1.83.37,1-.54,2.56-1.15,3.21.14.66-.65,2.05-1.06,2.84-.51.11.08.44.5.44.58v4.6h-1.75v-3.58l-.19-.33c-.25-.21-1.06-.1-1.27.18v3.72h-1.9v-3.72c0-.39-1.08-.24-1.31-.22v3.94h-1.9v-5.18Z" style="fill: #181818;"/>
  <path d="M87.67,35.49v5.62c0,.12-.44.74-.59.87-1.06.94-3.23.74-4.5.36v-1.3c.18-.19,3.45,1.15,3.2-.73-1.25.61-3.11.42-3.44-1.16-.43-2.07.37-4.06,2.77-3.65.36.06.68.44.86.41.3-.05,1.01-.74,1.7-.42ZM85.77,36.95c-2.33-.92-2.41,3.4,0,2.34v-2.34Z" style="fill: #181818;"/>
  <path d="M60.08,52.64c-.33,1.84-3.79,1.73-5.09,1.23v-1.3c1.13.05,3.16,1.05,3.34-.73-2.57,1.01-4.13-.38-3.58-3.07.36-1.8,2.43-2.31,3.73-1.16.13-.75,1.03-.58,1.61-.58-.21,1.67.28,4.04,0,5.62ZM57.27,48.36c-1.01.21-.85,2.39-.3,2.58.46.16,1.25.1,1.36-.49.17-.91.21-2.35-1.06-2.09Z" style="fill: #181818;"/>
  <path d="M99.64,47.03v5.77c0,.18-.63.8-.83.92-1.19.75-2.98.5-4.27.16v-1.3c.19-.2,3.51,1.19,3.34-.73-2.21.85-3.77.07-3.65-2.42.08-1.65,1.13-2.69,2.85-2.39.36.06.68.44.86.41.3-.05,1.01-.74,1.7-.42ZM97.89,50.82v-2.12c-1.63-1.23-2.2.91-1.51,2.13.5.24,1,.14,1.51-.01Z" style="fill: #181818;"/>
  <path d="M69.57,35.35c.15.44-.44.63-.44.95,0,.24.48.68.55,1.06.42,2.02-.66,3.73-2.81,3.69-.4,0-1.18-.35-1.45-.31-.07.01-.44.77-1.12.45-.12-.41.47-.75.41-1.07-.03-.15-.37-.54-.48-.83-.55-1.56.2-3.46,1.93-3.76.87-.15,1.82.25,2.16.21.14-.02.69-.68,1.24-.39ZM67.53,36.81c-1.4-.53-1.73.75-1.6,1.9l1.6-1.9ZM66.36,39.73c1.35.55,1.73-.79,1.6-1.9l-1.6,1.9Z" style="fill: #181818;"/>
  <path d="M88.11,47.24c.13-.41,1.86-.34,1.97.36.63-.5,2.21-.89,2.84-.35.08.07.44.68.44.73v4.45h-1.9v-3.72c-.31-.34-1.15-.34-1.46,0v3.72h-1.9v-5.18Z" style="fill: #181818;"/>
  <path d="M123.43,52.43h-1.75v-3.43c0-.64-1.26-.75-1.61-.29v3.72h-1.75v-5.4c.4.06,1-.1,1.36.02.25.08.31.52.47.56.15.03,1.68-1.17,2.84-.36.11.08.44.5.44.58v4.6Z" style="fill: #181818;"/>
  <path d="M80.91,36.27c1.19,1.29.82,3.78-.89,4.48-2.48,1.01-4.96-1.03-3.94-3.65.71-1.83,3.58-2.19,4.84-.83ZM78.08,39.54c1.05.99,2.12-.83,1.5-2.15-1.01-2.15-2.68,1.04-1.5,2.15Z" style="fill: #181818;"/>
  <path d="M141.38,50.24h-3.36c.42,1.75,1.97.79,3.21.73v1.07c-2.11,1.09-5.16.61-5.09-2.3.09-3.91,6.19-3.59,5.24.5ZM138.56,48.22c-.17.06-.63.75-.39.93.21.11.99.11,1.25.07.71-.12.08-1.31-.85-1Z" style="fill: #181818;"/>
  <path d="M66.22,50.24h-3.36c.26,1.81,2.04.72,3.21.73.45,1.52-1.61,1.7-2.68,1.59-3.4-.34-3.27-5.72.57-5.54,1.98.09,2.41,1.44,2.26,3.22ZM64.46,49.21c.19-1.42-1.48-1.39-1.61-.07l1.61.07Z" style="fill: #181818;"/>
  <path d="M154.67,50.24h-3.36c.37,1.74,2.01.79,3.21.73v1.07c-1.38.82-4.21.81-4.85-.96-1.7-4.7,5.81-5.84,5-.84ZM151.84,48.22c-.17.06-.63.75-.39.93.21.11.99.11,1.25.07.71-.12.08-1.31-.85-1Z" style="fill: #181818;"/>
  <polygon points="48.12 45.27 48.12 50.89 48.34 51.11 51.04 51.11 51.04 52.43 46.22 52.43 46.22 45.27 48.12 45.27" style="fill: #181818;"/>
  <path d="M71.01,47.34l.02,1.15c-.22.21-2.37-.65-2.48-.07-.15.74,1.19.6,1.61.72,1.55.45,1.53,2.62.1,3.17-.69.27-2.61.37-3.17-.1-.28-.24-.1-.9-.14-1.24.87-.13,1.81.74,2.63.07.21-.67-1.22-.61-1.61-.73-.91-.28-1.09-.87-1.03-1.76.13-1.92,2.74-1.71,4.08-1.22Z" style="fill: #181818;"/>
  <path d="M104.58,47.34l.02,1.15c-.89.16-1.73-.75-2.48.07.65.82,2.46.24,2.74,1.49.37,1.63-.54,2.46-2.09,2.53-1.17.05-2.51-.15-2.11-1.61.91-.09,1.62.61,2.54.16.77-.56-1.54-.8-1.75-.88-.53-.21-.93-.82-.94-1.4-.01-2.04,2.66-2.15,4.07-1.51Z" style="fill: #181818;"/>
  <path d="M131.31,48.49c-.48.15-2.05-.58-2.34-.14-.52.8,2.12.59,2.55,1.46.81,1.66-.61,2.76-2.18,2.78-1.16.02-2.34-.21-1.97-1.62.87-.13,1.81.74,2.63.07.21-.67-1.22-.61-1.61-.73-.99-.31-1.16-1.09-1.01-2.04.28-1.69,3.73-1.4,3.91-.87l.02,1.08Z" style="fill: #181818;"/>
  <polygon points="46.07 58.26 46.85 58.29 49.72 64.54 52.19 58.36 53.08 58.26 53.08 65.42 52.49 65.42 52.49 59.14 49.88 65.33 49.5 65.43 46.66 59.14 46.66 65.42 46.07 65.42 46.07 58.26" style="fill: #181818;"/>
  <path d="M155.83,48.34h-.59s0-1.31,0-1.31h.59s.08-1.32.08-1.32h1.81s0,1.32,0,1.32h.88s0,1.23,0,1.23l-.88.08v2.7l1.02.37-.09,1.02c-.77.35-2.83.1-2.83-.96v-3.14Z" style="fill: #181818;"/>
  <path d="M72.35,48.34h-.59s0-1.31,0-1.31h.59s.08-1.32.08-1.32h1.81s0,1.32,0,1.32h.88s0,1.23,0,1.23l-.88.08v2.7l1.02.37-.09,1.02c-.66.19-1.84.25-2.38-.23-.08-.07-.44-.68-.44-.73v-3.14Z" style="fill: #181818;"/>
  <path d="M132.77,48.34h-.59s0-1.31,0-1.31h.59s.08-1.32.08-1.32h1.81s0,1.32,0,1.32h.88s0,1.23,0,1.23l-.88.08v2.7c0,.17.66.38.86.38l.02.91c-.53.61-2.78.07-2.78-.71v-3.28Z" style="fill: #181818;"/>
  <path d="M80.96,52.43h-1.9v-6.93c.26-.42,1.9-.27,1.9.15v6.79Z" style="fill: #181818;"/>
  <path d="M60.23,40.89h-1.9v-7.15l1.51.02c.16.06.38.54.38.64v6.5Z" style="fill: #181818;"/>
  <path d="M82.12,45.27c.43,0,1.9-.15,1.9.51v6.64h-1.9v-7.15Z" style="fill: #181818;"/>
  <path d="M61.4,35.49l1.46.07c.3.17.27.43.3.72.08.83.12,4.86-.07,5.49-.27.9-1.54.96-2.32.85-.33-.03-.29-1.09-.23-1.14.04-.04.75.02.87-.37v-5.62Z" style="fill: #181818;"/>
  <path d="M19.4,29.18c.31.29.76-.07.51,1.1-.32,1.51-2.37,1.87-3.47.91-.44-.38-.88-1.34-.51-1.84.11-.14.44-.09.49-.16.05-.06.03-.81.34-1.2.64-.82,2-.62,2.42.31.1.23.11.77.22.88Z" style="fill: #181818;"/>
  <path d="M142.41,47.03c.72.02,1.47-.2,1.82.58.5-.38,1.03-.65,1.68-.58l-.02,1.44-1.74.31v3.65h-1.75v-5.4Z" style="fill: #181818;"/>
  <path d="M65.58,64.78c-.68.68-1.74.71-2.64.62-.33-.03-.72-.33-1-.26s-.48.61-.76.56c-.54-.1.35-.66.36-.94s-.47-.92-.55-1.35c-.33-1.91.82-3.48,2.8-3.4.42.02,1.32.44,1.45.42.25-.05.46-.61.75-.56.56.11-.43.71-.34.92.79,1.01.85,3.07-.07,3.99ZM64.9,60.75c-2.54-1.13-4.11,1.19-3.06,3.5.24.06.29-.08.43-.22.73-.75,1.77-2,2.41-2.84.11-.15.28-.18.22-.44ZM65.14,64.49c.82-.82.68-2.34.19-3.31l-3.06,3.43c.74.7,2.17.57,2.87-.12Z" style="fill: #181818;"/>
  <path d="M55.27,35.71c.12-.39,1.9-.34,1.9.29v4.89h-1.9v-5.18Z" style="fill: #181818;"/>
  <path d="M115.26,47.03l1.67.13s.23.92.23.97v4.31h-1.9v-5.4Z" style="fill: #181818;"/>
  <polygon points="53.66 47.17 53.66 52.43 51.91 52.43 51.91 47.03 53.66 47.17" style="fill: #181818;"/>
  <path d="M126.35,52.43h-1.75v-5.4c.32-.02,1.75-.1,1.75.36v5.04Z" style="fill: #181818;"/>
  <path d="M86.94,52.43h-1.75v-5.4c.32-.02,1.75-.1,1.75.36v5.04Z" style="fill: #181818;"/>
  <path d="M148.54,52.43h-1.75v-5.4c.32-.02,1.75-.1,1.75.36v5.04Z" style="fill: #181818;"/>
  <path d="M77.89,52.43h-1.75v-5.4c.62.01,1.3-.15,1.75.36v5.04Z" style="fill: #181818;"/>
  <path d="M88.98,62.79h-4.38c.06,1.81,1.14,2.41,2.85,2.19.3-.04,1.89-.88,1.36-.02-.04.06-1.05.42-1.23.45-1.98.28-3.6-.48-3.57-2.68.06-3.55,5.31-3.66,4.97.07ZM88.4,62.35c-.05-2.68-3.45-2.44-3.79,0h3.79Z" style="fill: #181818;"/>
  <path d="M101.39,62.79h-4.38c.14,2.51,2.28,2.6,4.16,1.75.34.53-.61.81-1.03.86-2.53.34-3.97-.77-3.55-3.41.46-2.94,5.51-2.42,4.81.79ZM100.81,62.35c.14-2.65-3.6-2.46-3.65,0h3.65Z" style="fill: #181818;"/>
  <path d="M102.56,60.16l.45.06.21.67c.68-.7,2.81-1.23,3.54-.55.03.02.33.58.33.62v4.45h-.58v-4.31c0-1.16-2.92-.42-3.36.29v4.01h-.58v-5.25Z" style="fill: #181818;"/>
  <path d="M77.46,64.39l1.92-3.99.56-.24-3.13,6.87-.37-.22.8-1.84-2.27-4.8c.2,0,.4-.04.59.07.2.12,1.67,3.63,1.9,4.16Z" style="fill: #181818;"/>
  <path d="M70.59,60.89c-.1.11-1.85-1.03-2.78-.08-1.32,1.36,1.38,1.58,2.02,1.79,1.72.56,1.37,2.64-.47,2.82-.63.06-2.62.07-2.34-.88.85.57,3.24,1.01,3.29-.51.06-1.78-3.33-.46-3.23-2.62.05-1.13,1.14-1.44,2.12-1.39.47.03,1.55.22,1.39.88Z" style="fill: #181818;"/>
  <path d="M95.55,60.89c-.44.03-.7-.32-1.13-.4-.95-.18-2.51.13-1.87,1.43.45.9,3.34-.08,3.15,2.27-.11,1.36-1.79,1.35-2.84,1.22-.55-.07-1.16-.23-.96-.86.87.44,2.3.92,3.07.08,1.41-1.54-1.63-1.68-2.27-1.97-1.23-.54-1.09-2.11.31-2.48.7-.19,2.54-.32,2.54.72Z" style="fill: #181818;"/>
  <path d="M72.78,58.7l.14,1.4,1.47.14c.13.44-1.18.1-1.37.24l-.22.22c.09.83-.37,3.85.42,4.21.45.21,1.31-.2,1.31.51-.57-.01-1.94.18-2.16-.54-.3-.99.18-3.06-.05-4.18-.16-.49-.98.06-.86-.53l.81-.14.06-1.32h.44Z" style="fill: #181818;"/>
  <path d="M59.79,60.16v6.2c0,.62-1.13.78-1.6.66-.1-.47.47-.24.78-.43.07-.05.24-.32.24-.38v-6.06h.58Z" style="fill: #181818;"/>
  <path d="M57.6,65.42h-.58v-7.15c.17-.06.58.06.58.22v6.93Z" style="fill: #181818;"/>
  <path d="M81.1,60.16h.44s.08.73.08.73c.3,0,1.53-1.31,2.11-.66l-1.22.53c-.14.17-.97.67-.97.78v3.87h-.44v-5.25Z" style="fill: #181818;"/>
  <rect x="70.59" y="37.25" width="2.48" height="1.31" style="fill: #181818;"/>
  <rect x="90.15" y="58.26" width=".44" height="7.15" style="fill: #181818;"/>
  <rect x="54.83" y="60.16" width=".58" height="5.25" style="fill: #181818;"/>
  <path d="M21.24,26.72c-.29.48-2.88.43-2.74-.33.17-.97,3.4-.74,2.74.33Z" style="fill: #181818;"/>
  <path d="M14.57,26.72c-.66-1.08,2.58-1.26,2.74-.33.13.76-2.45.81-2.74.33Z" style="fill: #181818;"/>
  <path d="M56.11,33.48c1.19-.15,1.4,1.43.51,1.69-1.51.45-1.89-1.52-.51-1.69Z" style="fill: #181818;"/>
  <path d="M116.97,45.31c1.1,1.16-1.85,2.36-1.72.47.05-.84,1.24-.98,1.72-.47Z" style="fill: #181818;"/>
  <path d="M52.09,46.55c-1-1,1.04-2.31,1.65-.98.45.97-1.06,1.57-1.65.98Z" style="fill: #181818;"/>
  <path d="M76.83,45.01c1.06-.16,1.49,1.27.74,1.62-1.64.76-2.06-1.41-.74-1.62Z" style="fill: #181818;"/>
  <path d="M147.62,45.01c1.26-.11,1.53,2.1-.3,1.69-.91-.2-.75-1.6.3-1.69Z" style="fill: #181818;"/>
  <path d="M124.78,46.55c-.83-.84.64-2.28,1.49-1.13.78,1.05-.88,1.75-1.49,1.13Z" style="fill: #181818;"/>
  <path d="M85.37,46.55c-.83-.84.64-2.28,1.49-1.13.78,1.05-.88,1.75-1.49,1.13Z" style="fill: #181818;"/>
  <path d="M62.09,33.47c1.28-.23,1.67,1.93-.02,1.72-1.05-.13-.87-1.57.02-1.72Z" style="fill: #181818;"/>
</svg>