<?xml version="1.0" encoding="UTF-8"?>
<svg id="Layer_1" data-name="Layer 1" xmlns="http://www.w3.org/2000/svg" viewBox="0 0 160 90">
  <path d="M68.88,33.99c.06-.1.14-.1.24-.11.88-.1,2.08.01,2.96.14l4.69,7.8c.32.48.5,1.5.82,1.91.08.1.09.14.24.11.08-.01.43-1.26.51-1.45.22-.54.5-1.03.77-1.54,1.26-2.35,2.69-4.63,4.02-6.94.09,0,.23-.03.31-.03h2.67l.11.11v17.3c-.99.04-2.06.14-3.06.07-.09,0-.36-.02-.39-.12v-9.12s.35-3.29.35-3.29l-.18-.04-1.21,3-3.77,6.31-.98.02-4.03-6.49c-.36-.78-.62-1.69-.98-2.46-.04-.09-.14-.41-.26-.37-.13.05-.06.17-.05.25.11,1.12.38,2.24.51,3.36v8.77s-.07.08-.07.08c-.87.08-1.76,0-2.64.03-.12,0-.59.16-.59-.03v-17.27Z" style="fill: #181818;"/>
  <path d="M17.3,49.99c-.94.73-2.07,1.16-3.23,1.4-2.63.56-5.98.24-8.05-1.6-.59-.52-1.8-2.1-1.96-2.85-.02-.11.03-.18.04-.28l-.14.07c-.14-.5-.3-1.01-.4-1.53-.37-1.87-.29-3.77.12-5.63l.14.07c-.13-.32.03-.62.16-.93,1.78-4.49,5.98-5.59,10.47-4.96.32.04,1.99.37,2.12.55l-.67,2.74-1.87-.47c-3.64-.39-6.38.68-6.89,4.58s.76,7.83,5.29,7.54c.71-.05,1.38-.22,1.97-.63l-.03-3.41-3.86-.38v-2.04l6.81.07v7.69Z" style="fill: #181818;"/>
  <path d="M105.73,33.95v5.86l.14.07c1.97-1.95,5.74-1.71,7.12.81,1.24,2.27,1.14,6.8-.55,8.84s-4.15,2.27-6.6,2.03c-1.09-.11-2.34-.37-3.33-.81v-16.88l3.23.07ZM107.61,41.34c-.99.12-1.63.93-1.88,1.84v5.32c.16.44,2.2.44,2.6.37,2.04-.35,2.23-3.12,2.09-4.77-.15-1.79-.83-3-2.81-2.76Z" style="fill: #181818;"/>
  <path d="M90.04,40.15c1.81-1.86,5.5-2.07,7.67-.81,3.01,1.74,3.35,7.06,1.72,9.82-1.72,2.92-6.55,3.29-9.03,1.21s-2.68-7.84-.36-10.22ZM96.16,41.91c-.81-.87-2.56-.85-3.42-.06-1.36,1.26-1.3,5.3.04,6.56.88.83,2.69.76,3.47-.18,1.07-1.28,1.04-5.1-.09-6.33Z" style="fill: #181818;"/>
  <path d="M57.44,38.94c.13.24.28,1.55.46,1.61.21.06.55-.55.72-.7,1.3-1.24,3.2-1.54,4.91-1.07s2.23,2.13,2.4,3.78v8.74s-3.23,0-3.23,0v-7.9c0-.17-.16-.78-.23-.97-.64-1.64-2.9-1.27-3.84-.08-.07.09-.49.72-.49.77v8.07l-.11.11h-3.12v-12.35h2.53Z" style="fill: #181818;"/>
  <path d="M31.86,45.88s-.05-.09-.1-.07c-.08.77.06,1.56.5,2.2.17.26.56.48.67.63.04.06,0,.17.02.19,0,0,.11-.06.21-.04.33.09.58.24.96.31,1.39.24,2.8-.1,3.99-.83l1.09,2.03c-.49.23-.95.55-1.46.75-3.59,1.38-7.92.71-8.98-3.47-1.11-4.38.38-8.82,5.42-9,4.02-.15,5.76,2.21,5.37,6.07-.04.43-.19.81-.21,1.23h-7.47ZM31.83,43.99h4.67c.17-.2.12-.67.1-.95-.06-.78-.42-1.54-1.19-1.82-1.97-.72-3.68.77-3.58,2.77Z" style="fill: #181818;"/>
  <path d="M44.6,45.88c.04,1.19.32,2.38,1.45,2.94,1.47.72,3.57.34,4.9-.55l1.09,2.03c-.54.29-1.08.62-1.67.83-5.29,1.85-9.4-.73-9.08-6.48.1-1.79.87-4.61,2.76-5.32.16-.06.3.04.33.02,0,0-.05-.11-.03-.14.08-.13,1.14-.43,1.35-.47,2.4-.46,5.43,0,6.4,2.54.57,1.47.33,3.09.14,4.6h-7.65ZM44.67,43.99h4.74c.21-.36.11-1,0-1.4-.37-1.37-1.6-1.77-2.9-1.43s-1.8,1.6-1.84,2.83Z" style="fill: #181818;"/>
  <path d="M144.27,38.94v2.67h-3.16v5.51c0,.13.13.72.17.88.38,1.34,1.95.81,2.91.49l.46,2.39c-1.47.86-4.99,1.32-6.1-.23-.26-.36-.68-1.42-.68-1.84v-7.19h-1.58s-.19-.03-.22-.07c-.05-.05.04-.09.04-.11v-2.49h1.65c.1-.06.1-.14.11-.24.04-.35-.07-2.01,0-2.13l3.22-.92v3.19l.11.11h3.05Z" style="fill: #181818;"/>
  <path d="M126.23,33.88v13.79s.09.48.1.53c.29.95,1.49.64,2.21.42l.27,2.52c-1.9.63-5.31,1.22-5.8-1.45-.2-5.15-.03-10.33-.09-15.5l.04-.17s.19-.14.21-.14h3.05Z" style="fill: #181818;"/>
  <path d="M22.42,38.94c0,.22.33,1.69.46,1.68.84-1.75,2.65-2.4,4.46-1.68l-.49,2.85c-.75-.11-1.47-.34-2.25-.07-.51.17-1.48.98-1.48,1.54v8.04h-3.23v-12.35h2.53Z" style="fill: #181818;"/>
  <rect x="130.86" y="38.87" width="3.23" height="12.42" style="fill: #181818;"/>
  <rect x="116.47" y="38.94" width="3.23" height="12.35" style="fill: #181818;"/>
  <path d="M131.8,33.71c1.41-.24,3.02.38,2.68,2.07-.13.63-.84,1.06-1.43,1.17-.71.14-1.59.08-2.16-.41-1.08-.92-.43-2.61.91-2.84Z" style="fill: #181818;"/>
  <path d="M119.74,36.38c-.91.93-3.43.88-3.73-.6-.55-2.67,3.92-2.8,4.11-.6.04.46-.04.87-.37,1.2Z" style="fill: #181818;"/>
  <path d="M154.49,39.71s0,.03-.01.04c-.46,1.99-1.25,4.04-1.68,6.02-.15.67-.18,1.37-.31,2.04h-.21c-.67-2.99-1.86-5.82-2.77-8.73l-.11-.17-3.83.02,5.3,12.38c-.14,1.37-1.22,2.77-2.71,2.14l-.54,2.59c.84.36,2.12.54,2.99.22,1.29-.47,2.16-2.26,2.66-3.44l3.4-9.72-2.18-3.38Z" style="fill: #181818;"/>
</svg>