<?xml version="1.0" encoding="UTF-8"?>
<svg id="Layer_1" data-name="Layer 1" xmlns="http://www.w3.org/2000/svg" viewBox="0 0 160 90">
  <path d="M10.62,24.07l11.85,24.23.35.18,11.89-24.41h6.23c.04.19-.05.21-.18.29-.72.45-.98.33-1.52,1.18-1.2,1.86-.74,4.49-.68,6.58.09,3.32.26,6.65.42,9.97.12,2.65-.06,6.04.46,8.57.39,1.88,1.6,2.82,3.48,3.01.02.33-.23.3-.46.32-2.59.22-7.28.2-9.87,0-.18-.01-.34.02-.46-.16l1.28-.48c2.8-1.16,2.2-4.25,2.14-6.68-.12-4.64-.34-9.28-.52-13.91-.06-1.51.07-3.43-.1-4.89-.02-.2-.06-.37-.21-.52-.28-.17-.79,1.11-.92,1.37-4.07,8.27-7.82,16.7-11.84,24.99-.97.73-1.41-.84-1.76-1.55-3.73-7.54-7.11-15.26-10.83-22.81-.13-.27-.96-2.01-1.08-2.04-.54-.13-.34,2.08-.36,2.44-.21,4.95-.38,9.89-.52,14.85-.07,2.56-.86,6.64,1.56,8.4l1.76.84-8.45.15-.06-.26c1.11-.23,2.15-.72,2.78-1.68,1.28-1.94.95-6.63,1.05-9.02.16-3.69.31-7.4.42-11.11.05-1.76.6-5.26-.62-6.64-.58-.65-1.11-.62-1.74-.96-.12-.07-.17,0-.13-.23h6.64Z" style="fill: #181818;"/>
  <path d="M93.84,23.97l22.53,23.57.24-.18.02-.19c-.3-6.06.38-12.47,0-18.49-.17-2.75-1.36-4.18-4.16-4.46-.17-.09,0-.26.05-.26h9.34c.05,0,.23.18.05.26-2.48.28-3.66,1.72-3.84,4.15v25.54s-.17.57-.17.57c-.45.07-1.29-.88-1.6-1.2-7.83-8.03-15.22-16.55-23.04-24.61-.46-.47-.94-.93-1.41-1.4l-.26.16v22.22c0,.65.47,2.01.88,2.55.81,1.06,1.75,1.12,2.91,1.45.14.04.32.01.36.21h-9.55c-.09-.32.38-.19.63-.25,2.28-.57,3.12-1.71,3.32-4.05v-22.43c-.83-1.39-1.91-2.49-3.53-2.86v-.31s7.21,0,7.21,0Z" style="fill: #181818;"/>
  <path d="M124.42,53.66c2.57-.15,3.87-1.69,4.05-4.2.51-6.86-.38-14.35-.02-21.27-.17-1.98-.87-3.12-2.77-3.77-.1-.04-1.24-.18-.85-.39.24-.14,1.8-.03,2.23-.05,4.89-.2,10.26-.45,15.16-.21,7.43.37,14.65,4.37,15.61,12.32,1.4,11.7-7.89,18.06-18.62,17.9l-14.63-.02-.17-.29ZM132.1,24.38v25.9c0,.13.34,1.15.43,1.34.58,1.27,1.75,1.63,3.05,1.72,8.07.61,15.68-1.27,17.63-10.09,1.32-5.99.25-13.72-5.53-16.96-3.8-2.13-10.7-2.37-15.01-2.03-.2.02-.38.06-.57.11Z" style="fill: #181818;"/>
  <path d="M51.38,49.55c-3.36-3.43-4.54-7.9-4-12.66,2.12-18.92,36.09-18.63,34.68,3.53-.92,14.48-21.32,18.69-30.68,9.12ZM73.69,50.69c5.66-5.67,5.34-17.79-.36-23.34-4.67-4.54-13.56-4.69-18,.25-5.32,5.91-4.87,17.94,1.09,23.31,4.59,4.13,12.87,4.19,17.28-.22Z" style="fill: #181818;"/>
  <path d="M4.85,59.57c2.85-.39,4.92,1.72,4.23,4.55s-4.56,3.53-6.34,1.35c-1.66-2.04-.61-5.52,2.1-5.89ZM3.25,65.43c1.47,1.47,4.4,1.11,5.24-.86,1.16-2.71-.96-5.16-3.83-4.56-2.33.48-3.03,3.8-1.41,5.42Z" style="fill: #181818;"/>
  <path d="M53.12,59.57c2.83-.38,4.86,1.64,4.26,4.46-.7,3.25-5.49,3.66-6.8.72-.94-2.11.12-4.86,2.54-5.19ZM53.02,59.99c-3.42.58-3.27,6.85,1.42,6.3,2.91-.34,3.59-4.43,1.17-5.93-.69-.43-1.81-.5-2.59-.37Z" style="fill: #181818;"/>
  <polygon points="87.97 59.68 93.27 65.71 93.27 59.68 93.68 59.68 93.68 66.74 88.39 60.83 88.39 66.64 87.97 66.64 87.97 59.68" style="fill: #181818;"/>
  <path d="M133.66,63.32c.14,3.98-6.01,4.72-7.03,1.06-1.18-4.21,3.71-6.52,6.4-3.4l-.41.26c-1.36-2.11-4.99-1.54-5.66.93-1.24,4.54,5.56,5.91,6.28,1.45h-2.28v-.42c.04-.05.13.1.16.1h2.54Z" style="fill: #181818;"/>
  <polygon points="157.74 65.6 157.74 59.68 158.05 59.68 158.05 66.64 152.86 60.83 152.86 66.64 152.45 66.64 152.45 59.68 157.74 65.6" style="fill: #181818;"/>
  <polygon points="101.78 59.68 101.78 62.59 105.62 62.59 105.62 59.68 106.04 59.68 106.04 66.64 105.62 66.64 105.62 63.01 101.78 63.01 101.78 66.64 101.37 66.64 101.37 59.68 101.78 59.68" style="fill: #181818;"/>
  <path d="M144.76,59.68c.04.12-.05.42-.16.42h-2.86v2.49h3.01v.42h-3.01v3.22h3.01v.42h-3.43v-6.96h3.43Z" style="fill: #181818;"/>
  <path d="M119.43,66.64h-.4s-.73-2.01-.73-2.01l-3.23-.02c-.14.09-.53,1.57-.73,1.86-.13.18-.18.19-.4.17l2.7-7.16,2.8,7.16ZM118.08,64.15l-1.4-3.63-1.4,3.63h2.8Z" style="fill: #181818;"/>
  <path d="M43.54,60.72c-.3-.05-.49-.29-.78-.42-2.92-1.26-5.72.98-4.7,4.07.73,2.2,3.8,2.52,5.42,1.12.27.51-.79,1-1.17,1.11-2.09.62-4.57-.52-4.8-2.83-.27-2.73,1.36-4.44,4.1-4.21.63.05,2,.33,1.92,1.15Z" style="fill: #181818;"/>
  <polygon points="80.29 59.68 80.29 60.1 77.38 60.1 77.38 62.59 80.29 62.59 80.29 63.01 77.38 63.01 77.38 66.22 80.29 66.22 80.29 66.64 76.97 66.64 76.97 59.68 80.29 59.68" style="fill: #181818;"/>
  <path d="M65.82,66.61h-.31c-.07-.17,0-.34,0-.47v-6.49h2.23s.49.21.57.26c1.01.66,1.01,2.24,0,2.9-.08.05-.52.26-.57.26h-1.77l-.16.16v3.37ZM65.82,60.07v2.54c.27.25.91.18,1.28.14,1.13-.12,1.85-.74,1.47-1.97-.07-.23-.66-.72-.84-.72h-1.92Z" style="fill: #181818;"/>
  <path d="M20.28,59.68c.04.12-.05.42-.16.42h-2.54v2.49h2.7v.42h-2.7v3.63h-.42v-6.96h3.11Z" style="fill: #181818;"/>
</svg>