<?xml version="1.0" encoding="UTF-8"?>
<svg id="Layer_1" data-name="Layer 1" xmlns="http://www.w3.org/2000/svg" viewBox="0 0 160 90">
  <path d="M15.31,25.49l11.05,22.6.33.16,11.08-22.76h5.81c.03.18-.05.19-.17.27-.67.42-.91.31-1.42,1.1-1.12,1.73-.69,4.19-.63,6.14.09,3.1.24,6.2.39,9.29.11,2.47-.06,5.63.43,7.99.36,1.76,1.49,2.63,3.25,2.8.02.31-.21.28-.43.3-2.41.2-6.79.19-9.21,0-.17-.01-.32.02-.43-.15l1.2-.45c2.61-1.08,2.05-3.96,1.99-6.23-.11-4.33-.32-8.66-.48-12.97-.05-1.41.07-3.2-.09-4.56-.02-.19-.06-.35-.19-.49-.26-.15-.74,1.04-.86,1.28-3.79,7.71-7.29,15.57-11.05,23.3-.9.68-1.31-.79-1.64-1.45-3.48-7.03-6.63-14.23-10.1-21.27-.12-.25-.9-1.88-1-1.9-.5-.12-.32,1.94-.33,2.28-.2,4.61-.35,9.22-.48,13.84-.07,2.39-.8,6.19,1.45,7.83l1.64.78-7.88.14-.06-.24c1.03-.21,2-.67,2.6-1.57,1.19-1.81.89-6.18.98-8.41.15-3.44.29-6.9.39-10.36.04-1.64.56-4.91-.58-6.19-.54-.61-1.04-.58-1.62-.9-.11-.06-.16,0-.12-.22h6.2Z" style="fill: #181818;"/>
  <path d="M92.9,25.39l21.01,21.98.23-.16.02-.17c-.28-5.65.35-11.63,0-17.24-.16-2.56-1.27-3.9-3.88-4.16-.16-.09,0-.24.05-.24h8.71s.21.17.05.24c-2.31.26-3.41,1.6-3.58,3.87v23.82s-.16.53-.16.53c-.42.07-1.2-.82-1.49-1.12-7.31-7.49-14.2-15.44-21.49-22.95-.43-.44-.88-.86-1.31-1.3l-.24.14v20.72c0,.61.44,1.88.82,2.37.76.99,1.63,1.04,2.72,1.35.13.04.3.01.33.2h-8.91c-.08-.3.35-.18.59-.24,2.13-.53,2.91-1.6,3.1-3.78v-20.91c-.77-1.29-1.78-2.32-3.29-2.67v-.29s6.73,0,6.73,0Z" style="fill: #181818;"/>
  <path d="M121.42,53.08c2.4-.14,3.61-1.58,3.78-3.92.47-6.4-.35-13.38-.02-19.84-.16-1.84-.81-2.91-2.58-3.52-.1-.03-1.15-.17-.8-.37.23-.13,1.68-.03,2.08-.05,4.56-.18,9.57-.42,14.14-.2,6.93.34,13.66,4.07,14.55,11.49,1.31,10.91-7.36,16.84-17.36,16.69l-13.64-.02-.16-.27ZM128.58,25.78v24.16c0,.12.32,1.07.4,1.25.54,1.18,1.63,1.52,2.85,1.61,7.52.57,14.62-1.19,16.44-9.41,1.24-5.58.23-12.79-5.16-15.81-3.54-1.98-9.98-2.21-14-1.89-.19.01-.35.06-.53.1Z" style="fill: #181818;"/>
  <path d="M53.32,49.24c-3.13-3.2-4.23-7.37-3.73-11.8,1.97-17.64,33.66-17.37,32.34,3.29-.86,13.5-19.88,17.43-28.6,8.51ZM74.11,50.31c5.28-5.28,4.98-16.59-.34-21.76-4.35-4.23-12.65-4.37-16.79.23-4.96,5.51-4.54,16.73,1.02,21.74,4.28,3.85,12,3.91,16.11-.2Z" style="fill: #181818;"/>
  <path d="M9.92,58.59c2.66-.36,4.59,1.6,3.95,4.24s-4.25,3.29-5.91,1.26c-1.55-1.9-.57-5.15,1.96-5.49ZM8.43,64.05c1.37,1.37,4.1,1.03,4.89-.8,1.08-2.52-.89-4.81-3.57-4.25-2.17.45-2.82,3.55-1.32,5.05Z" style="fill: #181818;"/>
  <path d="M54.94,58.59c2.64-.36,4.54,1.53,3.97,4.16-.65,3.03-5.12,3.41-6.34.68-.87-1.96.11-4.53,2.37-4.84ZM54.84,58.97c-3.19.54-3.05,6.39,1.32,5.87,2.71-.32,3.35-4.13,1.09-5.53-.64-.4-1.69-.47-2.42-.35Z" style="fill: #181818;"/>
  <polygon points="87.43 58.69 92.37 64.31 92.37 58.69 92.76 58.69 92.76 65.28 87.82 59.76 87.82 65.18 87.43 65.18 87.43 58.69" style="fill: #181818;"/>
  <path d="M130.03,62.08c.13,3.72-5.6,4.4-6.55.99-1.1-3.93,3.46-6.08,5.97-3.17l-.38.24c-1.27-1.97-4.65-1.44-5.28.87-1.15,4.23,5.18,5.51,5.86,1.36h-2.13v-.39s.12.1.15.1h2.37Z" style="fill: #181818;"/>
  <polygon points="152.49 64.21 152.49 58.69 152.78 58.69 152.78 65.18 147.94 59.76 147.94 65.18 147.56 65.18 147.56 58.69 152.49 64.21" style="fill: #181818;"/>
  <polygon points="100.31 58.69 100.31 61.4 103.89 61.4 103.89 58.69 104.28 58.69 104.28 65.18 103.89 65.18 103.89 61.79 100.31 61.79 100.31 65.18 99.92 65.18 99.92 58.69 100.31 58.69" style="fill: #181818;"/>
  <path d="M140.39,58.69c.04.11-.04.39-.15.39h-2.66v2.32h2.81v.39h-2.81v3h2.81v.39h-3.19v-6.49h3.19Z" style="fill: #181818;"/>
  <path d="M116.77,65.18h-.37s-.68-1.88-.68-1.88l-3.02-.02c-.13.09-.49,1.46-.68,1.74-.12.17-.17.18-.38.16l2.52-6.68,2.61,6.68ZM115.51,62.86l-1.31-3.39-1.31,3.39h2.61Z" style="fill: #181818;"/>
  <path d="M46,59.66c-.28-.05-.46-.27-.72-.39-2.73-1.18-5.33.91-4.38,3.8.68,2.05,3.54,2.35,5.06,1.04.25.48-.74.93-1.09,1.04-1.95.58-4.26-.49-4.47-2.64-.25-2.55,1.27-4.14,3.83-3.92.59.05,1.86.31,1.79,1.07Z" style="fill: #181818;"/>
  <polygon points="80.27 58.69 80.27 59.08 77.56 59.08 77.56 61.4 80.27 61.4 80.27 61.79 77.56 61.79 77.56 64.79 80.27 64.79 80.27 65.18 77.17 65.18 77.17 58.69 80.27 58.69" style="fill: #181818;"/>
  <path d="M66.77,65.15h-.29c-.06-.15,0-.31,0-.44v-6.05h2.08s.45.2.53.25c.94.61.94,2.09,0,2.7-.08.05-.49.25-.53.25h-1.65l-.15.15v3.15ZM66.77,59.05v2.37c.25.23.85.17,1.2.13,1.06-.11,1.72-.69,1.37-1.83-.06-.21-.61-.67-.78-.67h-1.79Z" style="fill: #181818;"/>
  <path d="M24.31,58.69c.04.11-.04.39-.15.39h-2.37v2.32h2.52v.39h-2.52v3.39h-.39v-6.49h2.9Z" style="fill: #181818;"/>
</svg>