<?xml version="1.0" encoding="UTF-8"?>
<svg id="Layer_1" data-name="Layer 1" xmlns="http://www.w3.org/2000/svg" viewBox="0 0 160 90">
  <path d="M31.23,56.7v-18.37c0-.59-1.18-3.03-1.68-3.54-3.01-3.04-9.54-.6-9.54,3.54v18.37h-8.7l-.58-.58v-30.16l.58-.58h8.12c.75,0,.72,2.12.19,2.7,1.43-.52,2.19-1.64,3.73-2.27,3-1.23,8.41-1.31,11.32.18,3.59,1.85,5.84,6.45,5.84,10.4v19.72l-.58.58h-8.7Z" style="fill: #181818;"/>
  <path d="M66.42,26.34l.46-.87c.32.1.67-.1.89-.1h5.99v31.32h-6.38c-1.01-.83-.47-2.31-.58-3.48-4.03,4.89-13.76,5.56-18.17.96-1.05-1.09-3.1-4.78-3.1-6.18v-22.04c1.82-1.04,5.55-.8,7.35,0v18.95c0,.11.57,1.71.7,2.01,2.09,4.73,9.11,4.72,11.85.49.2-.3.98-1.95.98-2.11v-18.95Z" style="fill: #181818;"/>
  <path d="M83.82,52.83v15.66c-1.01,1.15-2.74.37-4.08.44l-.56-.82.36-42.57h3.92s.37,4.09.37,4.09c7.81-7.48,20.67-5.88,25.72,3.86,7.28,14.04-7.54,29.13-21.61,21.99-1.56-.79-2.58-2.01-4.12-2.65ZM93,29.72c-13.88,2.35-11.56,25.4,4.84,22.63,13.54-2.29,11-25.32-4.84-22.63Z" style="fill: #181818;"/>
  <path d="M118.76,52.31c-7.18-7.39-5.26-19.92,3.47-25.07,13.62-8.03,29.09,5.69,23.02,20.31-4.41,10.6-18.55,12.92-26.49,4.75ZM127.81,28.18c-15.12,2.36-13.02,26.92,3.37,26.21,17.51-.76,16.12-29.26-3.37-26.21Z" style="fill: #181818;"/>
  <path d="M144.92,29.24c1.78,1.78,5.2-1.24,3.09-3.28-2.27-2.19-4.61,1.76-3.09,3.28-3.01-2.59,1.55-5.93,3.66-3.47s-.77,5.96-3.66,3.47Z" style="fill: #181818;"/>
  <path d="M147.6,26.18l.03,2.67c-1.12.36-.56-.69-.97-.77-1.03-.21-.19.88-.96.78v-2.71s1.9.03,1.9.03Z" style="fill: #181818;"/>
</svg>