<svg width="117" height="53" viewBox="0 0 117 53" fill="none" xmlns="http://www.w3.org/2000/svg">
<g clip-path="url(#clip0_825_6328)">
<path d="M22.855 14.1436L26.3423 14.2964L26.8181 17.2731C41.6947 20.7777 35.6579 42.1877 21.1947 37.7105C10.7711 34.4837 11.8061 19.0445 22.7056 17.2696L22.855 14.1436ZM22.855 27.2591V21.0487C15.6651 23.3689 16.8148 34.1781 24.7584 34.1781C32.5423 34.1781 33.5739 23.5321 26.6618 21.0487V27.2591H22.8515H22.855Z" fill="#181818"/>
<path d="M102.159 17.5957V37.9532C100.86 37.6962 98.62 38.641 98.1858 37.262C94.445 39.7941 88.6444 37.071 87.7691 32.7987C86.3659 25.9353 92.0657 21.7499 98.3525 24.1535V17.5992H102.163L102.159 17.5957ZM98.2935 33.7574L98.1823 27.9429C89.287 23.2261 89.2939 38.2971 98.2935 33.7574Z" fill="#181818"/>
<path d="M75.4942 32.0868C77.0503 35.6644 80.1832 35.1573 82.889 33.1566C87.6128 35.8207 81.7324 38.3563 78.8356 38.2695C66.9774 37.9152 70.9197 19.1137 81.9582 24.0911C84.6604 25.3103 86.8522 29.4748 85.3621 32.0868H75.4907H75.4942ZM82.0762 29.329C81.1662 25.8799 76.4459 25.7027 75.8415 29.329H82.0762Z" fill="#181818"/>
<path d="M57.1303 27.943C56.3974 28.0159 56.0536 27.2796 55.4179 27.0781C54.5808 26.8141 51.823 26.3452 52.0244 27.7832C52.2259 29.2212 58.2835 28.7801 58.8531 32.2812C59.9542 39.037 51.6806 39.4816 47.9432 35.8832C47.5646 35.1364 49.3881 33.8616 49.7042 33.1253C50.6559 34.1604 54.883 35.9075 55.3658 33.9485C55.8486 31.9895 50.1801 32.4237 48.8115 29.8672C46.1857 24.9559 52.8198 21.8715 57.1546 24.3133C59.6798 25.7374 57.8458 26.0222 57.1268 27.9465L57.1303 27.943Z" fill="#181818"/>
<path d="M66.1472 19.3193V23.807H69.9541L68.9364 27.1032L66.1437 27.2526C66.1993 30.528 65.0983 36.4397 70.2979 34.1542L70.9683 37.044C69.2941 38.4785 66.1646 38.2632 64.4418 37.0649C61.3922 34.9392 62.5592 30.4515 62.3404 27.2526C59.2942 27.711 59.8986 26.1445 59.9125 23.8035H62.3404L62.3369 19.3193H66.1507H66.1472Z" fill="#181818"/>
<path d="M37.7488 23.8061H41.5591V25.1851C43.1569 24.2785 44.8519 23.5595 46.7519 23.8027V27.6025C45.7203 27.1024 41.5557 28.4778 41.5557 29.499V37.9532H37.7454V23.8061H37.7488Z" fill="#181818"/>
</g>
<defs>
<clipPath id="clip0_825_6328">
<rect width="116.706" height="52.1008" fill="white"/>
</clipPath>
</defs>
</svg>
