<?xml version="1.0" encoding="UTF-8"?>
<svg id="Layer_1" data-name="Layer 1" xmlns="http://www.w3.org/2000/svg" viewBox="0 0 160 90">
  <g id="zIVxSo">
    <g>
      <path d="M23.88,25.72l5.56.24.76,4.75c23.72,5.59,14.1,39.74-8.97,32.6-16.62-5.15-14.97-29.77,2.41-32.6l.24-4.99ZM23.88,46.63v-9.91c-11.47,3.7-9.64,20.94,3.04,20.94,12.42,0,14.06-16.98,3.04-20.94v9.91h-6.08Z" style="fill: #181818;"/>
      <path d="M150.36,31.22v32.47c-2.07-.41-5.65,1.09-6.34-1.1-5.97,4.04-15.22-.3-16.61-7.12-2.24-10.94,6.85-17.62,16.88-13.79v-10.46h6.08ZM144.19,57l-.18-9.27c-14.19-7.52-14.17,16.51.18,9.27Z" style="fill: #181818;"/>
      <path d="M107.83,54.34c2.48,5.7,7.48,4.9,11.8,1.71,7.53,4.25-1.85,8.29-6.47,8.16-18.91-.56-12.62-30.55,4.98-22.62,4.31,1.94,7.81,8.58,5.43,12.75h-15.74ZM118.33,49.93c-1.45-5.5-8.98-5.78-9.94,0h9.94Z" style="fill: #181818;"/>
      <path d="M78.54,47.72c-1.17.12-1.72-1.06-2.73-1.38-1.33-.42-5.73-1.17-5.41,1.12s9.98,1.59,10.89,7.17c1.76,10.78-11.44,11.49-17.4,5.75-.61-1.19,2.31-3.22,2.81-4.4,1.52,1.65,8.26,4.44,9.03,1.31.78-3.15-8.27-2.43-10.45-6.51-4.19-7.83,6.39-12.75,13.3-8.86,4.03,2.27,1.1,2.72-.04,5.8Z" style="fill: #181818;"/>
      <path d="M92.92,33.97v7.16s6.07,0,6.07,0l-1.62,5.26-4.45.24c.09,5.23-1.67,14.65,6.62,11l1.07,4.61c-2.67,2.29-7.66,1.95-10.41.03-4.86-3.39-3-10.55-3.35-15.65-4.86.73-3.89-1.77-3.87-5.5h3.87s0-7.15,0-7.15h6.08Z" style="fill: #181818;"/>
      <path d="M47.63,41.13h6.08s0,2.2,0,2.2c2.55-1.45,5.25-2.6,8.28-2.2v6.06c-1.64-.8-8.29,1.4-8.29,3.02v13.48h-6.08v-22.56Z" style="fill: #181818;"/>
    </g>
  </g>
</svg>