<?xml version="1.0" encoding="UTF-8"?>
<svg id="Layer_1" data-name="Layer 1" xmlns="http://www.w3.org/2000/svg" viewBox="0 0 160 90">
  <path d="M46.57,33.87c-3.39-1.42-7.9-3.2-11.64-2.77-2.77.32-4.07,2.69-2.5,5.1,2.38,3.65,11.03,6.11,15.14,7.29.87.25,1.76.51,2.66.63.75,14.67-15.09,24.74-28.15,17.65-2.51-1.36-6.65-5.05-7.98-7.56-.16-.3-.66-1.15-.02-1.16.8-.01,7.19,5.29,8.88,6.08,4.4,2.04,1.34-3.02,1.79-4.51.38-1.28,3.61.5,4.32.9,1.27.7,7.49,5.18,8.19,5.14.79-.04,2.9-2.8,3.32-3.55,2.95-5.26-.02-9.79-4.58-12.61-6.69-4.13-14.43-3.39-21.35-.26-.36.17-2.4,1.34-2.54,1.2-.27-6.77,3.44-13.47,9.26-16.9,6.97-4.11,16.15-3.42,22.27,1.88.4.34,3.21,3.1,2.93,3.44Z" style="fill: #181818;"/>
  <path d="M89.1,58.77l1.32-12.45h2.92s2.29,8.2,2.29,8.2l2.44-8.18.19-.04c.51.12,2.54-.23,2.7.25l1.19,12.21h-2.57l-.81-8.06-.29.22-2.16,7.51c-.22.52-1.03.36-1.5.26l-2.42-7.99-1.03,8.06h-2.27Z" style="fill: #181818;"/>
  <path d="M80.23,46.32l4.47,7.32v-7.32h2.49v12.45h-2.27l-4.91-8.06c-.08.48.13.92.15,1.39.07,1.68.19,4.57,0,6.17-.03.21-.02.38-.23.51h-2.27v-12.45h2.57Z" style="fill: #181818;"/>
  <path d="M57.38,46.21c5.31-.76,7.75,2.09,7.38,7.22-.18,2.55-1.53,5.2-4.33,5.49-.81.08-4.61.08-4.88-.83l-.02-10.95c.1-.52,1.38-.85,1.86-.92ZM58.45,56.87c2.68.69,3.26-1.42,3.38-3.58.13-2.44-.04-5.81-3.38-5.21v8.79Z" style="fill: #181818;"/>
  <path d="M124.44,58.77h-3.23l-2.93-5.27v5.27h-2.93v-11.79c0-.83,4.65-.88,5.34-.79,1.43.19,3.09,1.35,3.3,2.86.17,1.27.01,2.51-1.01,3.36-.41.34-1.61.68-1.62,1.02l3.08,5.35ZM118.28,48.01v4.39c.77.6,2.26,0,2.67-.85s.37-2.74-.33-3.39c-.43-.39-2.2-.61-2.34-.15Z" style="fill: #181818;"/>
  <path d="M85.87,44.13h-3.01l-3.15-5.42v5.42h-2.71l-.08-11.92c2.46-1.14,8.11-1.26,8.52,2.33.2,1.76-.25,2.93-1.85,3.72-.32.16-.7.1-.94.38l3.23,5.49ZM79.71,37.98c2.34.26,3.16-.95,2.94-3.16-.16-1.66-1.58-2.08-2.94-1.46v4.61Z" style="fill: #181818;"/>
  <polygon points="129.14 51.74 132.22 46.32 135.15 46.32 131.81 52.09 135.44 58.77 132.29 58.77 129.14 52.77 129.14 58.55 128.92 58.77 126.2 58.77 126.2 46.32 128.92 46.32 129.14 46.54 129.14 51.74" style="fill: #181818;"/>
  <path d="M129.87,32.12c2.64-.9,7.78-1.28,8.49,2.29.38,1.93-.56,3.8-2.62,4.01v.36s3.08,5.35,3.08,5.35h-3.01l-2.74-5.03-.42-.24v5.27h-2.79v-12.01ZM132.66,33.36v4.39c.9.59,2.33.08,2.76-.91.93-2.14-.23-4.59-2.76-3.48Z" style="fill: #181818;"/>
  <path d="M122.06,31.57c4.88-.59,6.03,3.98,5.59,7.93-.38,3.38-2.88,5.54-6.32,4.59-4.61-1.28-4.63-11.86.73-12.51ZM122.35,33.47c-1.53.35-1.52,4.38-1.42,5.61s.5,3.28,2.12,3.16c.8-.06,1.29-.88,1.5-1.59.32-1.11.32-4.65-.03-5.74s-.98-1.71-2.17-1.43Z" style="fill: #181818;"/>
  <path d="M103.18,58.77l3.88-12.31,2.92-.15,4.05,12.46h-2.86c-.57-.49-.48-2.01-.88-2.49-.25-.3-3.15-.13-3.74-.07l-.95,2.57h-2.42ZM109.78,54.38l-1.39-5.27-1.39,5.27h2.79Z" style="fill: #181818;"/>
  <path d="M67.98,58.77h-2.64l4.03-12.3c.2-.24,2.74-.23,2.93,0l3.97,12.01-.16.3h-2.64l-.94-2.57c-.14-.1-2.94-.12-3.32-.07-.87.1-.91,1.95-1.24,2.64ZM72.09,54.38l-1.39-5.27-1.39,5.27h2.79Z" style="fill: #181818;"/>
  <path d="M64.61,44.13l3.97-12.44,2.83-.02,3.99,12.16-.16.3h-2.71l-.72-2.55-3.96-.07-.75,2.62h-2.49ZM68.42,39.88h2.71s.26-.22.2-.34c-.59-1.45-.76-3.17-1.25-4.62-.06-.19-.1-.43-.34-.47l-1.32,5.42Z" style="fill: #181818;"/>
  <path d="M97.46,44.13h-2.86l-.83-2.62-3.96.07-.72,2.55h-2.49l4.17-12.46c.62.13,2.37-.25,2.71.24l3.97,12.22ZM90.42,39.88h2.71c.14-.11.17-.12.16-.3-.05-1.38-1.3-3.58-1.27-5.12-.2.04-.3.26-.37.44-.19.55-1.43,4.8-1.25,4.98Z" style="fill: #181818;"/>
  <path d="M110.8,39.44v4.47l-.22.22h-2.71v-11.79c1.66-1,4.73-1.12,6.5-.34,3.04,1.32,2.74,6.1-.39,7.19-.15.05-.84.26-.91.26h-2.27ZM110.8,37.83c1.73.11,2.83-.22,2.94-2.12.12-2.24-.78-2.79-2.94-2.57v4.69Z" style="fill: #181818;"/>
  <path d="M58.3,44.13h-2.57l-.22-.22v-11.57c1.71-1.04,5.16-1.17,6.9-.15,2.18,1.28,2.28,4.98.28,6.44-.34.25-1.6.82-1.97.82h-2.2l-.22.22v4.47ZM58.47,33.16c-.3.19-.16,3.91-.1,4.53,2.19.56,3.21-.58,3.01-2.72-.17-1.87-1.27-1.98-2.91-1.81Z" style="fill: #181818;"/>
  <path d="M105.38,32.12l-.58,1.69c-.8-.21-1.52-.54-2.39-.34-1.1.25-1.3,1.76-.55,2.54,1.26,1.31,3.61,1.09,3.95,3.67.59,4.44-3.98,5.51-7.31,4l.57-1.83c.31-.23,2.44,1.03,3.45-.21,1.67-2.05-1.97-2.83-2.92-3.8-1.52-1.54-1.2-4.5.61-5.69,1.53-1,3.59-.68,5.18-.02Z" style="fill: #181818;"/>
  <path d="M147.91,31.68v1.9c-.14.14-1.93-.25-2.2.22v10.33h-2.79v-10.33c-.27-.47-2.06-.08-2.2-.22v-1.9h7.19Z" style="fill: #181818;"/>
  <path d="M47.7,34.5c2.63-.48,2.88,3.22.52,3.45-1.92.19-2.65-3.06-.52-3.45Z" style="fill: #181818;"/>
</svg>