<svg width="48" height="48" viewBox="0 0 48 48" fill="none" xmlns="http://www.w3.org/2000/svg">
<g clip-path="url(#clip0_452_3028)">
<path d="M24 0C28.3492 6.58184e-07 31.8877 6.94126 31.9973 15.5869L32.0001 15.9999L32.4131 16.0027C41.0587 16.1123 48 19.6508 48 24C48 28.4183 40.8366 32.0001 32.0001 32.0001C31.9288 32.0001 31.8574 31.999 31.7863 31.9985L31.7866 32.0001C31.7866 40.8366 28.2048 48 23.7865 48C19.3683 47.9998 15.7868 40.8365 15.7867 32.0001V31.9985C7.04848 31.9414 6.63291e-07 28.3827 0 24C0 19.5817 7.16339 15.9999 15.9999 15.9999L16.0027 15.5869C16.1123 6.94126 19.6508 0 24 0Z" fill="url(#paint0_linear_452_3028)"/>
</g>
<defs>
<linearGradient id="paint0_linear_452_3028" x1="7.2" y1="33.6" x2="40.32" y2="24" gradientUnits="userSpaceOnUse">
<stop offset="0.3" stop-color="#E33C54"/>
<stop offset="1" stop-color="#181818"/>
</linearGradient>
<clipPath id="clip0_452_3028">
<rect width="48" height="48" fill="white"/>
</clipPath>
</defs>
</svg>
