<?xml version="1.0" encoding="UTF-8"?>
<svg id="Layer_1" data-name="Layer 1" xmlns="http://www.w3.org/2000/svg" viewBox="0 0 160 90">
  <path d="M26.1,43.05l-3.62.19-.28-2.45c4.05-.85,7.89-3.04,12.12-2.66l-.33,2.96c2.13-.73,3.96-2.39,6.23-2.81,12.63-2.33,15.66,18.34,3.85,23.24-.43.18-2.45.93-2.69.93h-7.39c.58,2.27.45,5.07.08,7.41.17.9,5.84.28,3.88,3.29l-14.92.1-.49-.49v-1.72s3.57-1.19,3.57-1.19v-26.78ZM33.98,59.48c5.02.63,8.35-1.61,8.87-6.74.61-6.06-1.46-10.76-8.32-9.3l-.47.42-.08,15.62Z" style="fill: #181818;"/>
  <path d="M72.1,62.44v-14.46l-8.87,14.46h-6.24v-19.06l-4.88-.7c-.1-.6-.23-1.72.27-2.1.33-.25,7.27-1.93,8.14-2.04,1.23-.16,2.46-.06,3.69-.08v15.44l9.2-15.44h5.91v18.07l5.83-7.8.24-9.62c4.62-3.15,9.2.49,6.8,5.81-.31.68-.99,1.52-1.43,2.18-3.5,5.27-8.29,10.12-11.93,15.34h-6.74Z" style="fill: #181818;"/>
  <path d="M107.91,40.75c-7.47.48-7.68,13.44-2.41,16.7,3.68,2.28,7.58.12,10.95-1.59v4.6c-7.69,3.53-19.2,4.54-22.6-5.17-3.82-10.89,5.85-19.42,16.44-17.09,9.71,2.14,6.53,13.64-2.38,8.62v-6.08Z" style="fill: #181818;"/>
  <polygon points="107.91 23.99 103.48 31.22 78.01 31.22 82.28 23.99 107.91 23.99" style="fill: #181818;"/>
  <polygon points="137.81 16.77 133.87 23.99 108.24 23.99 112.68 16.77 137.81 16.77" style="fill: #181818;"/>
</svg>