<?xml version="1.0" encoding="UTF-8"?>
<svg id="Layer_1" data-name="Layer 1" xmlns="http://www.w3.org/2000/svg" viewBox="0 0 160 90">
  <path d="M32.9,36.64c0-.53.03-1.06-.04-1.59-.56-4.03-3.71-5.26-5.38-8.52-3.34-6.54,2.57-11.65,8.96-8.96,1.83.77,4.08,3.23,6.21,2.37.62-.25.74-1.15.83-1.18l1.95.03c1.72,3.19,5.06-.33,7.19-1.22,5.87-2.47,11.78,1.74,9.29,8.15-1.53,3.92-6.09,6.12-5.81,10.79l-2.07.13c-.14-1.87.38-3.69,1.31-5.29,1.72-2.97,6.1-5.87,4.8-9.82-.7-2.13-2.82-2.82-4.9-2.62-2.86.29-5.02,3.48-8.09,3.27-.6-.04-1.09-.4-1.63-.57v2.91c0,.4.86.49,1.19.66,1.14.58,1.79,1.69,1.95,2.94,3.74-.08,5.01,4.86,1.87,6.66-1.08.62-2.72.32-2.9,1.85l-1.98-.05c-.4-.25.5-1.91.78-2.21,1.08-1.11,3.45-.88,3.73-2.37.37-1.92-2.18-2.14-3.52-1.88.16-1.52-.17-3.49-2.06-3.55-2.09-.07-2.38,1.9-2.19,3.55-1.31-.14-3.62-.26-3.56,1.63.05,1.53,1.74,1.44,2.76,1.93,1.12.53,1.87,1.71,1.79,2.96h-1.99c-.13-1.46-1.57-1.24-2.61-1.72-3.53-1.63-2.32-6.87,1.6-6.8.06-1.88,1.38-2.86,2.99-3.46v-2.91c-3.64,1.83-6.36-2.51-9.58-2.84-3.54-.36-6.05,2.03-4.9,5.61.91,2.85,3.79,4.5,5.09,7.1.76,1.52,1.04,3.32,1.01,5.01h-2.13Z" style="fill: #181818;"/>
  <path d="M41.28,84.86h-2.91c-1.48-2.05-2.44-4.48-4.11-6.38h-2.91v6.38h-2.7v-16.88h7.31c1.97,0,4.19,1.89,4.55,3.82.54,2.93-.44,5.44-3.34,6.46l4.11,6.59ZM31.34,76.35h3.62c.24,0,1.21-.24,1.49-.36,1.99-.79,2.12-3.99.5-5.18-.41-.3-1.51-.71-1.99-.71h-3.62v6.24Z" style="fill: #181818;"/>
  <path d="M96.04,67.98v9.36l.5-.14,4.68-4.97h3.05l-5.06,5.46,5.35,7.16h-3.05l-3.96-5.26c-.32-.57-1.5.7-1.5.79v4.47h-2.55v-16.88h2.55Z" style="fill: #181818;"/>
  <path d="M133.36,81.31c-.7,2.98-3.45,4.09-6.31,3.83-7.43-.67-7.09-14.23,1.95-13.01,2.06.28,4.51,2.56,4.51,4.71v2.48h-9.08c-.43,3.65,4.88,5.43,6.38,1.99h2.55ZM131.09,77.48c.03-3.32-4-4.65-6.03-1.99-.24.31-1.07,1.99-.42,1.99h6.46Z" style="fill: #181818;"/>
  <path d="M82.56,84.86h-2.41c-.08-.26.21-1.21-.21-1.14-1.46,1.21-2.87,1.66-4.79,1.38-1.31-.19-2.87-1.37-3.08-2.74-.71-4.74,4.22-4.67,7.51-5.38.91-.31.43-1.61,0-2.13-1.08-1.3-4.46-1.05-4.68.92h-2.55c.49-4.15,7.51-4.99,9.56-1.83.17.27.65,1.23.65,1.48v9.43ZM79.83,78.79c-1.19.39-4.99.6-5.32,2.06-.47,2.04,1.76,2.77,3.37,2.24,1.7-.56,2.52-2.49,2.21-4.19l-.26-.11Z" style="fill: #181818;"/>
  <path d="M70.36,75.78h-2.41c-.26-2.88-6.29-1.92-4.61.7.98,1.52,6.58.68,7.13,3.94,1.03,6.1-9.75,6.35-10.47.75h2.48c.64,1.87,3.18,2.58,4.8,1.54.97-.63.92-2-.09-2.56-1.96-1.07-5.65-.38-6.48-3.31-1.63-5.79,9.16-6.58,9.64-1.05Z" style="fill: #181818;"/>
  <path d="M58.73,72.24v1.99h-1.28c-.09.08.84,1.3.95,1.53,1.6,3.35-.89,6.95-4.43,7.26-3.98.35-6.96-2.02-6.59-6.16.19-2.16,2.38-4.61,4.61-4.61h6.74ZM52.74,74.26c-3.9.41-3.59,6.15-.46,6.62,5.66.84,5.36-7.14.46-6.62Z" style="fill: #181818;"/>
  <path d="M60.29,37.92v1.99h-31.64c.09-.63-.22-1.49.21-1.99h31.43Z" style="fill: #181818;"/>
  <path d="M60.29,48.69v1.99h-31.64c.09-.63-.22-1.49.21-1.99h31.43Z" style="fill: #181818;"/>
  <polygon points="112.5 72.24 115.7 81.74 119.1 72.24 121.58 72.24 117.17 84.84 114.55 84.87 109.81 72.24 112.5 72.24" style="fill: #181818;"/>
  <path d="M67.24,31.96c-3.2-.17-6.85.91-6.95,4.68-.41-.08-1.99.21-2.12-.23-.05-.18.26-1.59.35-1.89.9-2.93,4.13-4.4,7-4.57.52-2.15,3.02-3.76,2.85-6.13-.18-2.55-2.82-3.21-4.94-2.8l-.72-1.97c.93-.02,1.82-.21,2.76-.14,3.72.28,5.67,3.31,4.75,6.87-.56,2.16-2.95,3.78-2.97,6.18Z" style="fill: #181818;"/>
  <path d="M26.24,19.05l-.7,1.92c-1.29-.07-3.07-.18-4.06.91-2.47,2.71,1.22,5.62,2.09,8.06,3.73.21,7.43,2.59,7.21,6.69l-2-.06c-.2-.73-.21-1.42-.58-2.11-1.06-1.95-4.3-2.84-6.36-2.36-.5-4.04-4.81-5.79-2.77-10.35,1.22-2.73,4.51-3.12,7.16-2.69Z" style="fill: #181818;"/>
  <path d="M45.39,4.16v1.99h1.99v1.7h-1.99l.07,1.42c3.89.92,4.55,6.44.68,7.9-4.84,1.83-8.33-4.61-3.63-7.46.97-.59,1.38-.22,1.18-1.87h-1.99v-1.7s1.85-.06,1.85-.06l.13-1.92h1.7ZM44.22,11.14c-3.44.37-1.87,5.83,1.35,4.19,2.21-1.13,1.2-4.46-1.35-4.19Z" style="fill: #181818;"/>
  <path d="M138.47,69.12v3.12h2.98v1.99h-2.98v8.51h2.77c.44.53.12,1.46.21,2.13h-5.39v-10.64h-1.84v-1.99c.39.08,1.84.02,1.84-.5v-2.62h2.41Z" style="fill: #181818;"/>
  <path d="M87.53,72.24l.07,1.42c1.4-1.02,2.48-1.7,4.33-1.42v1.99c-1.39-.13-2.98.12-3.81,1.37-.14.22-.59,1.2-.59,1.39v7.87h-2.41v-12.62h2.41Z" style="fill: #181818;"/>
  <rect x="105.83" y="72.24" width="2.55" height="12.62" style="fill: #181818;"/>
  <rect x="42.98" y="72.24" width="2.41" height="12.62" style="fill: #181818;"/>
  <path d="M58.44,84.86v4.11h-2.27c-.09-.63.22-1.49-.21-1.99h-7.59c.09-.67-.23-1.59.21-2.13h9.86Z" style="fill: #181818;"/>
  <path d="M40.85,23.45c-.51.14-.91.46-1.42.63-2.35.79-4.94.43-7.23-.42-.34-.13-1.98-.83-2.13-.99-.42-.45.28-1.44.57-1.85l.19-.05c1.73.78,3.75,1.86,5.7,1.84.49,0,1.25-.33,1.67-.27.26.04.73.39,1.06.5.52.17,1.26.24,1.6.6Z" style="fill: #181818;"/>
  <path d="M48.23,23.45c-.12-.17,1.4-.54,1.6-.6,1.49-.44,1.08-.15,2.45-.14,1.97.02,4.11-1.09,5.84-1.93.47-.04.97,1.23,1.03,1.62.02.19-.1.24-.23.33-.4.3-2.02.93-2.57,1.12-2.63.89-5.65,1.03-8.12-.39Z" style="fill: #181818;"/>
  <rect x="58.16" y="41.32" width="2.13" height="5.96" style="fill: #181818;"/>
  <rect x="45.53" y="41.32" width="2.13" height="5.96" style="fill: #181818;"/>
  <rect x="28.65" y="41.32" width="2.13" height="5.96" style="fill: #181818;"/>
  <rect x="41.42" y="41.32" width="1.99" height="5.96" style="fill: #181818;"/>
  <rect x="49.79" y="42.31" width="2.13" height="3.97" style="fill: #181818;"/>
  <rect x="37.16" y="42.31" width="2.13" height="3.97" style="fill: #181818;"/>
  <rect x="32.9" y="42.31" width="2.13" height="3.97" style="fill: #181818;"/>
  <rect x="54.05" y="42.31" width="1.99" height="3.97" style="fill: #181818;"/>
  <path d="M24.48,24.53c-.59.6-1.44.8-2.22,1.04l-.29-1.75c.85-.39,1.22-.63,1.42-1.59l1.76-.04.21.3c-.15.75-.31,1.48-.87,2.04Z" style="fill: #181818;"/>
  <path d="M65.81,22.19c.06.36.19.89.43,1.16.22.24.82.31.86.48.08.32-.15,1.65-.49,1.71-1.64-.3-2.85-1.64-2.63-3.36h1.83Z" style="fill: #181818;"/>
  <rect x="105.83" y="67.98" width="2.55" height="2.55" style="fill: #181818;"/>
  <rect x="42.98" y="67.98" width="2.41" height="2.55" style="fill: #181818;"/>
  <path d="M44.22,1.07c1.97-.43,1.82,2.65-.11,2.04-.98-.31-.9-1.82.11-2.04Z" style="fill: #181818;"/>
  <path d="M39.4,5.89c1.61-.21,1.72,2.73-.4,2.04-.91-.3-.73-1.89.4-2.04Z" style="fill: #181818;"/>
  <path d="M50.32,6.19c.9.9-.26,2.38-1.46,1.67-1.32-.78.32-2.81,1.46-1.67Z" style="fill: #181818;"/>
</svg>