<?xml version="1.0" encoding="UTF-8"?>
<svg id="Layer_1" data-name="Layer 1" xmlns="http://www.w3.org/2000/svg" viewBox="0 0 160 90">
  <path d="M41.03,38.08c0-.44.03-.88-.03-1.32-.46-3.34-3.07-4.35-4.45-7.05-2.76-5.41,2.13-9.64,7.41-7.41,1.51.64,3.38,2.67,5.14,1.96.51-.21.61-.95.69-.97l1.62.02c1.43,2.64,4.19-.27,5.95-1.01,4.86-2.04,9.75,1.44,7.68,6.74-1.27,3.25-5.04,5.07-4.8,8.93l-1.71.11c-.11-1.54.31-3.05,1.08-4.38,1.42-2.46,5.05-4.86,3.97-8.13-.58-1.76-2.33-2.34-4.06-2.16-2.36.24-4.15,2.88-6.69,2.7-.49-.03-.9-.33-1.35-.47v2.41c0,.33.71.41.98.54.94.48,1.48,1.39,1.61,2.43,3.1-.06,4.15,4.02,1.55,5.51-.9.51-2.25.26-2.4,1.53l-1.64-.04c-.33-.2.41-1.58.65-1.83.89-.92,2.85-.73,3.09-1.96.31-1.59-1.81-1.77-2.91-1.56.13-1.25-.14-2.89-1.71-2.94-1.73-.06-1.97,1.57-1.82,2.94-1.09-.11-2.99-.21-2.95,1.35.04,1.26,1.44,1.19,2.29,1.6.92.44,1.55,1.41,1.48,2.45h-1.64c-.11-1.21-1.3-1.03-2.16-1.42-2.92-1.35-1.92-5.68,1.33-5.63.05-1.55,1.14-2.36,2.47-2.87v-2.41c-3.01,1.51-5.26-2.08-7.93-2.35-2.93-.29-5,1.68-4.06,4.64.76,2.36,3.14,3.73,4.22,5.88.63,1.26.86,2.75.84,4.15h-1.76Z" style="fill: #181818;"/>
  <path d="M47.96,77.98h-2.41c-1.23-1.69-2.02-3.71-3.4-5.28h-2.41v5.28h-2.23v-13.96h6.05c1.63,0,3.47,1.56,3.76,3.16.44,2.43-.36,4.5-2.76,5.34l3.4,5.46ZM39.74,70.94h2.99c.2,0,1-.2,1.23-.29,1.64-.65,1.75-3.3.41-4.28-.34-.25-1.25-.59-1.64-.59h-2.99v5.16Z" style="fill: #181818;"/>
  <path d="M93.27,64.02v7.74l.42-.11,3.87-4.11h2.52l-4.19,4.52,4.42,5.93h-2.52l-3.28-4.35c-.26-.47-1.24.58-1.24.65v3.7h-2.11v-13.96h2.11Z" style="fill: #181818;"/>
  <path d="M124.15,75.05c-.58,2.47-2.85,3.38-5.22,3.17-6.14-.56-5.87-11.77,1.61-10.76,1.71.23,3.73,2.12,3.73,3.9v2.05h-7.51c-.35,3.02,4.04,4.5,5.28,1.64h2.11ZM122.27,71.88c.03-2.75-3.31-3.85-4.99-1.65-.2.26-.89,1.65-.35,1.65h5.34Z" style="fill: #181818;"/>
  <path d="M82.12,77.98h-2c-.07-.21.17-1-.18-.94-1.21,1-2.37,1.37-3.96,1.14-1.08-.16-2.38-1.13-2.55-2.27-.59-3.92,3.49-3.86,6.22-4.45.75-.26.36-1.33,0-1.76-.9-1.08-3.69-.87-3.88.76h-2.11c.41-3.43,6.21-4.13,7.91-1.51.14.22.54,1.01.54,1.22v7.8ZM79.86,72.96c-.98.32-4.13.5-4.4,1.7-.39,1.68,1.45,2.29,2.79,1.85,1.41-.46,2.09-2.06,1.83-3.47l-.21-.09Z" style="fill: #181818;"/>
  <path d="M72.03,70.47h-2c-.21-2.38-5.2-1.59-3.81.58.81,1.26,5.44.56,5.9,3.26.85,5.05-8.07,5.25-8.66.62h2.05c.53,1.55,2.63,2.14,3.97,1.27.8-.52.77-1.66-.07-2.12-1.63-.89-4.67-.31-5.36-2.74-1.35-4.79,7.58-5.44,7.98-.87Z" style="fill: #181818;"/>
  <path d="M62.4,67.54v1.64h-1.06c-.08.07.7,1.07.79,1.27,1.33,2.77-.73,5.75-3.67,6.01-3.29.29-5.76-1.67-5.46-5.1.16-1.78,1.97-3.82,3.81-3.82h5.58ZM57.44,69.21c-3.22.34-2.97,5.09-.38,5.47,4.68.7,4.43-5.9.38-5.47Z" style="fill: #181818;"/>
  <path d="M63.69,39.14v1.64h-26.18c.07-.52-.18-1.24.18-1.64h26Z" style="fill: #181818;"/>
  <path d="M63.69,48.06v1.64h-26.18c.07-.52-.18-1.24.18-1.64h26Z" style="fill: #181818;"/>
  <polygon points="106.89 67.54 109.53 75.4 112.35 67.54 114.41 67.54 110.76 77.97 108.59 77.99 104.66 67.54 106.89 67.54" style="fill: #181818;"/>
  <path d="M69.44,34.21c-2.65-.14-5.67.75-5.75,3.87-.34-.06-1.65.17-1.75-.19-.04-.15.21-1.31.29-1.56.74-2.43,3.42-3.64,5.79-3.78.43-1.78,2.5-3.11,2.36-5.07-.15-2.11-2.33-2.66-4.09-2.32l-.6-1.63c.77-.02,1.5-.18,2.29-.12,3.07.24,4.69,2.74,3.93,5.68-.47,1.79-2.44,3.13-2.46,5.11Z" style="fill: #181818;"/>
  <path d="M35.51,23.53l-.58,1.59c-1.07-.05-2.54-.15-3.36.75-2.04,2.24,1.01,4.65,1.73,6.67,3.09.18,6.15,2.15,5.97,5.54l-1.65-.05c-.17-.6-.17-1.18-.48-1.75-.88-1.62-3.56-2.35-5.26-1.95-.41-3.34-3.98-4.79-2.29-8.57,1.01-2.26,3.73-2.58,5.93-2.23Z" style="fill: #181818;"/>
  <path d="M51.36,11.21v1.64h1.64v1.41h-1.64l.05,1.18c3.21.76,3.76,5.33.57,6.54-4,1.51-6.89-3.82-3.01-6.17.8-.48,1.14-.18.98-1.55h-1.64v-1.41s1.53-.05,1.53-.05l.11-1.59h1.41ZM50.4,16.99c-2.85.31-1.55,4.82,1.11,3.47,1.83-.93.99-3.69-1.11-3.47Z" style="fill: #181818;"/>
  <path d="M128.38,64.95v2.58h2.47v1.64h-2.47v7.04h2.29c.37.44.1,1.2.18,1.76h-4.46v-8.8h-1.53v-1.64c.32.06,1.53.02,1.53-.41v-2.17h2Z" style="fill: #181818;"/>
  <path d="M86.23,67.54l.06,1.17c1.16-.84,2.05-1.41,3.58-1.17v1.64c-1.15-.11-2.47.1-3.15,1.13-.12.18-.49.99-.49,1.15v6.51h-2v-10.44h2Z" style="fill: #181818;"/>
  <rect x="101.38" y="67.54" width="2.11" height="10.44" style="fill: #181818;"/>
  <rect x="49.37" y="67.54" width="2" height="10.44" style="fill: #181818;"/>
  <path d="M62.16,77.98v3.4h-1.88c-.07-.52.18-1.24-.18-1.64h-6.28c.08-.56-.19-1.32.18-1.76h8.16Z" style="fill: #181818;"/>
  <path d="M47.61,27.17c-.42.11-.75.38-1.18.52-1.94.65-4.09.36-5.98-.35-.28-.1-1.64-.68-1.76-.82-.35-.37.23-1.19.47-1.53l.15-.04c1.43.64,3.1,1.54,4.72,1.52.41,0,1.03-.27,1.38-.22.22.03.6.32.88.42.43.14,1.04.2,1.32.5Z" style="fill: #181818;"/>
  <path d="M53.71,27.17c-.1-.14,1.15-.45,1.32-.5,1.23-.37.89-.13,2.02-.11,1.63.02,3.4-.9,4.83-1.6.39-.04.8,1.01.86,1.34.01.15-.09.2-.19.27-.33.25-1.67.77-2.13.92-2.18.74-4.68.85-6.72-.32Z" style="fill: #181818;"/>
  <rect x="61.93" y="41.95" width="1.76" height="4.93" style="fill: #181818;"/>
  <rect x="51.48" y="41.95" width="1.76" height="4.93" style="fill: #181818;"/>
  <rect x="37.51" y="41.95" width="1.76" height="4.93" style="fill: #181818;"/>
  <rect x="48.08" y="41.95" width="1.64" height="4.93" style="fill: #181818;"/>
  <rect x="55" y="42.78" width="1.76" height="3.29" style="fill: #181818;"/>
  <rect x="44.55" y="42.78" width="1.76" height="3.29" style="fill: #181818;"/>
  <rect x="41.03" y="42.78" width="1.76" height="3.29" style="fill: #181818;"/>
  <rect x="58.53" y="42.78" width="1.64" height="3.29" style="fill: #181818;"/>
  <path d="M34.06,28.07c-.49.49-1.19.67-1.83.86l-.24-1.45c.7-.32,1.01-.52,1.17-1.32l1.46-.03.17.25c-.12.62-.26,1.22-.72,1.69Z" style="fill: #181818;"/>
  <path d="M68.26,26.12c.05.3.15.74.36.96.18.2.68.26.71.4.06.26-.13,1.37-.41,1.41-1.36-.25-2.35-1.36-2.18-2.78h1.52Z" style="fill: #181818;"/>
  <rect x="101.38" y="64.02" width="2.11" height="2.11" style="fill: #181818;"/>
  <rect x="49.37" y="64.02" width="2" height="2.11" style="fill: #181818;"/>
  <path d="M50.39,8.65c1.63-.35,1.51,2.19-.09,1.68-.81-.26-.74-1.5.09-1.68Z" style="fill: #181818;"/>
  <path d="M46.41,12.64c1.34-.17,1.42,2.26-.33,1.69-.75-.25-.61-1.56.33-1.69Z" style="fill: #181818;"/>
  <path d="M55.44,12.89c.74.74-.21,1.97-1.21,1.38-1.09-.64.27-2.32,1.21-1.38Z" style="fill: #181818;"/>
</svg>