<svg width="48" height="48" viewBox="0 0 48 48" fill="none" xmlns="http://www.w3.org/2000/svg">
<path fill-rule="evenodd" clip-rule="evenodd" d="M23.9033 1.29736C31.9065 1.29736 38.3944 4.5413 38.3944 8.54291C38.3944 8.98423 38.3152 9.41623 38.164 9.83578C38.5836 9.6846 39.0157 9.60559 39.4571 9.60559C43.4587 9.60559 46.7026 16.0935 46.7026 24.0967C46.7026 32.0999 43.4587 38.5878 39.4571 38.5878C39.0408 38.5878 38.6328 38.5173 38.2357 38.3825C38.34 38.7332 38.3944 39.092 38.3944 39.4572C38.3944 43.4588 31.9065 46.7028 23.9033 46.7028C15.9001 46.7028 9.41225 43.4588 9.41225 39.4572C9.41225 39.1149 9.45964 38.778 9.5515 38.4483C9.22183 38.5402 8.8851 38.5878 8.54278 38.5878C4.54118 38.5878 1.29724 32.0999 1.29724 24.0967C1.29724 16.0935 4.54118 9.60559 8.54278 9.60559C8.90793 9.60559 9.26671 9.65982 9.61735 9.76408C9.48258 9.36707 9.41225 8.95911 9.41225 8.54291C9.41225 4.5413 15.9001 1.29736 23.9033 1.29736ZM34.5335 13.4663C31.8868 14.8941 28.104 15.7885 23.9033 15.7885C19.843 15.7885 16.173 14.9529 13.542 13.6076C14.9259 16.2468 15.7883 19.9703 15.7883 24.0967C15.7883 28.0888 14.9809 31.7037 13.6752 34.3246C16.2961 33.0189 19.9112 32.2117 23.9033 32.2117C28.0296 32.2117 31.753 33.074 34.3922 34.4578C33.047 31.8269 32.2116 28.1569 32.2116 24.0967C32.2116 19.896 33.1057 16.113 34.5335 13.4663Z" fill="url(#paint0_linear_452_3024)"/>
<defs>
<linearGradient id="paint0_linear_452_3024" x1="23.9999" y1="1.29736" x2="23.9999" y2="46.7028" gradientUnits="userSpaceOnUse">
<stop offset="0.3" stop-color="#B2FF18"/>
<stop offset="1" stop-color="#FFFEEC"/>
</linearGradient>
</defs>
</svg>
