<?xml version="1.0" encoding="UTF-8"?>
<svg id="Layer_1" data-name="Layer 1" xmlns="http://www.w3.org/2000/svg" viewBox="0 0 160 90">
  <path d="M49.35,43.75v3.76c0,.42,1.05,1.2,1.56,1.06v.38h-4.86c-.05-.4-.03-.31.25-.43.69-.29,1.18,0,1.32-1,.18-1.35.19-6.79-.02-8.09-.19-1.15-1.16-.89-1.45-1.26l.2-.39h6.03c.98,0,3.29,1.12,3.75,2.07,1.16,2.39-2.67,3.52-2.68,3.81,1.74,2.13,2.93,4.79,4.76,6.84.51.57,1.65,1.82,2.38,1.88,1.57.15,2.73-2.52,3.65-1.7,1.16,1.02-1.81,2.01-2.55,2.1-5.17.6-6.34-3.76-8.71-7.13-1.11-1.57-1.43-2.21-3.63-1.9ZM49.35,42.98h3.6c.44,0,1.43-.89,1.57-1.34,1-3.19-3.14-3.82-5.17-2.61v3.95Z" style="fill: #181818;"/>
  <path d="M118.72,37.78c4.05.54,5,4.13.88,5.6v.27c1.54,2.21,2.87,4.92,4.67,6.94.89,1,1.94,2.2,3.45,1.5.4-.19,1.96-2.64,2.68-1.2.54,1.07-2.41,1.86-3.13,1.92-4.62.42-6.16-4.16-8.31-7.19-.19-.26-1.23-1.72-1.33-1.77-.52-.29-1.7,0-2.33-.1v3.76c0,.49,1.06,1.02,1.56.87v.58h-4.67v-.58c.44,0,1.14-.04,1.32-.52.29-.76.02-3.92.03-4.98.02-1.42.9-4.43-1.36-4.52v-.58c2.04.19,4.54-.26,6.52,0ZM115.32,42.98h3.6c.41,0,1.5-.98,1.61-1.49.75-3.25-3.12-3.75-5.21-2.46v3.95Z" style="fill: #181818;"/>
  <path d="M112.2,43.37c.08.69-.75.49-1.09.75-.44.35-.36,3.85-.49,4.72-.19,1.21-.61,2.28-1.63,3.01-1.58,1.12-5.5,1.21-7.09.08-.63-.45-1.22-1.24-.74-1.96,2.23-.88,2.18,2.37,4.52,2.27,2.53-.11,3.66-2.11,3.41-4.44-1.42.57-2.18,1.07-3.8.97-7.03-.46-6.38-12.61,1.35-11.55.64.09,2.04.94,2.16.93.24-.02.35-.85.77-.75l1.07,3.66-.78-.1c-.86-1.15-2.46-2.96-3.99-3-4.82-.14-5.13,11.14,1.12,9.99,1.54-.28,3.12-2.49,1.9-3.72-.44-.44-1.27-.22-1.18-.86h4.48Z" style="fill: #181818;"/>
  <path d="M24.45,37.21c.17.87-1.3,1.33-1.37,2.03-.05.45,1,2.34,1.13,3.12.85,5.36-4.84,8.39-9.2,5.45-.99.35-1.19,1.78-2.43,1.15l1.66-1.91c-.26-.96-.89-1.8-1.11-2.78-1.21-5.47,4.84-8.83,9.24-5.73.71-.45,1.07-1.5,2.07-1.33ZM17.97,38.21c-2.94.5-3.82,5.41-2.58,7.66l6.11-6.28c-.65-1.28-2.19-1.6-3.54-1.37ZM21.82,40.29l-6.13,6.45c4.47,4.48,8.2-2.31,6.13-6.45Z" style="fill: #181818;"/>
  <path d="M67.06,37.78l.97,3.08c-.24.24-2.04-1.27-2.47-1.5-1.15-.63-2.29-1.05-3.65-.8-1.63.3-.68,2.94-.88,4.04,1.46.2,2.92-.62,3.12-2.12.15-.11.58.18.58.29v4.72h-.58c.03-1.98-1.39-2.32-3.11-2.12v3.95c0,.29.6.75.92.83,1.68.38,3.55-.22,4.83-1.3.32-.27,1.49-1.9,1.84-1.54l-1.46,3.66h-9.24c-.06-.68.81-.38,1.26-.96.91-1.18-.26-6.66.09-8.37-.13-.65-.62-1.3-1.35-1.27-.08-.18.17-.58.29-.58h8.85Z" style="fill: #181818;"/>
  <path d="M146.64,48.96c-.11-.65.77-.4,1.18-.86.71-.8.19-1.87.18-2.7-.02-1.28.27-5.7-.29-6.46-.39-.54-1.13-.37-1.07-.97l9.12-.17,1,3.06c-.24.24-2.48-1.54-2.98-1.77-3.51-1.57-4.93-.23-4.04,3.42,1.46.42,2.86-.59,3.13-2.03.14-.1.58.17.58.29v4.72h-.58c-.14-1.99-1.29-2.32-3.12-2.12v4.14c0,.13.63.62.88.67,1.66.31,3.62-.24,4.86-1.34.34-.3,1.44-1.93,1.84-1.54l-1.46,3.66h-9.24Z" style="fill: #181818;"/>
  <path d="M132.93,37.98l1.26,2.8c.03.11-.27.17-.38.18-.44.03-2.7-1.95-3.85-2.17-.62-.12-2.97-.25-2.97.63v3.37c1.4.21,3-.64,3.12-2.12h.58s0,5.01,0,5.01c-.68.05-.56-.78-.8-1.23-.67-1.29-1.64-.81-2.9-.89v3.76c0,1.34,2.22,1.12,3.12.97,1.7-.28,3.11-1.54,4.07-2.91l.59.11-1.39,3.44-9.31.22v-.58c.68.1,1.18-.25,1.32-.91.23-1.03.11-3.98.05-5.17-.05-1-.29-2.13-.29-3.18-.18-.56-.72-.75-1.28-.76v-.57s9.05,0,9.05,0Z" style="fill: #181818;"/>
  <path d="M87.49,45.49l-.6-.11c-.19-1.03-.5-1.83-1.65-1.99-.61-.09-1.77-.21-1.63.63l.36,3.85c1.54,1,3.88.28,5.25-.76.6-.45.93-1.03,1.41-1.49.26-.25.26-.42.75-.32l-1.35,3.57c-2.5.22-5.01.02-7.51.08-.51.01-1.55.5-1.84-.09-.19-.39.58-.28.89-.47.22-.14.42-.43.47-.69-.17-2.42.24-5.15.02-7.52-.04-.44-.13-.97-.42-1.32-.45-.54-1.23-.23-1.14-.89l9.02-.16c.42.14,1.45,2.9,1.3,3.05-1.75-.45-2.8-2.08-4.79-2.29-.71-.07-2.41.08-2.41,1.04v2.99c1.43.24,3.08-.35,3.11-1.93h.58c-.21.52.2,1.34.2,1.64v3.18Z" style="fill: #181818;"/>
  <path d="M69.2,48.96c-.09-.64.77-.33,1.18-.86.56-.74.17-1.42.18-2.12,0-1.81.26-4.7,0-6.35-.05-.32-.17-.54-.37-.79-.42-.51-1.02-.28-.98-.86l3.5-.1,5.25,8.58v-7.03c0-.38-1.02-1.31-1.56-1.06v-.58h3.89v.58c-.45-.07-1.36.15-1.36.68v9.92l-1.57-.28-5.83-9.35v8.19c0,.47,1.06,1.09,1.56,1.06v.38s-3.89,0-3.89,0Z" style="fill: #181818;"/>
  <path d="M138.57,37.78l5.35,8.67v-7.22c0-.86-1.62-.73-1.56-1.44h3.89v.58s-1.36.48-1.36.48v10.11l-1.46-.19-5.94-9.63v8.38c0,.51,1.01,1.09,1.56.87v.58h-3.89c-.08-.68.73-.49,1.09-.76.92-.69.33-4.56.27-5.69-.07-1.43.66-4.12-1.35-4.15v-.57s3.4,0,3.4,0Z" style="fill: #181818;"/>
  <path d="M10.27,37.63c.16-.1.37-.03.54-.03-.04.38,1.29,3.29.5,3.27-1.42-1.38-2.74-3.16-5.02-2.65-1.33.3-1.94,1.92-.79,2.82,1.66,1.31,6.78.97,6.89,4.37.12,3.68-5.6,4.58-7.89,2.4-1.1,2.52-1.52-2.18-1.85-3.08.6-.51,1.76,1.42,2.16,1.81,1.52,1.46,4.21,2.68,5.59.38,1.95-3.25-4.26-3.24-6.01-4.59-2.51-1.93-.51-4.96,2.27-5.1,1.24-.06,3.11.96,3.28.94.16-.02.24-.48.32-.53Z" style="fill: #181818;"/>
  <path d="M32.64,37.81l.45-.02,1.08,3.07c-.92.21-.89-.48-1.35-.87-1.21-1.04-2.25-1.9-3.99-1.62-.94.15-1.65,1.05-1.47,2,.38,1.97,6.77,1.54,7.35,4.68s-3.19,4.61-5.88,3.89c-.6-.16-1.66-.95-1.76-.95-.18,0-.45,1.06-1.07.77l-.78-3.85c.39-.39,2.24,2.02,2.74,2.39s1.46.96,2.08,1.04c1.06.14,2.65-.52,3-1.56,1.41-4.14-7.04-2.03-7.25-6.2-.17-3.34,4.38-3.97,6.53-2.22l.32-.55Z" style="fill: #181818;"/>
  <path d="M37.68,49.15v-.58s1.23-.18,1.23-.18c.56-.34.29-3.89.32-4.74.03-.91.62-4.44-.12-4.92-1.09-.7-3.61,1.04-3.95,2.24l-.57-.2.97-2.98c2.5.1,5.59.44,8.06.18.5-.05.72-.27,1.16-.39.08.94.72,1.98.8,2.89.03.3.13.35-.21.58-1.37-.82-2.55-2.89-4.38-2.31v9.34c0,.41,1.19.59,1.56.48v.58h-4.87Z" style="fill: #181818;"/>
</svg>