<svg width="48" height="48" viewBox="0 0 48 48" fill="none" xmlns="http://www.w3.org/2000/svg">
<path fill-rule="evenodd" clip-rule="evenodd" d="M34.5751 2.27051C40.7356 2.27051 45.7297 7.26459 45.7297 13.4251C45.7297 18.3417 42.5487 22.5153 38.1325 24.0002C42.5487 25.4852 45.7297 29.6587 45.7297 34.5754C45.7297 40.7359 40.7356 45.73 34.5751 45.73C29.6585 45.73 25.485 42.5489 24 38.1328C22.515 42.5489 18.3415 45.73 13.4249 45.73C7.26435 45.73 2.27026 40.7359 2.27026 34.5754C2.27026 29.6588 5.45113 25.4853 9.86718 24.0002C5.45113 22.5152 2.27026 18.3416 2.27026 13.4251C2.27026 7.26459 7.26435 2.27051 13.4249 2.27051C18.3414 2.27051 22.5149 5.45138 24 9.86743C25.4851 5.45138 29.6586 2.27051 34.5751 2.27051ZM24 16.9825C22.8907 20.2814 20.2812 22.8909 16.9823 24.0002C20.2811 25.1095 22.8907 27.7189 24 31.0177C25.1093 27.719 27.7187 25.1096 31.0175 24.0002C27.7187 22.8909 25.1093 20.2813 24 16.9825Z" fill="url(#paint0_linear_452_3020)"/>
<defs>
<linearGradient id="paint0_linear_452_3020" x1="8.78918" y1="32.6921" x2="38.7762" y2="24.0002" gradientUnits="userSpaceOnUse">
<stop offset="0.3" stop-color="#E33C54"/>
<stop offset="1" stop-color="#181818"/>
</linearGradient>
</defs>
</svg>
