<svg width="48" height="48" viewBox="0 0 48 48" fill="none" xmlns="http://www.w3.org/2000/svg">
<path d="M20.4146 7.10993C21.9771 4.29669 26.0229 4.29669 27.5854 7.10993L27.9578 7.78049C28.8838 9.44768 30.8367 10.2566 32.6703 9.73249L33.4078 9.52168C36.5019 8.63725 39.3627 11.4981 38.4783 14.5922L38.2675 15.3297C37.7434 17.1633 38.5523 19.1162 40.2195 20.0422L40.8901 20.4146C43.7033 21.9771 43.7033 26.0229 40.8901 27.5854L40.2195 27.9578C38.5523 28.8838 37.7434 30.8367 38.2675 32.6703L38.4783 33.4078C39.3627 36.5019 36.5019 39.3627 33.4078 38.4783L32.6703 38.2675C30.8367 37.7434 28.8838 38.5523 27.9578 40.2195L27.5854 40.8901C26.0229 43.7033 21.9771 43.7033 20.4146 40.8901L20.0422 40.2195C19.1162 38.5523 17.1633 37.7434 15.3297 38.2675L14.5922 38.4783C11.4981 39.3627 8.63725 36.5019 9.52168 33.4078L9.73249 32.6703C10.2566 30.8367 9.44768 28.8838 7.78049 27.9578L7.10993 27.5854C4.29669 26.0229 4.29669 21.9771 7.10993 20.4146L7.78049 20.0422C9.44768 19.1162 10.2566 17.1633 9.73249 15.3297L9.52168 14.5922C8.63725 11.4981 11.4981 8.63725 14.5922 9.52168L15.3297 9.73249C17.1633 10.2566 19.1162 9.44768 20.0422 7.78049L20.4146 7.10993Z" fill="url(#paint0_linear_483_1818)"/>
<defs>
<linearGradient id="paint0_linear_483_1818" x1="24" y1="5" x2="24" y2="43" gradientUnits="userSpaceOnUse">
<stop offset="0.3" stop-color="#B2FF18"/>
<stop offset="1" stop-color="#FFFEEC"/>
</linearGradient>
</defs>
</svg>
