<svg width="117" height="65" viewBox="0 0 117 65" fill="none" xmlns="http://www.w3.org/2000/svg">
<g clip-path="url(#clip0_825_6578)">
<path d="M74.4791 28.6012L75.0769 26.1348L88.5318 26.1438C90.5132 26.3747 91.0863 27.5469 90.9138 29.4272L87.6746 42.5618L73.7698 42.576C72.7025 42.4321 71.424 42.1105 71.1698 40.9032C70.9157 39.696 71.8 36.2246 72.2409 34.9707C73.9539 30.1002 80.2664 32.1672 84.1773 31.69C84.2798 31.6238 84.7531 29.5685 84.7142 29.3195C84.6675 29.02 84.119 28.5999 83.8713 28.5999H74.4804L74.4791 28.6012ZM83.5458 34.2951H79.465C79.1279 34.2951 78.5353 34.9564 78.3913 35.2923C78.1294 35.9018 77.5731 38.1179 77.4914 38.7922C77.4616 39.0385 77.411 39.2564 77.4849 39.508C77.7857 40.5298 81.1495 39.9709 82.0416 40.1265L83.5458 34.2951Z" fill="#181818"/>
<path d="M37.3045 40.1188L36.6639 42.5203L22.3583 42.5631C20.0112 42.1313 20.0437 40.3911 20.4003 38.4356C20.8541 35.9433 21.7009 32.4304 22.475 30.025C23.1623 27.8893 24.2866 26.4862 26.6207 26.1439C30.0791 26.3397 33.8227 25.8794 37.2461 26.1374C38.5532 26.236 39.7306 26.695 39.8966 28.1486C40.1845 30.6695 38.574 34.1045 38.1499 36.628L26.9488 36.7615C26.989 37.5525 26.1435 39.0153 26.5455 39.6766C26.5986 39.7648 27.0784 40.1201 27.1368 40.1201H37.3045V40.1188ZM32.6414 34.1655C32.7179 32.8208 33.7475 30.6967 33.6892 29.4402C33.658 28.7711 33.1938 28.6531 32.5831 28.5947C31.7207 28.5117 29.6109 28.4235 29.0728 29.1121C28.405 29.968 28.1573 33.0179 27.719 34.1655H32.6414Z" fill="#181818"/>
<path d="M9.58543 22.6475L11.5292 38.5648L21.243 22.6475H24.6107L12.188 42.4939L5.29584 42.5017L2.46118 22.6475H9.58543Z" fill="#181818"/>
<path d="M110.877 26.1419L110.151 28.6083L100.969 28.6005C99.6046 28.6537 99.3427 30.3822 99.4127 31.4494C99.5593 31.736 100.258 31.8138 100.576 31.8398C102.498 32.0019 106.632 31.3094 108.032 32.5426C108.76 33.1832 108.741 34.0624 108.64 34.9701C108.502 36.2072 107.464 40.0429 106.733 40.9584C106.211 41.6119 104.635 42.5767 103.819 42.5767H90.4121L91.1448 40.1116L100.062 40.1181C101.407 40.4254 102.426 37.3561 101.523 36.9683C99.274 36.6143 96.5833 37.216 94.3944 36.722C91.6297 36.0982 92.8655 32.0343 93.4568 30.1527C93.9509 28.5811 95.2632 26.1406 97.2122 26.1406H110.877V26.1419Z" fill="#181818"/>
<path d="M59.8429 26.1426L59.1103 28.6077L49.9346 28.6025C49.3562 28.6686 49.0204 28.8385 48.7675 29.3779C48.5471 29.8486 48.0803 31.349 48.5808 31.6381C49.4107 32.1153 53.6834 31.7315 54.9905 31.8339C57.1224 32.0012 57.8745 33.0114 57.6086 35.1056C57.4401 36.436 56.4974 39.9554 55.696 40.959C55.1487 41.645 53.6601 42.5799 52.7848 42.5799H39.5076L40.1054 40.1136L49.0295 40.1213C49.6467 40.0552 50.2627 39.7518 50.5272 39.1592C50.946 38.2177 51.2689 37.0027 49.9424 36.8808C48.1036 36.7122 43.9878 37.3113 42.5523 36.3699C41.5603 35.7202 41.5979 34.2588 41.7302 33.215C42.0077 31.0131 43.3122 26.1452 46.1806 26.1452H59.8455L59.8429 26.1426Z" fill="#181818"/>
<path d="M69.2986 40.1185L68.7682 42.5641C66.534 42.4422 64.052 42.7703 61.8463 42.581C60.1087 42.4318 59.4823 41.4347 59.3254 39.793C60.1878 34.9834 61.6764 30.297 62.7216 25.5225L69.816 22.1289L68.9096 26.1397H72.2772L71.6366 28.5412C71.3293 28.7578 69.0639 28.4881 68.4557 28.5983C68.2625 28.6333 68.1653 28.7033 68.1017 28.8914L65.6859 38.6415L65.7339 39.7307C65.8091 39.8786 66.3913 40.1172 66.5132 40.1172H69.2986V40.1185Z" fill="#181818"/>
<path d="M111.103 37.691C115.009 37.0245 115.197 43.0789 111.199 42.5796C108.548 42.249 108.639 38.1111 111.103 37.691ZM110.145 41.7562C112.283 43.7519 115.258 40.4789 113.196 38.5144C111.043 36.4617 108.098 39.8461 110.145 41.7562Z" fill="#181818"/>
<path d="M110.877 38.8239C112.117 38.5632 113.404 39.2881 112.162 40.3307L112.56 41.4108C111.83 41.2345 112.153 40.1128 111.136 40.3761C111.013 40.4941 111.4 41.5548 110.877 41.4121V38.8239ZM111.135 40.1193L112.174 40.0558C112.757 39.3231 111.851 38.9302 111.135 39.0832V40.1193Z" fill="#181818"/>
</g>
<defs>
<clipPath id="clip0_825_6578">
<rect width="116.706" height="64.8366" fill="white"/>
</clipPath>
</defs>
</svg>
