<svg width="155" height="28" viewBox="0 0 155 28" fill="none" xmlns="http://www.w3.org/2000/svg">
<path d="M8.99229 17.3241V21.0283H6.76977C5.1859 21.0283 3.95116 20.6451 3.06555 19.8787C2.17995 19.0953 1.73715 17.8265 1.73715 16.0723V10.401H0V6.77346H1.73715V3.29917H6.10556V6.77346H8.96675V10.401H6.10556V16.1234C6.10556 16.5492 6.20775 16.8557 6.41212 17.0431C6.61649 17.2304 6.9571 17.3241 7.43397 17.3241H8.99229Z" fill="#181818"/>
<path d="M31.8881 6.77346L28.0307 21.0283H23.2024L20.9543 11.7805L18.6296 21.0283H13.8269L9.94389 6.77346H14.3123L16.3305 16.9664L18.7318 6.77346H23.3557L25.7826 16.9153L27.7752 6.77346H31.8881Z" fill="#181818"/>
<path d="M46.9914 13.671C46.9914 14.0797 46.9658 14.5055 46.9147 14.9483H37.0283C37.0965 15.8339 37.3775 16.5151 37.8714 16.992C38.3823 17.4518 39.0039 17.6817 39.7362 17.6817C40.8262 17.6817 41.5841 17.2219 42.0099 16.3022H46.6593C46.4209 17.2389 45.9866 18.0819 45.3564 18.8313C44.7433 19.5807 43.9684 20.1682 43.0317 20.594C42.095 21.0198 41.0476 21.2327 39.8895 21.2327C38.493 21.2327 37.2497 20.9346 36.1598 20.3385C35.0698 19.7425 34.2182 18.8909 33.6051 17.7839C32.992 16.6769 32.6855 15.3826 32.6855 13.9009C32.6855 12.4192 32.9835 11.1248 33.5796 10.0178C34.1927 8.91083 35.0442 8.05929 36.1342 7.46321C37.2242 6.86713 38.476 6.56909 39.8895 6.56909C41.269 6.56909 42.4952 6.85861 43.5682 7.43766C44.6411 8.01671 45.4756 8.84271 46.0717 9.91565C46.6848 10.9886 46.9914 12.2404 46.9914 13.671ZM42.5208 12.5214C42.5208 11.772 42.2653 11.1759 41.7544 10.7331C41.2435 10.2903 40.6048 10.0689 39.8384 10.0689C39.1061 10.0689 38.4845 10.2818 37.9735 10.7076C37.4797 11.1334 37.1731 11.738 37.0539 12.5214H42.5208Z" fill="#181818"/>
<path d="M57.9817 6.62018C59.6507 6.62018 60.9791 7.16517 61.9669 8.25515C62.9717 9.32809 63.4741 10.8098 63.4741 12.7002V21.0283H59.1313V13.2878C59.1313 12.334 58.8843 11.5932 58.3904 11.0652C57.8965 10.5373 57.2323 10.2733 56.3978 10.2733C55.5633 10.2733 54.8991 10.5373 54.4052 11.0652C53.9113 11.5932 53.6644 12.334 53.6644 13.2878V21.0283H49.2959V6.77346H53.6644V8.66389C54.1072 8.03374 54.7032 7.53985 55.4526 7.1822C56.202 6.80752 57.045 6.62018 57.9817 6.62018Z" fill="#181818"/>
<path d="M74.4546 17.3241V21.0283H72.2321C70.6482 21.0283 69.4135 20.6451 68.5279 19.8787C67.6423 19.0953 67.1995 17.8265 67.1995 16.0723V10.401H65.4623V6.77346H67.1995V3.29917H71.5679V6.77346H74.4291V10.401H71.5679V16.1234C71.5679 16.5492 71.6701 16.8557 71.8745 17.0431C72.0788 17.2304 72.4195 17.3241 72.8963 17.3241H74.4546Z" fill="#181818"/>
<path d="M91.4493 6.77346L82.5081 27.7981H77.8076L81.0775 20.5429L75.2785 6.77346H80.1579L83.4533 15.6891L86.7233 6.77346H91.4493Z" fill="#181818"/>
<path d="M100.182 10.401H97.8317V21.0283H93.4633V10.401H91.8794V6.77346H93.4633V6.36472C93.4633 4.61054 93.9657 3.28213 94.9705 2.3795C95.9753 1.45983 97.4485 1 99.39 1C99.7136 1 99.952 1.00852 100.105 1.02555V4.72976C99.2708 4.67867 98.6832 4.79788 98.3426 5.08741C98.002 5.37693 97.8317 5.89637 97.8317 6.64573V6.77346H100.182V10.401Z" fill="#181818"/>
<path d="M108.723 21.2327C107.327 21.2327 106.067 20.9346 104.943 20.3385C103.836 19.7425 102.958 18.8909 102.311 17.7839C101.681 16.6769 101.366 15.3826 101.366 13.9009C101.366 12.4362 101.69 11.1504 102.337 10.0434C102.984 8.91935 103.87 8.05929 104.994 7.46321C106.118 6.86713 107.378 6.56909 108.774 6.56909C110.171 6.56909 111.431 6.86713 112.555 7.46321C113.679 8.05929 114.565 8.91935 115.212 10.0434C115.859 11.1504 116.183 12.4362 116.183 13.9009C116.183 15.3655 115.851 16.6599 115.187 17.7839C114.539 18.8909 113.645 19.7425 112.504 20.3385C111.38 20.9346 110.12 21.2327 108.723 21.2327ZM108.723 17.4518C109.558 17.4518 110.265 17.1453 110.844 16.5321C111.44 15.919 111.738 15.0419 111.738 13.9009C111.738 12.7598 111.448 11.8827 110.869 11.2696C110.307 10.6565 109.609 10.3499 108.774 10.3499C107.923 10.3499 107.216 10.6565 106.654 11.2696C106.092 11.8657 105.811 12.7428 105.811 13.9009C105.811 15.0419 106.084 15.919 106.629 16.5321C107.191 17.1453 107.889 17.4518 108.723 17.4518Z" fill="#181818"/>
<path d="M132.576 6.77346V21.0283H128.208V19.0868C127.765 19.7169 127.161 20.2278 126.394 20.6195C125.645 20.9942 124.81 21.1816 123.891 21.1816C122.801 21.1816 121.838 20.9431 121.004 20.4663C120.169 19.9724 119.522 19.2656 119.062 18.3459C118.603 17.4263 118.373 16.3448 118.373 15.1015V6.77346H122.716V14.514C122.716 15.4677 122.963 16.2086 123.456 16.7365C123.95 17.2645 124.615 17.5284 125.449 17.5284C126.301 17.5284 126.973 17.2645 127.467 16.7365C127.961 16.2086 128.208 15.4677 128.208 14.514V6.77346H132.576Z" fill="#181818"/>
<path d="M140.083 9.14926C140.594 8.36584 141.232 7.75273 141.999 7.30993C142.765 6.8501 143.617 6.62018 144.553 6.62018V11.2441H143.353C142.263 11.2441 141.445 11.4825 140.9 11.9594C140.355 12.4192 140.083 13.2367 140.083 14.4118V21.0283H135.714V6.77346H140.083V9.14926Z" fill="#181818"/>
</svg>
